M48
;Layer_Color=9474304
;FILE_FORMAT=4:4
METRIC,LZ
;TYPE=PLATED
T1F00S00C0.4000
T2F00S00C0.6000
T3F00S00C1.0000
T4F00S00C1.9400
%
T01
X00055155Y00029465
Y00084465
X00075946Y00067564
X00075819Y00122936
X00055155Y00139465
Y00194465
X000762Y00177292
X00075775Y0023358
X00055155Y00249465
Y00304465
X00075692Y00287401
X00075565Y003429
X00055155Y00359465
X00135155
X00155575Y00342011
X00156083Y0039624
X00236083
X00235575Y00342011
X00215155Y00359465
Y00304465
X00235829Y00285877
X00235575Y00231775
X00215155Y00249465
Y00194465
X00236083Y00176784
X00235575Y00121285
X00215155Y00139465
Y00084465
X00235194Y0006604
X00215155Y00029465
X00295155
Y00084465
X00315849Y00066675
X00315722Y00121666
X00295155Y00139465
Y00194465
X00315749Y00176122
X00315595Y00231902
X00295155Y00249465
Y00304465
X00316103Y00286893
X00316611Y00341503
X00295155Y00359465
X00375155
X00395986Y00342138
X00395732Y00396494
Y0028702
X00375155Y00304465
Y00249465
X00395732Y00232029
X0039624Y00176784
X00375155Y00194465
Y00139465
X00396367Y00122174
X00395986Y00067183
X00375155Y00084465
Y00029465
X00135155
Y00084465
X00155194Y0006604
X00155575Y00121285
X00135155Y00139465
Y00194465
X00156083Y00176784
X00155575Y00231775
X00135155Y00249465
Y00304465
X00155829Y00285877
X00455155Y00304465
X00475869Y00286893
Y00231775
X00455155Y00249465
Y00194465
X00475869Y00176657
X0047625Y0012192
X00455155Y00139465
Y00084465
X00475869Y00066421
X00455155Y00029465
X00535155
Y00084465
X00555625Y00066421
X00555879Y00121412
X00535155Y00139465
Y00194465
X00556006Y00176657
Y00231521
X00535155Y00249465
Y00304465
X00555752Y0028702
X00555879Y00342138
X00535155Y00359465
X00556641Y00396748
X00626839Y0039058
X00615155Y00359465
X00626839Y0033558
X00615155Y00304465
X00626839Y0028058
X00615155Y00249465
X00626839Y0022558
X00615155Y00194465
X00626839Y0017058
X00615155Y00139465
X00626839Y0011558
X00615155Y00084465
X00626839Y0006058
X00615155Y00029465
X00688975Y00116205
X00746252Y00174625
X00785876Y00213233
X00748453Y00392388
X00475869Y00396494
X0047625Y00342011
X00455155Y00359465
X0095769Y00276016
X01024862Y00330101
X01086104Y00371729
X01170686Y00353187
X01169639Y00209736
X01085057Y00228278
X01023815Y0018665
X00958383Y00132647
X01022912Y00043602
X01086145Y00084514
X01170727Y00065972
X01170686Y00495173
X01086104Y00513715
X01024862Y00472087
X00958342Y00419862
Y00561848
X0102537Y00614835
X01086612Y00656463
X01171194Y00637921
X01170686Y00779526
X01024862Y0075644
X0095885Y00704596
X00679196Y00721741
Y00747268
Y00670179
Y00645922
Y00619125
X00679069Y00597492
X00690118Y00541155
X00710311Y00552788
X00771017Y00551307
X00765597Y00538943
X006626Y00496824
X0062103Y00481778
X00603377
X00592201Y00509778
X00548865Y00510794
X00537972Y00473778
X00523574Y00456271
X00546898Y00445521
X00535214Y00414406
X00455214
X00466898Y00445521
X00456819Y00465031
X00443574Y00456271
X00477907Y00475833
X00501142Y00521794
X0053616Y00566922
X00574929Y00564134
X00593344Y00565155
X0062611Y00583057
X00536321Y00625729
X00509342Y00599655
X00456086Y0060805
X00445324Y00580324
X0041402Y00581533
X00412202Y00605876
X0040259Y00561213
X00404114Y00536067
X00401143Y00494323
X00569436Y00472408
X00626898Y00445521
X00615214Y00414406
X00691302Y00450088
X00570806Y00714815
X00357535Y00605876
X00371983Y00544576
Y00491236
X00382718Y0048305
X00386898Y00445521
X00375214Y00414406
X00315849Y00397002
X00295214Y00414406
X00306898Y00445521
X00305562Y00472313
X00330581Y00459232
X0027085Y00495124
X00224028Y00497078
X00232664Y00469461
X00226898Y00445521
X00215509Y0041402
X00135509
X00146898Y00445521
X00135255Y00495935
X00110109Y0050038
X00091643Y00495757
X00066898Y00445521
X00053967Y00413512
X00075775Y0039858
X00051263Y00536448
X00040513Y00553974
X000295Y00573024
X00019685Y00591185
X00119154Y00641505
X00181483Y00652653
X00180848Y00592328
X00187833Y00484505
X0017145Y00484437
X00245197Y00822285
X00515239Y00826008
X0064643Y0082423
X006443Y0089154
X00643001Y00950468
X00642848Y01011589
X00710184Y01010539
X00719582Y00961517
X00697103Y00859917
X00685419Y00870331
X00718439Y00823595
X00722377Y01095427
X00760969Y01094853
X00781177Y01077976
X00453136Y01088771
X00957961Y01129792
X00958088Y00988187
X01024481Y01040031
X01085723Y01081659
X01170305Y01063117
X01170432Y00921512
X0108585Y00940054
X01024608Y00898426
X00958342Y00846201
X01086104Y00798068
T02
X00710692Y00067183
X00761492
X00736092Y00092583
T03
X00712216Y00224663
X00803021Y00255778
X00828421
X00887445Y00201481
X00931768Y00188146
X00982568
X01056046Y00144839
X01138651Y00200719
X01139698Y0034417
X01054958Y00288603
X00983615Y00331597
X00932815
X00888492Y00344932
X00888533Y00057717
X00932856Y00044382
X00983656
X01139739Y00056955
X01139698Y00486156
X01056005Y00432054
X00983615Y00473583
X00932815
X00888492Y00486918
X00889Y00629666
X00933323Y00616331
X00984123
X01056005Y0057404
X01140206Y00628904
X01139698Y00770509
X01056513Y00716788
X00983615Y00757936
X00932815
X00888492Y00771271
X00734187Y0076073
Y0078613
X00708787
Y0076073
Y0073533
X00734187
Y0070993
Y0068453
Y0065913
Y0063373
Y0060833
X00708787
Y0063373
Y0065913
Y0068453
Y0070993
X00720344Y00526288
X00745744
Y00500888
X00720344
Y00475488
X00745744
Y00450088
X00720344
Y00424688
X00745744
X00495197Y00772426
X00317397
Y00747026
X00245197Y00772426
X00067397
Y00747026
X00164846Y00540131
Y00514731
X00190246
X00215646
X00241046
X00266446
X00291846
X00317246
X00342646
Y00540131
X00317246
X00291846
X00266446
X00241046
X00215646
X00190246
X00245197Y00797826
Y00848626
Y00874026
X00317397
Y00848626
X00318262Y00986536
Y01011936
Y01088136
Y01113536
X00067397Y00874026
Y00848626
X00495197
Y00874026
Y00797826
X0056872Y00857074
X0059412
X00591693Y00983742
X00566293
X00564261Y01053973
X00589661
X00496062Y01037336
Y01011936
Y01088136
Y01113536
X00695452Y00935863
X00720852
Y00910463
X00695452
X00888238Y00913257
X00932561Y00899922
X00983361
X01056005Y00858393
X01139444Y00912495
X01139317Y010541
X01055751Y01000379
X00983234Y01041527
X00932434
X00888111Y01054862
X01055624Y01141984
T04
X00081826Y01000693
Y01130693
X00234826
Y01000693
M30
