%TF.GenerationSoftware,Altium Limited,Altium Designer,21.6.4 (81)*%
G04 Layer_Color=65535*
%FSLAX45Y45*%
%MOMM*%
%TF.SameCoordinates,70D3979D-B5F9-41FC-A6F4-C74AF17E61BC*%
%TF.FilePolarity,Positive*%
%TF.FileFunction,Legend,Top*%
%TF.Part,Single*%
G01*
G75*
%TA.AperFunction,NonConductor*%
%ADD40C,0.20000*%
%ADD41C,0.10000*%
%ADD42C,0.15400*%
%ADD54C,0.25000*%
%ADD55C,0.60000*%
D40*
X3170668Y9331572D02*
G03*
X2869170Y9030074I0J-301498D01*
G01*
X5258294Y9074016D02*
G03*
X5000738Y9331572I-257556J0D01*
G01*
X4963908Y7044810D02*
G03*
X5258294Y7339196I0J294386D01*
G01*
X2869170Y7333862D02*
G03*
X3158222Y7044810I289052J0D01*
G01*
X670668Y9331572D02*
G03*
X369170Y9030074I0J-301498D01*
G01*
X2758294Y9074016D02*
G03*
X2500738Y9331572I-257556J0D01*
G01*
X2463908Y7044810D02*
G03*
X2758294Y7339196I0J294386D01*
G01*
X369170Y7333862D02*
G03*
X658222Y7044810I289052J0D01*
G01*
X3179318Y11726672D02*
G03*
X2877820Y11425174I0J-301498D01*
G01*
X5266944Y11469116D02*
G03*
X5009388Y11726672I-257556J0D01*
G01*
X4972558Y9439910D02*
G03*
X5266944Y9734296I0J294386D01*
G01*
X2877820Y9728962D02*
G03*
X3166872Y9439910I289052J0D01*
G01*
X11750740Y10003820D02*
X11806620D01*
X11750740Y9790460D02*
X11806620D01*
Y10003820D01*
X11298620Y9790460D02*
X11354500D01*
X11298620D02*
Y10003820D01*
X11354500D01*
X10729420Y10100450D02*
X10785300D01*
X10729420Y9887090D02*
Y10100450D01*
Y9887090D02*
X10785300D01*
X11237420D02*
Y10100450D01*
X11181540Y9887090D02*
X11237420D01*
X11181540Y10100450D02*
X11237420D01*
X8971140Y9777160D02*
Y9833040D01*
X9184500Y9777160D02*
Y9833040D01*
X8971140D02*
X9184500D01*
Y9325040D02*
Y9380920D01*
X8971140Y9325040D02*
X9184500D01*
X8971140D02*
Y9380920D01*
X11896790Y9748660D02*
X11952670D01*
X11896790Y9535300D02*
Y9748660D01*
Y9535300D02*
X11952670D01*
X12404790D02*
Y9748660D01*
X12348910Y9535300D02*
X12404790D01*
X12348910Y9748660D02*
X12404790D01*
X11175190Y9234310D02*
X11231070D01*
X11175190Y9020950D02*
X11231070D01*
Y9234310D01*
X10723070Y9020950D02*
X10778950D01*
X10723070D02*
Y9234310D01*
X10778950D01*
X9465170Y9777160D02*
Y9833040D01*
X9678530Y9777160D02*
Y9833040D01*
X9465170D02*
X9678530D01*
Y9325040D02*
Y9380920D01*
X9465170Y9325040D02*
X9678530D01*
X9465170D02*
Y9380920D01*
X11297330Y9272270D02*
X11353210D01*
X11297330Y9485630D02*
X11353210D01*
X11297330Y9272270D02*
Y9485630D01*
X11749450D02*
X11805330D01*
Y9272270D02*
Y9485630D01*
X11749450Y9272270D02*
X11805330D01*
X10267810Y9325040D02*
Y9380920D01*
Y9325040D02*
X10481170D01*
Y9380920D01*
X10267810Y9833040D02*
X10481170D01*
Y9777160D02*
Y9833040D01*
X10267810Y9777160D02*
Y9833040D01*
X11884380Y10008380D02*
X11961900D01*
X11884380Y9778380D02*
X11961900D01*
X12337720Y10008380D02*
X12415240D01*
Y9998380D02*
Y10008380D01*
Y9975130D02*
Y9998380D01*
X12337720Y9778380D02*
X12415240D01*
Y9814130D01*
Y9975130D01*
X11884380Y9778380D02*
Y10008380D01*
X10589210Y9014670D02*
X10666730D01*
X10589210Y9244670D02*
X10666730D01*
X10135870Y9014670D02*
X10213390D01*
X10135870D02*
Y9024670D01*
Y9047920D01*
Y9244670D02*
X10213390D01*
X10135870Y9208920D02*
Y9244670D01*
Y9047920D02*
Y9208920D01*
X10666730Y9014670D02*
Y9244670D01*
X9213834Y9312630D02*
Y9390150D01*
X9443834Y9312630D02*
Y9390150D01*
X9213834Y9765970D02*
Y9843490D01*
X9223834D01*
X9247084D01*
X9443834Y9765970D02*
Y9843490D01*
X9408084D02*
X9443834D01*
X9247084D02*
X9408084D01*
X9213834Y9312630D02*
X9443834D01*
X9721170Y9844160D02*
X9951170D01*
X9756920Y9313300D02*
X9917920D01*
X9721170D02*
X9756920D01*
X9721170D02*
Y9390820D01*
X9917920Y9313300D02*
X9941170D01*
X9951170D01*
Y9390820D01*
X9721170Y9766640D02*
Y9844160D01*
X9951170Y9766640D02*
Y9844160D01*
X11740220Y9529020D02*
X11817740D01*
X11740220Y9759020D02*
X11817740D01*
X11286880Y9529020D02*
X11364400D01*
X11286880D02*
Y9539020D01*
Y9562270D01*
Y9759020D02*
X11364400D01*
X11286880Y9723270D02*
Y9759020D01*
Y9562270D02*
Y9723270D01*
X11817740Y9529020D02*
Y9759020D01*
X9991836Y9312630D02*
Y9390150D01*
X10221836Y9312630D02*
Y9390150D01*
X9991836Y9765970D02*
Y9843490D01*
X10001836D01*
X10025086D01*
X10221836Y9765970D02*
Y9843490D01*
X10186086D02*
X10221836D01*
X10025086D02*
X10186086D01*
X9991836Y9312630D02*
X10221836D01*
X9949900Y11182690D02*
Y11260210D01*
X9719900Y11182690D02*
Y11260210D01*
X9949900Y10729350D02*
Y10806870D01*
X9939900Y10729350D02*
X9949900D01*
X9916650D02*
X9939900D01*
X9719900D02*
Y10806870D01*
Y10729350D02*
X9755650D01*
X9916650D01*
X9719900Y11260210D02*
X9949900D01*
X9212564Y10728680D02*
Y10806200D01*
X9442564Y10728680D02*
Y10806200D01*
X9212564Y11182020D02*
Y11259540D01*
X9222564D01*
X9245814D01*
X9442564Y11182020D02*
Y11259540D01*
X9406814D02*
X9442564D01*
X9245814D02*
X9406814D01*
X9212564Y10728680D02*
X9442564D01*
X9463900Y10741090D02*
Y10796970D01*
Y10741090D02*
X9677260D01*
Y10796970D01*
X9463900Y11249090D02*
X9677260D01*
Y11193210D02*
Y11249090D01*
X9463900Y11193210D02*
Y11249090D01*
X7273970Y1056330D02*
X7329850D01*
X7273970Y1269690D02*
X7329850D01*
X7273970Y1056330D02*
Y1269690D01*
X7726090D02*
X7781970D01*
Y1056330D02*
Y1269690D01*
X7726090Y1056330D02*
X7781970D01*
X7731060Y2091550D02*
X7786940D01*
Y2304910D01*
X7731060D02*
X7786940D01*
X7278940Y2091550D02*
Y2304910D01*
X7334820D01*
X7278940Y2091550D02*
X7334820D01*
X6683870Y1778700D02*
Y1834580D01*
X6897230Y1778700D02*
Y1834580D01*
X6683870D02*
X6897230D01*
Y1326580D02*
Y1382460D01*
X6683870Y1326580D02*
X6897230D01*
X6683870D02*
Y1382460D01*
X7933010Y2276150D02*
X7988890D01*
X7933010Y2062790D02*
Y2276150D01*
Y2062790D02*
X7988890D01*
X8441010D02*
Y2276150D01*
X8385130Y2062790D02*
X8441010D01*
X8385130Y2276150D02*
X8441010D01*
X7133900Y1325290D02*
Y1381170D01*
X6920540Y1325290D02*
Y1381170D01*
Y1325290D02*
X7133900D01*
X6920540Y1777410D02*
Y1833290D01*
X7133900D01*
Y1777410D02*
Y1833290D01*
X8444510Y1749340D02*
Y1979340D01*
X7913650Y1782590D02*
Y1943590D01*
Y1979340D01*
X7991170D01*
X7913650Y1759340D02*
Y1782590D01*
Y1749340D02*
Y1759340D01*
Y1749340D02*
X7991170D01*
X8366990Y1979340D02*
X8444510D01*
X8366990Y1749340D02*
X8444510D01*
X7799350Y1290870D02*
Y1520870D01*
X7268490Y1324120D02*
Y1485120D01*
Y1520870D01*
X7346010D01*
X7268490Y1300870D02*
Y1324120D01*
Y1290870D02*
Y1300870D01*
Y1290870D02*
X7346010D01*
X7721830Y1520870D02*
X7799350D01*
X7721830Y1290870D02*
X7799350D01*
X4585290Y5687340D02*
X4815290D01*
X4621040Y5156480D02*
X4782040D01*
X4585290D02*
X4621040D01*
X4585290D02*
Y5234000D01*
X4782040Y5156480D02*
X4805290D01*
X4815290D01*
Y5234000D01*
X4585290Y5609820D02*
Y5687340D01*
X4815290Y5609820D02*
Y5687340D01*
X2157350Y6440510D02*
Y6518030D01*
X1927350Y6440510D02*
Y6518030D01*
X2157350Y5987170D02*
Y6064690D01*
X2147350Y5987170D02*
X2157350D01*
X2124100D02*
X2147350D01*
X1927350D02*
Y6064690D01*
Y5987170D02*
X1963100D01*
X2124100D01*
X1927350Y6518030D02*
X2157350D01*
X7435570Y10910670D02*
Y11240670D01*
X6765570Y10910670D02*
Y11240670D01*
X7701420Y11233720D02*
Y11289600D01*
X7488060Y11233720D02*
Y11289600D01*
Y11233720D02*
X7701420D01*
X7488060Y11685840D02*
Y11741720D01*
X7701420D01*
Y11685840D02*
Y11741720D01*
X7479410Y10667290D02*
X7709410D01*
X7512660Y11198150D02*
X7673660D01*
X7709410D01*
Y11120630D02*
Y11198150D01*
X7489410D02*
X7512660D01*
X7479410D02*
X7489410D01*
X7479410Y11120630D02*
Y11198150D01*
X7709410Y10667290D02*
Y10744810D01*
X7479410Y10667290D02*
Y10744810D01*
X6496430Y10667290D02*
X6726430D01*
X6529680Y11198150D02*
X6690680D01*
X6726430D01*
Y11120630D02*
Y11198150D01*
X6506430D02*
X6529680D01*
X6496430D02*
X6506430D01*
X6496430Y11120630D02*
Y11198150D01*
X6726430Y10667290D02*
Y10744810D01*
X6496430Y10667290D02*
Y10744810D01*
X11751990Y3589020D02*
X11807870D01*
Y3802380D01*
X11751990D02*
X11807870D01*
X11299870Y3589020D02*
Y3802380D01*
X11355750D01*
X11299870Y3589020D02*
X11355750D01*
X11184080Y4417200D02*
X11239960D01*
X11184080Y4203840D02*
X11239960D01*
Y4417200D01*
X10731960Y4203840D02*
X10787840D01*
X10731960D02*
Y4417200D01*
X10787840D01*
X11301160Y4320570D02*
X11357040D01*
X11301160Y4107210D02*
Y4320570D01*
Y4107210D02*
X11357040D01*
X11809160D02*
Y4320570D01*
X11753280Y4107210D02*
X11809160D01*
X11753280Y4320570D02*
X11809160D01*
X8973680Y3641790D02*
Y3697670D01*
Y3641790D02*
X9187040D01*
Y3697670D01*
X8973680Y4149790D02*
X9187040D01*
Y4093910D02*
Y4149790D01*
X8973680Y4093910D02*
Y4149790D01*
X12351450Y4065410D02*
X12407330D01*
X12351450Y3852050D02*
X12407330D01*
Y4065410D01*
X11899330Y3852050D02*
X11955210D01*
X11899330D02*
Y4065410D01*
X11955210D01*
X10725610Y3551060D02*
X10781490D01*
X10725610Y3337700D02*
Y3551060D01*
Y3337700D02*
X10781490D01*
X11233610D02*
Y3551060D01*
X11177730Y3337700D02*
X11233610D01*
X11177730Y3551060D02*
X11233610D01*
X9467710Y4093910D02*
Y4149790D01*
X9681070Y4093910D02*
Y4149790D01*
X9467710D02*
X9681070D01*
Y3641790D02*
Y3697670D01*
X9467710Y3641790D02*
X9681070D01*
X9467710D02*
Y3697670D01*
X10270350Y4093910D02*
Y4149790D01*
X10483710Y4093910D02*
Y4149790D01*
X10270350D02*
X10483710D01*
Y3641790D02*
Y3697670D01*
X10270350Y3641790D02*
X10483710D01*
X10270350D02*
Y3697670D01*
X11886920Y4325130D02*
X11964440D01*
X11886920Y4095130D02*
X11964440D01*
X12340260Y4325130D02*
X12417780D01*
Y4315130D02*
Y4325130D01*
Y4291880D02*
Y4315130D01*
X12340260Y4095130D02*
X12417780D01*
Y4130880D01*
Y4291880D01*
X11886920Y4095130D02*
Y4325130D01*
X10591750Y3331420D02*
X10669270D01*
X10591750Y3561420D02*
X10669270D01*
X10138410Y3331420D02*
X10215930D01*
X10138410D02*
Y3341420D01*
Y3364670D01*
Y3561420D02*
X10215930D01*
X10138410Y3525670D02*
Y3561420D01*
Y3364670D02*
Y3525670D01*
X10669270Y3331420D02*
Y3561420D01*
X9216374Y3629380D02*
Y3706900D01*
X9446374Y3629380D02*
Y3706900D01*
X9216374Y4082720D02*
Y4160240D01*
X9226374D01*
X9249624D01*
X9446374Y4082720D02*
Y4160240D01*
X9410624D02*
X9446374D01*
X9249624D02*
X9410624D01*
X9216374Y3629380D02*
X9446374D01*
X9953710Y4083390D02*
Y4160910D01*
X9723710Y4083390D02*
Y4160910D01*
X9953710Y3630050D02*
Y3707570D01*
X9943710Y3630050D02*
X9953710D01*
X9920460D02*
X9943710D01*
X9723710D02*
Y3707570D01*
Y3630050D02*
X9759460D01*
X9920460D01*
X9723710Y4160910D02*
X9953710D01*
X11742760Y3845770D02*
X11820280D01*
X11742760Y4075770D02*
X11820280D01*
X11289420Y3845770D02*
X11366940D01*
X11289420D02*
Y3855770D01*
Y3879020D01*
Y4075770D02*
X11366940D01*
X11289420Y4040020D02*
Y4075770D01*
Y3879020D02*
Y4040020D01*
X11820280Y3845770D02*
Y4075770D01*
X9994376Y3629380D02*
Y3706900D01*
X10224376Y3629380D02*
Y3706900D01*
X9994376Y4082720D02*
Y4160240D01*
X10004376D01*
X10027626D01*
X10224376Y4082720D02*
Y4160240D01*
X10188626D02*
X10224376D01*
X10027626D02*
X10188626D01*
X9994376Y3629380D02*
X10224376D01*
X11301570Y1448420D02*
X11357450D01*
X11301570Y1235060D02*
Y1448420D01*
Y1235060D02*
X11357450D01*
X11809570D02*
Y1448420D01*
X11753690Y1235060D02*
X11809570D01*
X11753690Y1448420D02*
X11809570D01*
X11179325Y1550215D02*
X11235205D01*
X11179325Y1336855D02*
X11235205D01*
Y1550215D01*
X10727205Y1336855D02*
X10783085D01*
X10727205D02*
Y1550215D01*
X10783085D01*
X8974090Y769640D02*
Y825520D01*
Y769640D02*
X9187450D01*
Y825520D01*
X8974090Y1277640D02*
X9187450D01*
Y1221760D02*
Y1277640D01*
X8974090Y1221760D02*
Y1277640D01*
X12351860Y1193260D02*
X12407740D01*
X12351860Y979900D02*
X12407740D01*
Y1193260D01*
X11899740Y979900D02*
X11955620D01*
X11899740D02*
Y1193260D01*
X11955620D01*
X10726020Y678910D02*
X10781900D01*
X10726020Y465550D02*
Y678910D01*
Y465550D02*
X10781900D01*
X11234020D02*
Y678910D01*
X11178140Y465550D02*
X11234020D01*
X11178140Y678910D02*
X11234020D01*
X9475740Y1221760D02*
Y1277640D01*
X9689100Y1221760D02*
Y1277640D01*
X9475740D02*
X9689100D01*
Y769640D02*
Y825520D01*
X9475740Y769640D02*
X9689100D01*
X9475740D02*
Y825520D01*
X11752400Y716870D02*
X11808280D01*
Y930230D01*
X11752400D02*
X11808280D01*
X11300280Y716870D02*
Y930230D01*
X11356160D01*
X11300280Y716870D02*
X11356160D01*
X10270760Y1221760D02*
Y1277640D01*
X10484120Y1221760D02*
Y1277640D01*
X10270760D02*
X10484120D01*
Y769640D02*
Y825520D01*
X10270760Y769640D02*
X10484120D01*
X10270760D02*
Y825520D01*
X11887330Y1452980D02*
X11964850D01*
X11887330Y1222980D02*
X11964850D01*
X12340670Y1452980D02*
X12418190D01*
Y1442980D02*
Y1452980D01*
Y1419730D02*
Y1442980D01*
X12340670Y1222980D02*
X12418190D01*
Y1258730D01*
Y1419730D01*
X11887330Y1222980D02*
Y1452980D01*
X10596360Y463470D02*
X10673880D01*
X10596360Y693470D02*
X10673880D01*
X10143020Y463470D02*
X10220540D01*
X10143020D02*
Y473470D01*
Y496720D01*
Y693470D02*
X10220540D01*
X10143020Y657720D02*
Y693470D01*
Y496720D02*
Y657720D01*
X10673880Y463470D02*
Y693470D01*
X9216784Y757230D02*
Y834750D01*
X9446784Y757230D02*
Y834750D01*
X9216784Y1210570D02*
Y1288090D01*
X9226784D01*
X9250034D01*
X9446784Y1210570D02*
Y1288090D01*
X9411034D02*
X9446784D01*
X9250034D02*
X9411034D01*
X9216784Y757230D02*
X9446784D01*
X9953880Y1203030D02*
Y1280550D01*
X9723880Y1203030D02*
Y1280550D01*
X9953880Y749690D02*
Y827210D01*
X9943880Y749690D02*
X9953880D01*
X9920630D02*
X9943880D01*
X9723880D02*
Y827210D01*
Y749690D02*
X9759630D01*
X9920630D01*
X9723880Y1280550D02*
X9953880D01*
X11738850Y977940D02*
X11816370D01*
X11738850Y1207940D02*
X11816370D01*
X11285510Y977940D02*
X11363030D01*
X11285510D02*
Y987940D01*
Y1011190D01*
Y1207940D02*
X11363030D01*
X11285510Y1172190D02*
Y1207940D01*
Y1011190D02*
Y1172190D01*
X11816370Y977940D02*
Y1207940D01*
X9994786Y757230D02*
Y834750D01*
X10224786Y757230D02*
Y834750D01*
X9994786Y1210570D02*
Y1288090D01*
X10004786D01*
X10028036D01*
X10224786Y1210570D02*
Y1288090D01*
X10189036D02*
X10224786D01*
X10028036D02*
X10189036D01*
X9994786Y757230D02*
X10224786D01*
X6680760Y9862610D02*
Y9918490D01*
X6467400D02*
X6680760D01*
X6467400Y9862610D02*
Y9918490D01*
Y9410490D02*
X6680760D01*
X6467400D02*
Y9466370D01*
X6680760Y9410490D02*
Y9466370D01*
X6705030Y8143810D02*
Y8199690D01*
X6491670Y8143810D02*
Y8199690D01*
Y8143810D02*
X6705030D01*
X6491670Y8595930D02*
Y8651810D01*
X6705030D01*
Y8595930D02*
Y8651810D01*
X10270350Y7905180D02*
Y7961060D01*
Y7905180D02*
X10483710D01*
Y7961060D01*
X10270350Y8413180D02*
X10483710D01*
Y8357300D02*
Y8413180D01*
X10270350Y8357300D02*
Y8413180D01*
X10275430Y6941250D02*
Y6997130D01*
X10488790Y6941250D02*
Y6997130D01*
X10275430D02*
X10488790D01*
Y6489130D02*
Y6545010D01*
X10275430Y6489130D02*
X10488790D01*
X10275430D02*
Y6545010D01*
X10270350Y5061650D02*
Y5117530D01*
Y5061650D02*
X10483710D01*
Y5117530D01*
X10270350Y5569650D02*
X10483710D01*
Y5513770D02*
Y5569650D01*
X10270350Y5513770D02*
Y5569650D01*
X10260780Y2208180D02*
Y2264060D01*
Y2208180D02*
X10474140D01*
Y2264060D01*
X10260780Y2716180D02*
X10474140D01*
Y2660300D02*
Y2716180D01*
X10260780Y2660300D02*
Y2716180D01*
X11299870Y7852410D02*
X11355750D01*
X11299870Y8065770D02*
X11355750D01*
X11299870Y7852410D02*
Y8065770D01*
X11751990D02*
X11807870D01*
Y7852410D02*
Y8065770D01*
X11751990Y7852410D02*
X11807870D01*
X11757070Y6436360D02*
X11812950D01*
Y6649720D01*
X11757070D02*
X11812950D01*
X11304950Y6436360D02*
Y6649720D01*
X11360830D01*
X11304950Y6436360D02*
X11360830D01*
X11299870Y5008880D02*
X11355750D01*
X11299870Y5222240D02*
X11355750D01*
X11299870Y5008880D02*
Y5222240D01*
X11751990D02*
X11807870D01*
Y5008880D02*
Y5222240D01*
X11751990Y5008880D02*
X11807870D01*
X11289400Y2154510D02*
X11345280D01*
X11289400Y2367870D02*
X11345280D01*
X11289400Y2154510D02*
Y2367870D01*
X11741520D02*
X11797400D01*
Y2154510D02*
Y2367870D01*
X11741520Y2154510D02*
X11797400D01*
X9467710Y7905180D02*
Y7961060D01*
Y7905180D02*
X9681070D01*
Y7961060D01*
X9467710Y8413180D02*
X9681070D01*
Y8357300D02*
Y8413180D01*
X9467710Y8357300D02*
Y8413180D01*
X9472790Y6941250D02*
Y6997130D01*
X9686150Y6941250D02*
Y6997130D01*
X9472790D02*
X9686150D01*
Y6489130D02*
Y6545010D01*
X9472790Y6489130D02*
X9686150D01*
X9472790D02*
Y6545010D01*
X9467710Y5061650D02*
Y5117530D01*
Y5061650D02*
X9681070D01*
Y5117530D01*
X9467710Y5569650D02*
X9681070D01*
Y5513770D02*
Y5569650D01*
X9467710Y5513770D02*
Y5569650D01*
X9468810Y2207280D02*
Y2263160D01*
Y2207280D02*
X9682170D01*
Y2263160D01*
X9468810Y2715280D02*
X9682170D01*
Y2659400D02*
Y2715280D01*
X9468810Y2659400D02*
Y2715280D01*
X11177730Y7814450D02*
X11233610D01*
X11177730Y7601090D02*
X11233610D01*
Y7814450D01*
X10725610Y7601090D02*
X10781490D01*
X10725610D02*
Y7814450D01*
X10781490D01*
X10730690Y6398400D02*
X10786570D01*
X10730690Y6185040D02*
Y6398400D01*
Y6185040D02*
X10786570D01*
X11238690D02*
Y6398400D01*
X11182810Y6185040D02*
X11238690D01*
X11182810Y6398400D02*
X11238690D01*
X11177730Y4970920D02*
X11233610D01*
X11177730Y4757560D02*
X11233610D01*
Y4970920D01*
X10725610Y4757560D02*
X10781490D01*
X10725610D02*
Y4970920D01*
X10781490D01*
X11173610Y2122900D02*
X11229490D01*
X11173610Y1909540D02*
X11229490D01*
Y2122900D01*
X10721490Y1909540D02*
X10777370D01*
X10721490D02*
Y2122900D01*
X10777370D01*
X11899330Y8328800D02*
X11955210D01*
X11899330Y8115440D02*
Y8328800D01*
Y8115440D02*
X11955210D01*
X12407330D02*
Y8328800D01*
X12351450Y8115440D02*
X12407330D01*
X12351450Y8328800D02*
X12407330D01*
X12356530Y6912750D02*
X12412410D01*
X12356530Y6699390D02*
X12412410D01*
Y6912750D01*
X11904410Y6699390D02*
X11960290D01*
X11904410D02*
Y6912750D01*
X11960290D01*
X11899330Y5485270D02*
X11955210D01*
X11899330Y5271910D02*
Y5485270D01*
Y5271910D02*
X11955210D01*
X12407330D02*
Y5485270D01*
X12351450Y5271910D02*
X12407330D01*
X12351450Y5485270D02*
X12407330D01*
X11888860Y2630900D02*
X11944740D01*
X11888860Y2417540D02*
Y2630900D01*
Y2417540D02*
X11944740D01*
X12396860D02*
Y2630900D01*
X12340980Y2417540D02*
X12396860D01*
X12340980Y2630900D02*
X12396860D01*
X8973680Y8357300D02*
Y8413180D01*
X9187040Y8357300D02*
Y8413180D01*
X8973680D02*
X9187040D01*
Y7905180D02*
Y7961060D01*
X8973680Y7905180D02*
X9187040D01*
X8973680D02*
Y7961060D01*
X8978760Y6489130D02*
Y6545010D01*
Y6489130D02*
X9192120D01*
Y6545010D01*
X8978760Y6997130D02*
X9192120D01*
Y6941250D02*
Y6997130D01*
X8978760Y6941250D02*
Y6997130D01*
X8973680Y5513770D02*
Y5569650D01*
X9187040Y5513770D02*
Y5569650D01*
X8973680D02*
X9187040D01*
Y5061650D02*
Y5117530D01*
X8973680Y5061650D02*
X9187040D01*
X8973680D02*
Y5117530D01*
X8963210Y2659400D02*
Y2715280D01*
X9176570Y2659400D02*
Y2715280D01*
X8963210D02*
X9176570D01*
Y2207280D02*
Y2263160D01*
X8963210Y2207280D02*
X9176570D01*
X8963210D02*
Y2263160D01*
X10731960Y8680590D02*
X10787840D01*
X10731960Y8467230D02*
Y8680590D01*
Y8467230D02*
X10787840D01*
X11239960D02*
Y8680590D01*
X11184080Y8467230D02*
X11239960D01*
X11184080Y8680590D02*
X11239960D01*
X11189160Y7264540D02*
X11245040D01*
X11189160Y7051180D02*
X11245040D01*
Y7264540D01*
X10737040Y7051180D02*
X10792920D01*
X10737040D02*
Y7264540D01*
X10792920D01*
X10731960Y5837060D02*
X10787840D01*
X10731960Y5623700D02*
Y5837060D01*
Y5623700D02*
X10787840D01*
X11239960D02*
Y5837060D01*
X11184080Y5623700D02*
X11239960D01*
X11184080Y5837060D02*
X11239960D01*
X10711160Y2993020D02*
X10767040D01*
X10711160Y2779660D02*
Y2993020D01*
Y2779660D02*
X10767040D01*
X11219160D02*
Y2993020D01*
X11163280Y2779660D02*
X11219160D01*
X11163280Y2993020D02*
X11219160D01*
X11753280Y8583960D02*
X11809160D01*
X11753280Y8370600D02*
X11809160D01*
Y8583960D01*
X11301160Y8370600D02*
X11357040D01*
X11301160D02*
Y8583960D01*
X11357040D01*
X11306240Y7167910D02*
X11362120D01*
X11306240Y6954550D02*
Y7167910D01*
Y6954550D02*
X11362120D01*
X11814240D02*
Y7167910D01*
X11758360Y6954550D02*
X11814240D01*
X11758360Y7167910D02*
X11814240D01*
X11753280Y5740430D02*
X11809160D01*
X11753280Y5527070D02*
X11809160D01*
Y5740430D01*
X11301160Y5527070D02*
X11357040D01*
X11301160D02*
Y5740430D01*
X11357040D01*
X11742810Y2886060D02*
X11798690D01*
X11742810Y2672700D02*
X11798690D01*
Y2886060D01*
X11290690Y2672700D02*
X11346570D01*
X11290690D02*
Y2886060D01*
X11346570D01*
X10266540Y11193210D02*
Y11249090D01*
X10479900Y11193210D02*
Y11249090D01*
X10266540D02*
X10479900D01*
Y10741090D02*
Y10796970D01*
X10266540Y10741090D02*
X10479900D01*
X10266540D02*
Y10796970D01*
X11748180Y10688320D02*
X11804060D01*
Y10901680D01*
X11748180D02*
X11804060D01*
X11296060Y10688320D02*
Y10901680D01*
X11351940D01*
X11296060Y10688320D02*
X11351940D01*
X10721800Y10650360D02*
X10777680D01*
X10721800Y10437000D02*
Y10650360D01*
Y10437000D02*
X10777680D01*
X11229800D02*
Y10650360D01*
X11173920Y10437000D02*
X11229800D01*
X11173920Y10650360D02*
X11229800D01*
X12347640Y11164710D02*
X12403520D01*
X12347640Y10951350D02*
X12403520D01*
Y11164710D01*
X11895520Y10951350D02*
X11951400D01*
X11895520D02*
Y11164710D01*
X11951400D01*
X8969870Y10741090D02*
Y10796970D01*
Y10741090D02*
X9183230D01*
Y10796970D01*
X8969870Y11249090D02*
X9183230D01*
Y11193210D02*
Y11249090D01*
X8969870Y11193210D02*
Y11249090D01*
X11180270Y11516500D02*
X11236150D01*
X11180270Y11303140D02*
X11236150D01*
Y11516500D01*
X10728150Y11303140D02*
X10784030D01*
X10728150D02*
Y11516500D01*
X10784030D01*
X11297350Y11419870D02*
X11353230D01*
X11297350Y11206510D02*
Y11419870D01*
Y11206510D02*
X11353230D01*
X11805350D02*
Y11419870D01*
X11749470Y11206510D02*
X11805350D01*
X11749470Y11419870D02*
X11805350D01*
X5053653Y5456549D02*
Y6376549D01*
X5973653Y5456549D02*
Y6376549D01*
X5053653D02*
X5973653D01*
X5053653Y5456549D02*
X5973653D01*
X9990566Y10728680D02*
X10220566D01*
X10023816Y11259540D02*
X10184816D01*
X10220566D01*
Y11182020D02*
Y11259540D01*
X10000566D02*
X10023816D01*
X9990566D02*
X10000566D01*
X9990566Y11182020D02*
Y11259540D01*
X10220566Y10728680D02*
Y10806200D01*
X9990566Y10728680D02*
Y10806200D01*
X11816470Y10945070D02*
Y11175070D01*
X11285610Y10978320D02*
Y11139320D01*
Y11175070D01*
X11363130D01*
X11285610Y10955070D02*
Y10978320D01*
Y10945070D02*
Y10955070D01*
Y10945070D02*
X11363130D01*
X11738950Y11175070D02*
X11816470D01*
X11738950Y10945070D02*
X11816470D01*
X11809810Y2411260D02*
Y2641260D01*
X11278950Y2444510D02*
Y2605510D01*
Y2641260D01*
X11356470D01*
X11278950Y2421260D02*
Y2444510D01*
Y2411260D02*
Y2421260D01*
Y2411260D02*
X11356470D01*
X11732290Y2641260D02*
X11809810D01*
X11732290Y2411260D02*
X11809810D01*
X11820280Y5265630D02*
Y5495630D01*
X11289420Y5298880D02*
Y5459880D01*
Y5495630D01*
X11366940D01*
X11289420Y5275630D02*
Y5298880D01*
Y5265630D02*
Y5275630D01*
Y5265630D02*
X11366940D01*
X11742760Y5495630D02*
X11820280D01*
X11742760Y5265630D02*
X11820280D01*
X11825360Y6693110D02*
Y6923110D01*
X11294500Y6726360D02*
Y6887360D01*
Y6923110D01*
X11372020D01*
X11294500Y6703110D02*
Y6726360D01*
Y6693110D02*
Y6703110D01*
Y6693110D02*
X11372020D01*
X11747840Y6923110D02*
X11825360D01*
X11747840Y6693110D02*
X11825360D01*
X11820280Y8109160D02*
Y8339160D01*
X11289420Y8142410D02*
Y8303410D01*
Y8339160D01*
X11366940D01*
X11289420Y8119160D02*
Y8142410D01*
Y8109160D02*
Y8119160D01*
Y8109160D02*
X11366940D01*
X11742760Y8339160D02*
X11820280D01*
X11742760Y8109160D02*
X11820280D01*
X10665460Y10430720D02*
Y10660720D01*
X10134600Y10463970D02*
Y10624970D01*
Y10660720D01*
X10212120D01*
X10134600Y10440720D02*
Y10463970D01*
Y10430720D02*
Y10440720D01*
Y10430720D02*
X10212120D01*
X10587940Y10660720D02*
X10665460D01*
X10587940Y10430720D02*
X10665460D01*
X11883110Y11194430D02*
Y11424430D01*
X12413970Y11230180D02*
Y11391180D01*
Y11194430D02*
Y11230180D01*
X12336450Y11194430D02*
X12413970D01*
Y11391180D02*
Y11414430D01*
Y11424430D01*
X12336450D02*
X12413970D01*
X11883110Y11194430D02*
X11960630D01*
X11883110Y11424430D02*
X11960630D01*
X9993906Y2194870D02*
X10223906D01*
X10027156Y2725730D02*
X10188156D01*
X10223906D01*
Y2648210D02*
Y2725730D01*
X10003906D02*
X10027156D01*
X9993906D02*
X10003906D01*
X9993906Y2648210D02*
Y2725730D01*
X10223906Y2194870D02*
Y2272390D01*
X9993906Y2194870D02*
Y2272390D01*
X9205904Y2194870D02*
X9435904D01*
X9239154Y2725730D02*
X9400154D01*
X9435904D01*
Y2648210D02*
Y2725730D01*
X9215904D02*
X9239154D01*
X9205904D02*
X9215904D01*
X9205904Y2648210D02*
Y2725730D01*
X9435904Y2194870D02*
Y2272390D01*
X9205904Y2194870D02*
Y2272390D01*
X9721170Y2726400D02*
X9951170D01*
X9756920Y2195540D02*
X9917920D01*
X9721170D02*
X9756920D01*
X9721170D02*
Y2273060D01*
X9917920Y2195540D02*
X9941170D01*
X9951170D01*
Y2273060D01*
X9721170Y2648880D02*
Y2726400D01*
X9951170Y2648880D02*
Y2726400D01*
X10658800Y1896910D02*
Y2126910D01*
X10127940Y1930160D02*
Y2091160D01*
Y2126910D01*
X10205460D01*
X10127940Y1906910D02*
Y1930160D01*
Y1896910D02*
Y1906910D01*
Y1896910D02*
X10205460D01*
X10581280Y2126910D02*
X10658800D01*
X10581280Y1896910D02*
X10658800D01*
X11876450Y2660620D02*
Y2890620D01*
X12407310Y2696370D02*
Y2857370D01*
Y2660620D02*
Y2696370D01*
X12329790Y2660620D02*
X12407310D01*
Y2857370D02*
Y2880620D01*
Y2890620D01*
X12329790D02*
X12407310D01*
X11876450Y2660620D02*
X11953970D01*
X11876450Y2890620D02*
X11953970D01*
X9994376Y5049240D02*
X10224376D01*
X10027626Y5580100D02*
X10188626D01*
X10224376D01*
Y5502580D02*
Y5580100D01*
X10004376D02*
X10027626D01*
X9994376D02*
X10004376D01*
X9994376Y5502580D02*
Y5580100D01*
X10224376Y5049240D02*
Y5126760D01*
X9994376Y5049240D02*
Y5126760D01*
X9216374Y5049240D02*
X9446374D01*
X9249624Y5580100D02*
X9410624D01*
X9446374D01*
Y5502580D02*
Y5580100D01*
X9226374D02*
X9249624D01*
X9216374D02*
X9226374D01*
X9216374Y5502580D02*
Y5580100D01*
X9446374Y5049240D02*
Y5126760D01*
X9216374Y5049240D02*
Y5126760D01*
X9723710Y5580770D02*
X9953710D01*
X9759460Y5049910D02*
X9920460D01*
X9723710D02*
X9759460D01*
X9723710D02*
Y5127430D01*
X9920460Y5049910D02*
X9943710D01*
X9953710D01*
Y5127430D01*
X9723710Y5503250D02*
Y5580770D01*
X9953710Y5503250D02*
Y5580770D01*
X10669270Y4751280D02*
Y4981280D01*
X10138410Y4784530D02*
Y4945530D01*
Y4981280D01*
X10215930D01*
X10138410Y4761280D02*
Y4784530D01*
Y4751280D02*
Y4761280D01*
Y4751280D02*
X10215930D01*
X10591750Y4981280D02*
X10669270D01*
X10591750Y4751280D02*
X10669270D01*
X11886920Y5514990D02*
Y5744990D01*
X12417780Y5550740D02*
Y5711740D01*
Y5514990D02*
Y5550740D01*
X12340260Y5514990D02*
X12417780D01*
Y5711740D02*
Y5734990D01*
Y5744990D01*
X12340260D02*
X12417780D01*
X11886920Y5514990D02*
X11964440D01*
X11886920Y5744990D02*
X11964440D01*
X9999456Y6476720D02*
X10229456D01*
X10032706Y7007580D02*
X10193706D01*
X10229456D01*
Y6930060D02*
Y7007580D01*
X10009456D02*
X10032706D01*
X9999456D02*
X10009456D01*
X9999456Y6930060D02*
Y7007580D01*
X10229456Y6476720D02*
Y6554240D01*
X9999456Y6476720D02*
Y6554240D01*
X9221454Y6476720D02*
X9451454D01*
X9254704Y7007580D02*
X9415704D01*
X9451454D01*
Y6930060D02*
Y7007580D01*
X9231454D02*
X9254704D01*
X9221454D02*
X9231454D01*
X9221454Y6930060D02*
Y7007580D01*
X9451454Y6476720D02*
Y6554240D01*
X9221454Y6476720D02*
Y6554240D01*
X9728790Y7008250D02*
X9958790D01*
X9764540Y6477390D02*
X9925540D01*
X9728790D02*
X9764540D01*
X9728790D02*
Y6554910D01*
X9925540Y6477390D02*
X9948790D01*
X9958790D01*
Y6554910D01*
X9728790Y6930730D02*
Y7008250D01*
X9958790Y6930730D02*
Y7008250D01*
X10674350Y6178760D02*
Y6408760D01*
X10143490Y6212010D02*
Y6373010D01*
Y6408760D01*
X10221010D01*
X10143490Y6188760D02*
Y6212010D01*
Y6178760D02*
Y6188760D01*
Y6178760D02*
X10221010D01*
X10596830Y6408760D02*
X10674350D01*
X10596830Y6178760D02*
X10674350D01*
X11892000Y6942470D02*
Y7172470D01*
X12422860Y6978220D02*
Y7139220D01*
Y6942470D02*
Y6978220D01*
X12345340Y6942470D02*
X12422860D01*
Y7139220D02*
Y7162470D01*
Y7172470D01*
X12345340D02*
X12422860D01*
X11892000Y6942470D02*
X11969520D01*
X11892000Y7172470D02*
X11969520D01*
X9994376Y7892770D02*
X10224376D01*
X10027626Y8423630D02*
X10188626D01*
X10224376D01*
Y8346110D02*
Y8423630D01*
X10004376D02*
X10027626D01*
X9994376D02*
X10004376D01*
X9994376Y8346110D02*
Y8423630D01*
X10224376Y7892770D02*
Y7970290D01*
X9994376Y7892770D02*
Y7970290D01*
X9216374Y7892770D02*
X9446374D01*
X9249624Y8423630D02*
X9410624D01*
X9446374D01*
Y8346110D02*
Y8423630D01*
X9226374D02*
X9249624D01*
X9216374D02*
X9226374D01*
X9216374Y8346110D02*
Y8423630D01*
X9446374Y7892770D02*
Y7970290D01*
X9216374Y7892770D02*
Y7970290D01*
X9723710Y8424300D02*
X9953710D01*
X9759460Y7893440D02*
X9920460D01*
X9723710D02*
X9759460D01*
X9723710D02*
Y7970960D01*
X9920460Y7893440D02*
X9943710D01*
X9953710D01*
Y7970960D01*
X9723710Y8346780D02*
Y8424300D01*
X9953710Y8346780D02*
Y8424300D01*
X10669270Y7594810D02*
Y7824810D01*
X10138410Y7628060D02*
Y7789060D01*
Y7824810D01*
X10215930D01*
X10138410Y7604810D02*
Y7628060D01*
Y7594810D02*
Y7604810D01*
Y7594810D02*
X10215930D01*
X10591750Y7824810D02*
X10669270D01*
X10591750Y7594810D02*
X10669270D01*
X11886920Y8358520D02*
Y8588520D01*
X12417780Y8394270D02*
Y8555270D01*
Y8358520D02*
Y8394270D01*
X12340260Y8358520D02*
X12417780D01*
Y8555270D02*
Y8578520D01*
Y8588520D01*
X12340260D02*
X12417780D01*
X11886920Y8358520D02*
X11964440D01*
X11886920Y8588520D02*
X11964440D01*
X5878830Y8356110D02*
X5956350D01*
X5878830Y8126110D02*
X5956350D01*
X6332170Y8356110D02*
X6409690D01*
Y8346110D02*
Y8356110D01*
Y8322860D02*
Y8346110D01*
X6332170Y8126110D02*
X6409690D01*
Y8161860D01*
Y8322860D01*
X5878830Y8126110D02*
Y8356110D01*
X5854560Y9622790D02*
X5932080D01*
X5854560Y9392790D02*
X5932080D01*
X6307900Y9622790D02*
X6385420D01*
Y9612790D02*
Y9622790D01*
Y9589540D02*
Y9612790D01*
X6307900Y9392790D02*
X6385420D01*
Y9428540D01*
Y9589540D01*
X5854560Y9392790D02*
Y9622790D01*
X3170668Y9331572D02*
X5000738D01*
X5258294Y7339196D02*
Y9074016D01*
X3158222Y7044810D02*
X4963908D01*
X2869170Y7333862D02*
Y9030074D01*
X670668Y9331572D02*
X2500738D01*
X2758294Y7339196D02*
Y9074016D01*
X658222Y7044810D02*
X2463908D01*
X369170Y7333862D02*
Y9030074D01*
X3179318Y11726672D02*
X5009388D01*
X5266944Y9734296D02*
Y11469116D01*
X3166872Y9439910D02*
X4972558D01*
X2877820Y9728962D02*
Y11425174D01*
X6433880Y9781070D02*
Y9881070D01*
X6123880Y9781070D02*
Y9881070D01*
X5852130Y10045400D02*
Y10275400D01*
X6382990Y10081150D02*
Y10242150D01*
Y10045400D02*
Y10081150D01*
X6305470Y10045400D02*
X6382990D01*
Y10242150D02*
Y10265400D01*
Y10275400D01*
X6305470D02*
X6382990D01*
X5852130Y10045400D02*
X5929650D01*
X5852130Y10275400D02*
X5929650D01*
X5876400Y8778720D02*
Y9008720D01*
X6407260Y8814470D02*
Y8975470D01*
Y8778720D02*
Y8814470D01*
X6329740Y8778720D02*
X6407260D01*
Y8975470D02*
Y8998720D01*
Y9008720D01*
X6329740D02*
X6407260D01*
X5876400Y8778720D02*
X5953920D01*
X5876400Y9008720D02*
X5953920D01*
X4552570Y5607390D02*
Y5684910D01*
X4322570Y5607390D02*
Y5684910D01*
X4552570Y5154050D02*
Y5231570D01*
X4542570Y5154050D02*
X4552570D01*
X4519320D02*
X4542570D01*
X4322570D02*
Y5231570D01*
Y5154050D02*
X4358320D01*
X4519320D01*
X4322570Y5684910D02*
X4552570D01*
X6458150Y8514390D02*
Y8614390D01*
X6148150Y8514390D02*
Y8614390D01*
D41*
X538260Y10781930D02*
X2628260D01*
X538260D02*
Y11831930D01*
X2628260D01*
Y10781930D02*
Y11831930D01*
X538260Y9481930D02*
X2628260D01*
X538260D02*
Y10531930D01*
X2628260D01*
Y9481930D02*
Y10531930D01*
X7190740Y3379924D02*
X7224063D01*
X7207401D01*
Y3329940D01*
X7240724Y3379924D02*
Y3329940D01*
X7265715D01*
X7274046Y3338271D01*
Y3346601D01*
X7265715Y3354932D01*
X7240724D01*
X7265715D01*
X7274046Y3363263D01*
Y3371593D01*
X7265715Y3379924D01*
X7240724D01*
X7324030Y3329940D02*
X7290707D01*
X7324030Y3363263D01*
Y3371593D01*
X7315699Y3379924D01*
X7299038D01*
X7290707Y3371593D01*
X909320Y5886904D02*
X942643D01*
X925981D01*
Y5836920D01*
X959304Y5886904D02*
Y5836920D01*
X984295D01*
X992626Y5845251D01*
Y5853581D01*
X984295Y5861912D01*
X959304D01*
X984295D01*
X992626Y5870243D01*
Y5878573D01*
X984295Y5886904D01*
X959304D01*
X1009287Y5836920D02*
X1025948D01*
X1017618D01*
Y5886904D01*
X1009287Y5878573D01*
X2034843Y6269733D02*
X2026512Y6278064D01*
X2009851D01*
X2001520Y6269733D01*
Y6236411D01*
X2009851Y6228080D01*
X2026512D01*
X2034843Y6236411D01*
X2084826Y6278064D02*
X2068165Y6269733D01*
X2051504Y6253072D01*
Y6236411D01*
X2059834Y6228080D01*
X2076495D01*
X2084826Y6236411D01*
Y6244741D01*
X2076495Y6253072D01*
X2051504D01*
X10793730Y11018833D02*
Y10975180D01*
X10802460Y10966450D01*
X10819921D01*
X10828652Y10975180D01*
Y11018833D01*
X10881035D02*
X10846113D01*
Y10992641D01*
X10863574Y11001372D01*
X10872304D01*
X10881035Y10992641D01*
Y10975180D01*
X10872304Y10966450D01*
X10854843D01*
X10846113Y10975180D01*
X10898496Y10966450D02*
Y11001372D01*
X10915957Y11018833D01*
X10933418Y11001372D01*
Y10966450D01*
Y10992641D01*
X10898496D01*
X11276330Y10564173D02*
X11311252D01*
X11293791D01*
Y10511790D01*
X11328713D02*
Y10564173D01*
X11354904D01*
X11363635Y10555442D01*
Y10537981D01*
X11354904Y10529251D01*
X11328713D01*
X11381096Y10511790D02*
X11398557D01*
X11389826D01*
Y10564173D01*
X11381096Y10555442D01*
X11424748D02*
X11433479Y10564173D01*
X11450940D01*
X11459670Y10555442D01*
Y10520520D01*
X11450940Y10511790D01*
X11433479D01*
X11424748Y10520520D01*
Y10555442D01*
X11477131Y10511790D02*
Y10546712D01*
X11494592Y10564173D01*
X11512053Y10546712D01*
Y10511790D01*
Y10537981D01*
X11477131D01*
X10460990Y11443013D02*
X10495912D01*
X10478451D01*
Y11390630D01*
X10513373D02*
Y11443013D01*
X10539564D01*
X10548295Y11434282D01*
Y11416821D01*
X10539564Y11408091D01*
X10513373D01*
X10565756Y11399360D02*
X10574486Y11390630D01*
X10591947D01*
X10600678Y11399360D01*
Y11434282D01*
X10591947Y11443013D01*
X10574486D01*
X10565756Y11434282D01*
Y11425552D01*
X10574486Y11416821D01*
X10600678D01*
X10618139Y11390630D02*
Y11425552D01*
X10635600Y11443013D01*
X10653061Y11425552D01*
Y11390630D01*
Y11416821D01*
X10618139D01*
X8784590Y10571793D02*
X8819512D01*
X8802051D01*
Y10519410D01*
X8836973D02*
Y10571793D01*
X8863164D01*
X8871895Y10563062D01*
Y10545601D01*
X8863164Y10536871D01*
X8836973D01*
X8889356Y10563062D02*
X8898086Y10571793D01*
X8915547D01*
X8924278Y10563062D01*
Y10554332D01*
X8915547Y10545601D01*
X8924278Y10536871D01*
Y10528140D01*
X8915547Y10519410D01*
X8898086D01*
X8889356Y10528140D01*
Y10536871D01*
X8898086Y10545601D01*
X8889356Y10554332D01*
Y10563062D01*
X8898086Y10545601D02*
X8915547D01*
X8941739Y10519410D02*
Y10554332D01*
X8959200Y10571793D01*
X8976661Y10554332D01*
Y10519410D01*
Y10545601D01*
X8941739D01*
X11454130Y11286490D02*
Y11338873D01*
X11480321D01*
X11489052Y11330142D01*
Y11312681D01*
X11480321Y11303951D01*
X11454130D01*
X11471591D02*
X11489052Y11286490D01*
X11506513Y11330142D02*
X11515243Y11338873D01*
X11532704D01*
X11541435Y11330142D01*
Y11321412D01*
X11532704Y11312681D01*
X11523974D01*
X11532704D01*
X11541435Y11303951D01*
Y11295220D01*
X11532704Y11286490D01*
X11515243D01*
X11506513Y11295220D01*
X11558896Y11338873D02*
X11593818D01*
Y11330142D01*
X11558896Y11295220D01*
Y11286490D01*
X11611279D02*
Y11321412D01*
X11628740Y11338873D01*
X11646201Y11321412D01*
Y11286490D01*
Y11312681D01*
X11611279D01*
X10885170Y11383010D02*
Y11435393D01*
X10911361D01*
X10920092Y11426662D01*
Y11409201D01*
X10911361Y11400471D01*
X10885170D01*
X10902631D02*
X10920092Y11383010D01*
X10937553Y11426662D02*
X10946283Y11435393D01*
X10963744D01*
X10972475Y11426662D01*
Y11417932D01*
X10963744Y11409201D01*
X10955014D01*
X10963744D01*
X10972475Y11400471D01*
Y11391740D01*
X10963744Y11383010D01*
X10946283D01*
X10937553Y11391740D01*
X11024858Y11435393D02*
X11007397Y11426662D01*
X10989936Y11409201D01*
Y11391740D01*
X10998666Y11383010D01*
X11016127D01*
X11024858Y11391740D01*
Y11400471D01*
X11016127Y11409201D01*
X10989936D01*
X11042319Y11383010D02*
Y11417932D01*
X11059780Y11435393D01*
X11077241Y11417932D01*
Y11383010D01*
Y11409201D01*
X11042319D01*
X8980170Y10968990D02*
Y11021373D01*
X9006361D01*
X9015092Y11012642D01*
Y10995181D01*
X9006361Y10986451D01*
X8980170D01*
X8997631D02*
X9015092Y10968990D01*
X9032553Y11012642D02*
X9041283Y11021373D01*
X9058744D01*
X9067475Y11012642D01*
Y11003912D01*
X9058744Y10995181D01*
X9050014D01*
X9058744D01*
X9067475Y10986451D01*
Y10977720D01*
X9058744Y10968990D01*
X9041283D01*
X9032553Y10977720D01*
X9119858Y11021373D02*
X9084936D01*
Y10995181D01*
X9102397Y11003912D01*
X9111127D01*
X9119858Y10995181D01*
Y10977720D01*
X9111127Y10968990D01*
X9093666D01*
X9084936Y10977720D01*
X9137319Y10968990D02*
Y11003912D01*
X9154780Y11021373D01*
X9172241Y11003912D01*
Y10968990D01*
Y10995181D01*
X9137319D01*
X12053570Y11032490D02*
Y11084873D01*
X12079761D01*
X12088492Y11076142D01*
Y11058681D01*
X12079761Y11049951D01*
X12053570D01*
X12071031D02*
X12088492Y11032490D01*
X12105953Y11076142D02*
X12114683Y11084873D01*
X12132144D01*
X12140875Y11076142D01*
Y11067412D01*
X12132144Y11058681D01*
X12123414D01*
X12132144D01*
X12140875Y11049951D01*
Y11041220D01*
X12132144Y11032490D01*
X12114683D01*
X12105953Y11041220D01*
X12184527Y11032490D02*
Y11084873D01*
X12158336Y11058681D01*
X12193258D01*
X12210719Y11032490D02*
Y11067412D01*
X12228180Y11084873D01*
X12245641Y11067412D01*
Y11032490D01*
Y11058681D01*
X12210719D01*
X10880090Y10516870D02*
Y10569253D01*
X10906281D01*
X10915012Y10560522D01*
Y10543061D01*
X10906281Y10534331D01*
X10880090D01*
X10897551D02*
X10915012Y10516870D01*
X10932473Y10560522D02*
X10941203Y10569253D01*
X10958664D01*
X10967395Y10560522D01*
Y10551792D01*
X10958664Y10543061D01*
X10949934D01*
X10958664D01*
X10967395Y10534331D01*
Y10525600D01*
X10958664Y10516870D01*
X10941203D01*
X10932473Y10525600D01*
X10984856Y10560522D02*
X10993586Y10569253D01*
X11011047D01*
X11019778Y10560522D01*
Y10551792D01*
X11011047Y10543061D01*
X11002317D01*
X11011047D01*
X11019778Y10534331D01*
Y10525600D01*
X11011047Y10516870D01*
X10993586D01*
X10984856Y10525600D01*
X11037239Y10516870D02*
Y10551792D01*
X11054700Y10569253D01*
X11072161Y10551792D01*
Y10516870D01*
Y10543061D01*
X11037239D01*
X9474200Y10968990D02*
Y11021373D01*
X9500391D01*
X9509122Y11012642D01*
Y10995181D01*
X9500391Y10986451D01*
X9474200D01*
X9491661D02*
X9509122Y10968990D01*
X9526583Y11012642D02*
X9535313Y11021373D01*
X9552774D01*
X9561505Y11012642D01*
Y11003912D01*
X9552774Y10995181D01*
X9544044D01*
X9552774D01*
X9561505Y10986451D01*
Y10977720D01*
X9552774Y10968990D01*
X9535313D01*
X9526583Y10977720D01*
X9613888Y10968990D02*
X9578966D01*
X9613888Y11003912D01*
Y11012642D01*
X9605157Y11021373D01*
X9587696D01*
X9578966Y11012642D01*
X9631349Y10968990D02*
Y11003912D01*
X9648810Y11021373D01*
X9666271Y11003912D01*
Y10968990D01*
Y10995181D01*
X9631349D01*
X11459210Y10768330D02*
Y10820713D01*
X11485401D01*
X11494132Y10811982D01*
Y10794521D01*
X11485401Y10785791D01*
X11459210D01*
X11476671D02*
X11494132Y10768330D01*
X11511593Y10811982D02*
X11520323Y10820713D01*
X11537784D01*
X11546515Y10811982D01*
Y10803252D01*
X11537784Y10794521D01*
X11529054D01*
X11537784D01*
X11546515Y10785791D01*
Y10777060D01*
X11537784Y10768330D01*
X11520323D01*
X11511593Y10777060D01*
X11563976Y10768330D02*
X11581437D01*
X11572706D01*
Y10820713D01*
X11563976Y10811982D01*
X11607628Y10768330D02*
Y10803252D01*
X11625089Y10820713D01*
X11642550Y10803252D01*
Y10768330D01*
Y10794521D01*
X11607628D01*
X10278110Y10968990D02*
Y11021373D01*
X10304301D01*
X10313032Y11012642D01*
Y10995181D01*
X10304301Y10986451D01*
X10278110D01*
X10295571D02*
X10313032Y10968990D01*
X10330493Y11012642D02*
X10339223Y11021373D01*
X10356684D01*
X10365415Y11012642D01*
Y11003912D01*
X10356684Y10995181D01*
X10347954D01*
X10356684D01*
X10365415Y10986451D01*
Y10977720D01*
X10356684Y10968990D01*
X10339223D01*
X10330493Y10977720D01*
X10382876Y11012642D02*
X10391606Y11021373D01*
X10409067D01*
X10417798Y11012642D01*
Y10977720D01*
X10409067Y10968990D01*
X10391606D01*
X10382876Y10977720D01*
Y11012642D01*
X10435259Y10968990D02*
Y11003912D01*
X10452720Y11021373D01*
X10470181Y11003912D01*
Y10968990D01*
Y10995181D01*
X10435259D01*
X9503410Y10487973D02*
Y10435590D01*
X9529601D01*
X9538332Y10444320D01*
Y10479242D01*
X9529601Y10487973D01*
X9503410D01*
X9555793Y10444320D02*
X9564523Y10435590D01*
X9581984D01*
X9590715Y10444320D01*
Y10479242D01*
X9581984Y10487973D01*
X9564523D01*
X9555793Y10479242D01*
Y10470512D01*
X9564523Y10461781D01*
X9590715D01*
X9608176Y10435590D02*
Y10470512D01*
X9625637Y10487973D01*
X9643098Y10470512D01*
Y10435590D01*
Y10461781D01*
X9608176D01*
X12088492Y11327602D02*
X12079761Y11336333D01*
X12062300D01*
X12053570Y11327602D01*
Y11292680D01*
X12062300Y11283950D01*
X12079761D01*
X12088492Y11292680D01*
X12105953Y11327602D02*
X12114683Y11336333D01*
X12132144D01*
X12140875Y11327602D01*
Y11318872D01*
X12132144Y11310141D01*
X12123414D01*
X12132144D01*
X12140875Y11301411D01*
Y11292680D01*
X12132144Y11283950D01*
X12114683D01*
X12105953Y11292680D01*
X12184527Y11283950D02*
Y11336333D01*
X12158336Y11310141D01*
X12193258D01*
X12210719Y11283950D02*
Y11318872D01*
X12228180Y11336333D01*
X12245641Y11318872D01*
Y11283950D01*
Y11310141D01*
X12210719D01*
X10338432Y10563062D02*
X10329701Y10571793D01*
X10312240D01*
X10303510Y10563062D01*
Y10528140D01*
X10312240Y10519410D01*
X10329701D01*
X10338432Y10528140D01*
X10355893Y10563062D02*
X10364623Y10571793D01*
X10382084D01*
X10390815Y10563062D01*
Y10554332D01*
X10382084Y10545601D01*
X10373354D01*
X10382084D01*
X10390815Y10536871D01*
Y10528140D01*
X10382084Y10519410D01*
X10364623D01*
X10355893Y10528140D01*
X10408276Y10563062D02*
X10417006Y10571793D01*
X10434467D01*
X10443198Y10563062D01*
Y10554332D01*
X10434467Y10545601D01*
X10425737D01*
X10434467D01*
X10443198Y10536871D01*
Y10528140D01*
X10434467Y10519410D01*
X10417006D01*
X10408276Y10528140D01*
X10460659Y10519410D02*
Y10554332D01*
X10478120Y10571793D01*
X10495581Y10554332D01*
Y10519410D01*
Y10545601D01*
X10460659D01*
X9266552Y11012642D02*
X9257821Y11021373D01*
X9240360D01*
X9231630Y11012642D01*
Y10977720D01*
X9240360Y10968990D01*
X9257821D01*
X9266552Y10977720D01*
X9284013Y11012642D02*
X9292743Y11021373D01*
X9310204D01*
X9318935Y11012642D01*
Y11003912D01*
X9310204Y10995181D01*
X9301474D01*
X9310204D01*
X9318935Y10986451D01*
Y10977720D01*
X9310204Y10968990D01*
X9292743D01*
X9284013Y10977720D01*
X9371318Y10968990D02*
X9336396D01*
X9371318Y11003912D01*
Y11012642D01*
X9362587Y11021373D01*
X9345126D01*
X9336396Y11012642D01*
X9388779Y10968990D02*
Y11003912D01*
X9406240Y11021373D01*
X9423701Y11003912D01*
Y10968990D01*
Y10995181D01*
X9388779D01*
X9778362Y11012752D02*
X9769631Y11021483D01*
X9752170D01*
X9743440Y11012752D01*
Y10977830D01*
X9752170Y10969100D01*
X9769631D01*
X9778362Y10977830D01*
X9795823Y11012752D02*
X9804553Y11021483D01*
X9822014D01*
X9830745Y11012752D01*
Y11004022D01*
X9822014Y10995291D01*
X9813284D01*
X9822014D01*
X9830745Y10986561D01*
Y10977830D01*
X9822014Y10969100D01*
X9804553D01*
X9795823Y10977830D01*
X9848206Y10969100D02*
X9865667D01*
X9856936D01*
Y11021483D01*
X9848206Y11012752D01*
X9891858Y10969100D02*
Y11004022D01*
X9909319Y11021483D01*
X9926780Y11004022D01*
Y10969100D01*
Y10995291D01*
X9891858D01*
X11489052Y11078682D02*
X11480321Y11087413D01*
X11462860D01*
X11454130Y11078682D01*
Y11043760D01*
X11462860Y11035030D01*
X11480321D01*
X11489052Y11043760D01*
X11506513Y11078682D02*
X11515243Y11087413D01*
X11532704D01*
X11541435Y11078682D01*
Y11069952D01*
X11532704Y11061221D01*
X11523974D01*
X11532704D01*
X11541435Y11052491D01*
Y11043760D01*
X11532704Y11035030D01*
X11515243D01*
X11506513Y11043760D01*
X11558896Y11078682D02*
X11567626Y11087413D01*
X11585087D01*
X11593818Y11078682D01*
Y11043760D01*
X11585087Y11035030D01*
X11567626D01*
X11558896Y11043760D01*
Y11078682D01*
X11611279Y11035030D02*
Y11069952D01*
X11628740Y11087413D01*
X11646201Y11069952D01*
Y11035030D01*
Y11061221D01*
X11611279D01*
X10043792Y11012642D02*
X10035061Y11021373D01*
X10017600D01*
X10008870Y11012642D01*
Y10977720D01*
X10017600Y10968990D01*
X10035061D01*
X10043792Y10977720D01*
X10096175Y10968990D02*
X10061253D01*
X10096175Y11003912D01*
Y11012642D01*
X10087444Y11021373D01*
X10069983D01*
X10061253Y11012642D01*
X10113636Y10977720D02*
X10122366Y10968990D01*
X10139827D01*
X10148558Y10977720D01*
Y11012642D01*
X10139827Y11021373D01*
X10122366D01*
X10113636Y11012642D01*
Y11003912D01*
X10122366Y10995181D01*
X10148558D01*
X10166019Y10968990D02*
Y11003912D01*
X10183480Y11021373D01*
X10200941Y11003912D01*
Y10968990D01*
Y10995181D01*
X10166019D01*
X10798810Y1049333D02*
Y1005680D01*
X10807540Y996950D01*
X10825001D01*
X10833732Y1005680D01*
Y1049333D01*
X10886115D02*
X10851193D01*
Y1023141D01*
X10868654Y1031872D01*
X10877384D01*
X10886115Y1023141D01*
Y1005680D01*
X10877384Y996950D01*
X10859923D01*
X10851193Y1005680D01*
X10903576Y1049333D02*
Y996950D01*
Y1023141D01*
X10938498D01*
Y1049333D01*
Y996950D01*
X10788650Y2486973D02*
Y2443320D01*
X10797380Y2434590D01*
X10814841D01*
X10823572Y2443320D01*
Y2486973D01*
X10875955D02*
X10841033D01*
Y2460781D01*
X10858494Y2469512D01*
X10867224D01*
X10875955Y2460781D01*
Y2443320D01*
X10867224Y2434590D01*
X10849763D01*
X10841033Y2443320D01*
X10928338Y2478242D02*
X10919607Y2486973D01*
X10902146D01*
X10893416Y2478242D01*
Y2443320D01*
X10902146Y2434590D01*
X10919607D01*
X10928338Y2443320D01*
Y2460781D01*
X10910877D01*
X10797540Y3919533D02*
Y3875880D01*
X10806270Y3867150D01*
X10823731D01*
X10832462Y3875880D01*
Y3919533D01*
X10884845D02*
X10849923D01*
Y3893341D01*
X10867384Y3902072D01*
X10876114D01*
X10884845Y3893341D01*
Y3875880D01*
X10876114Y3867150D01*
X10858653D01*
X10849923Y3875880D01*
X10937228Y3919533D02*
X10902306D01*
Y3893341D01*
X10919767D01*
X10902306D01*
Y3867150D01*
X10797540Y5339393D02*
Y5295740D01*
X10806270Y5287010D01*
X10823731D01*
X10832462Y5295740D01*
Y5339393D01*
X10884845D02*
X10849923D01*
Y5313201D01*
X10867384Y5321932D01*
X10876114D01*
X10884845Y5313201D01*
Y5295740D01*
X10876114Y5287010D01*
X10858653D01*
X10849923Y5295740D01*
X10937228Y5339393D02*
X10902306D01*
Y5287010D01*
X10937228D01*
X10902306Y5313201D02*
X10919767D01*
X10802620Y6766873D02*
Y6723220D01*
X10811350Y6714490D01*
X10828811D01*
X10837542Y6723220D01*
Y6766873D01*
X10889925D02*
X10855003D01*
Y6740681D01*
X10872464Y6749412D01*
X10881194D01*
X10889925Y6740681D01*
Y6723220D01*
X10881194Y6714490D01*
X10863733D01*
X10855003Y6723220D01*
X10907386Y6766873D02*
Y6714490D01*
X10933577D01*
X10942308Y6723220D01*
Y6758142D01*
X10933577Y6766873D01*
X10907386D01*
X10797540Y8182923D02*
Y8139270D01*
X10806270Y8130540D01*
X10823731D01*
X10832462Y8139270D01*
Y8182923D01*
X10884845D02*
X10849923D01*
Y8156731D01*
X10867384Y8165462D01*
X10876114D01*
X10884845Y8156731D01*
Y8139270D01*
X10876114Y8130540D01*
X10858653D01*
X10849923Y8139270D01*
X10937228Y8174192D02*
X10928497Y8182923D01*
X10911036D01*
X10902306Y8174192D01*
Y8139270D01*
X10911036Y8130540D01*
X10928497D01*
X10937228Y8139270D01*
X10795000Y9602783D02*
Y9559130D01*
X10803730Y9550400D01*
X10821191D01*
X10829922Y9559130D01*
Y9602783D01*
X10882305D02*
X10847383D01*
Y9576591D01*
X10864844Y9585322D01*
X10873574D01*
X10882305Y9576591D01*
Y9559130D01*
X10873574Y9550400D01*
X10856113D01*
X10847383Y9559130D01*
X10899766Y9602783D02*
Y9550400D01*
X10925957D01*
X10934688Y9559130D01*
Y9567861D01*
X10925957Y9576591D01*
X10899766D01*
X10925957D01*
X10934688Y9585322D01*
Y9594052D01*
X10925957Y9602783D01*
X10899766D01*
X11278870Y592133D02*
X11313792D01*
X11296331D01*
Y539750D01*
X11331253D02*
Y592133D01*
X11357444D01*
X11366175Y583402D01*
Y565941D01*
X11357444Y557211D01*
X11331253D01*
X11383636Y539750D02*
X11401097D01*
X11392366D01*
Y592133D01*
X11383636Y583402D01*
X11427288D02*
X11436019Y592133D01*
X11453480D01*
X11462210Y583402D01*
Y548480D01*
X11453480Y539750D01*
X11436019D01*
X11427288Y548480D01*
Y583402D01*
X11479671Y592133D02*
Y539750D01*
Y565941D01*
X11514593D01*
Y592133D01*
Y539750D01*
X11268710Y2029773D02*
X11303632D01*
X11286171D01*
Y1977390D01*
X11321093D02*
Y2029773D01*
X11347284D01*
X11356015Y2021042D01*
Y2003581D01*
X11347284Y1994851D01*
X11321093D01*
X11373476Y1977390D02*
X11390937D01*
X11382206D01*
Y2029773D01*
X11373476Y2021042D01*
X11417128D02*
X11425859Y2029773D01*
X11443320D01*
X11452050Y2021042D01*
Y1986120D01*
X11443320Y1977390D01*
X11425859D01*
X11417128Y1986120D01*
Y2021042D01*
X11504433D02*
X11495703Y2029773D01*
X11478242D01*
X11469511Y2021042D01*
Y1986120D01*
X11478242Y1977390D01*
X11495703D01*
X11504433Y1986120D01*
Y2003581D01*
X11486972D01*
X11280140Y3464873D02*
X11315062D01*
X11297601D01*
Y3412490D01*
X11332523D02*
Y3464873D01*
X11358714D01*
X11367445Y3456142D01*
Y3438681D01*
X11358714Y3429951D01*
X11332523D01*
X11384906Y3412490D02*
X11402367D01*
X11393636D01*
Y3464873D01*
X11384906Y3456142D01*
X11428558D02*
X11437289Y3464873D01*
X11454750D01*
X11463480Y3456142D01*
Y3421220D01*
X11454750Y3412490D01*
X11437289D01*
X11428558Y3421220D01*
Y3456142D01*
X11515863Y3464873D02*
X11480941D01*
Y3438681D01*
X11498402D01*
X11480941D01*
Y3412490D01*
X11280140Y4884733D02*
X11315062D01*
X11297601D01*
Y4832350D01*
X11332523D02*
Y4884733D01*
X11358714D01*
X11367445Y4876002D01*
Y4858541D01*
X11358714Y4849811D01*
X11332523D01*
X11384906Y4832350D02*
X11402367D01*
X11393636D01*
Y4884733D01*
X11384906Y4876002D01*
X11428558D02*
X11437289Y4884733D01*
X11454750D01*
X11463480Y4876002D01*
Y4841080D01*
X11454750Y4832350D01*
X11437289D01*
X11428558Y4841080D01*
Y4876002D01*
X11515863Y4884733D02*
X11480941D01*
Y4832350D01*
X11515863D01*
X11480941Y4858541D02*
X11498402D01*
X11285220Y6312213D02*
X11320142D01*
X11302681D01*
Y6259830D01*
X11337603D02*
Y6312213D01*
X11363794D01*
X11372525Y6303482D01*
Y6286021D01*
X11363794Y6277291D01*
X11337603D01*
X11389986Y6259830D02*
X11407447D01*
X11398716D01*
Y6312213D01*
X11389986Y6303482D01*
X11433638D02*
X11442369Y6312213D01*
X11459830D01*
X11468560Y6303482D01*
Y6268560D01*
X11459830Y6259830D01*
X11442369D01*
X11433638Y6268560D01*
Y6303482D01*
X11486021Y6312213D02*
Y6259830D01*
X11512213D01*
X11520943Y6268560D01*
Y6303482D01*
X11512213Y6312213D01*
X11486021D01*
X11280140Y7728263D02*
X11315062D01*
X11297601D01*
Y7675880D01*
X11332523D02*
Y7728263D01*
X11358714D01*
X11367445Y7719532D01*
Y7702071D01*
X11358714Y7693341D01*
X11332523D01*
X11384906Y7675880D02*
X11402367D01*
X11393636D01*
Y7728263D01*
X11384906Y7719532D01*
X11428558D02*
X11437289Y7728263D01*
X11454750D01*
X11463480Y7719532D01*
Y7684610D01*
X11454750Y7675880D01*
X11437289D01*
X11428558Y7684610D01*
Y7719532D01*
X11515863D02*
X11507133Y7728263D01*
X11489672D01*
X11480941Y7719532D01*
Y7684610D01*
X11489672Y7675880D01*
X11507133D01*
X11515863Y7684610D01*
X11277600Y9148123D02*
X11312522D01*
X11295061D01*
Y9095740D01*
X11329983D02*
Y9148123D01*
X11356174D01*
X11364905Y9139392D01*
Y9121931D01*
X11356174Y9113201D01*
X11329983D01*
X11382366Y9095740D02*
X11399827D01*
X11391096D01*
Y9148123D01*
X11382366Y9139392D01*
X11426018D02*
X11434749Y9148123D01*
X11452210D01*
X11460940Y9139392D01*
Y9104470D01*
X11452210Y9095740D01*
X11434749D01*
X11426018Y9104470D01*
Y9139392D01*
X11478401Y9148123D02*
Y9095740D01*
X11504593D01*
X11513323Y9104470D01*
Y9113201D01*
X11504593Y9121931D01*
X11478401D01*
X11504593D01*
X11513323Y9130662D01*
Y9139392D01*
X11504593Y9148123D01*
X11478401D01*
X10463530Y1470973D02*
X10498452D01*
X10480991D01*
Y1418590D01*
X10515913D02*
Y1470973D01*
X10542104D01*
X10550835Y1462242D01*
Y1444781D01*
X10542104Y1436051D01*
X10515913D01*
X10568296Y1427320D02*
X10577026Y1418590D01*
X10594487D01*
X10603218Y1427320D01*
Y1462242D01*
X10594487Y1470973D01*
X10577026D01*
X10568296Y1462242D01*
Y1453512D01*
X10577026Y1444781D01*
X10603218D01*
X10620679Y1470973D02*
Y1418590D01*
Y1444781D01*
X10655601D01*
Y1470973D01*
Y1418590D01*
X10453370Y2908613D02*
X10488292D01*
X10470831D01*
Y2856230D01*
X10505753D02*
Y2908613D01*
X10531944D01*
X10540675Y2899882D01*
Y2882421D01*
X10531944Y2873691D01*
X10505753D01*
X10558136Y2864960D02*
X10566866Y2856230D01*
X10584327D01*
X10593058Y2864960D01*
Y2899882D01*
X10584327Y2908613D01*
X10566866D01*
X10558136Y2899882D01*
Y2891152D01*
X10566866Y2882421D01*
X10593058D01*
X10645441Y2899882D02*
X10636710Y2908613D01*
X10619249D01*
X10610519Y2899882D01*
Y2864960D01*
X10619249Y2856230D01*
X10636710D01*
X10645441Y2864960D01*
Y2882421D01*
X10627980D01*
X10464800Y4343713D02*
X10499722D01*
X10482261D01*
Y4291330D01*
X10517183D02*
Y4343713D01*
X10543374D01*
X10552105Y4334982D01*
Y4317521D01*
X10543374Y4308791D01*
X10517183D01*
X10569566Y4300060D02*
X10578296Y4291330D01*
X10595757D01*
X10604488Y4300060D01*
Y4334982D01*
X10595757Y4343713D01*
X10578296D01*
X10569566Y4334982D01*
Y4326252D01*
X10578296Y4317521D01*
X10604488D01*
X10656871Y4343713D02*
X10621949D01*
Y4317521D01*
X10639410D01*
X10621949D01*
Y4291330D01*
X10464800Y5763573D02*
X10499722D01*
X10482261D01*
Y5711190D01*
X10517183D02*
Y5763573D01*
X10543374D01*
X10552105Y5754842D01*
Y5737381D01*
X10543374Y5728651D01*
X10517183D01*
X10569566Y5719920D02*
X10578296Y5711190D01*
X10595757D01*
X10604488Y5719920D01*
Y5754842D01*
X10595757Y5763573D01*
X10578296D01*
X10569566Y5754842D01*
Y5746112D01*
X10578296Y5737381D01*
X10604488D01*
X10656871Y5763573D02*
X10621949D01*
Y5711190D01*
X10656871D01*
X10621949Y5737381D02*
X10639410D01*
X10469880Y7191053D02*
X10504802D01*
X10487341D01*
Y7138670D01*
X10522263D02*
Y7191053D01*
X10548454D01*
X10557185Y7182322D01*
Y7164861D01*
X10548454Y7156131D01*
X10522263D01*
X10574646Y7147400D02*
X10583376Y7138670D01*
X10600837D01*
X10609568Y7147400D01*
Y7182322D01*
X10600837Y7191053D01*
X10583376D01*
X10574646Y7182322D01*
Y7173592D01*
X10583376Y7164861D01*
X10609568D01*
X10627029Y7191053D02*
Y7138670D01*
X10653220D01*
X10661951Y7147400D01*
Y7182322D01*
X10653220Y7191053D01*
X10627029D01*
X10464800Y8607103D02*
X10499722D01*
X10482261D01*
Y8554720D01*
X10517183D02*
Y8607103D01*
X10543374D01*
X10552105Y8598372D01*
Y8580911D01*
X10543374Y8572181D01*
X10517183D01*
X10569566Y8563450D02*
X10578296Y8554720D01*
X10595757D01*
X10604488Y8563450D01*
Y8598372D01*
X10595757Y8607103D01*
X10578296D01*
X10569566Y8598372D01*
Y8589642D01*
X10578296Y8580911D01*
X10604488D01*
X10656871Y8598372D02*
X10648140Y8607103D01*
X10630679D01*
X10621949Y8598372D01*
Y8563450D01*
X10630679Y8554720D01*
X10648140D01*
X10656871Y8563450D01*
X10462260Y10026963D02*
X10497182D01*
X10479721D01*
Y9974580D01*
X10514643D02*
Y10026963D01*
X10540834D01*
X10549565Y10018232D01*
Y10000771D01*
X10540834Y9992041D01*
X10514643D01*
X10567026Y9983310D02*
X10575756Y9974580D01*
X10593217D01*
X10601948Y9983310D01*
Y10018232D01*
X10593217Y10026963D01*
X10575756D01*
X10567026Y10018232D01*
Y10009502D01*
X10575756Y10000771D01*
X10601948D01*
X10619409Y10026963D02*
Y9974580D01*
X10645600D01*
X10654331Y9983310D01*
Y9992041D01*
X10645600Y10000771D01*
X10619409D01*
X10645600D01*
X10654331Y10009502D01*
Y10018232D01*
X10645600Y10026963D01*
X10619409D01*
X8789670Y599753D02*
X8824592D01*
X8807131D01*
Y547370D01*
X8842053D02*
Y599753D01*
X8868244D01*
X8876975Y591022D01*
Y573561D01*
X8868244Y564831D01*
X8842053D01*
X8894436Y591022D02*
X8903166Y599753D01*
X8920627D01*
X8929358Y591022D01*
Y582292D01*
X8920627Y573561D01*
X8929358Y564831D01*
Y556100D01*
X8920627Y547370D01*
X8903166D01*
X8894436Y556100D01*
Y564831D01*
X8903166Y573561D01*
X8894436Y582292D01*
Y591022D01*
X8903166Y573561D02*
X8920627D01*
X8946819Y599753D02*
Y547370D01*
Y573561D01*
X8981741D01*
Y599753D01*
Y547370D01*
X8779510Y2037393D02*
X8814432D01*
X8796971D01*
Y1985010D01*
X8831893D02*
Y2037393D01*
X8858084D01*
X8866815Y2028662D01*
Y2011201D01*
X8858084Y2002471D01*
X8831893D01*
X8884276Y2028662D02*
X8893006Y2037393D01*
X8910467D01*
X8919198Y2028662D01*
Y2019932D01*
X8910467Y2011201D01*
X8919198Y2002471D01*
Y1993740D01*
X8910467Y1985010D01*
X8893006D01*
X8884276Y1993740D01*
Y2002471D01*
X8893006Y2011201D01*
X8884276Y2019932D01*
Y2028662D01*
X8893006Y2011201D02*
X8910467D01*
X8971581Y2028662D02*
X8962850Y2037393D01*
X8945389D01*
X8936659Y2028662D01*
Y1993740D01*
X8945389Y1985010D01*
X8962850D01*
X8971581Y1993740D01*
Y2011201D01*
X8954120D01*
X8788400Y3472493D02*
X8823322D01*
X8805861D01*
Y3420110D01*
X8840783D02*
Y3472493D01*
X8866974D01*
X8875705Y3463762D01*
Y3446301D01*
X8866974Y3437571D01*
X8840783D01*
X8893166Y3463762D02*
X8901896Y3472493D01*
X8919357D01*
X8928088Y3463762D01*
Y3455032D01*
X8919357Y3446301D01*
X8928088Y3437571D01*
Y3428840D01*
X8919357Y3420110D01*
X8901896D01*
X8893166Y3428840D01*
Y3437571D01*
X8901896Y3446301D01*
X8893166Y3455032D01*
Y3463762D01*
X8901896Y3446301D02*
X8919357D01*
X8980471Y3472493D02*
X8945549D01*
Y3446301D01*
X8963010D01*
X8945549D01*
Y3420110D01*
X8788400Y4892353D02*
X8823322D01*
X8805861D01*
Y4839970D01*
X8840783D02*
Y4892353D01*
X8866974D01*
X8875705Y4883622D01*
Y4866161D01*
X8866974Y4857431D01*
X8840783D01*
X8893166Y4883622D02*
X8901896Y4892353D01*
X8919357D01*
X8928088Y4883622D01*
Y4874892D01*
X8919357Y4866161D01*
X8928088Y4857431D01*
Y4848700D01*
X8919357Y4839970D01*
X8901896D01*
X8893166Y4848700D01*
Y4857431D01*
X8901896Y4866161D01*
X8893166Y4874892D01*
Y4883622D01*
X8901896Y4866161D02*
X8919357D01*
X8980471Y4892353D02*
X8945549D01*
Y4839970D01*
X8980471D01*
X8945549Y4866161D02*
X8963010D01*
X8793480Y6319833D02*
X8828402D01*
X8810941D01*
Y6267450D01*
X8845863D02*
Y6319833D01*
X8872054D01*
X8880785Y6311102D01*
Y6293641D01*
X8872054Y6284911D01*
X8845863D01*
X8898246Y6311102D02*
X8906976Y6319833D01*
X8924437D01*
X8933168Y6311102D01*
Y6302372D01*
X8924437Y6293641D01*
X8933168Y6284911D01*
Y6276180D01*
X8924437Y6267450D01*
X8906976D01*
X8898246Y6276180D01*
Y6284911D01*
X8906976Y6293641D01*
X8898246Y6302372D01*
Y6311102D01*
X8906976Y6293641D02*
X8924437D01*
X8950629Y6319833D02*
Y6267450D01*
X8976820D01*
X8985551Y6276180D01*
Y6311102D01*
X8976820Y6319833D01*
X8950629D01*
X8788400Y7735883D02*
X8823322D01*
X8805861D01*
Y7683500D01*
X8840783D02*
Y7735883D01*
X8866974D01*
X8875705Y7727152D01*
Y7709691D01*
X8866974Y7700961D01*
X8840783D01*
X8893166Y7727152D02*
X8901896Y7735883D01*
X8919357D01*
X8928088Y7727152D01*
Y7718422D01*
X8919357Y7709691D01*
X8928088Y7700961D01*
Y7692230D01*
X8919357Y7683500D01*
X8901896D01*
X8893166Y7692230D01*
Y7700961D01*
X8901896Y7709691D01*
X8893166Y7718422D01*
Y7727152D01*
X8901896Y7709691D02*
X8919357D01*
X8980471Y7727152D02*
X8971740Y7735883D01*
X8954279D01*
X8945549Y7727152D01*
Y7692230D01*
X8954279Y7683500D01*
X8971740D01*
X8980471Y7692230D01*
X8785860Y9155743D02*
X8820782D01*
X8803321D01*
Y9103360D01*
X8838243D02*
Y9155743D01*
X8864434D01*
X8873165Y9147012D01*
Y9129551D01*
X8864434Y9120821D01*
X8838243D01*
X8890626Y9147012D02*
X8899356Y9155743D01*
X8916817D01*
X8925548Y9147012D01*
Y9138282D01*
X8916817Y9129551D01*
X8925548Y9120821D01*
Y9112090D01*
X8916817Y9103360D01*
X8899356D01*
X8890626Y9112090D01*
Y9120821D01*
X8899356Y9129551D01*
X8890626Y9138282D01*
Y9147012D01*
X8899356Y9129551D02*
X8916817D01*
X8943009Y9155743D02*
Y9103360D01*
X8969200D01*
X8977931Y9112090D01*
Y9120821D01*
X8969200Y9129551D01*
X8943009D01*
X8969200D01*
X8977931Y9138282D01*
Y9147012D01*
X8969200Y9155743D01*
X8943009D01*
X11459210Y1314450D02*
Y1366833D01*
X11485401D01*
X11494132Y1358102D01*
Y1340641D01*
X11485401Y1331911D01*
X11459210D01*
X11476671D02*
X11494132Y1314450D01*
X11511593Y1358102D02*
X11520323Y1366833D01*
X11537784D01*
X11546515Y1358102D01*
Y1349372D01*
X11537784Y1340641D01*
X11529054D01*
X11537784D01*
X11546515Y1331911D01*
Y1323180D01*
X11537784Y1314450D01*
X11520323D01*
X11511593Y1323180D01*
X11563976Y1366833D02*
X11598898D01*
Y1358102D01*
X11563976Y1323180D01*
Y1314450D01*
X11616359Y1366833D02*
Y1314450D01*
Y1340641D01*
X11651281D01*
Y1366833D01*
Y1314450D01*
X11449050Y2752090D02*
Y2804473D01*
X11475241D01*
X11483972Y2795742D01*
Y2778281D01*
X11475241Y2769551D01*
X11449050D01*
X11466511D02*
X11483972Y2752090D01*
X11501433Y2795742D02*
X11510163Y2804473D01*
X11527624D01*
X11536355Y2795742D01*
Y2787012D01*
X11527624Y2778281D01*
X11518894D01*
X11527624D01*
X11536355Y2769551D01*
Y2760820D01*
X11527624Y2752090D01*
X11510163D01*
X11501433Y2760820D01*
X11553816Y2804473D02*
X11588738D01*
Y2795742D01*
X11553816Y2760820D01*
Y2752090D01*
X11641121Y2795742D02*
X11632390Y2804473D01*
X11614929D01*
X11606199Y2795742D01*
Y2760820D01*
X11614929Y2752090D01*
X11632390D01*
X11641121Y2760820D01*
Y2778281D01*
X11623660D01*
X11457940Y4187190D02*
Y4239573D01*
X11484131D01*
X11492862Y4230842D01*
Y4213381D01*
X11484131Y4204651D01*
X11457940D01*
X11475401D02*
X11492862Y4187190D01*
X11510323Y4230842D02*
X11519053Y4239573D01*
X11536514D01*
X11545245Y4230842D01*
Y4222112D01*
X11536514Y4213381D01*
X11527784D01*
X11536514D01*
X11545245Y4204651D01*
Y4195920D01*
X11536514Y4187190D01*
X11519053D01*
X11510323Y4195920D01*
X11562706Y4239573D02*
X11597628D01*
Y4230842D01*
X11562706Y4195920D01*
Y4187190D01*
X11650011Y4239573D02*
X11615089D01*
Y4213381D01*
X11632550D01*
X11615089D01*
Y4187190D01*
X11457940Y5607050D02*
Y5659433D01*
X11484131D01*
X11492862Y5650702D01*
Y5633241D01*
X11484131Y5624511D01*
X11457940D01*
X11475401D02*
X11492862Y5607050D01*
X11510323Y5650702D02*
X11519053Y5659433D01*
X11536514D01*
X11545245Y5650702D01*
Y5641972D01*
X11536514Y5633241D01*
X11527784D01*
X11536514D01*
X11545245Y5624511D01*
Y5615780D01*
X11536514Y5607050D01*
X11519053D01*
X11510323Y5615780D01*
X11562706Y5659433D02*
X11597628D01*
Y5650702D01*
X11562706Y5615780D01*
Y5607050D01*
X11650011Y5659433D02*
X11615089D01*
Y5607050D01*
X11650011D01*
X11615089Y5633241D02*
X11632550D01*
X11463020Y7034530D02*
Y7086913D01*
X11489211D01*
X11497942Y7078182D01*
Y7060721D01*
X11489211Y7051991D01*
X11463020D01*
X11480481D02*
X11497942Y7034530D01*
X11515403Y7078182D02*
X11524133Y7086913D01*
X11541594D01*
X11550325Y7078182D01*
Y7069452D01*
X11541594Y7060721D01*
X11532864D01*
X11541594D01*
X11550325Y7051991D01*
Y7043260D01*
X11541594Y7034530D01*
X11524133D01*
X11515403Y7043260D01*
X11567786Y7086913D02*
X11602708D01*
Y7078182D01*
X11567786Y7043260D01*
Y7034530D01*
X11620169Y7086913D02*
Y7034530D01*
X11646360D01*
X11655091Y7043260D01*
Y7078182D01*
X11646360Y7086913D01*
X11620169D01*
X11457940Y8450580D02*
Y8502963D01*
X11484131D01*
X11492862Y8494232D01*
Y8476771D01*
X11484131Y8468041D01*
X11457940D01*
X11475401D02*
X11492862Y8450580D01*
X11510323Y8494232D02*
X11519053Y8502963D01*
X11536514D01*
X11545245Y8494232D01*
Y8485502D01*
X11536514Y8476771D01*
X11527784D01*
X11536514D01*
X11545245Y8468041D01*
Y8459310D01*
X11536514Y8450580D01*
X11519053D01*
X11510323Y8459310D01*
X11562706Y8502963D02*
X11597628D01*
Y8494232D01*
X11562706Y8459310D01*
Y8450580D01*
X11650011Y8494232D02*
X11641280Y8502963D01*
X11623819D01*
X11615089Y8494232D01*
Y8459310D01*
X11623819Y8450580D01*
X11641280D01*
X11650011Y8459310D01*
X11455400Y9870440D02*
Y9922823D01*
X11481591D01*
X11490322Y9914092D01*
Y9896631D01*
X11481591Y9887901D01*
X11455400D01*
X11472861D02*
X11490322Y9870440D01*
X11507783Y9914092D02*
X11516513Y9922823D01*
X11533974D01*
X11542705Y9914092D01*
Y9905362D01*
X11533974Y9896631D01*
X11525244D01*
X11533974D01*
X11542705Y9887901D01*
Y9879170D01*
X11533974Y9870440D01*
X11516513D01*
X11507783Y9879170D01*
X11560166Y9922823D02*
X11595088D01*
Y9914092D01*
X11560166Y9879170D01*
Y9870440D01*
X11612549Y9922823D02*
Y9870440D01*
X11638740D01*
X11647471Y9879170D01*
Y9887901D01*
X11638740Y9896631D01*
X11612549D01*
X11638740D01*
X11647471Y9905362D01*
Y9914092D01*
X11638740Y9922823D01*
X11612549D01*
X10885170Y1418590D02*
Y1470973D01*
X10911361D01*
X10920092Y1462242D01*
Y1444781D01*
X10911361Y1436051D01*
X10885170D01*
X10902631D02*
X10920092Y1418590D01*
X10937553Y1462242D02*
X10946283Y1470973D01*
X10963744D01*
X10972475Y1462242D01*
Y1453512D01*
X10963744Y1444781D01*
X10955014D01*
X10963744D01*
X10972475Y1436051D01*
Y1427320D01*
X10963744Y1418590D01*
X10946283D01*
X10937553Y1427320D01*
X11024858Y1470973D02*
X11007397Y1462242D01*
X10989936Y1444781D01*
Y1427320D01*
X10998666Y1418590D01*
X11016127D01*
X11024858Y1427320D01*
Y1436051D01*
X11016127Y1444781D01*
X10989936D01*
X11042319Y1470973D02*
Y1418590D01*
Y1444781D01*
X11077241D01*
Y1470973D01*
Y1418590D01*
X10869930Y2861310D02*
Y2913693D01*
X10896121D01*
X10904852Y2904962D01*
Y2887501D01*
X10896121Y2878771D01*
X10869930D01*
X10887391D02*
X10904852Y2861310D01*
X10922313Y2904962D02*
X10931043Y2913693D01*
X10948504D01*
X10957235Y2904962D01*
Y2896232D01*
X10948504Y2887501D01*
X10939774D01*
X10948504D01*
X10957235Y2878771D01*
Y2870040D01*
X10948504Y2861310D01*
X10931043D01*
X10922313Y2870040D01*
X11009618Y2913693D02*
X10992157Y2904962D01*
X10974696Y2887501D01*
Y2870040D01*
X10983426Y2861310D01*
X11000887D01*
X11009618Y2870040D01*
Y2878771D01*
X11000887Y2887501D01*
X10974696D01*
X11062001Y2904962D02*
X11053270Y2913693D01*
X11035809D01*
X11027079Y2904962D01*
Y2870040D01*
X11035809Y2861310D01*
X11053270D01*
X11062001Y2870040D01*
Y2887501D01*
X11044540D01*
X10888980Y4283710D02*
Y4336093D01*
X10915171D01*
X10923902Y4327362D01*
Y4309901D01*
X10915171Y4301171D01*
X10888980D01*
X10906441D02*
X10923902Y4283710D01*
X10941363Y4327362D02*
X10950093Y4336093D01*
X10967554D01*
X10976285Y4327362D01*
Y4318632D01*
X10967554Y4309901D01*
X10958824D01*
X10967554D01*
X10976285Y4301171D01*
Y4292440D01*
X10967554Y4283710D01*
X10950093D01*
X10941363Y4292440D01*
X11028668Y4336093D02*
X11011207Y4327362D01*
X10993746Y4309901D01*
Y4292440D01*
X11002476Y4283710D01*
X11019937D01*
X11028668Y4292440D01*
Y4301171D01*
X11019937Y4309901D01*
X10993746D01*
X11081051Y4336093D02*
X11046129D01*
Y4309901D01*
X11063590D01*
X11046129D01*
Y4283710D01*
X10888980Y5703570D02*
Y5755953D01*
X10915171D01*
X10923902Y5747222D01*
Y5729761D01*
X10915171Y5721031D01*
X10888980D01*
X10906441D02*
X10923902Y5703570D01*
X10941363Y5747222D02*
X10950093Y5755953D01*
X10967554D01*
X10976285Y5747222D01*
Y5738492D01*
X10967554Y5729761D01*
X10958824D01*
X10967554D01*
X10976285Y5721031D01*
Y5712300D01*
X10967554Y5703570D01*
X10950093D01*
X10941363Y5712300D01*
X11028668Y5755953D02*
X11011207Y5747222D01*
X10993746Y5729761D01*
Y5712300D01*
X11002476Y5703570D01*
X11019937D01*
X11028668Y5712300D01*
Y5721031D01*
X11019937Y5729761D01*
X10993746D01*
X11081051Y5755953D02*
X11046129D01*
Y5703570D01*
X11081051D01*
X11046129Y5729761D02*
X11063590D01*
X10894060Y7131050D02*
Y7183433D01*
X10920251D01*
X10928982Y7174702D01*
Y7157241D01*
X10920251Y7148511D01*
X10894060D01*
X10911521D02*
X10928982Y7131050D01*
X10946443Y7174702D02*
X10955173Y7183433D01*
X10972634D01*
X10981365Y7174702D01*
Y7165972D01*
X10972634Y7157241D01*
X10963904D01*
X10972634D01*
X10981365Y7148511D01*
Y7139780D01*
X10972634Y7131050D01*
X10955173D01*
X10946443Y7139780D01*
X11033748Y7183433D02*
X11016287Y7174702D01*
X10998826Y7157241D01*
Y7139780D01*
X11007556Y7131050D01*
X11025017D01*
X11033748Y7139780D01*
Y7148511D01*
X11025017Y7157241D01*
X10998826D01*
X11051209Y7183433D02*
Y7131050D01*
X11077400D01*
X11086131Y7139780D01*
Y7174702D01*
X11077400Y7183433D01*
X11051209D01*
X10888980Y8547100D02*
Y8599483D01*
X10915171D01*
X10923902Y8590752D01*
Y8573291D01*
X10915171Y8564561D01*
X10888980D01*
X10906441D02*
X10923902Y8547100D01*
X10941363Y8590752D02*
X10950093Y8599483D01*
X10967554D01*
X10976285Y8590752D01*
Y8582022D01*
X10967554Y8573291D01*
X10958824D01*
X10967554D01*
X10976285Y8564561D01*
Y8555830D01*
X10967554Y8547100D01*
X10950093D01*
X10941363Y8555830D01*
X11028668Y8599483D02*
X11011207Y8590752D01*
X10993746Y8573291D01*
Y8555830D01*
X11002476Y8547100D01*
X11019937D01*
X11028668Y8555830D01*
Y8564561D01*
X11019937Y8573291D01*
X10993746D01*
X11081051Y8590752D02*
X11072320Y8599483D01*
X11054859D01*
X11046129Y8590752D01*
Y8555830D01*
X11054859Y8547100D01*
X11072320D01*
X11081051Y8555830D01*
X10886440Y9966960D02*
Y10019343D01*
X10912631D01*
X10921362Y10010612D01*
Y9993151D01*
X10912631Y9984421D01*
X10886440D01*
X10903901D02*
X10921362Y9966960D01*
X10938823Y10010612D02*
X10947553Y10019343D01*
X10965014D01*
X10973745Y10010612D01*
Y10001882D01*
X10965014Y9993151D01*
X10956284D01*
X10965014D01*
X10973745Y9984421D01*
Y9975690D01*
X10965014Y9966960D01*
X10947553D01*
X10938823Y9975690D01*
X11026128Y10019343D02*
X11008667Y10010612D01*
X10991206Y9993151D01*
Y9975690D01*
X10999936Y9966960D01*
X11017397D01*
X11026128Y9975690D01*
Y9984421D01*
X11017397Y9993151D01*
X10991206D01*
X11043589Y10019343D02*
Y9966960D01*
X11069780D01*
X11078511Y9975690D01*
Y9984421D01*
X11069780Y9993151D01*
X11043589D01*
X11069780D01*
X11078511Y10001882D01*
Y10010612D01*
X11069780Y10019343D01*
X11043589D01*
X8985250Y996950D02*
Y1049333D01*
X9011441D01*
X9020172Y1040602D01*
Y1023141D01*
X9011441Y1014411D01*
X8985250D01*
X9002711D02*
X9020172Y996950D01*
X9037633Y1040602D02*
X9046363Y1049333D01*
X9063824D01*
X9072555Y1040602D01*
Y1031872D01*
X9063824Y1023141D01*
X9055094D01*
X9063824D01*
X9072555Y1014411D01*
Y1005680D01*
X9063824Y996950D01*
X9046363D01*
X9037633Y1005680D01*
X9124938Y1049333D02*
X9090016D01*
Y1023141D01*
X9107477Y1031872D01*
X9116207D01*
X9124938Y1023141D01*
Y1005680D01*
X9116207Y996950D01*
X9098746D01*
X9090016Y1005680D01*
X9142399Y1049333D02*
Y996950D01*
Y1023141D01*
X9177321D01*
Y1049333D01*
Y996950D01*
X8975090Y2434590D02*
Y2486973D01*
X9001281D01*
X9010012Y2478242D01*
Y2460781D01*
X9001281Y2452051D01*
X8975090D01*
X8992551D02*
X9010012Y2434590D01*
X9027473Y2478242D02*
X9036203Y2486973D01*
X9053664D01*
X9062395Y2478242D01*
Y2469512D01*
X9053664Y2460781D01*
X9044934D01*
X9053664D01*
X9062395Y2452051D01*
Y2443320D01*
X9053664Y2434590D01*
X9036203D01*
X9027473Y2443320D01*
X9114778Y2486973D02*
X9079856D01*
Y2460781D01*
X9097317Y2469512D01*
X9106047D01*
X9114778Y2460781D01*
Y2443320D01*
X9106047Y2434590D01*
X9088586D01*
X9079856Y2443320D01*
X9167161Y2478242D02*
X9158430Y2486973D01*
X9140969D01*
X9132239Y2478242D01*
Y2443320D01*
X9140969Y2434590D01*
X9158430D01*
X9167161Y2443320D01*
Y2460781D01*
X9149700D01*
X8983980Y3869690D02*
Y3922073D01*
X9010171D01*
X9018902Y3913342D01*
Y3895881D01*
X9010171Y3887151D01*
X8983980D01*
X9001441D02*
X9018902Y3869690D01*
X9036363Y3913342D02*
X9045093Y3922073D01*
X9062554D01*
X9071285Y3913342D01*
Y3904612D01*
X9062554Y3895881D01*
X9053824D01*
X9062554D01*
X9071285Y3887151D01*
Y3878420D01*
X9062554Y3869690D01*
X9045093D01*
X9036363Y3878420D01*
X9123668Y3922073D02*
X9088746D01*
Y3895881D01*
X9106207Y3904612D01*
X9114937D01*
X9123668Y3895881D01*
Y3878420D01*
X9114937Y3869690D01*
X9097476D01*
X9088746Y3878420D01*
X9176051Y3922073D02*
X9141129D01*
Y3895881D01*
X9158590D01*
X9141129D01*
Y3869690D01*
X8983980Y5289550D02*
Y5341933D01*
X9010171D01*
X9018902Y5333202D01*
Y5315741D01*
X9010171Y5307011D01*
X8983980D01*
X9001441D02*
X9018902Y5289550D01*
X9036363Y5333202D02*
X9045093Y5341933D01*
X9062554D01*
X9071285Y5333202D01*
Y5324472D01*
X9062554Y5315741D01*
X9053824D01*
X9062554D01*
X9071285Y5307011D01*
Y5298280D01*
X9062554Y5289550D01*
X9045093D01*
X9036363Y5298280D01*
X9123668Y5341933D02*
X9088746D01*
Y5315741D01*
X9106207Y5324472D01*
X9114937D01*
X9123668Y5315741D01*
Y5298280D01*
X9114937Y5289550D01*
X9097476D01*
X9088746Y5298280D01*
X9176051Y5341933D02*
X9141129D01*
Y5289550D01*
X9176051D01*
X9141129Y5315741D02*
X9158590D01*
X8989060Y6717030D02*
Y6769413D01*
X9015251D01*
X9023982Y6760682D01*
Y6743221D01*
X9015251Y6734491D01*
X8989060D01*
X9006521D02*
X9023982Y6717030D01*
X9041443Y6760682D02*
X9050173Y6769413D01*
X9067634D01*
X9076365Y6760682D01*
Y6751952D01*
X9067634Y6743221D01*
X9058904D01*
X9067634D01*
X9076365Y6734491D01*
Y6725760D01*
X9067634Y6717030D01*
X9050173D01*
X9041443Y6725760D01*
X9128748Y6769413D02*
X9093826D01*
Y6743221D01*
X9111287Y6751952D01*
X9120017D01*
X9128748Y6743221D01*
Y6725760D01*
X9120017Y6717030D01*
X9102556D01*
X9093826Y6725760D01*
X9146209Y6769413D02*
Y6717030D01*
X9172400D01*
X9181131Y6725760D01*
Y6760682D01*
X9172400Y6769413D01*
X9146209D01*
X8983980Y8133080D02*
Y8185463D01*
X9010171D01*
X9018902Y8176732D01*
Y8159271D01*
X9010171Y8150541D01*
X8983980D01*
X9001441D02*
X9018902Y8133080D01*
X9036363Y8176732D02*
X9045093Y8185463D01*
X9062554D01*
X9071285Y8176732D01*
Y8168002D01*
X9062554Y8159271D01*
X9053824D01*
X9062554D01*
X9071285Y8150541D01*
Y8141810D01*
X9062554Y8133080D01*
X9045093D01*
X9036363Y8141810D01*
X9123668Y8185463D02*
X9088746D01*
Y8159271D01*
X9106207Y8168002D01*
X9114937D01*
X9123668Y8159271D01*
Y8141810D01*
X9114937Y8133080D01*
X9097476D01*
X9088746Y8141810D01*
X9176051Y8176732D02*
X9167320Y8185463D01*
X9149859D01*
X9141129Y8176732D01*
Y8141810D01*
X9149859Y8133080D01*
X9167320D01*
X9176051Y8141810D01*
X8981440Y9552940D02*
Y9605323D01*
X9007631D01*
X9016362Y9596592D01*
Y9579131D01*
X9007631Y9570401D01*
X8981440D01*
X8998901D02*
X9016362Y9552940D01*
X9033823Y9596592D02*
X9042553Y9605323D01*
X9060014D01*
X9068745Y9596592D01*
Y9587862D01*
X9060014Y9579131D01*
X9051284D01*
X9060014D01*
X9068745Y9570401D01*
Y9561670D01*
X9060014Y9552940D01*
X9042553D01*
X9033823Y9561670D01*
X9121128Y9605323D02*
X9086206D01*
Y9579131D01*
X9103667Y9587862D01*
X9112397D01*
X9121128Y9579131D01*
Y9561670D01*
X9112397Y9552940D01*
X9094936D01*
X9086206Y9561670D01*
X9138589Y9605323D02*
Y9552940D01*
X9164780D01*
X9173511Y9561670D01*
Y9570401D01*
X9164780Y9579131D01*
X9138589D01*
X9164780D01*
X9173511Y9587862D01*
Y9596592D01*
X9164780Y9605323D01*
X9138589D01*
X12058650Y1060450D02*
Y1112833D01*
X12084841D01*
X12093572Y1104102D01*
Y1086641D01*
X12084841Y1077911D01*
X12058650D01*
X12076111D02*
X12093572Y1060450D01*
X12111033Y1104102D02*
X12119763Y1112833D01*
X12137224D01*
X12145955Y1104102D01*
Y1095372D01*
X12137224Y1086641D01*
X12128494D01*
X12137224D01*
X12145955Y1077911D01*
Y1069180D01*
X12137224Y1060450D01*
X12119763D01*
X12111033Y1069180D01*
X12189607Y1060450D02*
Y1112833D01*
X12163416Y1086641D01*
X12198338D01*
X12215799Y1112833D02*
Y1060450D01*
Y1086641D01*
X12250721D01*
Y1112833D01*
Y1060450D01*
X12045950Y2498090D02*
Y2550473D01*
X12072141D01*
X12080872Y2541742D01*
Y2524281D01*
X12072141Y2515551D01*
X12045950D01*
X12063411D02*
X12080872Y2498090D01*
X12098333Y2541742D02*
X12107063Y2550473D01*
X12124524D01*
X12133255Y2541742D01*
Y2533012D01*
X12124524Y2524281D01*
X12115794D01*
X12124524D01*
X12133255Y2515551D01*
Y2506820D01*
X12124524Y2498090D01*
X12107063D01*
X12098333Y2506820D01*
X12176907Y2498090D02*
Y2550473D01*
X12150716Y2524281D01*
X12185638D01*
X12238021Y2541742D02*
X12229290Y2550473D01*
X12211829D01*
X12203099Y2541742D01*
Y2506820D01*
X12211829Y2498090D01*
X12229290D01*
X12238021Y2506820D01*
Y2524281D01*
X12220560D01*
X12057380Y3933190D02*
Y3985573D01*
X12083571D01*
X12092302Y3976842D01*
Y3959381D01*
X12083571Y3950651D01*
X12057380D01*
X12074841D02*
X12092302Y3933190D01*
X12109763Y3976842D02*
X12118493Y3985573D01*
X12135954D01*
X12144685Y3976842D01*
Y3968112D01*
X12135954Y3959381D01*
X12127224D01*
X12135954D01*
X12144685Y3950651D01*
Y3941920D01*
X12135954Y3933190D01*
X12118493D01*
X12109763Y3941920D01*
X12188337Y3933190D02*
Y3985573D01*
X12162146Y3959381D01*
X12197068D01*
X12249451Y3985573D02*
X12214529D01*
Y3959381D01*
X12231990D01*
X12214529D01*
Y3933190D01*
X12057380Y5353050D02*
Y5405433D01*
X12083571D01*
X12092302Y5396702D01*
Y5379241D01*
X12083571Y5370511D01*
X12057380D01*
X12074841D02*
X12092302Y5353050D01*
X12109763Y5396702D02*
X12118493Y5405433D01*
X12135954D01*
X12144685Y5396702D01*
Y5387972D01*
X12135954Y5379241D01*
X12127224D01*
X12135954D01*
X12144685Y5370511D01*
Y5361780D01*
X12135954Y5353050D01*
X12118493D01*
X12109763Y5361780D01*
X12188337Y5353050D02*
Y5405433D01*
X12162146Y5379241D01*
X12197068D01*
X12249451Y5405433D02*
X12214529D01*
Y5353050D01*
X12249451D01*
X12214529Y5379241D02*
X12231990D01*
X12062460Y6780530D02*
Y6832913D01*
X12088651D01*
X12097382Y6824182D01*
Y6806721D01*
X12088651Y6797991D01*
X12062460D01*
X12079921D02*
X12097382Y6780530D01*
X12114843Y6824182D02*
X12123573Y6832913D01*
X12141034D01*
X12149765Y6824182D01*
Y6815452D01*
X12141034Y6806721D01*
X12132304D01*
X12141034D01*
X12149765Y6797991D01*
Y6789260D01*
X12141034Y6780530D01*
X12123573D01*
X12114843Y6789260D01*
X12193417Y6780530D02*
Y6832913D01*
X12167226Y6806721D01*
X12202148D01*
X12219609Y6832913D02*
Y6780530D01*
X12245800D01*
X12254531Y6789260D01*
Y6824182D01*
X12245800Y6832913D01*
X12219609D01*
X12057380Y8196580D02*
Y8248963D01*
X12083571D01*
X12092302Y8240232D01*
Y8222771D01*
X12083571Y8214041D01*
X12057380D01*
X12074841D02*
X12092302Y8196580D01*
X12109763Y8240232D02*
X12118493Y8248963D01*
X12135954D01*
X12144685Y8240232D01*
Y8231502D01*
X12135954Y8222771D01*
X12127224D01*
X12135954D01*
X12144685Y8214041D01*
Y8205310D01*
X12135954Y8196580D01*
X12118493D01*
X12109763Y8205310D01*
X12188337Y8196580D02*
Y8248963D01*
X12162146Y8222771D01*
X12197068D01*
X12249451Y8240232D02*
X12240720Y8248963D01*
X12223259D01*
X12214529Y8240232D01*
Y8205310D01*
X12223259Y8196580D01*
X12240720D01*
X12249451Y8205310D01*
X12054840Y9616440D02*
Y9668823D01*
X12081031D01*
X12089762Y9660092D01*
Y9642631D01*
X12081031Y9633901D01*
X12054840D01*
X12072301D02*
X12089762Y9616440D01*
X12107223Y9660092D02*
X12115953Y9668823D01*
X12133414D01*
X12142145Y9660092D01*
Y9651362D01*
X12133414Y9642631D01*
X12124684D01*
X12133414D01*
X12142145Y9633901D01*
Y9625170D01*
X12133414Y9616440D01*
X12115953D01*
X12107223Y9625170D01*
X12185797Y9616440D02*
Y9668823D01*
X12159606Y9642631D01*
X12194528D01*
X12211989Y9668823D02*
Y9616440D01*
X12238180D01*
X12246911Y9625170D01*
Y9633901D01*
X12238180Y9642631D01*
X12211989D01*
X12238180D01*
X12246911Y9651362D01*
Y9660092D01*
X12238180Y9668823D01*
X12211989D01*
X10885170Y544830D02*
Y597213D01*
X10911361D01*
X10920092Y588482D01*
Y571021D01*
X10911361Y562291D01*
X10885170D01*
X10902631D02*
X10920092Y544830D01*
X10937553Y588482D02*
X10946283Y597213D01*
X10963744D01*
X10972475Y588482D01*
Y579752D01*
X10963744Y571021D01*
X10955014D01*
X10963744D01*
X10972475Y562291D01*
Y553560D01*
X10963744Y544830D01*
X10946283D01*
X10937553Y553560D01*
X10989936Y588482D02*
X10998666Y597213D01*
X11016127D01*
X11024858Y588482D01*
Y579752D01*
X11016127Y571021D01*
X11007397D01*
X11016127D01*
X11024858Y562291D01*
Y553560D01*
X11016127Y544830D01*
X10998666D01*
X10989936Y553560D01*
X11042319Y597213D02*
Y544830D01*
Y571021D01*
X11077241D01*
Y597213D01*
Y544830D01*
X10880090Y1990090D02*
Y2042473D01*
X10906281D01*
X10915012Y2033742D01*
Y2016281D01*
X10906281Y2007551D01*
X10880090D01*
X10897551D02*
X10915012Y1990090D01*
X10932473Y2033742D02*
X10941203Y2042473D01*
X10958664D01*
X10967395Y2033742D01*
Y2025012D01*
X10958664Y2016281D01*
X10949934D01*
X10958664D01*
X10967395Y2007551D01*
Y1998820D01*
X10958664Y1990090D01*
X10941203D01*
X10932473Y1998820D01*
X10984856Y2033742D02*
X10993586Y2042473D01*
X11011047D01*
X11019778Y2033742D01*
Y2025012D01*
X11011047Y2016281D01*
X11002317D01*
X11011047D01*
X11019778Y2007551D01*
Y1998820D01*
X11011047Y1990090D01*
X10993586D01*
X10984856Y1998820D01*
X11072161Y2033742D02*
X11063430Y2042473D01*
X11045969D01*
X11037239Y2033742D01*
Y1998820D01*
X11045969Y1990090D01*
X11063430D01*
X11072161Y1998820D01*
Y2016281D01*
X11054700D01*
X10883900Y3417570D02*
Y3469953D01*
X10910091D01*
X10918822Y3461222D01*
Y3443761D01*
X10910091Y3435031D01*
X10883900D01*
X10901361D02*
X10918822Y3417570D01*
X10936283Y3461222D02*
X10945013Y3469953D01*
X10962474D01*
X10971205Y3461222D01*
Y3452492D01*
X10962474Y3443761D01*
X10953744D01*
X10962474D01*
X10971205Y3435031D01*
Y3426300D01*
X10962474Y3417570D01*
X10945013D01*
X10936283Y3426300D01*
X10988666Y3461222D02*
X10997396Y3469953D01*
X11014857D01*
X11023588Y3461222D01*
Y3452492D01*
X11014857Y3443761D01*
X11006127D01*
X11014857D01*
X11023588Y3435031D01*
Y3426300D01*
X11014857Y3417570D01*
X10997396D01*
X10988666Y3426300D01*
X11075971Y3469953D02*
X11041049D01*
Y3443761D01*
X11058510D01*
X11041049D01*
Y3417570D01*
X10883900Y4837430D02*
Y4889813D01*
X10910091D01*
X10918822Y4881082D01*
Y4863621D01*
X10910091Y4854891D01*
X10883900D01*
X10901361D02*
X10918822Y4837430D01*
X10936283Y4881082D02*
X10945013Y4889813D01*
X10962474D01*
X10971205Y4881082D01*
Y4872352D01*
X10962474Y4863621D01*
X10953744D01*
X10962474D01*
X10971205Y4854891D01*
Y4846160D01*
X10962474Y4837430D01*
X10945013D01*
X10936283Y4846160D01*
X10988666Y4881082D02*
X10997396Y4889813D01*
X11014857D01*
X11023588Y4881082D01*
Y4872352D01*
X11014857Y4863621D01*
X11006127D01*
X11014857D01*
X11023588Y4854891D01*
Y4846160D01*
X11014857Y4837430D01*
X10997396D01*
X10988666Y4846160D01*
X11075971Y4889813D02*
X11041049D01*
Y4837430D01*
X11075971D01*
X11041049Y4863621D02*
X11058510D01*
X10888980Y6264910D02*
Y6317293D01*
X10915171D01*
X10923902Y6308562D01*
Y6291101D01*
X10915171Y6282371D01*
X10888980D01*
X10906441D02*
X10923902Y6264910D01*
X10941363Y6308562D02*
X10950093Y6317293D01*
X10967554D01*
X10976285Y6308562D01*
Y6299832D01*
X10967554Y6291101D01*
X10958824D01*
X10967554D01*
X10976285Y6282371D01*
Y6273640D01*
X10967554Y6264910D01*
X10950093D01*
X10941363Y6273640D01*
X10993746Y6308562D02*
X11002476Y6317293D01*
X11019937D01*
X11028668Y6308562D01*
Y6299832D01*
X11019937Y6291101D01*
X11011207D01*
X11019937D01*
X11028668Y6282371D01*
Y6273640D01*
X11019937Y6264910D01*
X11002476D01*
X10993746Y6273640D01*
X11046129Y6317293D02*
Y6264910D01*
X11072320D01*
X11081051Y6273640D01*
Y6308562D01*
X11072320Y6317293D01*
X11046129D01*
X10883900Y7680960D02*
Y7733343D01*
X10910091D01*
X10918822Y7724612D01*
Y7707151D01*
X10910091Y7698421D01*
X10883900D01*
X10901361D02*
X10918822Y7680960D01*
X10936283Y7724612D02*
X10945013Y7733343D01*
X10962474D01*
X10971205Y7724612D01*
Y7715882D01*
X10962474Y7707151D01*
X10953744D01*
X10962474D01*
X10971205Y7698421D01*
Y7689690D01*
X10962474Y7680960D01*
X10945013D01*
X10936283Y7689690D01*
X10988666Y7724612D02*
X10997396Y7733343D01*
X11014857D01*
X11023588Y7724612D01*
Y7715882D01*
X11014857Y7707151D01*
X11006127D01*
X11014857D01*
X11023588Y7698421D01*
Y7689690D01*
X11014857Y7680960D01*
X10997396D01*
X10988666Y7689690D01*
X11075971Y7724612D02*
X11067240Y7733343D01*
X11049779D01*
X11041049Y7724612D01*
Y7689690D01*
X11049779Y7680960D01*
X11067240D01*
X11075971Y7689690D01*
X10881360Y9100820D02*
Y9153203D01*
X10907551D01*
X10916282Y9144472D01*
Y9127011D01*
X10907551Y9118281D01*
X10881360D01*
X10898821D02*
X10916282Y9100820D01*
X10933743Y9144472D02*
X10942473Y9153203D01*
X10959934D01*
X10968665Y9144472D01*
Y9135742D01*
X10959934Y9127011D01*
X10951204D01*
X10959934D01*
X10968665Y9118281D01*
Y9109550D01*
X10959934Y9100820D01*
X10942473D01*
X10933743Y9109550D01*
X10986126Y9144472D02*
X10994856Y9153203D01*
X11012317D01*
X11021048Y9144472D01*
Y9135742D01*
X11012317Y9127011D01*
X11003587D01*
X11012317D01*
X11021048Y9118281D01*
Y9109550D01*
X11012317Y9100820D01*
X10994856D01*
X10986126Y9109550D01*
X11038509Y9153203D02*
Y9100820D01*
X11064700D01*
X11073431Y9109550D01*
Y9118281D01*
X11064700Y9127011D01*
X11038509D01*
X11064700D01*
X11073431Y9135742D01*
Y9144472D01*
X11064700Y9153203D01*
X11038509D01*
X9486900Y998220D02*
Y1050603D01*
X9513091D01*
X9521822Y1041872D01*
Y1024411D01*
X9513091Y1015681D01*
X9486900D01*
X9504361D02*
X9521822Y998220D01*
X9539283Y1041872D02*
X9548013Y1050603D01*
X9565474D01*
X9574205Y1041872D01*
Y1033142D01*
X9565474Y1024411D01*
X9556744D01*
X9565474D01*
X9574205Y1015681D01*
Y1006950D01*
X9565474Y998220D01*
X9548013D01*
X9539283Y1006950D01*
X9626588Y998220D02*
X9591666D01*
X9626588Y1033142D01*
Y1041872D01*
X9617857Y1050603D01*
X9600396D01*
X9591666Y1041872D01*
X9644049Y1050603D02*
Y998220D01*
Y1024411D01*
X9678971D01*
Y1050603D01*
Y998220D01*
X9479280Y2434020D02*
Y2486403D01*
X9505471D01*
X9514202Y2477672D01*
Y2460211D01*
X9505471Y2451481D01*
X9479280D01*
X9496741D02*
X9514202Y2434020D01*
X9531663Y2477672D02*
X9540393Y2486403D01*
X9557854D01*
X9566585Y2477672D01*
Y2468942D01*
X9557854Y2460211D01*
X9549124D01*
X9557854D01*
X9566585Y2451481D01*
Y2442751D01*
X9557854Y2434020D01*
X9540393D01*
X9531663Y2442751D01*
X9618968Y2434020D02*
X9584046D01*
X9618968Y2468942D01*
Y2477672D01*
X9610237Y2486403D01*
X9592776D01*
X9584046Y2477672D01*
X9671351D02*
X9662620Y2486403D01*
X9645159D01*
X9636429Y2477672D01*
Y2442751D01*
X9645159Y2434020D01*
X9662620D01*
X9671351Y2442751D01*
Y2460211D01*
X9653890D01*
X9478010Y3869690D02*
Y3922073D01*
X9504201D01*
X9512932Y3913342D01*
Y3895881D01*
X9504201Y3887151D01*
X9478010D01*
X9495471D02*
X9512932Y3869690D01*
X9530393Y3913342D02*
X9539123Y3922073D01*
X9556584D01*
X9565315Y3913342D01*
Y3904612D01*
X9556584Y3895881D01*
X9547854D01*
X9556584D01*
X9565315Y3887151D01*
Y3878420D01*
X9556584Y3869690D01*
X9539123D01*
X9530393Y3878420D01*
X9617698Y3869690D02*
X9582776D01*
X9617698Y3904612D01*
Y3913342D01*
X9608967Y3922073D01*
X9591506D01*
X9582776Y3913342D01*
X9670081Y3922073D02*
X9635159D01*
Y3895881D01*
X9652620D01*
X9635159D01*
Y3869690D01*
X9478010Y5289550D02*
Y5341933D01*
X9504201D01*
X9512932Y5333202D01*
Y5315741D01*
X9504201Y5307011D01*
X9478010D01*
X9495471D02*
X9512932Y5289550D01*
X9530393Y5333202D02*
X9539123Y5341933D01*
X9556584D01*
X9565315Y5333202D01*
Y5324472D01*
X9556584Y5315741D01*
X9547854D01*
X9556584D01*
X9565315Y5307011D01*
Y5298280D01*
X9556584Y5289550D01*
X9539123D01*
X9530393Y5298280D01*
X9617698Y5289550D02*
X9582776D01*
X9617698Y5324472D01*
Y5333202D01*
X9608967Y5341933D01*
X9591506D01*
X9582776Y5333202D01*
X9670081Y5341933D02*
X9635159D01*
Y5289550D01*
X9670081D01*
X9635159Y5315741D02*
X9652620D01*
X9483090Y6717030D02*
Y6769413D01*
X9509281D01*
X9518012Y6760682D01*
Y6743221D01*
X9509281Y6734491D01*
X9483090D01*
X9500551D02*
X9518012Y6717030D01*
X9535473Y6760682D02*
X9544203Y6769413D01*
X9561664D01*
X9570395Y6760682D01*
Y6751952D01*
X9561664Y6743221D01*
X9552934D01*
X9561664D01*
X9570395Y6734491D01*
Y6725760D01*
X9561664Y6717030D01*
X9544203D01*
X9535473Y6725760D01*
X9622778Y6717030D02*
X9587856D01*
X9622778Y6751952D01*
Y6760682D01*
X9614047Y6769413D01*
X9596586D01*
X9587856Y6760682D01*
X9640239Y6769413D02*
Y6717030D01*
X9666430D01*
X9675161Y6725760D01*
Y6760682D01*
X9666430Y6769413D01*
X9640239D01*
X9478010Y8133080D02*
Y8185463D01*
X9504201D01*
X9512932Y8176732D01*
Y8159271D01*
X9504201Y8150541D01*
X9478010D01*
X9495471D02*
X9512932Y8133080D01*
X9530393Y8176732D02*
X9539123Y8185463D01*
X9556584D01*
X9565315Y8176732D01*
Y8168002D01*
X9556584Y8159271D01*
X9547854D01*
X9556584D01*
X9565315Y8150541D01*
Y8141810D01*
X9556584Y8133080D01*
X9539123D01*
X9530393Y8141810D01*
X9617698Y8133080D02*
X9582776D01*
X9617698Y8168002D01*
Y8176732D01*
X9608967Y8185463D01*
X9591506D01*
X9582776Y8176732D01*
X9670081D02*
X9661350Y8185463D01*
X9643889D01*
X9635159Y8176732D01*
Y8141810D01*
X9643889Y8133080D01*
X9661350D01*
X9670081Y8141810D01*
X9475470Y9552940D02*
Y9605323D01*
X9501661D01*
X9510392Y9596592D01*
Y9579131D01*
X9501661Y9570401D01*
X9475470D01*
X9492931D02*
X9510392Y9552940D01*
X9527853Y9596592D02*
X9536583Y9605323D01*
X9554044D01*
X9562775Y9596592D01*
Y9587862D01*
X9554044Y9579131D01*
X9545314D01*
X9554044D01*
X9562775Y9570401D01*
Y9561670D01*
X9554044Y9552940D01*
X9536583D01*
X9527853Y9561670D01*
X9615158Y9552940D02*
X9580236D01*
X9615158Y9587862D01*
Y9596592D01*
X9606427Y9605323D01*
X9588966D01*
X9580236Y9596592D01*
X9632619Y9605323D02*
Y9552940D01*
X9658810D01*
X9667541Y9561670D01*
Y9570401D01*
X9658810Y9579131D01*
X9632619D01*
X9658810D01*
X9667541Y9587862D01*
Y9596592D01*
X9658810Y9605323D01*
X9632619D01*
X11461750Y796290D02*
Y848673D01*
X11487941D01*
X11496672Y839942D01*
Y822481D01*
X11487941Y813751D01*
X11461750D01*
X11479211D02*
X11496672Y796290D01*
X11514133Y839942D02*
X11522863Y848673D01*
X11540324D01*
X11549055Y839942D01*
Y831212D01*
X11540324Y822481D01*
X11531594D01*
X11540324D01*
X11549055Y813751D01*
Y805020D01*
X11540324Y796290D01*
X11522863D01*
X11514133Y805020D01*
X11566516Y796290D02*
X11583977D01*
X11575246D01*
Y848673D01*
X11566516Y839942D01*
X11610168Y848673D02*
Y796290D01*
Y822481D01*
X11645090D01*
Y848673D01*
Y796290D01*
X11451590Y2233930D02*
Y2286313D01*
X11477781D01*
X11486512Y2277582D01*
Y2260121D01*
X11477781Y2251391D01*
X11451590D01*
X11469051D02*
X11486512Y2233930D01*
X11503973Y2277582D02*
X11512703Y2286313D01*
X11530164D01*
X11538895Y2277582D01*
Y2268852D01*
X11530164Y2260121D01*
X11521434D01*
X11530164D01*
X11538895Y2251391D01*
Y2242660D01*
X11530164Y2233930D01*
X11512703D01*
X11503973Y2242660D01*
X11556356Y2233930D02*
X11573817D01*
X11565086D01*
Y2286313D01*
X11556356Y2277582D01*
X11634930D02*
X11626200Y2286313D01*
X11608739D01*
X11600008Y2277582D01*
Y2242660D01*
X11608739Y2233930D01*
X11626200D01*
X11634930Y2242660D01*
Y2260121D01*
X11617469D01*
X11463020Y3669030D02*
Y3721413D01*
X11489211D01*
X11497942Y3712682D01*
Y3695221D01*
X11489211Y3686491D01*
X11463020D01*
X11480481D02*
X11497942Y3669030D01*
X11515403Y3712682D02*
X11524133Y3721413D01*
X11541594D01*
X11550325Y3712682D01*
Y3703952D01*
X11541594Y3695221D01*
X11532864D01*
X11541594D01*
X11550325Y3686491D01*
Y3677760D01*
X11541594Y3669030D01*
X11524133D01*
X11515403Y3677760D01*
X11567786Y3669030D02*
X11585247D01*
X11576516D01*
Y3721413D01*
X11567786Y3712682D01*
X11646360Y3721413D02*
X11611438D01*
Y3695221D01*
X11628899D01*
X11611438D01*
Y3669030D01*
X11463020Y5088890D02*
Y5141273D01*
X11489211D01*
X11497942Y5132542D01*
Y5115081D01*
X11489211Y5106351D01*
X11463020D01*
X11480481D02*
X11497942Y5088890D01*
X11515403Y5132542D02*
X11524133Y5141273D01*
X11541594D01*
X11550325Y5132542D01*
Y5123812D01*
X11541594Y5115081D01*
X11532864D01*
X11541594D01*
X11550325Y5106351D01*
Y5097620D01*
X11541594Y5088890D01*
X11524133D01*
X11515403Y5097620D01*
X11567786Y5088890D02*
X11585247D01*
X11576516D01*
Y5141273D01*
X11567786Y5132542D01*
X11646360Y5141273D02*
X11611438D01*
Y5088890D01*
X11646360D01*
X11611438Y5115081D02*
X11628899D01*
X11468100Y6516370D02*
Y6568753D01*
X11494291D01*
X11503022Y6560022D01*
Y6542561D01*
X11494291Y6533831D01*
X11468100D01*
X11485561D02*
X11503022Y6516370D01*
X11520483Y6560022D02*
X11529213Y6568753D01*
X11546674D01*
X11555405Y6560022D01*
Y6551292D01*
X11546674Y6542561D01*
X11537944D01*
X11546674D01*
X11555405Y6533831D01*
Y6525100D01*
X11546674Y6516370D01*
X11529213D01*
X11520483Y6525100D01*
X11572866Y6516370D02*
X11590327D01*
X11581596D01*
Y6568753D01*
X11572866Y6560022D01*
X11616518Y6568753D02*
Y6516370D01*
X11642710D01*
X11651440Y6525100D01*
Y6560022D01*
X11642710Y6568753D01*
X11616518D01*
X11463020Y7932420D02*
Y7984803D01*
X11489211D01*
X11497942Y7976072D01*
Y7958611D01*
X11489211Y7949881D01*
X11463020D01*
X11480481D02*
X11497942Y7932420D01*
X11515403Y7976072D02*
X11524133Y7984803D01*
X11541594D01*
X11550325Y7976072D01*
Y7967342D01*
X11541594Y7958611D01*
X11532864D01*
X11541594D01*
X11550325Y7949881D01*
Y7941150D01*
X11541594Y7932420D01*
X11524133D01*
X11515403Y7941150D01*
X11567786Y7932420D02*
X11585247D01*
X11576516D01*
Y7984803D01*
X11567786Y7976072D01*
X11646360D02*
X11637630Y7984803D01*
X11620169D01*
X11611438Y7976072D01*
Y7941150D01*
X11620169Y7932420D01*
X11637630D01*
X11646360Y7941150D01*
X11460480Y9352280D02*
Y9404663D01*
X11486671D01*
X11495402Y9395932D01*
Y9378471D01*
X11486671Y9369741D01*
X11460480D01*
X11477941D02*
X11495402Y9352280D01*
X11512863Y9395932D02*
X11521593Y9404663D01*
X11539054D01*
X11547785Y9395932D01*
Y9387202D01*
X11539054Y9378471D01*
X11530324D01*
X11539054D01*
X11547785Y9369741D01*
Y9361010D01*
X11539054Y9352280D01*
X11521593D01*
X11512863Y9361010D01*
X11565246Y9352280D02*
X11582707D01*
X11573976D01*
Y9404663D01*
X11565246Y9395932D01*
X11608898Y9404663D02*
Y9352280D01*
X11635090D01*
X11643820Y9361010D01*
Y9369741D01*
X11635090Y9378471D01*
X11608898D01*
X11635090D01*
X11643820Y9387202D01*
Y9395932D01*
X11635090Y9404663D01*
X11608898D01*
X10280650Y996950D02*
Y1049333D01*
X10306841D01*
X10315572Y1040602D01*
Y1023141D01*
X10306841Y1014411D01*
X10280650D01*
X10298111D02*
X10315572Y996950D01*
X10333033Y1040602D02*
X10341763Y1049333D01*
X10359224D01*
X10367955Y1040602D01*
Y1031872D01*
X10359224Y1023141D01*
X10350494D01*
X10359224D01*
X10367955Y1014411D01*
Y1005680D01*
X10359224Y996950D01*
X10341763D01*
X10333033Y1005680D01*
X10385416Y1040602D02*
X10394146Y1049333D01*
X10411607D01*
X10420338Y1040602D01*
Y1005680D01*
X10411607Y996950D01*
X10394146D01*
X10385416Y1005680D01*
Y1040602D01*
X10437799Y1049333D02*
Y996950D01*
Y1023141D01*
X10472721D01*
Y1049333D01*
Y996950D01*
X10270490Y2437130D02*
Y2489513D01*
X10296681D01*
X10305412Y2480782D01*
Y2463321D01*
X10296681Y2454591D01*
X10270490D01*
X10287951D02*
X10305412Y2437130D01*
X10322873Y2480782D02*
X10331603Y2489513D01*
X10349064D01*
X10357795Y2480782D01*
Y2472052D01*
X10349064Y2463321D01*
X10340334D01*
X10349064D01*
X10357795Y2454591D01*
Y2445860D01*
X10349064Y2437130D01*
X10331603D01*
X10322873Y2445860D01*
X10375256Y2480782D02*
X10383986Y2489513D01*
X10401447D01*
X10410178Y2480782D01*
Y2445860D01*
X10401447Y2437130D01*
X10383986D01*
X10375256Y2445860D01*
Y2480782D01*
X10462561D02*
X10453830Y2489513D01*
X10436369D01*
X10427639Y2480782D01*
Y2445860D01*
X10436369Y2437130D01*
X10453830D01*
X10462561Y2445860D01*
Y2463321D01*
X10445100D01*
X10281920Y3869690D02*
Y3922073D01*
X10308111D01*
X10316842Y3913342D01*
Y3895881D01*
X10308111Y3887151D01*
X10281920D01*
X10299381D02*
X10316842Y3869690D01*
X10334303Y3913342D02*
X10343033Y3922073D01*
X10360494D01*
X10369225Y3913342D01*
Y3904612D01*
X10360494Y3895881D01*
X10351764D01*
X10360494D01*
X10369225Y3887151D01*
Y3878420D01*
X10360494Y3869690D01*
X10343033D01*
X10334303Y3878420D01*
X10386686Y3913342D02*
X10395416Y3922073D01*
X10412877D01*
X10421608Y3913342D01*
Y3878420D01*
X10412877Y3869690D01*
X10395416D01*
X10386686Y3878420D01*
Y3913342D01*
X10473991Y3922073D02*
X10439069D01*
Y3895881D01*
X10456530D01*
X10439069D01*
Y3869690D01*
X10281920Y5289550D02*
Y5341933D01*
X10308111D01*
X10316842Y5333202D01*
Y5315741D01*
X10308111Y5307011D01*
X10281920D01*
X10299381D02*
X10316842Y5289550D01*
X10334303Y5333202D02*
X10343033Y5341933D01*
X10360494D01*
X10369225Y5333202D01*
Y5324472D01*
X10360494Y5315741D01*
X10351764D01*
X10360494D01*
X10369225Y5307011D01*
Y5298280D01*
X10360494Y5289550D01*
X10343033D01*
X10334303Y5298280D01*
X10386686Y5333202D02*
X10395416Y5341933D01*
X10412877D01*
X10421608Y5333202D01*
Y5298280D01*
X10412877Y5289550D01*
X10395416D01*
X10386686Y5298280D01*
Y5333202D01*
X10473991Y5341933D02*
X10439069D01*
Y5289550D01*
X10473991D01*
X10439069Y5315741D02*
X10456530D01*
X10287000Y6717030D02*
Y6769413D01*
X10313191D01*
X10321922Y6760682D01*
Y6743221D01*
X10313191Y6734491D01*
X10287000D01*
X10304461D02*
X10321922Y6717030D01*
X10339383Y6760682D02*
X10348113Y6769413D01*
X10365574D01*
X10374305Y6760682D01*
Y6751952D01*
X10365574Y6743221D01*
X10356844D01*
X10365574D01*
X10374305Y6734491D01*
Y6725760D01*
X10365574Y6717030D01*
X10348113D01*
X10339383Y6725760D01*
X10391766Y6760682D02*
X10400496Y6769413D01*
X10417957D01*
X10426688Y6760682D01*
Y6725760D01*
X10417957Y6717030D01*
X10400496D01*
X10391766Y6725760D01*
Y6760682D01*
X10444149Y6769413D02*
Y6717030D01*
X10470340D01*
X10479071Y6725760D01*
Y6760682D01*
X10470340Y6769413D01*
X10444149D01*
X10281920Y8133080D02*
Y8185463D01*
X10308111D01*
X10316842Y8176732D01*
Y8159271D01*
X10308111Y8150541D01*
X10281920D01*
X10299381D02*
X10316842Y8133080D01*
X10334303Y8176732D02*
X10343033Y8185463D01*
X10360494D01*
X10369225Y8176732D01*
Y8168002D01*
X10360494Y8159271D01*
X10351764D01*
X10360494D01*
X10369225Y8150541D01*
Y8141810D01*
X10360494Y8133080D01*
X10343033D01*
X10334303Y8141810D01*
X10386686Y8176732D02*
X10395416Y8185463D01*
X10412877D01*
X10421608Y8176732D01*
Y8141810D01*
X10412877Y8133080D01*
X10395416D01*
X10386686Y8141810D01*
Y8176732D01*
X10473991D02*
X10465260Y8185463D01*
X10447799D01*
X10439069Y8176732D01*
Y8141810D01*
X10447799Y8133080D01*
X10465260D01*
X10473991Y8141810D01*
X10279380Y9552940D02*
Y9605323D01*
X10305571D01*
X10314302Y9596592D01*
Y9579131D01*
X10305571Y9570401D01*
X10279380D01*
X10296841D02*
X10314302Y9552940D01*
X10331763Y9596592D02*
X10340493Y9605323D01*
X10357954D01*
X10366685Y9596592D01*
Y9587862D01*
X10357954Y9579131D01*
X10349224D01*
X10357954D01*
X10366685Y9570401D01*
Y9561670D01*
X10357954Y9552940D01*
X10340493D01*
X10331763Y9561670D01*
X10384146Y9596592D02*
X10392876Y9605323D01*
X10410337D01*
X10419068Y9596592D01*
Y9561670D01*
X10410337Y9552940D01*
X10392876D01*
X10384146Y9561670D01*
Y9596592D01*
X10436529Y9605323D02*
Y9552940D01*
X10462720D01*
X10471451Y9561670D01*
Y9570401D01*
X10462720Y9579131D01*
X10436529D01*
X10462720D01*
X10471451Y9587862D01*
Y9596592D01*
X10462720Y9605323D01*
X10436529D01*
X9505950Y518473D02*
Y466090D01*
X9532141D01*
X9540872Y474820D01*
Y509742D01*
X9532141Y518473D01*
X9505950D01*
X9558333Y474820D02*
X9567063Y466090D01*
X9584524D01*
X9593255Y474820D01*
Y509742D01*
X9584524Y518473D01*
X9567063D01*
X9558333Y509742D01*
Y501012D01*
X9567063Y492281D01*
X9593255D01*
X9610716Y518473D02*
Y466090D01*
Y492281D01*
X9645638D01*
Y518473D01*
Y466090D01*
X9495790Y1956113D02*
Y1903730D01*
X9521981D01*
X9530712Y1912460D01*
Y1947382D01*
X9521981Y1956113D01*
X9495790D01*
X9548173Y1912460D02*
X9556903Y1903730D01*
X9574364D01*
X9583095Y1912460D01*
Y1947382D01*
X9574364Y1956113D01*
X9556903D01*
X9548173Y1947382D01*
Y1938652D01*
X9556903Y1929921D01*
X9583095D01*
X9635478Y1947382D02*
X9626747Y1956113D01*
X9609286D01*
X9600556Y1947382D01*
Y1912460D01*
X9609286Y1903730D01*
X9626747D01*
X9635478Y1912460D01*
Y1929921D01*
X9618017D01*
X9507220Y3388673D02*
Y3336290D01*
X9533411D01*
X9542142Y3345020D01*
Y3379942D01*
X9533411Y3388673D01*
X9507220D01*
X9559603Y3345020D02*
X9568333Y3336290D01*
X9585794D01*
X9594525Y3345020D01*
Y3379942D01*
X9585794Y3388673D01*
X9568333D01*
X9559603Y3379942D01*
Y3371212D01*
X9568333Y3362481D01*
X9594525D01*
X9646908Y3388673D02*
X9611986D01*
Y3362481D01*
X9629447D01*
X9611986D01*
Y3336290D01*
X9507220Y4808533D02*
Y4756150D01*
X9533411D01*
X9542142Y4764880D01*
Y4799802D01*
X9533411Y4808533D01*
X9507220D01*
X9559603Y4764880D02*
X9568333Y4756150D01*
X9585794D01*
X9594525Y4764880D01*
Y4799802D01*
X9585794Y4808533D01*
X9568333D01*
X9559603Y4799802D01*
Y4791072D01*
X9568333Y4782341D01*
X9594525D01*
X9646908Y4808533D02*
X9611986D01*
Y4756150D01*
X9646908D01*
X9611986Y4782341D02*
X9629447D01*
X9512300Y6236013D02*
Y6183630D01*
X9538491D01*
X9547222Y6192360D01*
Y6227282D01*
X9538491Y6236013D01*
X9512300D01*
X9564683Y6192360D02*
X9573413Y6183630D01*
X9590874D01*
X9599605Y6192360D01*
Y6227282D01*
X9590874Y6236013D01*
X9573413D01*
X9564683Y6227282D01*
Y6218552D01*
X9573413Y6209821D01*
X9599605D01*
X9617066Y6236013D02*
Y6183630D01*
X9643257D01*
X9651988Y6192360D01*
Y6227282D01*
X9643257Y6236013D01*
X9617066D01*
X9507220Y7652063D02*
Y7599680D01*
X9533411D01*
X9542142Y7608410D01*
Y7643332D01*
X9533411Y7652063D01*
X9507220D01*
X9559603Y7608410D02*
X9568333Y7599680D01*
X9585794D01*
X9594525Y7608410D01*
Y7643332D01*
X9585794Y7652063D01*
X9568333D01*
X9559603Y7643332D01*
Y7634602D01*
X9568333Y7625871D01*
X9594525D01*
X9646908Y7643332D02*
X9638177Y7652063D01*
X9620716D01*
X9611986Y7643332D01*
Y7608410D01*
X9620716Y7599680D01*
X9638177D01*
X9646908Y7608410D01*
X9504680Y9071923D02*
Y9019540D01*
X9530871D01*
X9539602Y9028270D01*
Y9063192D01*
X9530871Y9071923D01*
X9504680D01*
X9557063Y9028270D02*
X9565793Y9019540D01*
X9583254D01*
X9591985Y9028270D01*
Y9063192D01*
X9583254Y9071923D01*
X9565793D01*
X9557063Y9063192D01*
Y9054462D01*
X9565793Y9045731D01*
X9591985D01*
X9609446Y9071923D02*
Y9019540D01*
X9635637D01*
X9644368Y9028270D01*
Y9037001D01*
X9635637Y9045731D01*
X9609446D01*
X9635637D01*
X9644368Y9054462D01*
Y9063192D01*
X9635637Y9071923D01*
X9609446D01*
X12091032Y1355562D02*
X12082301Y1364293D01*
X12064840D01*
X12056110Y1355562D01*
Y1320640D01*
X12064840Y1311910D01*
X12082301D01*
X12091032Y1320640D01*
X12108493Y1355562D02*
X12117223Y1364293D01*
X12134684D01*
X12143415Y1355562D01*
Y1346832D01*
X12134684Y1338101D01*
X12125954D01*
X12134684D01*
X12143415Y1329371D01*
Y1320640D01*
X12134684Y1311910D01*
X12117223D01*
X12108493Y1320640D01*
X12187067Y1311910D02*
Y1364293D01*
X12160876Y1338101D01*
X12195798D01*
X12213259Y1364293D02*
Y1311910D01*
Y1338101D01*
X12248181D01*
Y1364293D01*
Y1311910D01*
X12080872Y2793202D02*
X12072141Y2801933D01*
X12054680D01*
X12045950Y2793202D01*
Y2758280D01*
X12054680Y2749550D01*
X12072141D01*
X12080872Y2758280D01*
X12098333Y2793202D02*
X12107063Y2801933D01*
X12124524D01*
X12133255Y2793202D01*
Y2784472D01*
X12124524Y2775741D01*
X12115794D01*
X12124524D01*
X12133255Y2767011D01*
Y2758280D01*
X12124524Y2749550D01*
X12107063D01*
X12098333Y2758280D01*
X12176907Y2749550D02*
Y2801933D01*
X12150716Y2775741D01*
X12185638D01*
X12238021Y2793202D02*
X12229290Y2801933D01*
X12211829D01*
X12203099Y2793202D01*
Y2758280D01*
X12211829Y2749550D01*
X12229290D01*
X12238021Y2758280D01*
Y2775741D01*
X12220560D01*
X12092302Y4228302D02*
X12083571Y4237033D01*
X12066110D01*
X12057380Y4228302D01*
Y4193380D01*
X12066110Y4184650D01*
X12083571D01*
X12092302Y4193380D01*
X12109763Y4228302D02*
X12118493Y4237033D01*
X12135954D01*
X12144685Y4228302D01*
Y4219572D01*
X12135954Y4210841D01*
X12127224D01*
X12135954D01*
X12144685Y4202111D01*
Y4193380D01*
X12135954Y4184650D01*
X12118493D01*
X12109763Y4193380D01*
X12188337Y4184650D02*
Y4237033D01*
X12162146Y4210841D01*
X12197068D01*
X12249451Y4237033D02*
X12214529D01*
Y4210841D01*
X12231990D01*
X12214529D01*
Y4184650D01*
X12092302Y5648162D02*
X12083571Y5656893D01*
X12066110D01*
X12057380Y5648162D01*
Y5613240D01*
X12066110Y5604510D01*
X12083571D01*
X12092302Y5613240D01*
X12109763Y5648162D02*
X12118493Y5656893D01*
X12135954D01*
X12144685Y5648162D01*
Y5639432D01*
X12135954Y5630701D01*
X12127224D01*
X12135954D01*
X12144685Y5621971D01*
Y5613240D01*
X12135954Y5604510D01*
X12118493D01*
X12109763Y5613240D01*
X12188337Y5604510D02*
Y5656893D01*
X12162146Y5630701D01*
X12197068D01*
X12249451Y5656893D02*
X12214529D01*
Y5604510D01*
X12249451D01*
X12214529Y5630701D02*
X12231990D01*
X12097382Y7075642D02*
X12088651Y7084373D01*
X12071190D01*
X12062460Y7075642D01*
Y7040720D01*
X12071190Y7031990D01*
X12088651D01*
X12097382Y7040720D01*
X12114843Y7075642D02*
X12123573Y7084373D01*
X12141034D01*
X12149765Y7075642D01*
Y7066912D01*
X12141034Y7058181D01*
X12132304D01*
X12141034D01*
X12149765Y7049451D01*
Y7040720D01*
X12141034Y7031990D01*
X12123573D01*
X12114843Y7040720D01*
X12193417Y7031990D02*
Y7084373D01*
X12167226Y7058181D01*
X12202148D01*
X12219609Y7084373D02*
Y7031990D01*
X12245800D01*
X12254531Y7040720D01*
Y7075642D01*
X12245800Y7084373D01*
X12219609D01*
X12092302Y8491692D02*
X12083571Y8500423D01*
X12066110D01*
X12057380Y8491692D01*
Y8456770D01*
X12066110Y8448040D01*
X12083571D01*
X12092302Y8456770D01*
X12109763Y8491692D02*
X12118493Y8500423D01*
X12135954D01*
X12144685Y8491692D01*
Y8482962D01*
X12135954Y8474231D01*
X12127224D01*
X12135954D01*
X12144685Y8465501D01*
Y8456770D01*
X12135954Y8448040D01*
X12118493D01*
X12109763Y8456770D01*
X12188337Y8448040D02*
Y8500423D01*
X12162146Y8474231D01*
X12197068D01*
X12249451Y8491692D02*
X12240720Y8500423D01*
X12223259D01*
X12214529Y8491692D01*
Y8456770D01*
X12223259Y8448040D01*
X12240720D01*
X12249451Y8456770D01*
X12089762Y9911552D02*
X12081031Y9920283D01*
X12063570D01*
X12054840Y9911552D01*
Y9876630D01*
X12063570Y9867900D01*
X12081031D01*
X12089762Y9876630D01*
X12107223Y9911552D02*
X12115953Y9920283D01*
X12133414D01*
X12142145Y9911552D01*
Y9902822D01*
X12133414Y9894091D01*
X12124684D01*
X12133414D01*
X12142145Y9885361D01*
Y9876630D01*
X12133414Y9867900D01*
X12115953D01*
X12107223Y9876630D01*
X12185797Y9867900D02*
Y9920283D01*
X12159606Y9894091D01*
X12194528D01*
X12211989Y9920283D02*
Y9867900D01*
X12238180D01*
X12246911Y9876630D01*
Y9885361D01*
X12238180Y9894091D01*
X12211989D01*
X12238180D01*
X12246911Y9902822D01*
Y9911552D01*
X12238180Y9920283D01*
X12211989D01*
X10348592Y596102D02*
X10339861Y604833D01*
X10322400D01*
X10313670Y596102D01*
Y561180D01*
X10322400Y552450D01*
X10339861D01*
X10348592Y561180D01*
X10366053Y596102D02*
X10374783Y604833D01*
X10392244D01*
X10400975Y596102D01*
Y587372D01*
X10392244Y578641D01*
X10383514D01*
X10392244D01*
X10400975Y569911D01*
Y561180D01*
X10392244Y552450D01*
X10374783D01*
X10366053Y561180D01*
X10418436Y596102D02*
X10427166Y604833D01*
X10444627D01*
X10453358Y596102D01*
Y587372D01*
X10444627Y578641D01*
X10435897D01*
X10444627D01*
X10453358Y569911D01*
Y561180D01*
X10444627Y552450D01*
X10427166D01*
X10418436Y561180D01*
X10470819Y604833D02*
Y552450D01*
Y578641D01*
X10505741D01*
Y604833D01*
Y552450D01*
X10333352Y2028662D02*
X10324621Y2037393D01*
X10307160D01*
X10298430Y2028662D01*
Y1993740D01*
X10307160Y1985010D01*
X10324621D01*
X10333352Y1993740D01*
X10350813Y2028662D02*
X10359543Y2037393D01*
X10377004D01*
X10385735Y2028662D01*
Y2019932D01*
X10377004Y2011201D01*
X10368274D01*
X10377004D01*
X10385735Y2002471D01*
Y1993740D01*
X10377004Y1985010D01*
X10359543D01*
X10350813Y1993740D01*
X10403196Y2028662D02*
X10411926Y2037393D01*
X10429387D01*
X10438118Y2028662D01*
Y2019932D01*
X10429387Y2011201D01*
X10420657D01*
X10429387D01*
X10438118Y2002471D01*
Y1993740D01*
X10429387Y1985010D01*
X10411926D01*
X10403196Y1993740D01*
X10490501Y2028662D02*
X10481770Y2037393D01*
X10464309D01*
X10455579Y2028662D01*
Y1993740D01*
X10464309Y1985010D01*
X10481770D01*
X10490501Y1993740D01*
Y2011201D01*
X10473040D01*
X10342242Y3463762D02*
X10333511Y3472493D01*
X10316050D01*
X10307320Y3463762D01*
Y3428840D01*
X10316050Y3420110D01*
X10333511D01*
X10342242Y3428840D01*
X10359703Y3463762D02*
X10368433Y3472493D01*
X10385894D01*
X10394625Y3463762D01*
Y3455032D01*
X10385894Y3446301D01*
X10377164D01*
X10385894D01*
X10394625Y3437571D01*
Y3428840D01*
X10385894Y3420110D01*
X10368433D01*
X10359703Y3428840D01*
X10412086Y3463762D02*
X10420816Y3472493D01*
X10438277D01*
X10447008Y3463762D01*
Y3455032D01*
X10438277Y3446301D01*
X10429547D01*
X10438277D01*
X10447008Y3437571D01*
Y3428840D01*
X10438277Y3420110D01*
X10420816D01*
X10412086Y3428840D01*
X10499391Y3472493D02*
X10464469D01*
Y3446301D01*
X10481930D01*
X10464469D01*
Y3420110D01*
X10342242Y4883622D02*
X10333511Y4892353D01*
X10316050D01*
X10307320Y4883622D01*
Y4848700D01*
X10316050Y4839970D01*
X10333511D01*
X10342242Y4848700D01*
X10359703Y4883622D02*
X10368433Y4892353D01*
X10385894D01*
X10394625Y4883622D01*
Y4874892D01*
X10385894Y4866161D01*
X10377164D01*
X10385894D01*
X10394625Y4857431D01*
Y4848700D01*
X10385894Y4839970D01*
X10368433D01*
X10359703Y4848700D01*
X10412086Y4883622D02*
X10420816Y4892353D01*
X10438277D01*
X10447008Y4883622D01*
Y4874892D01*
X10438277Y4866161D01*
X10429547D01*
X10438277D01*
X10447008Y4857431D01*
Y4848700D01*
X10438277Y4839970D01*
X10420816D01*
X10412086Y4848700D01*
X10499391Y4892353D02*
X10464469D01*
Y4839970D01*
X10499391D01*
X10464469Y4866161D02*
X10481930D01*
X10347322Y6311102D02*
X10338591Y6319833D01*
X10321130D01*
X10312400Y6311102D01*
Y6276180D01*
X10321130Y6267450D01*
X10338591D01*
X10347322Y6276180D01*
X10364783Y6311102D02*
X10373513Y6319833D01*
X10390974D01*
X10399705Y6311102D01*
Y6302372D01*
X10390974Y6293641D01*
X10382244D01*
X10390974D01*
X10399705Y6284911D01*
Y6276180D01*
X10390974Y6267450D01*
X10373513D01*
X10364783Y6276180D01*
X10417166Y6311102D02*
X10425896Y6319833D01*
X10443357D01*
X10452088Y6311102D01*
Y6302372D01*
X10443357Y6293641D01*
X10434627D01*
X10443357D01*
X10452088Y6284911D01*
Y6276180D01*
X10443357Y6267450D01*
X10425896D01*
X10417166Y6276180D01*
X10469549Y6319833D02*
Y6267450D01*
X10495740D01*
X10504471Y6276180D01*
Y6311102D01*
X10495740Y6319833D01*
X10469549D01*
X10342242Y7727152D02*
X10333511Y7735883D01*
X10316050D01*
X10307320Y7727152D01*
Y7692230D01*
X10316050Y7683500D01*
X10333511D01*
X10342242Y7692230D01*
X10359703Y7727152D02*
X10368433Y7735883D01*
X10385894D01*
X10394625Y7727152D01*
Y7718422D01*
X10385894Y7709691D01*
X10377164D01*
X10385894D01*
X10394625Y7700961D01*
Y7692230D01*
X10385894Y7683500D01*
X10368433D01*
X10359703Y7692230D01*
X10412086Y7727152D02*
X10420816Y7735883D01*
X10438277D01*
X10447008Y7727152D01*
Y7718422D01*
X10438277Y7709691D01*
X10429547D01*
X10438277D01*
X10447008Y7700961D01*
Y7692230D01*
X10438277Y7683500D01*
X10420816D01*
X10412086Y7692230D01*
X10499391Y7727152D02*
X10490660Y7735883D01*
X10473199D01*
X10464469Y7727152D01*
Y7692230D01*
X10473199Y7683500D01*
X10490660D01*
X10499391Y7692230D01*
X10339702Y9147012D02*
X10330971Y9155743D01*
X10313510D01*
X10304780Y9147012D01*
Y9112090D01*
X10313510Y9103360D01*
X10330971D01*
X10339702Y9112090D01*
X10357163Y9147012D02*
X10365893Y9155743D01*
X10383354D01*
X10392085Y9147012D01*
Y9138282D01*
X10383354Y9129551D01*
X10374624D01*
X10383354D01*
X10392085Y9120821D01*
Y9112090D01*
X10383354Y9103360D01*
X10365893D01*
X10357163Y9112090D01*
X10409546Y9147012D02*
X10418276Y9155743D01*
X10435737D01*
X10444468Y9147012D01*
Y9138282D01*
X10435737Y9129551D01*
X10427007D01*
X10435737D01*
X10444468Y9120821D01*
Y9112090D01*
X10435737Y9103360D01*
X10418276D01*
X10409546Y9112090D01*
X10461929Y9155743D02*
Y9103360D01*
X10488120D01*
X10496851Y9112090D01*
Y9120821D01*
X10488120Y9129551D01*
X10461929D01*
X10488120D01*
X10496851Y9138282D01*
Y9147012D01*
X10488120Y9155743D01*
X10461929D01*
X9271632Y1040602D02*
X9262901Y1049333D01*
X9245440D01*
X9236710Y1040602D01*
Y1005680D01*
X9245440Y996950D01*
X9262901D01*
X9271632Y1005680D01*
X9289093Y1040602D02*
X9297823Y1049333D01*
X9315284D01*
X9324015Y1040602D01*
Y1031872D01*
X9315284Y1023141D01*
X9306554D01*
X9315284D01*
X9324015Y1014411D01*
Y1005680D01*
X9315284Y996950D01*
X9297823D01*
X9289093Y1005680D01*
X9376398Y996950D02*
X9341476D01*
X9376398Y1031872D01*
Y1040602D01*
X9367667Y1049333D01*
X9350206D01*
X9341476Y1040602D01*
X9393859Y1049333D02*
Y996950D01*
Y1023141D01*
X9428781D01*
Y1049333D01*
Y996950D01*
X9258932Y2478242D02*
X9250201Y2486973D01*
X9232740D01*
X9224010Y2478242D01*
Y2443320D01*
X9232740Y2434590D01*
X9250201D01*
X9258932Y2443320D01*
X9276393Y2478242D02*
X9285123Y2486973D01*
X9302584D01*
X9311315Y2478242D01*
Y2469512D01*
X9302584Y2460781D01*
X9293854D01*
X9302584D01*
X9311315Y2452051D01*
Y2443320D01*
X9302584Y2434590D01*
X9285123D01*
X9276393Y2443320D01*
X9363698Y2434590D02*
X9328776D01*
X9363698Y2469512D01*
Y2478242D01*
X9354967Y2486973D01*
X9337506D01*
X9328776Y2478242D01*
X9416081D02*
X9407350Y2486973D01*
X9389889D01*
X9381159Y2478242D01*
Y2443320D01*
X9389889Y2434590D01*
X9407350D01*
X9416081Y2443320D01*
Y2460781D01*
X9398620D01*
X9270362Y3913342D02*
X9261631Y3922073D01*
X9244170D01*
X9235440Y3913342D01*
Y3878420D01*
X9244170Y3869690D01*
X9261631D01*
X9270362Y3878420D01*
X9287823Y3913342D02*
X9296553Y3922073D01*
X9314014D01*
X9322745Y3913342D01*
Y3904612D01*
X9314014Y3895881D01*
X9305284D01*
X9314014D01*
X9322745Y3887151D01*
Y3878420D01*
X9314014Y3869690D01*
X9296553D01*
X9287823Y3878420D01*
X9375128Y3869690D02*
X9340206D01*
X9375128Y3904612D01*
Y3913342D01*
X9366397Y3922073D01*
X9348936D01*
X9340206Y3913342D01*
X9427511Y3922073D02*
X9392589D01*
Y3895881D01*
X9410050D01*
X9392589D01*
Y3869690D01*
X9270362Y5333202D02*
X9261631Y5341933D01*
X9244170D01*
X9235440Y5333202D01*
Y5298280D01*
X9244170Y5289550D01*
X9261631D01*
X9270362Y5298280D01*
X9287823Y5333202D02*
X9296553Y5341933D01*
X9314014D01*
X9322745Y5333202D01*
Y5324472D01*
X9314014Y5315741D01*
X9305284D01*
X9314014D01*
X9322745Y5307011D01*
Y5298280D01*
X9314014Y5289550D01*
X9296553D01*
X9287823Y5298280D01*
X9375128Y5289550D02*
X9340206D01*
X9375128Y5324472D01*
Y5333202D01*
X9366397Y5341933D01*
X9348936D01*
X9340206Y5333202D01*
X9427511Y5341933D02*
X9392589D01*
Y5289550D01*
X9427511D01*
X9392589Y5315741D02*
X9410050D01*
X9275442Y6760682D02*
X9266711Y6769413D01*
X9249250D01*
X9240520Y6760682D01*
Y6725760D01*
X9249250Y6717030D01*
X9266711D01*
X9275442Y6725760D01*
X9292903Y6760682D02*
X9301633Y6769413D01*
X9319094D01*
X9327825Y6760682D01*
Y6751952D01*
X9319094Y6743221D01*
X9310364D01*
X9319094D01*
X9327825Y6734491D01*
Y6725760D01*
X9319094Y6717030D01*
X9301633D01*
X9292903Y6725760D01*
X9380208Y6717030D02*
X9345286D01*
X9380208Y6751952D01*
Y6760682D01*
X9371477Y6769413D01*
X9354016D01*
X9345286Y6760682D01*
X9397669Y6769413D02*
Y6717030D01*
X9423860D01*
X9432591Y6725760D01*
Y6760682D01*
X9423860Y6769413D01*
X9397669D01*
X9270362Y8176732D02*
X9261631Y8185463D01*
X9244170D01*
X9235440Y8176732D01*
Y8141810D01*
X9244170Y8133080D01*
X9261631D01*
X9270362Y8141810D01*
X9287823Y8176732D02*
X9296553Y8185463D01*
X9314014D01*
X9322745Y8176732D01*
Y8168002D01*
X9314014Y8159271D01*
X9305284D01*
X9314014D01*
X9322745Y8150541D01*
Y8141810D01*
X9314014Y8133080D01*
X9296553D01*
X9287823Y8141810D01*
X9375128Y8133080D02*
X9340206D01*
X9375128Y8168002D01*
Y8176732D01*
X9366397Y8185463D01*
X9348936D01*
X9340206Y8176732D01*
X9427511D02*
X9418780Y8185463D01*
X9401319D01*
X9392589Y8176732D01*
Y8141810D01*
X9401319Y8133080D01*
X9418780D01*
X9427511Y8141810D01*
X9267822Y9596592D02*
X9259091Y9605323D01*
X9241630D01*
X9232900Y9596592D01*
Y9561670D01*
X9241630Y9552940D01*
X9259091D01*
X9267822Y9561670D01*
X9285283Y9596592D02*
X9294013Y9605323D01*
X9311474D01*
X9320205Y9596592D01*
Y9587862D01*
X9311474Y9579131D01*
X9302744D01*
X9311474D01*
X9320205Y9570401D01*
Y9561670D01*
X9311474Y9552940D01*
X9294013D01*
X9285283Y9561670D01*
X9372588Y9552940D02*
X9337666D01*
X9372588Y9587862D01*
Y9596592D01*
X9363857Y9605323D01*
X9346396D01*
X9337666Y9596592D01*
X9390049Y9605323D02*
Y9552940D01*
X9416240D01*
X9424971Y9561670D01*
Y9570401D01*
X9416240Y9579131D01*
X9390049D01*
X9416240D01*
X9424971Y9587862D01*
Y9596592D01*
X9416240Y9605323D01*
X9390049D01*
X9780902Y1031712D02*
X9772171Y1040443D01*
X9754710D01*
X9745980Y1031712D01*
Y996790D01*
X9754710Y988060D01*
X9772171D01*
X9780902Y996790D01*
X9798363Y1031712D02*
X9807093Y1040443D01*
X9824554D01*
X9833285Y1031712D01*
Y1022982D01*
X9824554Y1014251D01*
X9815824D01*
X9824554D01*
X9833285Y1005521D01*
Y996790D01*
X9824554Y988060D01*
X9807093D01*
X9798363Y996790D01*
X9850746Y988060D02*
X9868207D01*
X9859476D01*
Y1040443D01*
X9850746Y1031712D01*
X9894398Y1040443D02*
Y988060D01*
Y1014251D01*
X9929320D01*
Y1040443D01*
Y988060D01*
X9778362Y2478942D02*
X9769631Y2487673D01*
X9752170D01*
X9743440Y2478942D01*
Y2444021D01*
X9752170Y2435290D01*
X9769631D01*
X9778362Y2444021D01*
X9795823Y2478942D02*
X9804553Y2487673D01*
X9822014D01*
X9830745Y2478942D01*
Y2470212D01*
X9822014Y2461481D01*
X9813284D01*
X9822014D01*
X9830745Y2452751D01*
Y2444021D01*
X9822014Y2435290D01*
X9804553D01*
X9795823Y2444021D01*
X9848206Y2435290D02*
X9865667D01*
X9856936D01*
Y2487673D01*
X9848206Y2478942D01*
X9926780D02*
X9918050Y2487673D01*
X9900589D01*
X9891858Y2478942D01*
Y2444021D01*
X9900589Y2435290D01*
X9918050D01*
X9926780Y2444021D01*
Y2461481D01*
X9909319D01*
X9782172Y3913452D02*
X9773441Y3922183D01*
X9755980D01*
X9747250Y3913452D01*
Y3878530D01*
X9755980Y3869800D01*
X9773441D01*
X9782172Y3878530D01*
X9799633Y3913452D02*
X9808363Y3922183D01*
X9825824D01*
X9834555Y3913452D01*
Y3904722D01*
X9825824Y3895991D01*
X9817094D01*
X9825824D01*
X9834555Y3887261D01*
Y3878530D01*
X9825824Y3869800D01*
X9808363D01*
X9799633Y3878530D01*
X9852016Y3869800D02*
X9869477D01*
X9860746D01*
Y3922183D01*
X9852016Y3913452D01*
X9930590Y3922183D02*
X9895668D01*
Y3895991D01*
X9913129D01*
X9895668D01*
Y3869800D01*
X9782172Y5333312D02*
X9773441Y5342043D01*
X9755980D01*
X9747250Y5333312D01*
Y5298390D01*
X9755980Y5289660D01*
X9773441D01*
X9782172Y5298390D01*
X9799633Y5333312D02*
X9808363Y5342043D01*
X9825824D01*
X9834555Y5333312D01*
Y5324582D01*
X9825824Y5315851D01*
X9817094D01*
X9825824D01*
X9834555Y5307121D01*
Y5298390D01*
X9825824Y5289660D01*
X9808363D01*
X9799633Y5298390D01*
X9852016Y5289660D02*
X9869477D01*
X9860746D01*
Y5342043D01*
X9852016Y5333312D01*
X9930590Y5342043D02*
X9895668D01*
Y5289660D01*
X9930590D01*
X9895668Y5315851D02*
X9913129D01*
X9787252Y6760792D02*
X9778521Y6769523D01*
X9761060D01*
X9752330Y6760792D01*
Y6725870D01*
X9761060Y6717140D01*
X9778521D01*
X9787252Y6725870D01*
X9804713Y6760792D02*
X9813443Y6769523D01*
X9830904D01*
X9839635Y6760792D01*
Y6752062D01*
X9830904Y6743331D01*
X9822174D01*
X9830904D01*
X9839635Y6734601D01*
Y6725870D01*
X9830904Y6717140D01*
X9813443D01*
X9804713Y6725870D01*
X9857096Y6717140D02*
X9874557D01*
X9865826D01*
Y6769523D01*
X9857096Y6760792D01*
X9900748Y6769523D02*
Y6717140D01*
X9926940D01*
X9935670Y6725870D01*
Y6760792D01*
X9926940Y6769523D01*
X9900748D01*
X9782172Y8176842D02*
X9773441Y8185573D01*
X9755980D01*
X9747250Y8176842D01*
Y8141920D01*
X9755980Y8133190D01*
X9773441D01*
X9782172Y8141920D01*
X9799633Y8176842D02*
X9808363Y8185573D01*
X9825824D01*
X9834555Y8176842D01*
Y8168112D01*
X9825824Y8159381D01*
X9817094D01*
X9825824D01*
X9834555Y8150651D01*
Y8141920D01*
X9825824Y8133190D01*
X9808363D01*
X9799633Y8141920D01*
X9852016Y8133190D02*
X9869477D01*
X9860746D01*
Y8185573D01*
X9852016Y8176842D01*
X9930590D02*
X9921860Y8185573D01*
X9904399D01*
X9895668Y8176842D01*
Y8141920D01*
X9904399Y8133190D01*
X9921860D01*
X9930590Y8141920D01*
X9779632Y9596702D02*
X9770901Y9605433D01*
X9753440D01*
X9744710Y9596702D01*
Y9561780D01*
X9753440Y9553050D01*
X9770901D01*
X9779632Y9561780D01*
X9797093Y9596702D02*
X9805823Y9605433D01*
X9823284D01*
X9832015Y9596702D01*
Y9587972D01*
X9823284Y9579241D01*
X9814554D01*
X9823284D01*
X9832015Y9570511D01*
Y9561780D01*
X9823284Y9553050D01*
X9805823D01*
X9797093Y9561780D01*
X9849476Y9553050D02*
X9866937D01*
X9858206D01*
Y9605433D01*
X9849476Y9596702D01*
X9893128Y9605433D02*
Y9553050D01*
X9919320D01*
X9928050Y9561780D01*
Y9570511D01*
X9919320Y9579241D01*
X9893128D01*
X9919320D01*
X9928050Y9587972D01*
Y9596702D01*
X9919320Y9605433D01*
X9893128D01*
X11489052Y1109182D02*
X11480321Y1117913D01*
X11462860D01*
X11454130Y1109182D01*
Y1074260D01*
X11462860Y1065530D01*
X11480321D01*
X11489052Y1074260D01*
X11506513Y1109182D02*
X11515243Y1117913D01*
X11532704D01*
X11541435Y1109182D01*
Y1100452D01*
X11532704Y1091721D01*
X11523974D01*
X11532704D01*
X11541435Y1082991D01*
Y1074260D01*
X11532704Y1065530D01*
X11515243D01*
X11506513Y1074260D01*
X11558896Y1109182D02*
X11567626Y1117913D01*
X11585087D01*
X11593818Y1109182D01*
Y1074260D01*
X11585087Y1065530D01*
X11567626D01*
X11558896Y1074260D01*
Y1109182D01*
X11611279Y1117913D02*
Y1065530D01*
Y1091721D01*
X11646201D01*
Y1117913D01*
Y1065530D01*
X11483972Y2544282D02*
X11475241Y2553013D01*
X11457780D01*
X11449050Y2544282D01*
Y2509360D01*
X11457780Y2500630D01*
X11475241D01*
X11483972Y2509360D01*
X11501433Y2544282D02*
X11510163Y2553013D01*
X11527624D01*
X11536355Y2544282D01*
Y2535552D01*
X11527624Y2526821D01*
X11518894D01*
X11527624D01*
X11536355Y2518091D01*
Y2509360D01*
X11527624Y2500630D01*
X11510163D01*
X11501433Y2509360D01*
X11553816Y2544282D02*
X11562546Y2553013D01*
X11580007D01*
X11588738Y2544282D01*
Y2509360D01*
X11580007Y2500630D01*
X11562546D01*
X11553816Y2509360D01*
Y2544282D01*
X11641121D02*
X11632390Y2553013D01*
X11614929D01*
X11606199Y2544282D01*
Y2509360D01*
X11614929Y2500630D01*
X11632390D01*
X11641121Y2509360D01*
Y2526821D01*
X11623660D01*
X11492862Y3979382D02*
X11484131Y3988113D01*
X11466670D01*
X11457940Y3979382D01*
Y3944460D01*
X11466670Y3935730D01*
X11484131D01*
X11492862Y3944460D01*
X11510323Y3979382D02*
X11519053Y3988113D01*
X11536514D01*
X11545245Y3979382D01*
Y3970652D01*
X11536514Y3961921D01*
X11527784D01*
X11536514D01*
X11545245Y3953191D01*
Y3944460D01*
X11536514Y3935730D01*
X11519053D01*
X11510323Y3944460D01*
X11562706Y3979382D02*
X11571436Y3988113D01*
X11588897D01*
X11597628Y3979382D01*
Y3944460D01*
X11588897Y3935730D01*
X11571436D01*
X11562706Y3944460D01*
Y3979382D01*
X11650011Y3988113D02*
X11615089D01*
Y3961921D01*
X11632550D01*
X11615089D01*
Y3935730D01*
X11492862Y5399242D02*
X11484131Y5407973D01*
X11466670D01*
X11457940Y5399242D01*
Y5364320D01*
X11466670Y5355590D01*
X11484131D01*
X11492862Y5364320D01*
X11510323Y5399242D02*
X11519053Y5407973D01*
X11536514D01*
X11545245Y5399242D01*
Y5390512D01*
X11536514Y5381781D01*
X11527784D01*
X11536514D01*
X11545245Y5373051D01*
Y5364320D01*
X11536514Y5355590D01*
X11519053D01*
X11510323Y5364320D01*
X11562706Y5399242D02*
X11571436Y5407973D01*
X11588897D01*
X11597628Y5399242D01*
Y5364320D01*
X11588897Y5355590D01*
X11571436D01*
X11562706Y5364320D01*
Y5399242D01*
X11650011Y5407973D02*
X11615089D01*
Y5355590D01*
X11650011D01*
X11615089Y5381781D02*
X11632550D01*
X11497942Y6826722D02*
X11489211Y6835453D01*
X11471750D01*
X11463020Y6826722D01*
Y6791800D01*
X11471750Y6783070D01*
X11489211D01*
X11497942Y6791800D01*
X11515403Y6826722D02*
X11524133Y6835453D01*
X11541594D01*
X11550325Y6826722D01*
Y6817992D01*
X11541594Y6809261D01*
X11532864D01*
X11541594D01*
X11550325Y6800531D01*
Y6791800D01*
X11541594Y6783070D01*
X11524133D01*
X11515403Y6791800D01*
X11567786Y6826722D02*
X11576516Y6835453D01*
X11593977D01*
X11602708Y6826722D01*
Y6791800D01*
X11593977Y6783070D01*
X11576516D01*
X11567786Y6791800D01*
Y6826722D01*
X11620169Y6835453D02*
Y6783070D01*
X11646360D01*
X11655091Y6791800D01*
Y6826722D01*
X11646360Y6835453D01*
X11620169D01*
X11492862Y8242772D02*
X11484131Y8251503D01*
X11466670D01*
X11457940Y8242772D01*
Y8207850D01*
X11466670Y8199120D01*
X11484131D01*
X11492862Y8207850D01*
X11510323Y8242772D02*
X11519053Y8251503D01*
X11536514D01*
X11545245Y8242772D01*
Y8234042D01*
X11536514Y8225311D01*
X11527784D01*
X11536514D01*
X11545245Y8216581D01*
Y8207850D01*
X11536514Y8199120D01*
X11519053D01*
X11510323Y8207850D01*
X11562706Y8242772D02*
X11571436Y8251503D01*
X11588897D01*
X11597628Y8242772D01*
Y8207850D01*
X11588897Y8199120D01*
X11571436D01*
X11562706Y8207850D01*
Y8242772D01*
X11650011D02*
X11641280Y8251503D01*
X11623819D01*
X11615089Y8242772D01*
Y8207850D01*
X11623819Y8199120D01*
X11641280D01*
X11650011Y8207850D01*
X11490322Y9662632D02*
X11481591Y9671363D01*
X11464130D01*
X11455400Y9662632D01*
Y9627710D01*
X11464130Y9618980D01*
X11481591D01*
X11490322Y9627710D01*
X11507783Y9662632D02*
X11516513Y9671363D01*
X11533974D01*
X11542705Y9662632D01*
Y9653902D01*
X11533974Y9645171D01*
X11525244D01*
X11533974D01*
X11542705Y9636441D01*
Y9627710D01*
X11533974Y9618980D01*
X11516513D01*
X11507783Y9627710D01*
X11560166Y9662632D02*
X11568896Y9671363D01*
X11586357D01*
X11595088Y9662632D01*
Y9627710D01*
X11586357Y9618980D01*
X11568896D01*
X11560166Y9627710D01*
Y9662632D01*
X11612549Y9671363D02*
Y9618980D01*
X11638740D01*
X11647471Y9627710D01*
Y9636441D01*
X11638740Y9645171D01*
X11612549D01*
X11638740D01*
X11647471Y9653902D01*
Y9662632D01*
X11638740Y9671363D01*
X11612549D01*
X10048872Y1040602D02*
X10040141Y1049333D01*
X10022680D01*
X10013950Y1040602D01*
Y1005680D01*
X10022680Y996950D01*
X10040141D01*
X10048872Y1005680D01*
X10101255Y996950D02*
X10066333D01*
X10101255Y1031872D01*
Y1040602D01*
X10092524Y1049333D01*
X10075063D01*
X10066333Y1040602D01*
X10118716Y1005680D02*
X10127446Y996950D01*
X10144907D01*
X10153638Y1005680D01*
Y1040602D01*
X10144907Y1049333D01*
X10127446D01*
X10118716Y1040602D01*
Y1031872D01*
X10127446Y1023141D01*
X10153638D01*
X10171099Y1049333D02*
Y996950D01*
Y1023141D01*
X10206021D01*
Y1049333D01*
Y996950D01*
X10048872Y2478242D02*
X10040141Y2486973D01*
X10022680D01*
X10013950Y2478242D01*
Y2443320D01*
X10022680Y2434590D01*
X10040141D01*
X10048872Y2443320D01*
X10101255Y2434590D02*
X10066333D01*
X10101255Y2469512D01*
Y2478242D01*
X10092524Y2486973D01*
X10075063D01*
X10066333Y2478242D01*
X10118716Y2443320D02*
X10127446Y2434590D01*
X10144907D01*
X10153638Y2443320D01*
Y2478242D01*
X10144907Y2486973D01*
X10127446D01*
X10118716Y2478242D01*
Y2469512D01*
X10127446Y2460781D01*
X10153638D01*
X10206021Y2478242D02*
X10197290Y2486973D01*
X10179829D01*
X10171099Y2478242D01*
Y2443320D01*
X10179829Y2434590D01*
X10197290D01*
X10206021Y2443320D01*
Y2460781D01*
X10188560D01*
X10047602Y3913342D02*
X10038871Y3922073D01*
X10021410D01*
X10012680Y3913342D01*
Y3878420D01*
X10021410Y3869690D01*
X10038871D01*
X10047602Y3878420D01*
X10099985Y3869690D02*
X10065063D01*
X10099985Y3904612D01*
Y3913342D01*
X10091254Y3922073D01*
X10073793D01*
X10065063Y3913342D01*
X10117446Y3878420D02*
X10126176Y3869690D01*
X10143637D01*
X10152368Y3878420D01*
Y3913342D01*
X10143637Y3922073D01*
X10126176D01*
X10117446Y3913342D01*
Y3904612D01*
X10126176Y3895881D01*
X10152368D01*
X10204751Y3922073D02*
X10169829D01*
Y3895881D01*
X10187290D01*
X10169829D01*
Y3869690D01*
X10047602Y5333202D02*
X10038871Y5341933D01*
X10021410D01*
X10012680Y5333202D01*
Y5298280D01*
X10021410Y5289550D01*
X10038871D01*
X10047602Y5298280D01*
X10099985Y5289550D02*
X10065063D01*
X10099985Y5324472D01*
Y5333202D01*
X10091254Y5341933D01*
X10073793D01*
X10065063Y5333202D01*
X10117446Y5298280D02*
X10126176Y5289550D01*
X10143637D01*
X10152368Y5298280D01*
Y5333202D01*
X10143637Y5341933D01*
X10126176D01*
X10117446Y5333202D01*
Y5324472D01*
X10126176Y5315741D01*
X10152368D01*
X10204751Y5341933D02*
X10169829D01*
Y5289550D01*
X10204751D01*
X10169829Y5315741D02*
X10187290D01*
X10052682Y6760682D02*
X10043951Y6769413D01*
X10026490D01*
X10017760Y6760682D01*
Y6725760D01*
X10026490Y6717030D01*
X10043951D01*
X10052682Y6725760D01*
X10105065Y6717030D02*
X10070143D01*
X10105065Y6751952D01*
Y6760682D01*
X10096334Y6769413D01*
X10078873D01*
X10070143Y6760682D01*
X10122526Y6725760D02*
X10131256Y6717030D01*
X10148717D01*
X10157448Y6725760D01*
Y6760682D01*
X10148717Y6769413D01*
X10131256D01*
X10122526Y6760682D01*
Y6751952D01*
X10131256Y6743221D01*
X10157448D01*
X10174909Y6769413D02*
Y6717030D01*
X10201100D01*
X10209831Y6725760D01*
Y6760682D01*
X10201100Y6769413D01*
X10174909D01*
X10047602Y8176732D02*
X10038871Y8185463D01*
X10021410D01*
X10012680Y8176732D01*
Y8141810D01*
X10021410Y8133080D01*
X10038871D01*
X10047602Y8141810D01*
X10099985Y8133080D02*
X10065063D01*
X10099985Y8168002D01*
Y8176732D01*
X10091254Y8185463D01*
X10073793D01*
X10065063Y8176732D01*
X10117446Y8141810D02*
X10126176Y8133080D01*
X10143637D01*
X10152368Y8141810D01*
Y8176732D01*
X10143637Y8185463D01*
X10126176D01*
X10117446Y8176732D01*
Y8168002D01*
X10126176Y8159271D01*
X10152368D01*
X10204751Y8176732D02*
X10196020Y8185463D01*
X10178559D01*
X10169829Y8176732D01*
Y8141810D01*
X10178559Y8133080D01*
X10196020D01*
X10204751Y8141810D01*
X10045062Y9596592D02*
X10036331Y9605323D01*
X10018870D01*
X10010140Y9596592D01*
Y9561670D01*
X10018870Y9552940D01*
X10036331D01*
X10045062Y9561670D01*
X10097445Y9552940D02*
X10062523D01*
X10097445Y9587862D01*
Y9596592D01*
X10088714Y9605323D01*
X10071253D01*
X10062523Y9596592D01*
X10114906Y9561670D02*
X10123636Y9552940D01*
X10141097D01*
X10149828Y9561670D01*
Y9596592D01*
X10141097Y9605323D01*
X10123636D01*
X10114906Y9596592D01*
Y9587862D01*
X10123636Y9579131D01*
X10149828D01*
X10167289Y9605323D02*
Y9552940D01*
X10193480D01*
X10202211Y9561670D01*
Y9570401D01*
X10193480Y9579131D01*
X10167289D01*
X10193480D01*
X10202211Y9587862D01*
Y9596592D01*
X10193480Y9605323D01*
X10167289D01*
D42*
X7056120Y11101383D02*
Y11057730D01*
X7064850Y11049000D01*
X7082311D01*
X7091042Y11057730D01*
Y11101383D01*
X7108503Y11092652D02*
X7117233Y11101383D01*
X7134694D01*
X7143425Y11092652D01*
Y11083922D01*
X7134694Y11075191D01*
X7125964D01*
X7134694D01*
X7143425Y11066461D01*
Y11057730D01*
X7134694Y11049000D01*
X7117233D01*
X7108503Y11057730D01*
X5443220Y5890260D02*
Y5925182D01*
X5460681Y5942643D01*
X5478142Y5925182D01*
Y5890260D01*
Y5916451D01*
X5443220D01*
X5495603Y5942643D02*
X5530525D01*
X5513064D01*
Y5890260D01*
X5582908D02*
X5547986D01*
X5582908Y5925182D01*
Y5933912D01*
X5574177Y5942643D01*
X5556716D01*
X5547986Y5933912D01*
X6044500Y472753D02*
Y420370D01*
X6070691D01*
X6079422Y429100D01*
Y464022D01*
X6070691Y472753D01*
X6044500D01*
X6096883Y464022D02*
X6105613Y472753D01*
X6123074D01*
X6131805Y464022D01*
Y455292D01*
X6123074Y446561D01*
X6131805Y437831D01*
Y429100D01*
X6123074Y420370D01*
X6105613D01*
X6096883Y429100D01*
Y437831D01*
X6105613Y446561D01*
X6096883Y455292D01*
Y464022D01*
X6105613Y446561D02*
X6123074D01*
X6149266Y472753D02*
Y420370D01*
Y446561D01*
X6184188D01*
Y472753D01*
Y420370D01*
X5244500Y472753D02*
Y420370D01*
X5270692D01*
X5279422Y429100D01*
Y464022D01*
X5270692Y472753D01*
X5244500D01*
X5296883Y464022D02*
X5305613Y472753D01*
X5323074D01*
X5331805Y464022D01*
Y455292D01*
X5323074Y446561D01*
X5331805Y437831D01*
Y429100D01*
X5323074Y420370D01*
X5305613D01*
X5296883Y429100D01*
Y437831D01*
X5305613Y446561D01*
X5296883Y455292D01*
Y464022D01*
X5305613Y446561D02*
X5323074D01*
X5384188Y464022D02*
X5375457Y472753D01*
X5357996D01*
X5349266Y464022D01*
Y429100D01*
X5357996Y420370D01*
X5375457D01*
X5384188Y429100D01*
Y446561D01*
X5366727D01*
X4444500Y472753D02*
Y420370D01*
X4470692D01*
X4479422Y429100D01*
Y464022D01*
X4470692Y472753D01*
X4444500D01*
X4496883Y464022D02*
X4505614Y472753D01*
X4523075D01*
X4531805Y464022D01*
Y455292D01*
X4523075Y446561D01*
X4531805Y437831D01*
Y429100D01*
X4523075Y420370D01*
X4505614D01*
X4496883Y429100D01*
Y437831D01*
X4505614Y446561D01*
X4496883Y455292D01*
Y464022D01*
X4505614Y446561D02*
X4523075D01*
X4584188Y472753D02*
X4549266D01*
Y446561D01*
X4566727D01*
X4549266D01*
Y420370D01*
X3644500Y472753D02*
Y420370D01*
X3670691D01*
X3679422Y429100D01*
Y464022D01*
X3670691Y472753D01*
X3644500D01*
X3696883Y464022D02*
X3705613Y472753D01*
X3723074D01*
X3731805Y464022D01*
Y455292D01*
X3723074Y446561D01*
X3731805Y437831D01*
Y429100D01*
X3723074Y420370D01*
X3705613D01*
X3696883Y429100D01*
Y437831D01*
X3705613Y446561D01*
X3696883Y455292D01*
Y464022D01*
X3705613Y446561D02*
X3723074D01*
X3784188Y472753D02*
X3749266D01*
Y420370D01*
X3784188D01*
X3749266Y446561D02*
X3766727D01*
X2844500Y472753D02*
Y420370D01*
X2870691D01*
X2879422Y429100D01*
Y464022D01*
X2870691Y472753D01*
X2844500D01*
X2896883Y464022D02*
X2905613Y472753D01*
X2923074D01*
X2931805Y464022D01*
Y455292D01*
X2923074Y446561D01*
X2931805Y437831D01*
Y429100D01*
X2923074Y420370D01*
X2905613D01*
X2896883Y429100D01*
Y437831D01*
X2905613Y446561D01*
X2896883Y455292D01*
Y464022D01*
X2905613Y446561D02*
X2923074D01*
X2949266Y472753D02*
Y420370D01*
X2975457D01*
X2984188Y429100D01*
Y464022D01*
X2975457Y472753D01*
X2949266D01*
X2044500D02*
Y420370D01*
X2070692D01*
X2079422Y429100D01*
Y464022D01*
X2070692Y472753D01*
X2044500D01*
X2096883Y464022D02*
X2105614Y472753D01*
X2123074D01*
X2131805Y464022D01*
Y455292D01*
X2123074Y446561D01*
X2131805Y437831D01*
Y429100D01*
X2123074Y420370D01*
X2105614D01*
X2096883Y429100D01*
Y437831D01*
X2105614Y446561D01*
X2096883Y455292D01*
Y464022D01*
X2105614Y446561D02*
X2123074D01*
X2184188Y464022D02*
X2175457Y472753D01*
X2157996D01*
X2149266Y464022D01*
Y429100D01*
X2157996Y420370D01*
X2175457D01*
X2184188Y429100D01*
X1244500Y472753D02*
Y420370D01*
X1270691D01*
X1279422Y429100D01*
Y464022D01*
X1270691Y472753D01*
X1244500D01*
X1296883Y464022D02*
X1305613Y472753D01*
X1323074D01*
X1331805Y464022D01*
Y455292D01*
X1323074Y446561D01*
X1331805Y437831D01*
Y429100D01*
X1323074Y420370D01*
X1305613D01*
X1296883Y429100D01*
Y437831D01*
X1305613Y446561D01*
X1296883Y455292D01*
Y464022D01*
X1305613Y446561D02*
X1323074D01*
X1349266Y472753D02*
Y420370D01*
X1375457D01*
X1384188Y429100D01*
Y437831D01*
X1375457Y446561D01*
X1349266D01*
X1375457D01*
X1384188Y455292D01*
Y464022D01*
X1375457Y472753D01*
X1349266D01*
X6044500Y1023933D02*
Y971550D01*
X6070691D01*
X6079422Y980280D01*
Y1015202D01*
X6070691Y1023933D01*
X6044500D01*
X6096883D02*
X6131805D01*
Y1015202D01*
X6096883Y980280D01*
Y971550D01*
X6149266Y1023933D02*
Y971550D01*
Y997741D01*
X6184188D01*
Y1023933D01*
Y971550D01*
X5244500Y1023933D02*
Y971550D01*
X5270692D01*
X5279422Y980280D01*
Y1015202D01*
X5270692Y1023933D01*
X5244500D01*
X5296883D02*
X5331805D01*
Y1015202D01*
X5296883Y980280D01*
Y971550D01*
X5384188Y1015202D02*
X5375457Y1023933D01*
X5357996D01*
X5349266Y1015202D01*
Y980280D01*
X5357996Y971550D01*
X5375457D01*
X5384188Y980280D01*
Y997741D01*
X5366727D01*
X4444500Y1023933D02*
Y971550D01*
X4470692D01*
X4479422Y980280D01*
Y1015202D01*
X4470692Y1023933D01*
X4444500D01*
X4496883D02*
X4531805D01*
Y1015202D01*
X4496883Y980280D01*
Y971550D01*
X4584188Y1023933D02*
X4549266D01*
Y997741D01*
X4566727D01*
X4549266D01*
Y971550D01*
X3644500Y1023933D02*
Y971550D01*
X3670691D01*
X3679422Y980280D01*
Y1015202D01*
X3670691Y1023933D01*
X3644500D01*
X3696883D02*
X3731805D01*
Y1015202D01*
X3696883Y980280D01*
Y971550D01*
X3784188Y1023933D02*
X3749266D01*
Y971550D01*
X3784188D01*
X3749266Y997741D02*
X3766727D01*
X2844500Y1023933D02*
Y971550D01*
X2870691D01*
X2879422Y980280D01*
Y1015202D01*
X2870691Y1023933D01*
X2844500D01*
X2896883D02*
X2931805D01*
Y1015202D01*
X2896883Y980280D01*
Y971550D01*
X2949266Y1023933D02*
Y971550D01*
X2975457D01*
X2984188Y980280D01*
Y1015202D01*
X2975457Y1023933D01*
X2949266D01*
X2044500D02*
Y971550D01*
X2070692D01*
X2079422Y980280D01*
Y1015202D01*
X2070692Y1023933D01*
X2044500D01*
X2096883D02*
X2131805D01*
Y1015202D01*
X2096883Y980280D01*
Y971550D01*
X2184188Y1015202D02*
X2175457Y1023933D01*
X2157996D01*
X2149266Y1015202D01*
Y980280D01*
X2157996Y971550D01*
X2175457D01*
X2184188Y980280D01*
X1244500Y1023933D02*
Y971550D01*
X1270691D01*
X1279422Y980280D01*
Y1015202D01*
X1270691Y1023933D01*
X1244500D01*
X1296883D02*
X1331805D01*
Y1015202D01*
X1296883Y980280D01*
Y971550D01*
X1349266Y1023933D02*
Y971550D01*
X1375457D01*
X1384188Y980280D01*
Y989011D01*
X1375457Y997741D01*
X1349266D01*
X1375457D01*
X1384188Y1006472D01*
Y1015202D01*
X1375457Y1023933D01*
X1349266D01*
X6044500Y1572573D02*
Y1520190D01*
X6070691D01*
X6079422Y1528920D01*
Y1563842D01*
X6070691Y1572573D01*
X6044500D01*
X6131805D02*
X6114344Y1563842D01*
X6096883Y1546381D01*
Y1528920D01*
X6105613Y1520190D01*
X6123074D01*
X6131805Y1528920D01*
Y1537651D01*
X6123074Y1546381D01*
X6096883D01*
X6149266Y1572573D02*
Y1520190D01*
Y1546381D01*
X6184188D01*
Y1572573D01*
Y1520190D01*
X5244500Y1572573D02*
Y1520190D01*
X5270692D01*
X5279422Y1528920D01*
Y1563842D01*
X5270692Y1572573D01*
X5244500D01*
X5331805D02*
X5314344Y1563842D01*
X5296883Y1546381D01*
Y1528920D01*
X5305613Y1520190D01*
X5323074D01*
X5331805Y1528920D01*
Y1537651D01*
X5323074Y1546381D01*
X5296883D01*
X5384188Y1563842D02*
X5375457Y1572573D01*
X5357996D01*
X5349266Y1563842D01*
Y1528920D01*
X5357996Y1520190D01*
X5375457D01*
X5384188Y1528920D01*
Y1546381D01*
X5366727D01*
X4444500Y1572573D02*
Y1520190D01*
X4470692D01*
X4479422Y1528920D01*
Y1563842D01*
X4470692Y1572573D01*
X4444500D01*
X4531805D02*
X4514344Y1563842D01*
X4496883Y1546381D01*
Y1528920D01*
X4505614Y1520190D01*
X4523075D01*
X4531805Y1528920D01*
Y1537651D01*
X4523075Y1546381D01*
X4496883D01*
X4584188Y1572573D02*
X4549266D01*
Y1546381D01*
X4566727D01*
X4549266D01*
Y1520190D01*
X3644500Y1572573D02*
Y1520190D01*
X3670691D01*
X3679422Y1528920D01*
Y1563842D01*
X3670691Y1572573D01*
X3644500D01*
X3731805D02*
X3714344Y1563842D01*
X3696883Y1546381D01*
Y1528920D01*
X3705613Y1520190D01*
X3723074D01*
X3731805Y1528920D01*
Y1537651D01*
X3723074Y1546381D01*
X3696883D01*
X3784188Y1572573D02*
X3749266D01*
Y1520190D01*
X3784188D01*
X3749266Y1546381D02*
X3766727D01*
X2844500Y1572573D02*
Y1520190D01*
X2870691D01*
X2879422Y1528920D01*
Y1563842D01*
X2870691Y1572573D01*
X2844500D01*
X2931805D02*
X2914344Y1563842D01*
X2896883Y1546381D01*
Y1528920D01*
X2905613Y1520190D01*
X2923074D01*
X2931805Y1528920D01*
Y1537651D01*
X2923074Y1546381D01*
X2896883D01*
X2949266Y1572573D02*
Y1520190D01*
X2975457D01*
X2984188Y1528920D01*
Y1563842D01*
X2975457Y1572573D01*
X2949266D01*
X2044500D02*
Y1520190D01*
X2070692D01*
X2079422Y1528920D01*
Y1563842D01*
X2070692Y1572573D01*
X2044500D01*
X2131805D02*
X2114344Y1563842D01*
X2096883Y1546381D01*
Y1528920D01*
X2105614Y1520190D01*
X2123074D01*
X2131805Y1528920D01*
Y1537651D01*
X2123074Y1546381D01*
X2096883D01*
X2184188Y1563842D02*
X2175457Y1572573D01*
X2157996D01*
X2149266Y1563842D01*
Y1528920D01*
X2157996Y1520190D01*
X2175457D01*
X2184188Y1528920D01*
X1244500Y1572573D02*
Y1520190D01*
X1270691D01*
X1279422Y1528920D01*
Y1563842D01*
X1270691Y1572573D01*
X1244500D01*
X1331805D02*
X1314344Y1563842D01*
X1296883Y1546381D01*
Y1528920D01*
X1305613Y1520190D01*
X1323074D01*
X1331805Y1528920D01*
Y1537651D01*
X1323074Y1546381D01*
X1296883D01*
X1349266Y1572573D02*
Y1520190D01*
X1375457D01*
X1384188Y1528920D01*
Y1537651D01*
X1375457Y1546381D01*
X1349266D01*
X1375457D01*
X1384188Y1555112D01*
Y1563842D01*
X1375457Y1572573D01*
X1349266D01*
X6044500Y2123753D02*
Y2071370D01*
X6070691D01*
X6079422Y2080100D01*
Y2115022D01*
X6070691Y2123753D01*
X6044500D01*
X6131805D02*
X6096883D01*
Y2097561D01*
X6114344Y2106292D01*
X6123074D01*
X6131805Y2097561D01*
Y2080100D01*
X6123074Y2071370D01*
X6105613D01*
X6096883Y2080100D01*
X6149266Y2123753D02*
Y2071370D01*
Y2097561D01*
X6184188D01*
Y2123753D01*
Y2071370D01*
X5244500Y2123753D02*
Y2071370D01*
X5270692D01*
X5279422Y2080100D01*
Y2115022D01*
X5270692Y2123753D01*
X5244500D01*
X5331805D02*
X5296883D01*
Y2097561D01*
X5314344Y2106292D01*
X5323074D01*
X5331805Y2097561D01*
Y2080100D01*
X5323074Y2071370D01*
X5305613D01*
X5296883Y2080100D01*
X5384188Y2115022D02*
X5375457Y2123753D01*
X5357996D01*
X5349266Y2115022D01*
Y2080100D01*
X5357996Y2071370D01*
X5375457D01*
X5384188Y2080100D01*
Y2097561D01*
X5366727D01*
X4444500Y2123753D02*
Y2071370D01*
X4470692D01*
X4479422Y2080100D01*
Y2115022D01*
X4470692Y2123753D01*
X4444500D01*
X4531805D02*
X4496883D01*
Y2097561D01*
X4514344Y2106292D01*
X4523075D01*
X4531805Y2097561D01*
Y2080100D01*
X4523075Y2071370D01*
X4505614D01*
X4496883Y2080100D01*
X4584188Y2123753D02*
X4549266D01*
Y2097561D01*
X4566727D01*
X4549266D01*
Y2071370D01*
X3644500Y2123753D02*
Y2071370D01*
X3670691D01*
X3679422Y2080100D01*
Y2115022D01*
X3670691Y2123753D01*
X3644500D01*
X3731805D02*
X3696883D01*
Y2097561D01*
X3714344Y2106292D01*
X3723074D01*
X3731805Y2097561D01*
Y2080100D01*
X3723074Y2071370D01*
X3705613D01*
X3696883Y2080100D01*
X3784188Y2123753D02*
X3749266D01*
Y2071370D01*
X3784188D01*
X3749266Y2097561D02*
X3766727D01*
X2844500Y2123753D02*
Y2071370D01*
X2870691D01*
X2879422Y2080100D01*
Y2115022D01*
X2870691Y2123753D01*
X2844500D01*
X2931805D02*
X2896883D01*
Y2097561D01*
X2914344Y2106292D01*
X2923074D01*
X2931805Y2097561D01*
Y2080100D01*
X2923074Y2071370D01*
X2905613D01*
X2896883Y2080100D01*
X2949266Y2123753D02*
Y2071370D01*
X2975457D01*
X2984188Y2080100D01*
Y2115022D01*
X2975457Y2123753D01*
X2949266D01*
X2044500D02*
Y2071370D01*
X2070692D01*
X2079422Y2080100D01*
Y2115022D01*
X2070692Y2123753D01*
X2044500D01*
X2131805D02*
X2096883D01*
Y2097561D01*
X2114344Y2106292D01*
X2123074D01*
X2131805Y2097561D01*
Y2080100D01*
X2123074Y2071370D01*
X2105614D01*
X2096883Y2080100D01*
X2184188Y2115022D02*
X2175457Y2123753D01*
X2157996D01*
X2149266Y2115022D01*
Y2080100D01*
X2157996Y2071370D01*
X2175457D01*
X2184188Y2080100D01*
X1244500Y2123753D02*
Y2071370D01*
X1270691D01*
X1279422Y2080100D01*
Y2115022D01*
X1270691Y2123753D01*
X1244500D01*
X1331805D02*
X1296883D01*
Y2097561D01*
X1314344Y2106292D01*
X1323074D01*
X1331805Y2097561D01*
Y2080100D01*
X1323074Y2071370D01*
X1305613D01*
X1296883Y2080100D01*
X1349266Y2123753D02*
Y2071370D01*
X1375457D01*
X1384188Y2080100D01*
Y2088831D01*
X1375457Y2097561D01*
X1349266D01*
X1375457D01*
X1384188Y2106292D01*
Y2115022D01*
X1375457Y2123753D01*
X1349266D01*
X6044500Y2672393D02*
Y2620010D01*
X6070691D01*
X6079422Y2628740D01*
Y2663662D01*
X6070691Y2672393D01*
X6044500D01*
X6123074Y2620010D02*
Y2672393D01*
X6096883Y2646201D01*
X6131805D01*
X6149266Y2672393D02*
Y2620010D01*
Y2646201D01*
X6184188D01*
Y2672393D01*
Y2620010D01*
X5244500Y2672393D02*
Y2620010D01*
X5270692D01*
X5279422Y2628740D01*
Y2663662D01*
X5270692Y2672393D01*
X5244500D01*
X5323074Y2620010D02*
Y2672393D01*
X5296883Y2646201D01*
X5331805D01*
X5384188Y2663662D02*
X5375457Y2672393D01*
X5357996D01*
X5349266Y2663662D01*
Y2628740D01*
X5357996Y2620010D01*
X5375457D01*
X5384188Y2628740D01*
Y2646201D01*
X5366727D01*
X4444500Y2672393D02*
Y2620010D01*
X4470692D01*
X4479422Y2628740D01*
Y2663662D01*
X4470692Y2672393D01*
X4444500D01*
X4523075Y2620010D02*
Y2672393D01*
X4496883Y2646201D01*
X4531805D01*
X4584188Y2672393D02*
X4549266D01*
Y2646201D01*
X4566727D01*
X4549266D01*
Y2620010D01*
X3644500Y2672393D02*
Y2620010D01*
X3670691D01*
X3679422Y2628740D01*
Y2663662D01*
X3670691Y2672393D01*
X3644500D01*
X3723074Y2620010D02*
Y2672393D01*
X3696883Y2646201D01*
X3731805D01*
X3784188Y2672393D02*
X3749266D01*
Y2620010D01*
X3784188D01*
X3749266Y2646201D02*
X3766727D01*
X2844500Y2672393D02*
Y2620010D01*
X2870691D01*
X2879422Y2628740D01*
Y2663662D01*
X2870691Y2672393D01*
X2844500D01*
X2923074Y2620010D02*
Y2672393D01*
X2896883Y2646201D01*
X2931805D01*
X2949266Y2672393D02*
Y2620010D01*
X2975457D01*
X2984188Y2628740D01*
Y2663662D01*
X2975457Y2672393D01*
X2949266D01*
X2044500D02*
Y2620010D01*
X2070692D01*
X2079422Y2628740D01*
Y2663662D01*
X2070692Y2672393D01*
X2044500D01*
X2123074Y2620010D02*
Y2672393D01*
X2096883Y2646201D01*
X2131805D01*
X2184188Y2663662D02*
X2175457Y2672393D01*
X2157996D01*
X2149266Y2663662D01*
Y2628740D01*
X2157996Y2620010D01*
X2175457D01*
X2184188Y2628740D01*
X1244500Y2672393D02*
Y2620010D01*
X1270691D01*
X1279422Y2628740D01*
Y2663662D01*
X1270691Y2672393D01*
X1244500D01*
X1323074Y2620010D02*
Y2672393D01*
X1296883Y2646201D01*
X1331805D01*
X1349266Y2672393D02*
Y2620010D01*
X1375457D01*
X1384188Y2628740D01*
Y2637471D01*
X1375457Y2646201D01*
X1349266D01*
X1375457D01*
X1384188Y2654932D01*
Y2663662D01*
X1375457Y2672393D01*
X1349266D01*
X6044500Y3223573D02*
Y3171190D01*
X6070691D01*
X6079422Y3179920D01*
Y3214842D01*
X6070691Y3223573D01*
X6044500D01*
X6096883Y3214842D02*
X6105613Y3223573D01*
X6123074D01*
X6131805Y3214842D01*
Y3206112D01*
X6123074Y3197381D01*
X6114344D01*
X6123074D01*
X6131805Y3188651D01*
Y3179920D01*
X6123074Y3171190D01*
X6105613D01*
X6096883Y3179920D01*
X6149266Y3223573D02*
Y3171190D01*
Y3197381D01*
X6184188D01*
Y3223573D01*
Y3171190D01*
X5244500Y3223573D02*
Y3171190D01*
X5270692D01*
X5279422Y3179920D01*
Y3214842D01*
X5270692Y3223573D01*
X5244500D01*
X5296883Y3214842D02*
X5305613Y3223573D01*
X5323074D01*
X5331805Y3214842D01*
Y3206112D01*
X5323074Y3197381D01*
X5314344D01*
X5323074D01*
X5331805Y3188651D01*
Y3179920D01*
X5323074Y3171190D01*
X5305613D01*
X5296883Y3179920D01*
X5384188Y3214842D02*
X5375457Y3223573D01*
X5357996D01*
X5349266Y3214842D01*
Y3179920D01*
X5357996Y3171190D01*
X5375457D01*
X5384188Y3179920D01*
Y3197381D01*
X5366727D01*
X4444500Y3223573D02*
Y3171190D01*
X4470692D01*
X4479422Y3179920D01*
Y3214842D01*
X4470692Y3223573D01*
X4444500D01*
X4496883Y3214842D02*
X4505614Y3223573D01*
X4523075D01*
X4531805Y3214842D01*
Y3206112D01*
X4523075Y3197381D01*
X4514344D01*
X4523075D01*
X4531805Y3188651D01*
Y3179920D01*
X4523075Y3171190D01*
X4505614D01*
X4496883Y3179920D01*
X4584188Y3223573D02*
X4549266D01*
Y3197381D01*
X4566727D01*
X4549266D01*
Y3171190D01*
X3644500Y3223573D02*
Y3171190D01*
X3670691D01*
X3679422Y3179920D01*
Y3214842D01*
X3670691Y3223573D01*
X3644500D01*
X3696883Y3214842D02*
X3705613Y3223573D01*
X3723074D01*
X3731805Y3214842D01*
Y3206112D01*
X3723074Y3197381D01*
X3714344D01*
X3723074D01*
X3731805Y3188651D01*
Y3179920D01*
X3723074Y3171190D01*
X3705613D01*
X3696883Y3179920D01*
X3784188Y3223573D02*
X3749266D01*
Y3171190D01*
X3784188D01*
X3749266Y3197381D02*
X3766727D01*
X2844500Y3223573D02*
Y3171190D01*
X2870691D01*
X2879422Y3179920D01*
Y3214842D01*
X2870691Y3223573D01*
X2844500D01*
X2896883Y3214842D02*
X2905613Y3223573D01*
X2923074D01*
X2931805Y3214842D01*
Y3206112D01*
X2923074Y3197381D01*
X2914344D01*
X2923074D01*
X2931805Y3188651D01*
Y3179920D01*
X2923074Y3171190D01*
X2905613D01*
X2896883Y3179920D01*
X2949266Y3223573D02*
Y3171190D01*
X2975457D01*
X2984188Y3179920D01*
Y3214842D01*
X2975457Y3223573D01*
X2949266D01*
X2044500D02*
Y3171190D01*
X2070692D01*
X2079422Y3179920D01*
Y3214842D01*
X2070692Y3223573D01*
X2044500D01*
X2096883Y3214842D02*
X2105614Y3223573D01*
X2123074D01*
X2131805Y3214842D01*
Y3206112D01*
X2123074Y3197381D01*
X2114344D01*
X2123074D01*
X2131805Y3188651D01*
Y3179920D01*
X2123074Y3171190D01*
X2105614D01*
X2096883Y3179920D01*
X2184188Y3214842D02*
X2175457Y3223573D01*
X2157996D01*
X2149266Y3214842D01*
Y3179920D01*
X2157996Y3171190D01*
X2175457D01*
X2184188Y3179920D01*
X1244500Y3223573D02*
Y3171190D01*
X1270691D01*
X1279422Y3179920D01*
Y3214842D01*
X1270691Y3223573D01*
X1244500D01*
X1296883Y3214842D02*
X1305613Y3223573D01*
X1323074D01*
X1331805Y3214842D01*
Y3206112D01*
X1323074Y3197381D01*
X1314344D01*
X1323074D01*
X1331805Y3188651D01*
Y3179920D01*
X1323074Y3171190D01*
X1305613D01*
X1296883Y3179920D01*
X1349266Y3223573D02*
Y3171190D01*
X1375457D01*
X1384188Y3179920D01*
Y3188651D01*
X1375457Y3197381D01*
X1349266D01*
X1375457D01*
X1384188Y3206112D01*
Y3214842D01*
X1375457Y3223573D01*
X1349266D01*
X6044500Y3772213D02*
Y3719830D01*
X6070691D01*
X6079422Y3728560D01*
Y3763482D01*
X6070691Y3772213D01*
X6044500D01*
X6131805Y3719830D02*
X6096883D01*
X6131805Y3754752D01*
Y3763482D01*
X6123074Y3772213D01*
X6105613D01*
X6096883Y3763482D01*
X6149266Y3772213D02*
Y3719830D01*
Y3746021D01*
X6184188D01*
Y3772213D01*
Y3719830D01*
X5244500Y3772213D02*
Y3719830D01*
X5270692D01*
X5279422Y3728560D01*
Y3763482D01*
X5270692Y3772213D01*
X5244500D01*
X5331805Y3719830D02*
X5296883D01*
X5331805Y3754752D01*
Y3763482D01*
X5323074Y3772213D01*
X5305613D01*
X5296883Y3763482D01*
X5384188D02*
X5375457Y3772213D01*
X5357996D01*
X5349266Y3763482D01*
Y3728560D01*
X5357996Y3719830D01*
X5375457D01*
X5384188Y3728560D01*
Y3746021D01*
X5366727D01*
X4444500Y3772213D02*
Y3719830D01*
X4470692D01*
X4479422Y3728560D01*
Y3763482D01*
X4470692Y3772213D01*
X4444500D01*
X4531805Y3719830D02*
X4496883D01*
X4531805Y3754752D01*
Y3763482D01*
X4523075Y3772213D01*
X4505614D01*
X4496883Y3763482D01*
X4584188Y3772213D02*
X4549266D01*
Y3746021D01*
X4566727D01*
X4549266D01*
Y3719830D01*
X3644500Y3772213D02*
Y3719830D01*
X3670691D01*
X3679422Y3728560D01*
Y3763482D01*
X3670691Y3772213D01*
X3644500D01*
X3731805Y3719830D02*
X3696883D01*
X3731805Y3754752D01*
Y3763482D01*
X3723074Y3772213D01*
X3705613D01*
X3696883Y3763482D01*
X3784188Y3772213D02*
X3749266D01*
Y3719830D01*
X3784188D01*
X3749266Y3746021D02*
X3766727D01*
X2844500Y3772213D02*
Y3719830D01*
X2870691D01*
X2879422Y3728560D01*
Y3763482D01*
X2870691Y3772213D01*
X2844500D01*
X2931805Y3719830D02*
X2896883D01*
X2931805Y3754752D01*
Y3763482D01*
X2923074Y3772213D01*
X2905613D01*
X2896883Y3763482D01*
X2949266Y3772213D02*
Y3719830D01*
X2975457D01*
X2984188Y3728560D01*
Y3763482D01*
X2975457Y3772213D01*
X2949266D01*
X2044500D02*
Y3719830D01*
X2070692D01*
X2079422Y3728560D01*
Y3763482D01*
X2070692Y3772213D01*
X2044500D01*
X2131805Y3719830D02*
X2096883D01*
X2131805Y3754752D01*
Y3763482D01*
X2123074Y3772213D01*
X2105614D01*
X2096883Y3763482D01*
X2184188D02*
X2175457Y3772213D01*
X2157996D01*
X2149266Y3763482D01*
Y3728560D01*
X2157996Y3719830D01*
X2175457D01*
X2184188Y3728560D01*
X1244500Y3772213D02*
Y3719830D01*
X1270691D01*
X1279422Y3728560D01*
Y3763482D01*
X1270691Y3772213D01*
X1244500D01*
X1331805Y3719830D02*
X1296883D01*
X1331805Y3754752D01*
Y3763482D01*
X1323074Y3772213D01*
X1305613D01*
X1296883Y3763482D01*
X1349266Y3772213D02*
Y3719830D01*
X1375457D01*
X1384188Y3728560D01*
Y3737291D01*
X1375457Y3746021D01*
X1349266D01*
X1375457D01*
X1384188Y3754752D01*
Y3763482D01*
X1375457Y3772213D01*
X1349266D01*
X6049580Y4323393D02*
Y4271010D01*
X6075771D01*
X6084502Y4279740D01*
Y4314662D01*
X6075771Y4323393D01*
X6049580D01*
X6101963Y4271010D02*
X6119424D01*
X6110693D01*
Y4323393D01*
X6101963Y4314662D01*
X6145615Y4323393D02*
Y4271010D01*
Y4297201D01*
X6180537D01*
Y4323393D01*
Y4271010D01*
X5249580Y4323393D02*
Y4271010D01*
X5275772D01*
X5284502Y4279740D01*
Y4314662D01*
X5275772Y4323393D01*
X5249580D01*
X5301963Y4271010D02*
X5319424D01*
X5310693D01*
Y4323393D01*
X5301963Y4314662D01*
X5380537D02*
X5371807Y4323393D01*
X5354346D01*
X5345615Y4314662D01*
Y4279740D01*
X5354346Y4271010D01*
X5371807D01*
X5380537Y4279740D01*
Y4297201D01*
X5363076D01*
X4449580Y4323393D02*
Y4271010D01*
X4475772D01*
X4484502Y4279740D01*
Y4314662D01*
X4475772Y4323393D01*
X4449580D01*
X4501963Y4271010D02*
X4519424D01*
X4510694D01*
Y4323393D01*
X4501963Y4314662D01*
X4580537Y4323393D02*
X4545615D01*
Y4297201D01*
X4563076D01*
X4545615D01*
Y4271010D01*
X3649580Y4323393D02*
Y4271010D01*
X3675771D01*
X3684502Y4279740D01*
Y4314662D01*
X3675771Y4323393D01*
X3649580D01*
X3701963Y4271010D02*
X3719424D01*
X3710693D01*
Y4323393D01*
X3701963Y4314662D01*
X3780537Y4323393D02*
X3745615D01*
Y4271010D01*
X3780537D01*
X3745615Y4297201D02*
X3763076D01*
X2849580Y4323393D02*
Y4271010D01*
X2875771D01*
X2884502Y4279740D01*
Y4314662D01*
X2875771Y4323393D01*
X2849580D01*
X2901963Y4271010D02*
X2919424D01*
X2910693D01*
Y4323393D01*
X2901963Y4314662D01*
X2945615Y4323393D02*
Y4271010D01*
X2971807D01*
X2980537Y4279740D01*
Y4314662D01*
X2971807Y4323393D01*
X2945615D01*
X2049580D02*
Y4271010D01*
X2075772D01*
X2084502Y4279740D01*
Y4314662D01*
X2075772Y4323393D01*
X2049580D01*
X2101963Y4271010D02*
X2119424D01*
X2110694D01*
Y4323393D01*
X2101963Y4314662D01*
X2180537D02*
X2171807Y4323393D01*
X2154346D01*
X2145615Y4314662D01*
Y4279740D01*
X2154346Y4271010D01*
X2171807D01*
X2180537Y4279740D01*
X1249580Y4323393D02*
Y4271010D01*
X1275771D01*
X1284502Y4279740D01*
Y4314662D01*
X1275771Y4323393D01*
X1249580D01*
X1301963Y4271010D02*
X1319424D01*
X1310693D01*
Y4323393D01*
X1301963Y4314662D01*
X1345615Y4323393D02*
Y4271010D01*
X1371807D01*
X1380537Y4279740D01*
Y4288471D01*
X1371807Y4297201D01*
X1345615D01*
X1371807D01*
X1380537Y4305932D01*
Y4314662D01*
X1371807Y4323393D01*
X1345615D01*
X7465060Y1817683D02*
Y1774030D01*
X7473790Y1765300D01*
X7491251D01*
X7499982Y1774030D01*
Y1817683D01*
X7543634Y1765300D02*
Y1817683D01*
X7517443Y1791491D01*
X7552365D01*
X7053580Y2274883D02*
X7088502D01*
X7071041D01*
Y2222500D01*
X7105963D02*
Y2274883D01*
X7132154D01*
X7140885Y2266152D01*
Y2248691D01*
X7132154Y2239961D01*
X7105963D01*
X7184537Y2222500D02*
Y2274883D01*
X7158346Y2248691D01*
X7193268D01*
X7289800Y642620D02*
Y695003D01*
X7315991D01*
X7324722Y686272D01*
Y668811D01*
X7315991Y660081D01*
X7289800D01*
X7307261D02*
X7324722Y642620D01*
X7377105D02*
X7342183D01*
X7377105Y677542D01*
Y686272D01*
X7368374Y695003D01*
X7350913D01*
X7342183Y686272D01*
X7394566D02*
X7403296Y695003D01*
X7420757D01*
X7429488Y686272D01*
Y677542D01*
X7420757Y668811D01*
X7412027D01*
X7420757D01*
X7429488Y660081D01*
Y651350D01*
X7420757Y642620D01*
X7403296D01*
X7394566Y651350D01*
X7457440Y1137920D02*
Y1190303D01*
X7483631D01*
X7492362Y1181572D01*
Y1164111D01*
X7483631Y1155381D01*
X7457440D01*
X7474901D02*
X7492362Y1137920D01*
X7544745D02*
X7509823D01*
X7544745Y1172842D01*
Y1181572D01*
X7536014Y1190303D01*
X7518553D01*
X7509823Y1181572D01*
X7597128Y1137920D02*
X7562206D01*
X7597128Y1172842D01*
Y1181572D01*
X7588397Y1190303D01*
X7570936D01*
X7562206Y1181572D01*
X7472680Y2171700D02*
Y2224083D01*
X7498871D01*
X7507602Y2215352D01*
Y2197891D01*
X7498871Y2189161D01*
X7472680D01*
X7490141D02*
X7507602Y2171700D01*
X7559985D02*
X7525063D01*
X7559985Y2206622D01*
Y2215352D01*
X7551254Y2224083D01*
X7533793D01*
X7525063Y2215352D01*
X7577446Y2171700D02*
X7594907D01*
X7586176D01*
Y2224083D01*
X7577446Y2215352D01*
X6720840Y1554480D02*
Y1606863D01*
X6747031D01*
X6755762Y1598132D01*
Y1580671D01*
X6747031Y1571941D01*
X6720840D01*
X6738301D02*
X6755762Y1554480D01*
X6808145D02*
X6773223D01*
X6808145Y1589402D01*
Y1598132D01*
X6799414Y1606863D01*
X6781953D01*
X6773223Y1598132D01*
X6825606D02*
X6834336Y1606863D01*
X6851797D01*
X6860528Y1598132D01*
Y1563210D01*
X6851797Y1554480D01*
X6834336D01*
X6825606Y1563210D01*
Y1598132D01*
X8120380Y2143760D02*
Y2196143D01*
X8146571D01*
X8155302Y2187412D01*
Y2169951D01*
X8146571Y2161221D01*
X8120380D01*
X8137841D02*
X8155302Y2143760D01*
X8172763D02*
X8190224D01*
X8181493D01*
Y2196143D01*
X8172763Y2187412D01*
X8216415Y2152490D02*
X8225146Y2143760D01*
X8242607D01*
X8251337Y2152490D01*
Y2187412D01*
X8242607Y2196143D01*
X8225146D01*
X8216415Y2187412D01*
Y2178682D01*
X8225146Y2169951D01*
X8251337D01*
X6962140Y1551940D02*
Y1604323D01*
X6988331D01*
X6997062Y1595592D01*
Y1578131D01*
X6988331Y1569401D01*
X6962140D01*
X6979601D02*
X6997062Y1551940D01*
X7014523D02*
X7031984D01*
X7023253D01*
Y1604323D01*
X7014523Y1595592D01*
X7058175D02*
X7066906Y1604323D01*
X7084367D01*
X7093097Y1595592D01*
Y1586862D01*
X7084367Y1578131D01*
X7093097Y1569401D01*
Y1560670D01*
X7084367Y1551940D01*
X7066906D01*
X7058175Y1560670D01*
Y1569401D01*
X7066906Y1578131D01*
X7058175Y1586862D01*
Y1595592D01*
X7066906Y1578131D02*
X7084367D01*
X7551420Y11460480D02*
Y11512863D01*
X7577611D01*
X7586342Y11504132D01*
Y11486671D01*
X7577611Y11477941D01*
X7551420D01*
X7568881D02*
X7586342Y11460480D01*
X7638725D02*
X7603803D01*
X7638725Y11495402D01*
Y11504132D01*
X7629994Y11512863D01*
X7612533D01*
X7603803Y11504132D01*
X8112760Y2532380D02*
Y2584763D01*
X8138951D01*
X8147682Y2576032D01*
Y2558571D01*
X8138951Y2549841D01*
X8112760D01*
X8200065Y2584763D02*
X8165143D01*
Y2558571D01*
X8182604Y2567302D01*
X8191334D01*
X8200065Y2558571D01*
Y2541110D01*
X8191334Y2532380D01*
X8173873D01*
X8165143Y2541110D01*
X7167880Y6949440D02*
Y7001823D01*
X7194071D01*
X7202802Y6993092D01*
Y6975631D01*
X7194071Y6966901D01*
X7167880D01*
X7220263Y6993092D02*
X7228993Y7001823D01*
X7246454D01*
X7255185Y6993092D01*
Y6984362D01*
X7246454Y6975631D01*
X7237724D01*
X7246454D01*
X7255185Y6966901D01*
Y6958170D01*
X7246454Y6949440D01*
X7228993D01*
X7220263Y6958170D01*
X7688580Y11258863D02*
Y11206480D01*
X7723502D01*
X7775885Y11258863D02*
X7740963D01*
Y11206480D01*
X7775885D01*
X7740963Y11232671D02*
X7758424D01*
X7793346Y11258863D02*
Y11206480D01*
X7819537D01*
X7828268Y11215210D01*
Y11250132D01*
X7819537Y11258863D01*
X7793346D01*
X7880651Y11206480D02*
X7845729D01*
X7880651Y11241402D01*
Y11250132D01*
X7871920Y11258863D01*
X7854459D01*
X7845729Y11250132D01*
X8170542Y1882612D02*
X8161811Y1891343D01*
X8144350D01*
X8135620Y1882612D01*
Y1847690D01*
X8144350Y1838960D01*
X8161811D01*
X8170542Y1847690D01*
X8188003D02*
X8196733Y1838960D01*
X8214194D01*
X8222925Y1847690D01*
Y1882612D01*
X8214194Y1891343D01*
X8196733D01*
X8188003Y1882612D01*
Y1873882D01*
X8196733Y1865151D01*
X8222925D01*
X7525382Y1422872D02*
X7516651Y1431603D01*
X7499190D01*
X7490460Y1422872D01*
Y1387950D01*
X7499190Y1379220D01*
X7516651D01*
X7525382Y1387950D01*
X7577765Y1431603D02*
X7542843D01*
Y1405411D01*
X7560304Y1414142D01*
X7569034D01*
X7577765Y1405411D01*
Y1387950D01*
X7569034Y1379220D01*
X7551573D01*
X7542843Y1387950D01*
X7586342Y10950412D02*
X7577611Y10959143D01*
X7560150D01*
X7551420Y10950412D01*
Y10915490D01*
X7560150Y10906760D01*
X7577611D01*
X7586342Y10915490D01*
X7629994Y10906760D02*
Y10959143D01*
X7603803Y10932951D01*
X7638725D01*
X6603362Y10950412D02*
X6594631Y10959143D01*
X6577170D01*
X6568440Y10950412D01*
Y10915490D01*
X6577170Y10906760D01*
X6594631D01*
X6603362Y10915490D01*
X6620823Y10950412D02*
X6629553Y10959143D01*
X6647014D01*
X6655745Y10950412D01*
Y10941682D01*
X6647014Y10932951D01*
X6638284D01*
X6647014D01*
X6655745Y10924221D01*
Y10915490D01*
X6647014Y10906760D01*
X6629553D01*
X6620823Y10915490D01*
X6200140Y8589323D02*
Y8554401D01*
X6217601Y8536940D01*
X6235062Y8554401D01*
Y8589323D01*
X6252523Y8536940D02*
Y8589323D01*
X6278714D01*
X6287445Y8580592D01*
Y8563131D01*
X6278714Y8554401D01*
X6252523D01*
X6269984D02*
X6287445Y8536940D01*
X6304906D02*
X6322367D01*
X6313636D01*
Y8589323D01*
X6304906Y8580592D01*
X6348558Y8589323D02*
Y8536940D01*
X6374750D01*
X6383480Y8545670D01*
Y8554401D01*
X6374750Y8563131D01*
X6348558D01*
X6374750D01*
X6383480Y8571862D01*
Y8580592D01*
X6374750Y8589323D01*
X6348558D01*
X6174740Y9856783D02*
Y9821861D01*
X6192201Y9804400D01*
X6209662Y9821861D01*
Y9856783D01*
X6227123Y9804400D02*
Y9856783D01*
X6253314D01*
X6262045Y9848052D01*
Y9830591D01*
X6253314Y9821861D01*
X6227123D01*
X6244584D02*
X6262045Y9804400D01*
X6279506D02*
X6296967D01*
X6288236D01*
Y9856783D01*
X6279506Y9848052D01*
X6323158Y9804400D02*
Y9839322D01*
X6340619Y9856783D01*
X6358080Y9839322D01*
Y9804400D01*
Y9830591D01*
X6323158D01*
X4003040Y10608623D02*
Y10564970D01*
X4011770Y10556240D01*
X4029231D01*
X4037962Y10564970D01*
Y10608623D01*
X4090345Y10556240D02*
X4055423D01*
X4090345Y10591162D01*
Y10599892D01*
X4081614Y10608623D01*
X4064153D01*
X4055423Y10599892D01*
X4142728D02*
X4133997Y10608623D01*
X4116536D01*
X4107806Y10599892D01*
Y10564970D01*
X4116536Y10556240D01*
X4133997D01*
X4142728Y10564970D01*
X3992880Y8213403D02*
Y8169750D01*
X4001610Y8161020D01*
X4019071D01*
X4027802Y8169750D01*
Y8213403D01*
X4080185Y8161020D02*
X4045263D01*
X4080185Y8195942D01*
Y8204672D01*
X4071454Y8213403D01*
X4053993D01*
X4045263Y8204672D01*
X4097646Y8213403D02*
Y8161020D01*
X4123837D01*
X4132568Y8169750D01*
Y8178481D01*
X4123837Y8187211D01*
X4097646D01*
X4123837D01*
X4132568Y8195942D01*
Y8204672D01*
X4123837Y8213403D01*
X4097646D01*
X1493520D02*
Y8169750D01*
X1502250Y8161020D01*
X1519711D01*
X1528442Y8169750D01*
Y8213403D01*
X1580825Y8161020D02*
X1545903D01*
X1580825Y8195942D01*
Y8204672D01*
X1572094Y8213403D01*
X1554633D01*
X1545903Y8204672D01*
X1598286Y8161020D02*
Y8195942D01*
X1615747Y8213403D01*
X1633208Y8195942D01*
Y8161020D01*
Y8187211D01*
X1598286D01*
X3855720Y6262683D02*
Y6219030D01*
X3864450Y6210300D01*
X3881911D01*
X3890642Y6219030D01*
Y6262683D01*
X3908103Y6210300D02*
X3925564D01*
X3916833D01*
Y6262683D01*
X3908103Y6253952D01*
X2682240Y6204263D02*
X2717162D01*
X2699701D01*
Y6151880D01*
X2734623Y6204263D02*
Y6151880D01*
X2760814D01*
X2769545Y6160610D01*
Y6169341D01*
X2760814Y6178071D01*
X2734623D01*
X2760814D01*
X2769545Y6186802D01*
Y6195532D01*
X2760814Y6204263D01*
X2734623D01*
X2813197Y6151880D02*
Y6204263D01*
X2787006Y6178071D01*
X2821928D01*
X6527800Y8371840D02*
Y8424223D01*
X6553991D01*
X6562722Y8415492D01*
Y8398031D01*
X6553991Y8389301D01*
X6527800D01*
X6545261D02*
X6562722Y8371840D01*
X6580183Y8380570D02*
X6588913Y8371840D01*
X6606374D01*
X6615105Y8380570D01*
Y8415492D01*
X6606374Y8424223D01*
X6588913D01*
X6580183Y8415492D01*
Y8406762D01*
X6588913Y8398031D01*
X6615105D01*
X6632566Y8424223D02*
Y8371840D01*
X6658757D01*
X6667488Y8380570D01*
Y8389301D01*
X6658757Y8398031D01*
X6632566D01*
X6658757D01*
X6667488Y8406762D01*
Y8415492D01*
X6658757Y8424223D01*
X6632566D01*
X6504940Y9639300D02*
Y9691683D01*
X6531131D01*
X6539862Y9682952D01*
Y9665491D01*
X6531131Y9656761D01*
X6504940D01*
X6522401D02*
X6539862Y9639300D01*
X6557323Y9648030D02*
X6566053Y9639300D01*
X6583514D01*
X6592245Y9648030D01*
Y9682952D01*
X6583514Y9691683D01*
X6566053D01*
X6557323Y9682952D01*
Y9674222D01*
X6566053Y9665491D01*
X6592245D01*
X6609706Y9639300D02*
Y9674222D01*
X6627167Y9691683D01*
X6644628Y9674222D01*
Y9639300D01*
Y9665491D01*
X6609706D01*
X5722620Y8544560D02*
Y8596943D01*
X5748811D01*
X5757542Y8588212D01*
Y8570751D01*
X5748811Y8562021D01*
X5722620D01*
X5775003Y8544560D02*
X5792464D01*
X5783733D01*
Y8596943D01*
X5775003Y8588212D01*
X5818655D02*
X5827386Y8596943D01*
X5844847D01*
X5853577Y8588212D01*
Y8553290D01*
X5844847Y8544560D01*
X5827386D01*
X5818655Y8553290D01*
Y8588212D01*
X5871038Y8596943D02*
Y8544560D01*
X5897230D01*
X5905960Y8553290D01*
Y8562021D01*
X5897230Y8570751D01*
X5871038D01*
X5897230D01*
X5905960Y8579482D01*
Y8588212D01*
X5897230Y8596943D01*
X5871038D01*
X5699760Y9812020D02*
Y9864403D01*
X5725951D01*
X5734682Y9855672D01*
Y9838211D01*
X5725951Y9829481D01*
X5699760D01*
X5752143Y9812020D02*
X5769604D01*
X5760873D01*
Y9864403D01*
X5752143Y9855672D01*
X5795795D02*
X5804526Y9864403D01*
X5821987D01*
X5830717Y9855672D01*
Y9820750D01*
X5821987Y9812020D01*
X5804526D01*
X5795795Y9820750D01*
Y9855672D01*
X5848178Y9812020D02*
Y9846942D01*
X5865639Y9864403D01*
X5883100Y9846942D01*
Y9812020D01*
Y9838211D01*
X5848178D01*
X7033260Y9204960D02*
Y9257343D01*
X7059451D01*
X7068182Y9248612D01*
Y9231151D01*
X7059451Y9222421D01*
X7033260D01*
X7085643Y9213690D02*
X7094373Y9204960D01*
X7111834D01*
X7120565Y9213690D01*
Y9248612D01*
X7111834Y9257343D01*
X7094373D01*
X7085643Y9248612D01*
Y9239882D01*
X7094373Y9231151D01*
X7120565D01*
X5727700Y10513060D02*
Y10565443D01*
X5753891D01*
X5762622Y10556712D01*
Y10539251D01*
X5753891Y10530521D01*
X5727700D01*
X5815005Y10513060D02*
X5780083D01*
X5815005Y10547982D01*
Y10556712D01*
X5806274Y10565443D01*
X5788813D01*
X5780083Y10556712D01*
X2499360Y5245100D02*
Y5297483D01*
X2525551D01*
X2534282Y5288752D01*
Y5271291D01*
X2525551Y5262561D01*
X2499360D01*
X2551743Y5245100D02*
X2569204D01*
X2560473D01*
Y5297483D01*
X2551743Y5288752D01*
X6454140Y8883963D02*
Y8831580D01*
X6489062D01*
X6541445Y8883963D02*
X6506523D01*
Y8831580D01*
X6541445D01*
X6506523Y8857771D02*
X6523984D01*
X6558906Y8883963D02*
Y8831580D01*
X6585097D01*
X6593828Y8840310D01*
Y8875232D01*
X6585097Y8883963D01*
X6558906D01*
X6611289Y8831580D02*
X6628750D01*
X6620019D01*
Y8883963D01*
X6611289Y8875232D01*
X6654941Y8883963D02*
Y8831580D01*
X6681133D01*
X6689863Y8840310D01*
Y8849041D01*
X6681133Y8857771D01*
X6654941D01*
X6681133D01*
X6689863Y8866502D01*
Y8875232D01*
X6681133Y8883963D01*
X6654941D01*
X6428740Y10151423D02*
Y10099040D01*
X6463662D01*
X6516045Y10151423D02*
X6481123D01*
Y10099040D01*
X6516045D01*
X6481123Y10125231D02*
X6498584D01*
X6533506Y10151423D02*
Y10099040D01*
X6559697D01*
X6568428Y10107770D01*
Y10142692D01*
X6559697Y10151423D01*
X6533506D01*
X6585889Y10099040D02*
X6603350D01*
X6594619D01*
Y10151423D01*
X6585889Y10142692D01*
X6629541Y10099040D02*
Y10133962D01*
X6647002Y10151423D01*
X6664463Y10133962D01*
Y10099040D01*
Y10125231D01*
X6629541D01*
X7309482Y4792023D02*
X7292021D01*
X7300751D01*
Y4748370D01*
X7292021Y4739640D01*
X7283290D01*
X7274560Y4748370D01*
X7326943Y4792023D02*
X7361865D01*
X7344404D01*
Y4739640D01*
X7414248D02*
X7379326D01*
X7414248Y4774562D01*
Y4783292D01*
X7405517Y4792023D01*
X7388056D01*
X7379326Y4783292D01*
X1454782Y11332523D02*
X1437321D01*
X1446051D01*
Y11288870D01*
X1437321Y11280140D01*
X1428590D01*
X1419860Y11288870D01*
X1507165Y11280140D02*
X1472243D01*
X1507165Y11315062D01*
Y11323792D01*
X1498434Y11332523D01*
X1480973D01*
X1472243Y11323792D01*
X1462402Y10032043D02*
X1444941D01*
X1453671D01*
Y9988390D01*
X1444941Y9979660D01*
X1436210D01*
X1427480Y9988390D01*
X1479863Y9979660D02*
X1497324D01*
X1488593D01*
Y10032043D01*
X1479863Y10023312D01*
X444500Y472753D02*
Y420370D01*
X470691D01*
X479422Y429100D01*
Y464022D01*
X470691Y472753D01*
X444500D01*
X496883Y464022D02*
X505613Y472753D01*
X523074D01*
X531805Y464022D01*
Y455292D01*
X523074Y446561D01*
X531805Y437831D01*
Y429100D01*
X523074Y420370D01*
X505613D01*
X496883Y429100D01*
Y437831D01*
X505613Y446561D01*
X496883Y455292D01*
Y464022D01*
X505613Y446561D02*
X523074D01*
X549266Y420370D02*
Y455292D01*
X566727Y472753D01*
X584188Y455292D01*
Y420370D01*
Y446561D01*
X549266D01*
X444500Y1023933D02*
Y971550D01*
X470691D01*
X479422Y980280D01*
Y1015202D01*
X470691Y1023933D01*
X444500D01*
X496883D02*
X531805D01*
Y1015202D01*
X496883Y980280D01*
Y971550D01*
X549266D02*
Y1006472D01*
X566727Y1023933D01*
X584188Y1006472D01*
Y971550D01*
Y997741D01*
X549266D01*
X444500Y1572573D02*
Y1520190D01*
X470691D01*
X479422Y1528920D01*
Y1563842D01*
X470691Y1572573D01*
X444500D01*
X531805D02*
X514344Y1563842D01*
X496883Y1546381D01*
Y1528920D01*
X505613Y1520190D01*
X523074D01*
X531805Y1528920D01*
Y1537651D01*
X523074Y1546381D01*
X496883D01*
X549266Y1520190D02*
Y1555112D01*
X566727Y1572573D01*
X584188Y1555112D01*
Y1520190D01*
Y1546381D01*
X549266D01*
X444500Y2123753D02*
Y2071370D01*
X470691D01*
X479422Y2080100D01*
Y2115022D01*
X470691Y2123753D01*
X444500D01*
X531805D02*
X496883D01*
Y2097561D01*
X514344Y2106292D01*
X523074D01*
X531805Y2097561D01*
Y2080100D01*
X523074Y2071370D01*
X505613D01*
X496883Y2080100D01*
X549266Y2071370D02*
Y2106292D01*
X566727Y2123753D01*
X584188Y2106292D01*
Y2071370D01*
Y2097561D01*
X549266D01*
X444500Y2672393D02*
Y2620010D01*
X470691D01*
X479422Y2628740D01*
Y2663662D01*
X470691Y2672393D01*
X444500D01*
X523074Y2620010D02*
Y2672393D01*
X496883Y2646201D01*
X531805D01*
X549266Y2620010D02*
Y2654932D01*
X566727Y2672393D01*
X584188Y2654932D01*
Y2620010D01*
Y2646201D01*
X549266D01*
X444500Y3223573D02*
Y3171190D01*
X470691D01*
X479422Y3179920D01*
Y3214842D01*
X470691Y3223573D01*
X444500D01*
X496883Y3214842D02*
X505613Y3223573D01*
X523074D01*
X531805Y3214842D01*
Y3206112D01*
X523074Y3197381D01*
X514344D01*
X523074D01*
X531805Y3188651D01*
Y3179920D01*
X523074Y3171190D01*
X505613D01*
X496883Y3179920D01*
X549266Y3171190D02*
Y3206112D01*
X566727Y3223573D01*
X584188Y3206112D01*
Y3171190D01*
Y3197381D01*
X549266D01*
X444500Y3772213D02*
Y3719830D01*
X470691D01*
X479422Y3728560D01*
Y3763482D01*
X470691Y3772213D01*
X444500D01*
X531805Y3719830D02*
X496883D01*
X531805Y3754752D01*
Y3763482D01*
X523074Y3772213D01*
X505613D01*
X496883Y3763482D01*
X549266Y3719830D02*
Y3754752D01*
X566727Y3772213D01*
X584188Y3754752D01*
Y3719830D01*
Y3746021D01*
X549266D01*
X449580Y4323393D02*
Y4271010D01*
X475771D01*
X484502Y4279740D01*
Y4314662D01*
X475771Y4323393D01*
X449580D01*
X501963Y4271010D02*
X519424D01*
X510693D01*
Y4323393D01*
X501963Y4314662D01*
X545615Y4271010D02*
Y4305932D01*
X563076Y4323393D01*
X580537Y4305932D01*
Y4271010D01*
Y4297201D01*
X545615D01*
X6085202Y8910792D02*
X6076471Y8919523D01*
X6059010D01*
X6050280Y8910792D01*
Y8875870D01*
X6059010Y8867140D01*
X6076471D01*
X6085202Y8875870D01*
X6102663Y8867140D02*
X6120124D01*
X6111393D01*
Y8919523D01*
X6102663Y8910792D01*
X6146315D02*
X6155046Y8919523D01*
X6172507D01*
X6181237Y8910792D01*
Y8902062D01*
X6172507Y8893331D01*
X6181237Y8884601D01*
Y8875870D01*
X6172507Y8867140D01*
X6155046D01*
X6146315Y8875870D01*
Y8884601D01*
X6155046Y8893331D01*
X6146315Y8902062D01*
Y8910792D01*
X6155046Y8893331D02*
X6172507D01*
X6198698Y8919523D02*
Y8867140D01*
X6224890D01*
X6233620Y8875870D01*
Y8884601D01*
X6224890Y8893331D01*
X6198698D01*
X6224890D01*
X6233620Y8902062D01*
Y8910792D01*
X6224890Y8919523D01*
X6198698D01*
X6059802Y10178252D02*
X6051071Y10186983D01*
X6033610D01*
X6024880Y10178252D01*
Y10143330D01*
X6033610Y10134600D01*
X6051071D01*
X6059802Y10143330D01*
X6077263Y10134600D02*
X6094724D01*
X6085993D01*
Y10186983D01*
X6077263Y10178252D01*
X6120915D02*
X6129646Y10186983D01*
X6147107D01*
X6155837Y10178252D01*
Y10169522D01*
X6147107Y10160791D01*
X6155837Y10152061D01*
Y10143330D01*
X6147107Y10134600D01*
X6129646D01*
X6120915Y10143330D01*
Y10152061D01*
X6129646Y10160791D01*
X6120915Y10169522D01*
Y10178252D01*
X6129646Y10160791D02*
X6147107D01*
X6173298Y10134600D02*
Y10169522D01*
X6190759Y10186983D01*
X6208220Y10169522D01*
Y10134600D01*
Y10160791D01*
X6173298D01*
X6087742Y8258012D02*
X6079011Y8266743D01*
X6061550D01*
X6052820Y8258012D01*
Y8223090D01*
X6061550Y8214360D01*
X6079011D01*
X6087742Y8223090D01*
X6105203Y8214360D02*
X6122664D01*
X6113933D01*
Y8266743D01*
X6105203Y8258012D01*
X6148855Y8266743D02*
X6183777D01*
Y8258012D01*
X6148855Y8223090D01*
Y8214360D01*
X6201238Y8266743D02*
Y8214360D01*
X6227430D01*
X6236160Y8223090D01*
Y8231821D01*
X6227430Y8240551D01*
X6201238D01*
X6227430D01*
X6236160Y8249282D01*
Y8258012D01*
X6227430Y8266743D01*
X6201238D01*
X6062342Y9525472D02*
X6053611Y9534203D01*
X6036150D01*
X6027420Y9525472D01*
Y9490550D01*
X6036150Y9481820D01*
X6053611D01*
X6062342Y9490550D01*
X6079803Y9481820D02*
X6097264D01*
X6088533D01*
Y9534203D01*
X6079803Y9525472D01*
X6123455Y9534203D02*
X6158377D01*
Y9525472D01*
X6123455Y9490550D01*
Y9481820D01*
X6175838D02*
Y9516742D01*
X6193299Y9534203D01*
X6210760Y9516742D01*
Y9481820D01*
Y9508011D01*
X6175838D01*
X4406262Y5436072D02*
X4397531Y5444803D01*
X4380070D01*
X4371340Y5436072D01*
Y5401150D01*
X4380070Y5392420D01*
X4397531D01*
X4406262Y5401150D01*
X4423723Y5392420D02*
X4441184D01*
X4432453D01*
Y5444803D01*
X4423723Y5436072D01*
X4502297Y5392420D02*
X4467375D01*
X4502297Y5427342D01*
Y5436072D01*
X4493567Y5444803D01*
X4476106D01*
X4467375Y5436072D01*
X4690742Y5438612D02*
X4682011Y5447343D01*
X4664550D01*
X4655820Y5438612D01*
Y5403690D01*
X4664550Y5394960D01*
X4682011D01*
X4690742Y5403690D01*
X4743125Y5394960D02*
X4708203D01*
X4743125Y5429882D01*
Y5438612D01*
X4734394Y5447343D01*
X4716933D01*
X4708203Y5438612D01*
D54*
X11150160Y9312410D02*
G03*
X11150160Y9312410I-12500J0D01*
G01*
X11152700Y5049020D02*
G03*
X11152700Y5049020I-12500J0D01*
G01*
X7793240Y1525360D02*
G03*
X7793240Y1525360I-12500J0D01*
G01*
X6773070Y10778170D02*
G03*
X6773070Y10778170I-12500J0D01*
G01*
X11152700Y3629160D02*
G03*
X11152700Y3629160I-12500J0D01*
G01*
X11153110Y757010D02*
G03*
X11153110Y757010I-12500J0D01*
G01*
X4951153Y6399049D02*
G03*
X4951153Y6399049I-12500J0D01*
G01*
X11148890Y10728460D02*
G03*
X11148890Y10728460I-12500J0D01*
G01*
X11142230Y2194650D02*
G03*
X11142230Y2194650I-12500J0D01*
G01*
X11157780Y6476500D02*
G03*
X11157780Y6476500I-12500J0D01*
G01*
X11152700Y7892550D02*
G03*
X11152700Y7892550I-12500J0D01*
G01*
X6111380Y9696070D02*
G03*
X6111380Y9696070I-12500J0D01*
G01*
X6135650Y8429390D02*
G03*
X6135650Y8429390I-12500J0D01*
G01*
X7719120Y310030D02*
Y1030030D01*
X6999120D02*
X7719120D01*
X6999120Y310030D02*
Y1030030D01*
Y310030D02*
X7719120D01*
X6999120D02*
X7719120D01*
D55*
X5183653Y6276549D02*
G03*
X5183653Y6276549I-30000J0D01*
G01*
%TF.MD5,a76709444dd6be0dcefe233219c6153d*%
M02*
