%TF.GenerationSoftware,Altium Limited,Altium Designer,21.6.4 (81)*%
G04 Layer_Color=16711935*
%FSLAX45Y45*%
%MOMM*%
%TF.SameCoordinates,70D3979D-B5F9-41FC-A6F4-C74AF17E61BC*%
%TF.FilePolarity,Negative*%
%TF.FileFunction,Soldermask,Bot*%
%TF.Part,Single*%
G01*
G75*
%TA.AperFunction,SMDPad,CuDef*%
%ADD43R,1.70320X1.50320*%
%ADD44R,1.50320X1.70320*%
G04:AMPARAMS|DCode=45|XSize=2.9032mm|YSize=2.6032mm|CornerRadius=0.7016mm|HoleSize=0mm|Usage=FLASHONLY|Rotation=0.000|XOffset=0mm|YOffset=0mm|HoleType=Round|Shape=RoundedRectangle|*
%AMROUNDEDRECTD45*
21,1,2.90320,1.20000,0,0,0.0*
21,1,1.50000,2.60320,0,0,0.0*
1,1,1.40320,0.75000,-0.60000*
1,1,1.40320,-0.75000,-0.60000*
1,1,1.40320,-0.75000,0.60000*
1,1,1.40320,0.75000,0.60000*
%
%ADD45ROUNDEDRECTD45*%
%ADD46R,4.20320X2.20320*%
%TA.AperFunction,ComponentPad*%
%ADD47C,2.40320*%
%ADD48C,3.20320*%
%ADD49C,2.20320*%
%ADD50R,2.20320X2.20320*%
%ADD51R,2.20320X2.20320*%
%ADD52C,3.11320*%
%TA.AperFunction,ViaPad*%
%ADD53C,1.10320*%
D43*
X7031010Y3750290D02*
D03*
X7032110Y3440520D02*
D03*
X7254240Y3750290D02*
D03*
X7255340Y3440520D02*
D03*
X7483260Y3750290D02*
D03*
X7484360Y3440520D02*
D03*
X740700Y6228630D02*
D03*
X741800Y5918860D02*
D03*
X1191540Y6228630D02*
D03*
X1192640Y5918860D02*
D03*
X962520Y6228630D02*
D03*
X963620Y5918860D02*
D03*
X1070030Y296030D02*
D03*
X1068930Y605800D02*
D03*
Y1155800D02*
D03*
X1070030Y846030D02*
D03*
Y1396030D02*
D03*
X1068930Y1705800D02*
D03*
Y2255800D02*
D03*
X1070030Y1946030D02*
D03*
Y2496030D02*
D03*
X1068930Y2805800D02*
D03*
Y3355800D02*
D03*
X1070030Y3046030D02*
D03*
Y3596030D02*
D03*
X1068930Y3905800D02*
D03*
Y4455800D02*
D03*
X1070030Y4146030D02*
D03*
X1558930Y605800D02*
D03*
X1560030Y296030D02*
D03*
X1558930Y1155800D02*
D03*
X1560030Y846030D02*
D03*
X1558930Y1705800D02*
D03*
X1560030Y1396030D02*
D03*
X1558930Y2255800D02*
D03*
X1560030Y1946030D02*
D03*
X1558930Y2805800D02*
D03*
X1560030Y2496030D02*
D03*
X1558930Y3355800D02*
D03*
X1560030Y3046030D02*
D03*
X1558930Y3905800D02*
D03*
X1560030Y3596030D02*
D03*
X1558930Y4455800D02*
D03*
X1560030Y4146030D02*
D03*
X1868930Y605800D02*
D03*
X1870030Y296030D02*
D03*
Y846030D02*
D03*
X1868930Y1155800D02*
D03*
Y1705800D02*
D03*
X1870030Y1396030D02*
D03*
Y1946030D02*
D03*
X1868930Y2255800D02*
D03*
Y2805800D02*
D03*
X1870030Y2496030D02*
D03*
Y3046030D02*
D03*
X1868930Y3355800D02*
D03*
Y3905800D02*
D03*
X1870030Y3596030D02*
D03*
Y4146030D02*
D03*
X1868930Y4455800D02*
D03*
X2360030Y296030D02*
D03*
X2358930Y605800D02*
D03*
X2360030Y846030D02*
D03*
X2358930Y1155800D02*
D03*
X2360030Y1396030D02*
D03*
X2358930Y1705800D02*
D03*
X2360030Y1946030D02*
D03*
X2358930Y2255800D02*
D03*
X2360030Y2496030D02*
D03*
X2358930Y2805800D02*
D03*
X2360030Y3046030D02*
D03*
X2358930Y3355800D02*
D03*
X2360030Y3596030D02*
D03*
X2358930Y3905800D02*
D03*
X2360030Y4146030D02*
D03*
X2358930Y4455800D02*
D03*
X3958930D02*
D03*
X3960030Y4146030D02*
D03*
X3958930Y3905800D02*
D03*
X3960030Y3596030D02*
D03*
X3958930Y3355800D02*
D03*
X3960030Y3046030D02*
D03*
X3958930Y2805800D02*
D03*
X3960030Y2496030D02*
D03*
X3958930Y2255800D02*
D03*
X3960030Y1946030D02*
D03*
X3958930Y1705800D02*
D03*
X3960030Y1396030D02*
D03*
X3958930Y1155800D02*
D03*
X3960030Y846030D02*
D03*
X3958930Y605800D02*
D03*
X3960030Y296030D02*
D03*
X3468930Y4455800D02*
D03*
X3470030Y4146030D02*
D03*
Y3596030D02*
D03*
X3468930Y3905800D02*
D03*
Y3355800D02*
D03*
X3470030Y3046030D02*
D03*
Y2496030D02*
D03*
X3468930Y2805800D02*
D03*
Y2255800D02*
D03*
X3470030Y1946030D02*
D03*
Y1396030D02*
D03*
X3468930Y1705800D02*
D03*
Y1155800D02*
D03*
X3470030Y846030D02*
D03*
Y296030D02*
D03*
X3468930Y605800D02*
D03*
X4758930Y4455800D02*
D03*
X4760030Y4146030D02*
D03*
X4758930Y3905800D02*
D03*
X4760030Y3596030D02*
D03*
X4758930Y3355800D02*
D03*
X4760030Y3046030D02*
D03*
X4758930Y2805800D02*
D03*
X4760030Y2496030D02*
D03*
X4758930Y2255800D02*
D03*
X4760030Y1946030D02*
D03*
X4758930Y1705800D02*
D03*
X4760030Y1396030D02*
D03*
X4758930Y1155800D02*
D03*
X4760030Y846030D02*
D03*
X4758930Y605800D02*
D03*
X4760030Y296030D02*
D03*
X4270030Y4146030D02*
D03*
X4268930Y4455800D02*
D03*
Y3905800D02*
D03*
X4270030Y3596030D02*
D03*
Y3046030D02*
D03*
X4268930Y3355800D02*
D03*
Y2805800D02*
D03*
X4270030Y2496030D02*
D03*
Y1946030D02*
D03*
X4268930Y2255800D02*
D03*
Y1705800D02*
D03*
X4270030Y1396030D02*
D03*
Y846030D02*
D03*
X4268930Y1155800D02*
D03*
Y605800D02*
D03*
X4270030Y296030D02*
D03*
X3158930Y4455800D02*
D03*
X3160030Y4146030D02*
D03*
X3158930Y3905800D02*
D03*
X3160030Y3596030D02*
D03*
X3158930Y3355800D02*
D03*
X3160030Y3046030D02*
D03*
X3158930Y2805800D02*
D03*
X3160030Y2496030D02*
D03*
X3158930Y2255800D02*
D03*
X3160030Y1946030D02*
D03*
X3158930Y1705800D02*
D03*
X3160030Y1396030D02*
D03*
X3158930Y1155800D02*
D03*
X3160030Y846030D02*
D03*
X3158930Y605800D02*
D03*
X3160030Y296030D02*
D03*
X2670030Y4146030D02*
D03*
X2668930Y4455800D02*
D03*
Y3905800D02*
D03*
X2670030Y3596030D02*
D03*
Y3046030D02*
D03*
X2668930Y3355800D02*
D03*
Y2805800D02*
D03*
X2670030Y2496030D02*
D03*
Y1946030D02*
D03*
X2668930Y2255800D02*
D03*
Y1705800D02*
D03*
X2670030Y1396030D02*
D03*
Y846030D02*
D03*
X2668930Y1155800D02*
D03*
Y605800D02*
D03*
X2670030Y296030D02*
D03*
X5558930Y4455800D02*
D03*
X5560030Y4146030D02*
D03*
X5558930Y3905800D02*
D03*
X5560030Y3596030D02*
D03*
X5558930Y3355800D02*
D03*
X5560030Y3046030D02*
D03*
X5558930Y2805800D02*
D03*
X5560030Y2496030D02*
D03*
X5558930Y2255800D02*
D03*
X5560030Y1946030D02*
D03*
X5558930Y1705800D02*
D03*
X5560030Y1396030D02*
D03*
X5558930Y1155800D02*
D03*
X5560030Y846030D02*
D03*
X5558930Y605800D02*
D03*
X5560030Y296030D02*
D03*
X5068930Y4455800D02*
D03*
X5070030Y4146030D02*
D03*
Y3596030D02*
D03*
X5068930Y3905800D02*
D03*
Y3355800D02*
D03*
X5070030Y3046030D02*
D03*
Y2496030D02*
D03*
X5068930Y2805800D02*
D03*
Y2255800D02*
D03*
X5070030Y1946030D02*
D03*
Y1396030D02*
D03*
X5068930Y1705800D02*
D03*
Y1155800D02*
D03*
X5070030Y846030D02*
D03*
Y296030D02*
D03*
X5068930Y605800D02*
D03*
X6358930Y4455800D02*
D03*
X6360030Y4146030D02*
D03*
X6358930Y3905800D02*
D03*
X6360030Y3596030D02*
D03*
X6358930Y3355800D02*
D03*
X6360030Y3046030D02*
D03*
X6358930Y2805800D02*
D03*
X6360030Y2496030D02*
D03*
X6358930Y2255800D02*
D03*
X6360030Y1946030D02*
D03*
X6358930Y1705800D02*
D03*
X6360030Y1396030D02*
D03*
X6358930Y1155800D02*
D03*
X6360030Y846030D02*
D03*
X6358930Y605800D02*
D03*
X6360030Y296030D02*
D03*
X5870030Y4146030D02*
D03*
X5868930Y4455800D02*
D03*
Y3905800D02*
D03*
X5870030Y3596030D02*
D03*
Y3046030D02*
D03*
X5868930Y3355800D02*
D03*
Y2805800D02*
D03*
X5870030Y2496030D02*
D03*
Y1946030D02*
D03*
X5868930Y2255800D02*
D03*
Y1705800D02*
D03*
X5870030Y1396030D02*
D03*
Y846030D02*
D03*
X5868930Y1155800D02*
D03*
Y605800D02*
D03*
X5870030Y296030D02*
D03*
X268930Y3905800D02*
D03*
X270030Y3596030D02*
D03*
Y3046030D02*
D03*
X268930Y3355800D02*
D03*
Y2805800D02*
D03*
X270030Y2496030D02*
D03*
Y1946030D02*
D03*
X268930Y2255800D02*
D03*
Y1705800D02*
D03*
X270030Y1396030D02*
D03*
Y846030D02*
D03*
X268930Y1155800D02*
D03*
Y605800D02*
D03*
X270030Y296030D02*
D03*
Y4146030D02*
D03*
X268930Y4455800D02*
D03*
X760030Y296030D02*
D03*
X758930Y605800D02*
D03*
X760030Y846030D02*
D03*
X758930Y1155800D02*
D03*
X760030Y1396030D02*
D03*
X758930Y1705800D02*
D03*
X760030Y1946030D02*
D03*
X758930Y2255800D02*
D03*
X760030Y2496030D02*
D03*
X758930Y2805800D02*
D03*
X760030Y3046030D02*
D03*
X758930Y3355800D02*
D03*
X760030Y3596030D02*
D03*
X758930Y3905800D02*
D03*
X760030Y4146030D02*
D03*
X758930Y4455800D02*
D03*
X5551000Y5335380D02*
D03*
X5549900Y5645150D02*
D03*
X5593653Y6491549D02*
D03*
X5594753Y6181779D02*
D03*
D44*
X4700270Y6047740D02*
D03*
X4390500Y6046640D02*
D03*
X4384150Y6295560D02*
D03*
X4693920Y6296660D02*
D03*
X5778883Y5835449D02*
D03*
X6088653Y5836549D02*
D03*
X4938653Y5996549D02*
D03*
X5248423Y5997649D02*
D03*
D45*
X5171601Y5665471D02*
D03*
X4673600Y5665470D02*
D03*
D46*
X6092190Y6160020D02*
D03*
Y6637020D02*
D03*
D47*
X11394440Y9124950D02*
D03*
X10557510Y10003790D02*
D03*
X8882380Y9132570D02*
D03*
X7122160Y2246630D02*
D03*
X11396980Y3441700D02*
D03*
X10560050Y4320540D02*
D03*
X8884920Y3449320D02*
D03*
X11397390Y569550D02*
D03*
X10560460Y1448390D02*
D03*
X8885330Y577170D02*
D03*
X8881110Y10548620D02*
D03*
X10556240Y11419840D02*
D03*
X11393170Y10541000D02*
D03*
X8874450Y2014810D02*
D03*
X10549580Y2886030D02*
D03*
X11386510Y2007190D02*
D03*
X8884920Y4869180D02*
D03*
X10560050Y5740400D02*
D03*
X11396980Y4861560D02*
D03*
X8890000Y6296660D02*
D03*
X10565130Y7167880D02*
D03*
X11402060Y6289040D02*
D03*
X8884920Y7712710D02*
D03*
X10560050Y8583930D02*
D03*
X11396980Y7705090D02*
D03*
D48*
X9325610Y8999220D02*
D03*
X9833610D02*
D03*
X9832340Y10415270D02*
D03*
X9836150Y7579360D02*
D03*
X9841230Y6163310D02*
D03*
X9836150Y4735830D02*
D03*
Y3315970D02*
D03*
X9825680Y1881460D02*
D03*
X9836560Y443820D02*
D03*
X9328150Y3315970D02*
D03*
X9328560Y443820D02*
D03*
X9324340Y10415270D02*
D03*
X9317680Y1881460D02*
D03*
X9328150Y4735830D02*
D03*
X9333230Y6163310D02*
D03*
X9328150Y7579360D02*
D03*
D49*
X2410460Y5147310D02*
D03*
X2664460D02*
D03*
X2918460D02*
D03*
X3172460D02*
D03*
X3426460D02*
D03*
X7106920Y671830D02*
D03*
X7614920D02*
D03*
X7360920Y925830D02*
D03*
X8030210Y2557780D02*
D03*
X7208520Y9358630D02*
D03*
Y9104630D02*
D03*
X6954520D02*
D03*
X5896610Y10539730D02*
D03*
X1902460Y5147310D02*
D03*
X2156460D02*
D03*
X2918460Y5401310D02*
D03*
X3172460D02*
D03*
X3426460D02*
D03*
X2664460D02*
D03*
X2410460D02*
D03*
X2156460D02*
D03*
X1902460D02*
D03*
X1648460D02*
D03*
X7457440Y5262880D02*
D03*
X7203440D02*
D03*
X7457440Y5008880D02*
D03*
X7203440D02*
D03*
X7457440Y4754880D02*
D03*
X7203440D02*
D03*
X7457440Y4500880D02*
D03*
X7203440D02*
D03*
X7457440Y4246880D02*
D03*
X7203440D02*
D03*
X7341870Y7861300D02*
D03*
Y7607300D02*
D03*
Y7353300D02*
D03*
Y7099300D02*
D03*
Y6845300D02*
D03*
Y6083300D02*
D03*
Y6337300D02*
D03*
Y6591300D02*
D03*
X7087870D02*
D03*
Y6337300D02*
D03*
Y6083300D02*
D03*
Y6845300D02*
D03*
Y7099300D02*
D03*
Y7353300D02*
D03*
Y7607300D02*
D03*
X5941200Y8570740D02*
D03*
X3173970Y7470260D02*
D03*
X4951970Y7724260D02*
D03*
X3173970Y8486260D02*
D03*
X4951970D02*
D03*
X673970Y7470260D02*
D03*
X2451970Y7724260D02*
D03*
X673970Y8486260D02*
D03*
X2451970D02*
D03*
X5916930Y9837420D02*
D03*
X3182620Y9865360D02*
D03*
X4960620Y10119360D02*
D03*
X3182620Y10881360D02*
D03*
X4960620D02*
D03*
D50*
X8284210Y2557780D02*
D03*
X6954520Y9358630D02*
D03*
X5642610Y10539730D02*
D03*
X7087870Y7861300D02*
D03*
X5687200Y8570740D02*
D03*
X5662930Y9837420D02*
D03*
D51*
X1648460Y5147310D02*
D03*
X3173970Y7724260D02*
D03*
X4951970Y7978260D02*
D03*
X3173970Y8740260D02*
D03*
X4951970D02*
D03*
X673970Y7724260D02*
D03*
X2451970Y7978260D02*
D03*
X673970Y8740260D02*
D03*
X2451970D02*
D03*
X3182620Y10119360D02*
D03*
X4960620Y10373360D02*
D03*
X3182620Y11135360D02*
D03*
X4960620D02*
D03*
D52*
X2348260Y11306930D02*
D03*
X818260D02*
D03*
X2348260Y10006930D02*
D03*
X818260D02*
D03*
D53*
X10246080Y8984260D02*
D03*
X11704320Y9215120D02*
D03*
X10858500Y9400540D02*
D03*
X9580880Y9881870D02*
D03*
X10861040Y5137150D02*
D03*
X6791960Y7472680D02*
D03*
Y6459220D02*
D03*
Y7217410D02*
D03*
Y6701790D02*
D03*
Y6191250D02*
D03*
X7184390Y8235950D02*
D03*
X2708500Y4951242D02*
D03*
X3055620Y4723130D02*
D03*
X2326640Y4694609D02*
D03*
X2240280Y4970780D02*
D03*
X1878330Y4845050D02*
D03*
X5488653Y5107940D02*
D03*
X4779067Y4758330D02*
D03*
X1352550Y4959350D02*
D03*
X1101090Y5003800D02*
D03*
X9576900Y2760160D02*
D03*
X9583420Y4198620D02*
D03*
X10248620Y3301010D02*
D03*
X11706860Y3531870D02*
D03*
X10861040Y3717290D02*
D03*
X9583420Y5618480D02*
D03*
X10248620Y4720870D02*
D03*
X11706860Y4951730D02*
D03*
X9588500Y7045960D02*
D03*
X10253700Y6148350D02*
D03*
X11711940Y6379210D02*
D03*
X10866120Y6564630D02*
D03*
X9583420Y8462010D02*
D03*
X10248620Y7564400D02*
D03*
X11706860Y7795260D02*
D03*
X10861040Y7980680D02*
D03*
X9579610Y11297920D02*
D03*
X4435738Y4562710D02*
D03*
X4011430Y4943233D02*
D03*
X5235738Y4562710D02*
D03*
X6033770Y4817781D02*
D03*
X3827179Y4830499D02*
D03*
X6889750Y1162050D02*
D03*
X7462520Y1746250D02*
D03*
X7858760Y2132330D02*
D03*
X4025900Y5612130D02*
D03*
X4041140Y5360670D02*
D03*
X5749290Y5641340D02*
D03*
X5922010Y5097780D02*
D03*
X5933440Y5651549D02*
D03*
X5093423Y5996549D02*
D03*
X5361601Y5669221D02*
D03*
X5363210Y6257290D02*
D03*
X5011420Y5217940D02*
D03*
X6261100Y5830570D02*
D03*
X5694356Y4724076D02*
D03*
X7484530Y3923880D02*
D03*
X1814830Y6526530D02*
D03*
X1808480Y5923280D02*
D03*
X4140200Y5815330D02*
D03*
X4568190Y4650310D02*
D03*
X1191540Y6415050D02*
D03*
X6626000Y4968240D02*
D03*
X6913020Y4500880D02*
D03*
X6210300Y4817781D02*
D03*
X5379720Y4737781D02*
D03*
X6790690Y5974925D02*
D03*
X6901180Y5411549D02*
D03*
X7103110Y5527880D02*
D03*
X4758690Y664210D02*
D03*
X4762500Y1219200D02*
D03*
X4758690Y1766570D02*
D03*
Y2317750D02*
D03*
Y2868930D02*
D03*
X4762500Y3420110D02*
D03*
X5556250Y664210D02*
D03*
X5558790Y1214120D02*
D03*
X5560060Y1766570D02*
D03*
Y2315210D02*
D03*
X5557520Y2870200D02*
D03*
X5558790Y3421380D02*
D03*
X5566410Y3967480D02*
D03*
X5351550Y3594650D02*
D03*
X4758690Y3964940D02*
D03*
X3959860Y671830D02*
D03*
X3963670Y1221740D02*
D03*
X3962400Y1767840D02*
D03*
X3957320Y2320290D02*
D03*
Y2870200D02*
D03*
X3959860Y3421380D02*
D03*
X3957320Y3964940D02*
D03*
X3157485Y1761225D02*
D03*
X3157220Y1216660D02*
D03*
X3158490Y666750D02*
D03*
X3155950Y2319020D02*
D03*
X3161030Y2868930D02*
D03*
X3166110Y3415030D02*
D03*
X3158490Y3970020D02*
D03*
X2951550Y294650D02*
D03*
Y844650D02*
D03*
Y2494650D02*
D03*
Y3594650D02*
D03*
Y1394650D02*
D03*
Y1944650D02*
D03*
Y3044650D02*
D03*
X2952140Y4144060D02*
D03*
X3305810Y4592320D02*
D03*
X3068980Y4455210D02*
D03*
X3751550Y294650D02*
D03*
Y844650D02*
D03*
Y1944650D02*
D03*
Y1394650D02*
D03*
Y2494650D02*
D03*
Y3044650D02*
D03*
Y3594650D02*
D03*
X3752140Y4144060D02*
D03*
X3868980Y4455210D02*
D03*
X4551550Y294650D02*
D03*
Y844650D02*
D03*
Y1394650D02*
D03*
Y1944650D02*
D03*
Y2494650D02*
D03*
Y3044650D02*
D03*
Y3594650D02*
D03*
X4552140Y4144060D02*
D03*
X4668980Y4455210D02*
D03*
X5351550Y844650D02*
D03*
Y294650D02*
D03*
Y1394650D02*
D03*
Y1944650D02*
D03*
Y2494650D02*
D03*
Y3044650D02*
D03*
X5352140Y4144060D02*
D03*
X5468980Y4455210D02*
D03*
X6151550Y294650D02*
D03*
Y844650D02*
D03*
Y1394650D02*
D03*
Y1944650D02*
D03*
Y2494650D02*
D03*
Y3044650D02*
D03*
Y3594650D02*
D03*
X6152140Y4144060D02*
D03*
X6268390Y605800D02*
D03*
Y1155800D02*
D03*
Y1705800D02*
D03*
Y2255800D02*
D03*
Y2805800D02*
D03*
Y3355800D02*
D03*
Y3905800D02*
D03*
X6268980Y4455210D02*
D03*
X2268980D02*
D03*
X2360830Y3962400D02*
D03*
X2355750Y3420110D02*
D03*
X2358290Y2858770D02*
D03*
X2355750Y2317750D02*
D03*
X2360830Y1767840D02*
D03*
X2355750Y1212850D02*
D03*
X2351940Y660400D02*
D03*
X2155090Y4140200D02*
D03*
X2151550Y3594650D02*
D03*
Y3044650D02*
D03*
Y2494650D02*
D03*
Y1944650D02*
D03*
Y1394650D02*
D03*
Y844650D02*
D03*
Y294650D02*
D03*
X1551940Y660400D02*
D03*
X1555750Y1212850D02*
D03*
X1560830Y1767840D02*
D03*
X1555750Y2317750D02*
D03*
X1558290Y2858770D02*
D03*
X1555750Y3420110D02*
D03*
X1560830Y3962400D02*
D03*
X1351550Y294650D02*
D03*
Y844650D02*
D03*
Y1394650D02*
D03*
Y1944650D02*
D03*
Y2494650D02*
D03*
Y3594650D02*
D03*
Y3044650D02*
D03*
X1355090Y4140200D02*
D03*
X1468980Y4455210D02*
D03*
X759460Y675640D02*
D03*
X758190Y1229360D02*
D03*
X762000Y1772920D02*
D03*
X757751Y2335800D02*
D03*
X756920Y2874010D02*
D03*
X755650Y3429000D02*
D03*
X757751Y3985800D02*
D03*
X539670Y4135120D02*
D03*
X3719830Y4912360D02*
D03*
Y5445760D02*
D03*
X4122019Y6058760D02*
D03*
X5708064Y7148146D02*
D03*
X6443000Y8915400D02*
D03*
X7101840Y10105390D02*
D03*
X6464300Y8242300D02*
D03*
X6430010Y9504680D02*
D03*
X6428478Y10115888D02*
D03*
X7223770Y10954269D02*
D03*
X7609695Y10948525D02*
D03*
X7655970Y5389428D02*
D03*
X7710170Y5513070D02*
D03*
X3575350Y6058760D02*
D03*
X7195820Y9615170D02*
D03*
X6854190Y8703310D02*
D03*
X6971030Y8599170D02*
D03*
X512630Y5364480D02*
D03*
X916430Y4957570D02*
D03*
X405130Y5539740D02*
D03*
X1714500Y4844366D02*
D03*
X295000Y5730240D02*
D03*
X196850Y5911850D02*
D03*
X2451970Y8222850D02*
D03*
X5152390Y8260080D02*
D03*
X4531360Y10887710D02*
D03*
X7811770Y10779760D02*
D03*
X4560859Y6080498D02*
D03*
X4453244Y5803243D02*
D03*
X10857230Y10816590D02*
D03*
X11703050Y10631170D02*
D03*
X10850570Y2282780D02*
D03*
X11696390Y2097360D02*
D03*
X11707270Y659720D02*
D03*
X10861450Y845140D02*
D03*
X10229120Y436020D02*
D03*
X10238150Y1866500D02*
D03*
X9583830Y1326470D02*
D03*
X10244810Y10400310D02*
D03*
X551550Y2494650D02*
D03*
Y294650D02*
D03*
Y1394650D02*
D03*
Y844650D02*
D03*
Y1944650D02*
D03*
Y3044650D02*
D03*
Y3594650D02*
D03*
X668980Y4455210D02*
D03*
%TF.MD5,2a8e5445734242fe9d18f8652fcddaec*%
M02*
