%TF.GenerationSoftware,Altium Limited,Altium Designer,21.6.4 (81)*%
G04 Layer_Color=32896*
%FSLAX45Y45*%
%MOMM*%
%TF.SameCoordinates,70D3979D-B5F9-41FC-A6F4-C74AF17E61BC*%
%TF.FilePolarity,Positive*%
%TF.FileFunction,Legend,Bot*%
%TF.Part,Single*%
G01*
G75*
%TA.AperFunction,NonConductor*%
%ADD40C,0.20000*%
%ADD41C,0.10000*%
%ADD42C,0.15400*%
D40*
X7144760Y3329640D02*
Y3407160D01*
X6914760Y3329640D02*
Y3407160D01*
X7144760Y3782980D02*
Y3860500D01*
X7134760D02*
X7144760D01*
X7111510D02*
X7134760D01*
X6914760Y3782980D02*
Y3860500D01*
X6950510D01*
X7111510D01*
X6914760Y3329640D02*
X7144760D01*
X7362330Y3342050D02*
Y3397930D01*
X7148970Y3342050D02*
X7362330D01*
X7148970D02*
Y3397930D01*
Y3850050D02*
X7362330D01*
X7148970Y3794170D02*
Y3850050D01*
X7362330Y3794170D02*
Y3850050D01*
X7591350Y3342050D02*
Y3397930D01*
X7377990Y3342050D02*
X7591350D01*
X7377990D02*
Y3397930D01*
Y3850050D02*
X7591350D01*
X7377990Y3794170D02*
Y3850050D01*
X7591350Y3794170D02*
Y3850050D01*
X854450Y5807980D02*
Y5885500D01*
X624450Y5807980D02*
Y5885500D01*
X854450Y6261320D02*
Y6338840D01*
X844450D02*
X854450D01*
X821200D02*
X844450D01*
X624450Y6261320D02*
Y6338840D01*
X660200D01*
X821200D01*
X624450Y5807980D02*
X854450D01*
X1299630Y5820390D02*
Y5876270D01*
X1086270Y5820390D02*
X1299630D01*
X1086270D02*
Y5876270D01*
Y6328390D02*
X1299630D01*
X1086270Y6272510D02*
Y6328390D01*
X1299630Y6272510D02*
Y6328390D01*
X1070610Y5820390D02*
Y5876270D01*
X857250Y5820390D02*
X1070610D01*
X857250D02*
Y5876270D01*
Y6328390D02*
X1070610D01*
X857250Y6272510D02*
Y6328390D01*
X1070610Y6272510D02*
Y6328390D01*
X961940Y196270D02*
Y252150D01*
X1175300Y196270D02*
Y252150D01*
X961940Y196270D02*
X1175300D01*
Y648390D02*
Y704270D01*
X961940D02*
X1175300D01*
X961940Y648390D02*
Y704270D01*
Y1198390D02*
Y1254270D01*
X1175300D01*
Y1198390D02*
Y1254270D01*
X961940Y746270D02*
X1175300D01*
Y802150D01*
X961940Y746270D02*
Y802150D01*
Y1296270D02*
Y1352150D01*
X1175300Y1296270D02*
Y1352150D01*
X961940Y1296270D02*
X1175300D01*
Y1748390D02*
Y1804270D01*
X961940D02*
X1175300D01*
X961940Y1748390D02*
Y1804270D01*
Y2298390D02*
Y2354270D01*
X1175300D01*
Y2298390D02*
Y2354270D01*
X961940Y1846270D02*
X1175300D01*
Y1902150D01*
X961940Y1846270D02*
Y1902150D01*
Y2396270D02*
Y2452150D01*
X1175300Y2396270D02*
Y2452150D01*
X961940Y2396270D02*
X1175300D01*
Y2848390D02*
Y2904270D01*
X961940D02*
X1175300D01*
X961940Y2848390D02*
Y2904270D01*
Y3398390D02*
Y3454270D01*
X1175300D01*
Y3398390D02*
Y3454270D01*
X961940Y2946270D02*
X1175300D01*
Y3002150D01*
X961940Y2946270D02*
Y3002150D01*
Y3496270D02*
Y3552150D01*
X1175300Y3496270D02*
Y3552150D01*
X961940Y3496270D02*
X1175300D01*
Y3948390D02*
Y4004270D01*
X961940D02*
X1175300D01*
X961940Y3948390D02*
Y4004270D01*
Y4498390D02*
Y4554270D01*
X1175300D01*
Y4498390D02*
Y4554270D01*
X961940Y4046270D02*
X1175300D01*
Y4102150D01*
X961940Y4046270D02*
Y4102150D01*
X1446280Y716680D02*
X1676280D01*
X1479530Y185820D02*
X1640530D01*
X1676280D01*
Y263340D01*
X1456280Y185820D02*
X1479530D01*
X1446280D02*
X1456280D01*
X1446280D02*
Y263340D01*
X1676280Y639160D02*
Y716680D01*
X1446280Y639160D02*
Y716680D01*
Y1266680D02*
X1676280D01*
X1479530Y735820D02*
X1640530D01*
X1676280D01*
Y813340D01*
X1456280Y735820D02*
X1479530D01*
X1446280D02*
X1456280D01*
X1446280D02*
Y813340D01*
X1676280Y1189160D02*
Y1266680D01*
X1446280Y1189160D02*
Y1266680D01*
Y1816680D02*
X1676280D01*
X1479530Y1285820D02*
X1640530D01*
X1676280D01*
Y1363340D01*
X1456280Y1285820D02*
X1479530D01*
X1446280D02*
X1456280D01*
X1446280D02*
Y1363340D01*
X1676280Y1739160D02*
Y1816680D01*
X1446280Y1739160D02*
Y1816680D01*
Y2366680D02*
X1676280D01*
X1479530Y1835820D02*
X1640530D01*
X1676280D01*
Y1913340D01*
X1456280Y1835820D02*
X1479530D01*
X1446280D02*
X1456280D01*
X1446280D02*
Y1913340D01*
X1676280Y2289160D02*
Y2366680D01*
X1446280Y2289160D02*
Y2366680D01*
Y2916680D02*
X1676280D01*
X1479530Y2385820D02*
X1640530D01*
X1676280D01*
Y2463340D01*
X1456280Y2385820D02*
X1479530D01*
X1446280D02*
X1456280D01*
X1446280D02*
Y2463340D01*
X1676280Y2839160D02*
Y2916680D01*
X1446280Y2839160D02*
Y2916680D01*
Y3466680D02*
X1676280D01*
X1479530Y2935820D02*
X1640530D01*
X1676280D01*
Y3013340D01*
X1456280Y2935820D02*
X1479530D01*
X1446280D02*
X1456280D01*
X1446280D02*
Y3013340D01*
X1676280Y3389160D02*
Y3466680D01*
X1446280Y3389160D02*
Y3466680D01*
Y4016680D02*
X1676280D01*
X1479530Y3485820D02*
X1640530D01*
X1676280D01*
Y3563340D01*
X1456280Y3485820D02*
X1479530D01*
X1446280D02*
X1456280D01*
X1446280D02*
Y3563340D01*
X1676280Y3939160D02*
Y4016680D01*
X1446280Y3939160D02*
Y4016680D01*
Y4566680D02*
X1676280D01*
X1479530Y4035820D02*
X1640530D01*
X1676280D01*
Y4113340D01*
X1456280Y4035820D02*
X1479530D01*
X1446280D02*
X1456280D01*
X1446280D02*
Y4113340D01*
X1676280Y4489160D02*
Y4566680D01*
X1446280Y4489160D02*
Y4566680D01*
X1761940Y648390D02*
Y704270D01*
X1975300D01*
Y648390D02*
Y704270D01*
X1761940Y196270D02*
X1975300D01*
Y252150D01*
X1761940Y196270D02*
Y252150D01*
Y746270D02*
Y802150D01*
X1975300Y746270D02*
Y802150D01*
X1761940Y746270D02*
X1975300D01*
Y1198390D02*
Y1254270D01*
X1761940D02*
X1975300D01*
X1761940Y1198390D02*
Y1254270D01*
Y1748390D02*
Y1804270D01*
X1975300D01*
Y1748390D02*
Y1804270D01*
X1761940Y1296270D02*
X1975300D01*
Y1352150D01*
X1761940Y1296270D02*
Y1352150D01*
Y1846270D02*
Y1902150D01*
X1975300Y1846270D02*
Y1902150D01*
X1761940Y1846270D02*
X1975300D01*
Y2298390D02*
Y2354270D01*
X1761940D02*
X1975300D01*
X1761940Y2298390D02*
Y2354270D01*
Y2848390D02*
Y2904270D01*
X1975300D01*
Y2848390D02*
Y2904270D01*
X1761940Y2396270D02*
X1975300D01*
Y2452150D01*
X1761940Y2396270D02*
Y2452150D01*
Y2946270D02*
Y3002150D01*
X1975300Y2946270D02*
Y3002150D01*
X1761940Y2946270D02*
X1975300D01*
Y3398390D02*
Y3454270D01*
X1761940D02*
X1975300D01*
X1761940Y3398390D02*
Y3454270D01*
Y3948390D02*
Y4004270D01*
X1975300D01*
Y3948390D02*
Y4004270D01*
X1761940Y3496270D02*
X1975300D01*
Y3552150D01*
X1761940Y3496270D02*
Y3552150D01*
Y4046270D02*
Y4102150D01*
X1975300Y4046270D02*
Y4102150D01*
X1761940Y4046270D02*
X1975300D01*
Y4498390D02*
Y4554270D01*
X1761940D02*
X1975300D01*
X1761940Y4498390D02*
Y4554270D01*
X2246280Y639160D02*
Y716680D01*
X2476280Y639160D02*
Y716680D01*
X2246280Y185820D02*
Y263340D01*
Y185820D02*
X2256280D01*
X2279530D01*
X2476280D02*
Y263340D01*
X2440530Y185820D02*
X2476280D01*
X2279530D02*
X2440530D01*
X2246280Y716680D02*
X2476280D01*
X2246280Y1189160D02*
Y1266680D01*
X2476280Y1189160D02*
Y1266680D01*
X2246280Y735820D02*
Y813340D01*
Y735820D02*
X2256280D01*
X2279530D01*
X2476280D02*
Y813340D01*
X2440530Y735820D02*
X2476280D01*
X2279530D02*
X2440530D01*
X2246280Y1266680D02*
X2476280D01*
X2246280Y1739160D02*
Y1816680D01*
X2476280Y1739160D02*
Y1816680D01*
X2246280Y1285820D02*
Y1363340D01*
Y1285820D02*
X2256280D01*
X2279530D01*
X2476280D02*
Y1363340D01*
X2440530Y1285820D02*
X2476280D01*
X2279530D02*
X2440530D01*
X2246280Y1816680D02*
X2476280D01*
X2246280Y2289160D02*
Y2366680D01*
X2476280Y2289160D02*
Y2366680D01*
X2246280Y1835820D02*
Y1913340D01*
Y1835820D02*
X2256280D01*
X2279530D01*
X2476280D02*
Y1913340D01*
X2440530Y1835820D02*
X2476280D01*
X2279530D02*
X2440530D01*
X2246280Y2366680D02*
X2476280D01*
X2246280Y2839160D02*
Y2916680D01*
X2476280Y2839160D02*
Y2916680D01*
X2246280Y2385820D02*
Y2463340D01*
Y2385820D02*
X2256280D01*
X2279530D01*
X2476280D02*
Y2463340D01*
X2440530Y2385820D02*
X2476280D01*
X2279530D02*
X2440530D01*
X2246280Y2916680D02*
X2476280D01*
X2246280Y3389160D02*
Y3466680D01*
X2476280Y3389160D02*
Y3466680D01*
X2246280Y2935820D02*
Y3013340D01*
Y2935820D02*
X2256280D01*
X2279530D01*
X2476280D02*
Y3013340D01*
X2440530Y2935820D02*
X2476280D01*
X2279530D02*
X2440530D01*
X2246280Y3466680D02*
X2476280D01*
X2246280Y3939160D02*
Y4016680D01*
X2476280Y3939160D02*
Y4016680D01*
X2246280Y3485820D02*
Y3563340D01*
Y3485820D02*
X2256280D01*
X2279530D01*
X2476280D02*
Y3563340D01*
X2440530Y3485820D02*
X2476280D01*
X2279530D02*
X2440530D01*
X2246280Y4016680D02*
X2476280D01*
X2246280Y4489160D02*
Y4566680D01*
X2476280Y4489160D02*
Y4566680D01*
X2246280Y4035820D02*
Y4113340D01*
Y4035820D02*
X2256280D01*
X2279530D01*
X2476280D02*
Y4113340D01*
X2440530Y4035820D02*
X2476280D01*
X2279530D02*
X2440530D01*
X2246280Y4566680D02*
X2476280D01*
X4744150Y5939650D02*
X4800030D01*
X4744150Y6153010D02*
X4800030D01*
Y5939650D02*
Y6153010D01*
X4292030D02*
X4347910D01*
X4292030Y5939650D02*
Y6153010D01*
Y5939650D02*
X4347910D01*
X4727280Y6409310D02*
X4804800D01*
X4727280Y6179310D02*
X4804800D01*
X4273940Y6409310D02*
X4351460D01*
X4273940Y6399310D02*
Y6409310D01*
Y6376060D02*
Y6399310D01*
Y6179310D02*
X4351460D01*
X4273940D02*
Y6215060D01*
Y6376060D01*
X4804800Y6179310D02*
Y6409310D01*
X4697101Y5831220D02*
X5147101D01*
X4699601Y5503721D02*
X5147101D01*
X3846280Y4566680D02*
X4076280D01*
X3879530Y4035820D02*
X4040530D01*
X4076280D01*
Y4113340D01*
X3856280Y4035820D02*
X3879530D01*
X3846280D02*
X3856280D01*
X3846280D02*
Y4113340D01*
X4076280Y4489160D02*
Y4566680D01*
X3846280Y4489160D02*
Y4566680D01*
Y4016680D02*
X4076280D01*
X3879530Y3485820D02*
X4040530D01*
X4076280D01*
Y3563340D01*
X3856280Y3485820D02*
X3879530D01*
X3846280D02*
X3856280D01*
X3846280D02*
Y3563340D01*
X4076280Y3939160D02*
Y4016680D01*
X3846280Y3939160D02*
Y4016680D01*
Y3466680D02*
X4076280D01*
X3879530Y2935820D02*
X4040530D01*
X4076280D01*
Y3013340D01*
X3856280Y2935820D02*
X3879530D01*
X3846280D02*
X3856280D01*
X3846280D02*
Y3013340D01*
X4076280Y3389160D02*
Y3466680D01*
X3846280Y3389160D02*
Y3466680D01*
Y2916680D02*
X4076280D01*
X3879530Y2385820D02*
X4040530D01*
X4076280D01*
Y2463340D01*
X3856280Y2385820D02*
X3879530D01*
X3846280D02*
X3856280D01*
X3846280D02*
Y2463340D01*
X4076280Y2839160D02*
Y2916680D01*
X3846280Y2839160D02*
Y2916680D01*
Y2366680D02*
X4076280D01*
X3879530Y1835820D02*
X4040530D01*
X4076280D01*
Y1913340D01*
X3856280Y1835820D02*
X3879530D01*
X3846280D02*
X3856280D01*
X3846280D02*
Y1913340D01*
X4076280Y2289160D02*
Y2366680D01*
X3846280Y2289160D02*
Y2366680D01*
Y1816680D02*
X4076280D01*
X3879530Y1285820D02*
X4040530D01*
X4076280D01*
Y1363340D01*
X3856280Y1285820D02*
X3879530D01*
X3846280D02*
X3856280D01*
X3846280D02*
Y1363340D01*
X4076280Y1739160D02*
Y1816680D01*
X3846280Y1739160D02*
Y1816680D01*
Y1266680D02*
X4076280D01*
X3879530Y735820D02*
X4040530D01*
X4076280D01*
Y813340D01*
X3856280Y735820D02*
X3879530D01*
X3846280D02*
X3856280D01*
X3846280D02*
Y813340D01*
X4076280Y1189160D02*
Y1266680D01*
X3846280Y1189160D02*
Y1266680D01*
Y716680D02*
X4076280D01*
X3879530Y185820D02*
X4040530D01*
X4076280D01*
Y263340D01*
X3856280Y185820D02*
X3879530D01*
X3846280D02*
X3856280D01*
X3846280D02*
Y263340D01*
X4076280Y639160D02*
Y716680D01*
X3846280Y639160D02*
Y716680D01*
X3361940Y4498390D02*
Y4554270D01*
X3575300D01*
Y4498390D02*
Y4554270D01*
X3361940Y4046270D02*
X3575300D01*
Y4102150D01*
X3361940Y4046270D02*
Y4102150D01*
Y3496270D02*
Y3552150D01*
X3575300Y3496270D02*
Y3552150D01*
X3361940Y3496270D02*
X3575300D01*
Y3948390D02*
Y4004270D01*
X3361940D02*
X3575300D01*
X3361940Y3948390D02*
Y4004270D01*
Y3398390D02*
Y3454270D01*
X3575300D01*
Y3398390D02*
Y3454270D01*
X3361940Y2946270D02*
X3575300D01*
Y3002150D01*
X3361940Y2946270D02*
Y3002150D01*
Y2396270D02*
Y2452150D01*
X3575300Y2396270D02*
Y2452150D01*
X3361940Y2396270D02*
X3575300D01*
Y2848390D02*
Y2904270D01*
X3361940D02*
X3575300D01*
X3361940Y2848390D02*
Y2904270D01*
Y2298390D02*
Y2354270D01*
X3575300D01*
Y2298390D02*
Y2354270D01*
X3361940Y1846270D02*
X3575300D01*
Y1902150D01*
X3361940Y1846270D02*
Y1902150D01*
Y1296270D02*
Y1352150D01*
X3575300Y1296270D02*
Y1352150D01*
X3361940Y1296270D02*
X3575300D01*
Y1748390D02*
Y1804270D01*
X3361940D02*
X3575300D01*
X3361940Y1748390D02*
Y1804270D01*
Y1198390D02*
Y1254270D01*
X3575300D01*
Y1198390D02*
Y1254270D01*
X3361940Y746270D02*
X3575300D01*
Y802150D01*
X3361940Y746270D02*
Y802150D01*
Y196270D02*
Y252150D01*
X3575300Y196270D02*
Y252150D01*
X3361940Y196270D02*
X3575300D01*
Y648390D02*
Y704270D01*
X3361940D02*
X3575300D01*
X3361940Y648390D02*
Y704270D01*
X4646280Y4566680D02*
X4876280D01*
X4679530Y4035820D02*
X4840530D01*
X4876280D01*
Y4113340D01*
X4656280Y4035820D02*
X4679530D01*
X4646280D02*
X4656280D01*
X4646280D02*
Y4113340D01*
X4876280Y4489160D02*
Y4566680D01*
X4646280Y4489160D02*
Y4566680D01*
Y4016680D02*
X4876280D01*
X4679530Y3485820D02*
X4840530D01*
X4876280D01*
Y3563340D01*
X4656280Y3485820D02*
X4679530D01*
X4646280D02*
X4656280D01*
X4646280D02*
Y3563340D01*
X4876280Y3939160D02*
Y4016680D01*
X4646280Y3939160D02*
Y4016680D01*
Y3466680D02*
X4876280D01*
X4679530Y2935820D02*
X4840530D01*
X4876280D01*
Y3013340D01*
X4656280Y2935820D02*
X4679530D01*
X4646280D02*
X4656280D01*
X4646280D02*
Y3013340D01*
X4876280Y3389160D02*
Y3466680D01*
X4646280Y3389160D02*
Y3466680D01*
Y2916680D02*
X4876280D01*
X4679530Y2385820D02*
X4840530D01*
X4876280D01*
Y2463340D01*
X4656280Y2385820D02*
X4679530D01*
X4646280D02*
X4656280D01*
X4646280D02*
Y2463340D01*
X4876280Y2839160D02*
Y2916680D01*
X4646280Y2839160D02*
Y2916680D01*
Y2366680D02*
X4876280D01*
X4679530Y1835820D02*
X4840530D01*
X4876280D01*
Y1913340D01*
X4656280Y1835820D02*
X4679530D01*
X4646280D02*
X4656280D01*
X4646280D02*
Y1913340D01*
X4876280Y2289160D02*
Y2366680D01*
X4646280Y2289160D02*
Y2366680D01*
Y1816680D02*
X4876280D01*
X4679530Y1285820D02*
X4840530D01*
X4876280D01*
Y1363340D01*
X4656280Y1285820D02*
X4679530D01*
X4646280D02*
X4656280D01*
X4646280D02*
Y1363340D01*
X4876280Y1739160D02*
Y1816680D01*
X4646280Y1739160D02*
Y1816680D01*
Y1266680D02*
X4876280D01*
X4679530Y735820D02*
X4840530D01*
X4876280D01*
Y813340D01*
X4656280Y735820D02*
X4679530D01*
X4646280D02*
X4656280D01*
X4646280D02*
Y813340D01*
X4876280Y1189160D02*
Y1266680D01*
X4646280Y1189160D02*
Y1266680D01*
Y716680D02*
X4876280D01*
X4679530Y185820D02*
X4840530D01*
X4876280D01*
Y263340D01*
X4656280Y185820D02*
X4679530D01*
X4646280D02*
X4656280D01*
X4646280D02*
Y263340D01*
X4876280Y639160D02*
Y716680D01*
X4646280Y639160D02*
Y716680D01*
X4161940Y4046270D02*
Y4102150D01*
X4375300Y4046270D02*
Y4102150D01*
X4161940Y4046270D02*
X4375300D01*
Y4498390D02*
Y4554270D01*
X4161940D02*
X4375300D01*
X4161940Y4498390D02*
Y4554270D01*
Y3948390D02*
Y4004270D01*
X4375300D01*
Y3948390D02*
Y4004270D01*
X4161940Y3496270D02*
X4375300D01*
Y3552150D01*
X4161940Y3496270D02*
Y3552150D01*
Y2946270D02*
Y3002150D01*
X4375300Y2946270D02*
Y3002150D01*
X4161940Y2946270D02*
X4375300D01*
Y3398390D02*
Y3454270D01*
X4161940D02*
X4375300D01*
X4161940Y3398390D02*
Y3454270D01*
Y2848390D02*
Y2904270D01*
X4375300D01*
Y2848390D02*
Y2904270D01*
X4161940Y2396270D02*
X4375300D01*
Y2452150D01*
X4161940Y2396270D02*
Y2452150D01*
Y1846270D02*
Y1902150D01*
X4375300Y1846270D02*
Y1902150D01*
X4161940Y1846270D02*
X4375300D01*
Y2298390D02*
Y2354270D01*
X4161940D02*
X4375300D01*
X4161940Y2298390D02*
Y2354270D01*
Y1748390D02*
Y1804270D01*
X4375300D01*
Y1748390D02*
Y1804270D01*
X4161940Y1296270D02*
X4375300D01*
Y1352150D01*
X4161940Y1296270D02*
Y1352150D01*
Y746270D02*
Y802150D01*
X4375300Y746270D02*
Y802150D01*
X4161940Y746270D02*
X4375300D01*
Y1198390D02*
Y1254270D01*
X4161940D02*
X4375300D01*
X4161940Y1198390D02*
Y1254270D01*
Y648390D02*
Y704270D01*
X4375300D01*
Y648390D02*
Y704270D01*
X4161940Y196270D02*
X4375300D01*
Y252150D01*
X4161940Y196270D02*
Y252150D01*
X3046280Y4566680D02*
X3276280D01*
X3079530Y4035820D02*
X3240530D01*
X3276280D01*
Y4113340D01*
X3056280Y4035820D02*
X3079530D01*
X3046280D02*
X3056280D01*
X3046280D02*
Y4113340D01*
X3276280Y4489160D02*
Y4566680D01*
X3046280Y4489160D02*
Y4566680D01*
Y4016680D02*
X3276280D01*
X3079530Y3485820D02*
X3240530D01*
X3276280D01*
Y3563340D01*
X3056280Y3485820D02*
X3079530D01*
X3046280D02*
X3056280D01*
X3046280D02*
Y3563340D01*
X3276280Y3939160D02*
Y4016680D01*
X3046280Y3939160D02*
Y4016680D01*
Y3466680D02*
X3276280D01*
X3079530Y2935820D02*
X3240530D01*
X3276280D01*
Y3013340D01*
X3056280Y2935820D02*
X3079530D01*
X3046280D02*
X3056280D01*
X3046280D02*
Y3013340D01*
X3276280Y3389160D02*
Y3466680D01*
X3046280Y3389160D02*
Y3466680D01*
Y2916680D02*
X3276280D01*
X3079530Y2385820D02*
X3240530D01*
X3276280D01*
Y2463340D01*
X3056280Y2385820D02*
X3079530D01*
X3046280D02*
X3056280D01*
X3046280D02*
Y2463340D01*
X3276280Y2839160D02*
Y2916680D01*
X3046280Y2839160D02*
Y2916680D01*
Y2366680D02*
X3276280D01*
X3079530Y1835820D02*
X3240530D01*
X3276280D01*
Y1913340D01*
X3056280Y1835820D02*
X3079530D01*
X3046280D02*
X3056280D01*
X3046280D02*
Y1913340D01*
X3276280Y2289160D02*
Y2366680D01*
X3046280Y2289160D02*
Y2366680D01*
Y1816680D02*
X3276280D01*
X3079530Y1285820D02*
X3240530D01*
X3276280D01*
Y1363340D01*
X3056280Y1285820D02*
X3079530D01*
X3046280D02*
X3056280D01*
X3046280D02*
Y1363340D01*
X3276280Y1739160D02*
Y1816680D01*
X3046280Y1739160D02*
Y1816680D01*
Y1266680D02*
X3276280D01*
X3079530Y735820D02*
X3240530D01*
X3276280D01*
Y813340D01*
X3056280Y735820D02*
X3079530D01*
X3046280D02*
X3056280D01*
X3046280D02*
Y813340D01*
X3276280Y1189160D02*
Y1266680D01*
X3046280Y1189160D02*
Y1266680D01*
Y716680D02*
X3276280D01*
X3079530Y185820D02*
X3240530D01*
X3276280D01*
Y263340D01*
X3056280Y185820D02*
X3079530D01*
X3046280D02*
X3056280D01*
X3046280D02*
Y263340D01*
X3276280Y639160D02*
Y716680D01*
X3046280Y639160D02*
Y716680D01*
X2561940Y4046270D02*
Y4102150D01*
X2775300Y4046270D02*
Y4102150D01*
X2561940Y4046270D02*
X2775300D01*
Y4498390D02*
Y4554270D01*
X2561940D02*
X2775300D01*
X2561940Y4498390D02*
Y4554270D01*
Y3948390D02*
Y4004270D01*
X2775300D01*
Y3948390D02*
Y4004270D01*
X2561940Y3496270D02*
X2775300D01*
Y3552150D01*
X2561940Y3496270D02*
Y3552150D01*
Y2946270D02*
Y3002150D01*
X2775300Y2946270D02*
Y3002150D01*
X2561940Y2946270D02*
X2775300D01*
Y3398390D02*
Y3454270D01*
X2561940D02*
X2775300D01*
X2561940Y3398390D02*
Y3454270D01*
Y2848390D02*
Y2904270D01*
X2775300D01*
Y2848390D02*
Y2904270D01*
X2561940Y2396270D02*
X2775300D01*
Y2452150D01*
X2561940Y2396270D02*
Y2452150D01*
Y1846270D02*
Y1902150D01*
X2775300Y1846270D02*
Y1902150D01*
X2561940Y1846270D02*
X2775300D01*
Y2298390D02*
Y2354270D01*
X2561940D02*
X2775300D01*
X2561940Y2298390D02*
Y2354270D01*
Y1748390D02*
Y1804270D01*
X2775300D01*
Y1748390D02*
Y1804270D01*
X2561940Y1296270D02*
X2775300D01*
Y1352150D01*
X2561940Y1296270D02*
Y1352150D01*
Y746270D02*
Y802150D01*
X2775300Y746270D02*
Y802150D01*
X2561940Y746270D02*
X2775300D01*
Y1198390D02*
Y1254270D01*
X2561940D02*
X2775300D01*
X2561940Y1198390D02*
Y1254270D01*
Y648390D02*
Y704270D01*
X2775300D01*
Y648390D02*
Y704270D01*
X2561940Y196270D02*
X2775300D01*
Y252150D01*
X2561940Y196270D02*
Y252150D01*
X5446280Y4566680D02*
X5676280D01*
X5479530Y4035820D02*
X5640530D01*
X5676280D01*
Y4113340D01*
X5456280Y4035820D02*
X5479530D01*
X5446280D02*
X5456280D01*
X5446280D02*
Y4113340D01*
X5676280Y4489160D02*
Y4566680D01*
X5446280Y4489160D02*
Y4566680D01*
Y4016680D02*
X5676280D01*
X5479530Y3485820D02*
X5640530D01*
X5676280D01*
Y3563340D01*
X5456280Y3485820D02*
X5479530D01*
X5446280D02*
X5456280D01*
X5446280D02*
Y3563340D01*
X5676280Y3939160D02*
Y4016680D01*
X5446280Y3939160D02*
Y4016680D01*
Y3466680D02*
X5676280D01*
X5479530Y2935820D02*
X5640530D01*
X5676280D01*
Y3013340D01*
X5456280Y2935820D02*
X5479530D01*
X5446280D02*
X5456280D01*
X5446280D02*
Y3013340D01*
X5676280Y3389160D02*
Y3466680D01*
X5446280Y3389160D02*
Y3466680D01*
Y2916680D02*
X5676280D01*
X5479530Y2385820D02*
X5640530D01*
X5676280D01*
Y2463340D01*
X5456280Y2385820D02*
X5479530D01*
X5446280D02*
X5456280D01*
X5446280D02*
Y2463340D01*
X5676280Y2839160D02*
Y2916680D01*
X5446280Y2839160D02*
Y2916680D01*
Y2366680D02*
X5676280D01*
X5479530Y1835820D02*
X5640530D01*
X5676280D01*
Y1913340D01*
X5456280Y1835820D02*
X5479530D01*
X5446280D02*
X5456280D01*
X5446280D02*
Y1913340D01*
X5676280Y2289160D02*
Y2366680D01*
X5446280Y2289160D02*
Y2366680D01*
Y1816680D02*
X5676280D01*
X5479530Y1285820D02*
X5640530D01*
X5676280D01*
Y1363340D01*
X5456280Y1285820D02*
X5479530D01*
X5446280D02*
X5456280D01*
X5446280D02*
Y1363340D01*
X5676280Y1739160D02*
Y1816680D01*
X5446280Y1739160D02*
Y1816680D01*
Y1266680D02*
X5676280D01*
X5479530Y735820D02*
X5640530D01*
X5676280D01*
Y813340D01*
X5456280Y735820D02*
X5479530D01*
X5446280D02*
X5456280D01*
X5446280D02*
Y813340D01*
X5676280Y1189160D02*
Y1266680D01*
X5446280Y1189160D02*
Y1266680D01*
Y716680D02*
X5676280D01*
X5479530Y185820D02*
X5640530D01*
X5676280D01*
Y263340D01*
X5456280Y185820D02*
X5479530D01*
X5446280D02*
X5456280D01*
X5446280D02*
Y263340D01*
X5676280Y639160D02*
Y716680D01*
X5446280Y639160D02*
Y716680D01*
X4961940Y4498390D02*
Y4554270D01*
X5175300D01*
Y4498390D02*
Y4554270D01*
X4961940Y4046270D02*
X5175300D01*
Y4102150D01*
X4961940Y4046270D02*
Y4102150D01*
Y3496270D02*
Y3552150D01*
X5175300Y3496270D02*
Y3552150D01*
X4961940Y3496270D02*
X5175300D01*
Y3948390D02*
Y4004270D01*
X4961940D02*
X5175300D01*
X4961940Y3948390D02*
Y4004270D01*
Y3398390D02*
Y3454270D01*
X5175300D01*
Y3398390D02*
Y3454270D01*
X4961940Y2946270D02*
X5175300D01*
Y3002150D01*
X4961940Y2946270D02*
Y3002150D01*
Y2396270D02*
Y2452150D01*
X5175300Y2396270D02*
Y2452150D01*
X4961940Y2396270D02*
X5175300D01*
Y2848390D02*
Y2904270D01*
X4961940D02*
X5175300D01*
X4961940Y2848390D02*
Y2904270D01*
Y2298390D02*
Y2354270D01*
X5175300D01*
Y2298390D02*
Y2354270D01*
X4961940Y1846270D02*
X5175300D01*
Y1902150D01*
X4961940Y1846270D02*
Y1902150D01*
Y1296270D02*
Y1352150D01*
X5175300Y1296270D02*
Y1352150D01*
X4961940Y1296270D02*
X5175300D01*
Y1748390D02*
Y1804270D01*
X4961940D02*
X5175300D01*
X4961940Y1748390D02*
Y1804270D01*
Y1198390D02*
Y1254270D01*
X5175300D01*
Y1198390D02*
Y1254270D01*
X4961940Y746270D02*
X5175300D01*
Y802150D01*
X4961940Y746270D02*
Y802150D01*
Y196270D02*
Y252150D01*
X5175300Y196270D02*
Y252150D01*
X4961940Y196270D02*
X5175300D01*
Y648390D02*
Y704270D01*
X4961940D02*
X5175300D01*
X4961940Y648390D02*
Y704270D01*
X6246280Y4566680D02*
X6476280D01*
X6279530Y4035820D02*
X6440530D01*
X6476280D01*
Y4113340D01*
X6256280Y4035820D02*
X6279530D01*
X6246280D02*
X6256280D01*
X6246280D02*
Y4113340D01*
X6476280Y4489160D02*
Y4566680D01*
X6246280Y4489160D02*
Y4566680D01*
Y4016680D02*
X6476280D01*
X6279530Y3485820D02*
X6440530D01*
X6476280D01*
Y3563340D01*
X6256280Y3485820D02*
X6279530D01*
X6246280D02*
X6256280D01*
X6246280D02*
Y3563340D01*
X6476280Y3939160D02*
Y4016680D01*
X6246280Y3939160D02*
Y4016680D01*
Y3466680D02*
X6476280D01*
X6279530Y2935820D02*
X6440530D01*
X6476280D01*
Y3013340D01*
X6256280Y2935820D02*
X6279530D01*
X6246280D02*
X6256280D01*
X6246280D02*
Y3013340D01*
X6476280Y3389160D02*
Y3466680D01*
X6246280Y3389160D02*
Y3466680D01*
Y2916680D02*
X6476280D01*
X6279530Y2385820D02*
X6440530D01*
X6476280D01*
Y2463340D01*
X6256280Y2385820D02*
X6279530D01*
X6246280D02*
X6256280D01*
X6246280D02*
Y2463340D01*
X6476280Y2839160D02*
Y2916680D01*
X6246280Y2839160D02*
Y2916680D01*
Y2366680D02*
X6476280D01*
X6279530Y1835820D02*
X6440530D01*
X6476280D01*
Y1913340D01*
X6256280Y1835820D02*
X6279530D01*
X6246280D02*
X6256280D01*
X6246280D02*
Y1913340D01*
X6476280Y2289160D02*
Y2366680D01*
X6246280Y2289160D02*
Y2366680D01*
Y1816680D02*
X6476280D01*
X6279530Y1285820D02*
X6440530D01*
X6476280D01*
Y1363340D01*
X6256280Y1285820D02*
X6279530D01*
X6246280D02*
X6256280D01*
X6246280D02*
Y1363340D01*
X6476280Y1739160D02*
Y1816680D01*
X6246280Y1739160D02*
Y1816680D01*
Y1266680D02*
X6476280D01*
X6279530Y735820D02*
X6440530D01*
X6476280D01*
Y813340D01*
X6256280Y735820D02*
X6279530D01*
X6246280D02*
X6256280D01*
X6246280D02*
Y813340D01*
X6476280Y1189160D02*
Y1266680D01*
X6246280Y1189160D02*
Y1266680D01*
Y716680D02*
X6476280D01*
X6279530Y185820D02*
X6440530D01*
X6476280D01*
Y263340D01*
X6256280Y185820D02*
X6279530D01*
X6246280D02*
X6256280D01*
X6246280D02*
Y263340D01*
X6476280Y639160D02*
Y716680D01*
X6246280Y639160D02*
Y716680D01*
X5761940Y4046270D02*
Y4102150D01*
X5975300Y4046270D02*
Y4102150D01*
X5761940Y4046270D02*
X5975300D01*
Y4498390D02*
Y4554270D01*
X5761940D02*
X5975300D01*
X5761940Y4498390D02*
Y4554270D01*
Y3948390D02*
Y4004270D01*
X5975300D01*
Y3948390D02*
Y4004270D01*
X5761940Y3496270D02*
X5975300D01*
Y3552150D01*
X5761940Y3496270D02*
Y3552150D01*
Y2946270D02*
Y3002150D01*
X5975300Y2946270D02*
Y3002150D01*
X5761940Y2946270D02*
X5975300D01*
Y3398390D02*
Y3454270D01*
X5761940D02*
X5975300D01*
X5761940Y3398390D02*
Y3454270D01*
Y2848390D02*
Y2904270D01*
X5975300D01*
Y2848390D02*
Y2904270D01*
X5761940Y2396270D02*
X5975300D01*
Y2452150D01*
X5761940Y2396270D02*
Y2452150D01*
Y1846270D02*
Y1902150D01*
X5975300Y1846270D02*
Y1902150D01*
X5761940Y1846270D02*
X5975300D01*
Y2298390D02*
Y2354270D01*
X5761940D02*
X5975300D01*
X5761940Y2298390D02*
Y2354270D01*
Y1748390D02*
Y1804270D01*
X5975300D01*
Y1748390D02*
Y1804270D01*
X5761940Y1296270D02*
X5975300D01*
Y1352150D01*
X5761940Y1296270D02*
Y1352150D01*
Y746270D02*
Y802150D01*
X5975300Y746270D02*
Y802150D01*
X5761940Y746270D02*
X5975300D01*
Y1198390D02*
Y1254270D01*
X5761940D02*
X5975300D01*
X5761940Y1198390D02*
Y1254270D01*
Y648390D02*
Y704270D01*
X5975300D01*
Y648390D02*
Y704270D01*
X5761940Y196270D02*
X5975300D01*
Y252150D01*
X5761940Y196270D02*
Y252150D01*
X161940Y3948390D02*
Y4004270D01*
X375300D01*
Y3948390D02*
Y4004270D01*
X161940Y3496270D02*
X375300D01*
Y3552150D01*
X161940Y3496270D02*
Y3552150D01*
Y2946270D02*
Y3002150D01*
X375300Y2946270D02*
Y3002150D01*
X161940Y2946270D02*
X375300D01*
Y3398390D02*
Y3454270D01*
X161940D02*
X375300D01*
X161940Y3398390D02*
Y3454270D01*
Y2848390D02*
Y2904270D01*
X375300D01*
Y2848390D02*
Y2904270D01*
X161940Y2396270D02*
X375300D01*
Y2452150D01*
X161940Y2396270D02*
Y2452150D01*
Y1846270D02*
Y1902150D01*
X375300Y1846270D02*
Y1902150D01*
X161940Y1846270D02*
X375300D01*
Y2298390D02*
Y2354270D01*
X161940D02*
X375300D01*
X161940Y2298390D02*
Y2354270D01*
Y1748390D02*
Y1804270D01*
X375300D01*
Y1748390D02*
Y1804270D01*
X161940Y1296270D02*
X375300D01*
Y1352150D01*
X161940Y1296270D02*
Y1352150D01*
Y746270D02*
Y802150D01*
X375300Y746270D02*
Y802150D01*
X161940Y746270D02*
X375300D01*
Y1198390D02*
Y1254270D01*
X161940D02*
X375300D01*
X161940Y1198390D02*
Y1254270D01*
Y648390D02*
Y704270D01*
X375300D01*
Y648390D02*
Y704270D01*
X161940Y196270D02*
X375300D01*
Y252150D01*
X161940Y196270D02*
Y252150D01*
Y4046270D02*
Y4102150D01*
X375300Y4046270D02*
Y4102150D01*
X161940Y4046270D02*
X375300D01*
Y4498390D02*
Y4554270D01*
X161940D02*
X375300D01*
X161940Y4498390D02*
Y4554270D01*
X6122013Y5949199D02*
X6199533D01*
X6122013Y5719199D02*
X6199533D01*
X5668673Y5949199D02*
X5746193D01*
X5668673Y5939199D02*
Y5949199D01*
Y5915949D02*
Y5939199D01*
Y5719199D02*
X5746193D01*
X5668673D02*
Y5754949D01*
Y5915949D01*
X6199533Y5719199D02*
Y5949199D01*
X646280Y639160D02*
Y716680D01*
X876280Y639160D02*
Y716680D01*
X646280Y185820D02*
Y263340D01*
Y185820D02*
X656280D01*
X679530D01*
X876280D02*
Y263340D01*
X840530Y185820D02*
X876280D01*
X679530D02*
X840530D01*
X646280Y716680D02*
X876280D01*
X646280Y1189160D02*
Y1266680D01*
X876280Y1189160D02*
Y1266680D01*
X646280Y735820D02*
Y813340D01*
Y735820D02*
X656280D01*
X679530D01*
X876280D02*
Y813340D01*
X840530Y735820D02*
X876280D01*
X679530D02*
X840530D01*
X646280Y1266680D02*
X876280D01*
X646280Y1739160D02*
Y1816680D01*
X876280Y1739160D02*
Y1816680D01*
X646280Y1285820D02*
Y1363340D01*
Y1285820D02*
X656280D01*
X679530D01*
X876280D02*
Y1363340D01*
X840530Y1285820D02*
X876280D01*
X679530D02*
X840530D01*
X646280Y1816680D02*
X876280D01*
X646280Y2289160D02*
Y2366680D01*
X876280Y2289160D02*
Y2366680D01*
X646280Y1835820D02*
Y1913340D01*
Y1835820D02*
X656280D01*
X679530D01*
X876280D02*
Y1913340D01*
X840530Y1835820D02*
X876280D01*
X679530D02*
X840530D01*
X646280Y2366680D02*
X876280D01*
X646280Y2839160D02*
Y2916680D01*
X876280Y2839160D02*
Y2916680D01*
X646280Y2385820D02*
Y2463340D01*
Y2385820D02*
X656280D01*
X679530D01*
X876280D02*
Y2463340D01*
X840530Y2385820D02*
X876280D01*
X679530D02*
X840530D01*
X646280Y2916680D02*
X876280D01*
X646280Y3389160D02*
Y3466680D01*
X876280Y3389160D02*
Y3466680D01*
X646280Y2935820D02*
Y3013340D01*
Y2935820D02*
X656280D01*
X679530D01*
X876280D02*
Y3013340D01*
X840530Y2935820D02*
X876280D01*
X679530D02*
X840530D01*
X646280Y3466680D02*
X876280D01*
X646280Y3939160D02*
Y4016680D01*
X876280Y3939160D02*
Y4016680D01*
X646280Y3485820D02*
Y3563340D01*
Y3485820D02*
X656280D01*
X679530D01*
X876280D02*
Y3563340D01*
X840530Y3485820D02*
X876280D01*
X679530D02*
X840530D01*
X646280Y4016680D02*
X876280D01*
X646280Y4489160D02*
Y4566680D01*
X876280Y4489160D02*
Y4566680D01*
X646280Y4035820D02*
Y4113340D01*
Y4035820D02*
X656280D01*
X679530D01*
X876280D02*
Y4113340D01*
X840530Y4035820D02*
X876280D01*
X679530D02*
X840530D01*
X646280Y4566680D02*
X876280D01*
X4827773Y5883899D02*
Y6113899D01*
X5358633Y5917149D02*
Y6078149D01*
Y6113899D01*
X5281113D02*
X5358633D01*
Y5893899D02*
Y5917149D01*
Y5883899D02*
Y5893899D01*
X5281113Y5883899D02*
X5358633D01*
X4827773Y6113899D02*
X4905293D01*
X4827773Y5883899D02*
X4905293D01*
X5433650Y5224500D02*
X5663650D01*
X5469400Y5755360D02*
X5630400D01*
X5433650D02*
X5469400D01*
X5433650Y5677840D02*
Y5755360D01*
X5630400D02*
X5653650D01*
X5663650D01*
Y5677840D02*
Y5755360D01*
X5433650Y5224500D02*
Y5302020D01*
X5663650Y5224500D02*
Y5302020D01*
X5481003Y6602429D02*
X5711003D01*
X5514253Y6071569D02*
X5675253D01*
X5711003D01*
Y6149089D01*
X5491003Y6071569D02*
X5514253D01*
X5481003D02*
X5491003D01*
X5481003D02*
Y6149089D01*
X5711003Y6524909D02*
Y6602429D01*
X5481003Y6524909D02*
Y6602429D01*
D41*
X7297420Y3571240D02*
Y3621224D01*
X7272428D01*
X7264097Y3612893D01*
Y3596232D01*
X7272428Y3587901D01*
X7297420D01*
X7280759D02*
X7264097Y3571240D01*
X7214114Y3621224D02*
X7230775Y3612893D01*
X7247436Y3596232D01*
Y3579571D01*
X7239106Y3571240D01*
X7222445D01*
X7214114Y3579571D01*
Y3587901D01*
X7222445Y3596232D01*
X7247436D01*
X7526020Y3571240D02*
Y3621224D01*
X7501028D01*
X7492697Y3612893D01*
Y3596232D01*
X7501028Y3587901D01*
X7526020D01*
X7509359D02*
X7492697Y3571240D01*
X7442714Y3621224D02*
X7476036D01*
Y3596232D01*
X7459375Y3604563D01*
X7451045D01*
X7442714Y3596232D01*
Y3579571D01*
X7451045Y3571240D01*
X7467706D01*
X7476036Y3579571D01*
X7038037Y3612893D02*
X7046368Y3621224D01*
X7063029D01*
X7071360Y3612893D01*
Y3579571D01*
X7063029Y3571240D01*
X7046368D01*
X7038037Y3579571D01*
X7021376Y3612893D02*
X7013046Y3621224D01*
X6996385D01*
X6988054Y3612893D01*
Y3604563D01*
X6996385Y3596232D01*
X6988054Y3587901D01*
Y3579571D01*
X6996385Y3571240D01*
X7013046D01*
X7021376Y3579571D01*
Y3587901D01*
X7013046Y3596232D01*
X7021376Y3604563D01*
Y3612893D01*
X7013046Y3596232D02*
X6996385D01*
X1005840Y6050280D02*
Y6100264D01*
X980848D01*
X972517Y6091933D01*
Y6075272D01*
X980848Y6066941D01*
X1005840D01*
X989179D02*
X972517Y6050280D01*
X930865D02*
Y6100264D01*
X955856Y6075272D01*
X922534D01*
X1234440Y6050280D02*
Y6100264D01*
X1209448D01*
X1201117Y6091933D01*
Y6075272D01*
X1209448Y6066941D01*
X1234440D01*
X1217779D02*
X1201117Y6050280D01*
X1184456Y6091933D02*
X1176126Y6100264D01*
X1159465D01*
X1151134Y6091933D01*
Y6083603D01*
X1159465Y6075272D01*
X1167795D01*
X1159465D01*
X1151134Y6066941D01*
Y6058611D01*
X1159465Y6050280D01*
X1176126D01*
X1184456Y6058611D01*
X748997Y6089393D02*
X757328Y6097724D01*
X773989D01*
X782320Y6089393D01*
Y6056071D01*
X773989Y6047740D01*
X757328D01*
X748997Y6056071D01*
X732336Y6097724D02*
X699014D01*
Y6089393D01*
X732336Y6056071D01*
Y6047740D01*
D42*
X360680Y4274820D02*
Y4327203D01*
X334489D01*
X325758Y4318472D01*
Y4301011D01*
X334489Y4292281D01*
X360680D01*
X343219D02*
X325758Y4274820D01*
X308297D02*
X290836D01*
X299567D01*
Y4327203D01*
X308297Y4318472D01*
X264645D02*
X255914Y4327203D01*
X238453D01*
X229723Y4318472D01*
Y4283550D01*
X238453Y4274820D01*
X255914D01*
X264645Y4283550D01*
Y4318472D01*
X212262Y4274820D02*
Y4309742D01*
X194801Y4327203D01*
X177340Y4309742D01*
Y4274820D01*
Y4301011D01*
X212262D01*
X360680Y422910D02*
Y475293D01*
X334489D01*
X325758Y466562D01*
Y449101D01*
X334489Y440371D01*
X360680D01*
X343219D02*
X325758Y422910D01*
X308297D02*
X290836D01*
X299567D01*
Y475293D01*
X308297Y466562D01*
X264645Y475293D02*
X229723D01*
Y466562D01*
X264645Y431640D01*
Y422910D01*
X212262D02*
Y457832D01*
X194801Y475293D01*
X177340Y457832D01*
Y422910D01*
Y449101D01*
X212262D01*
X360680Y974090D02*
Y1026473D01*
X334489D01*
X325758Y1017742D01*
Y1000281D01*
X334489Y991551D01*
X360680D01*
X343219D02*
X325758Y974090D01*
X308297D02*
X290836D01*
X299567D01*
Y1026473D01*
X308297Y1017742D01*
X229723Y1026473D02*
X247184Y1017742D01*
X264645Y1000281D01*
Y982820D01*
X255914Y974090D01*
X238453D01*
X229723Y982820D01*
Y991551D01*
X238453Y1000281D01*
X264645D01*
X212262Y974090D02*
Y1009012D01*
X194801Y1026473D01*
X177340Y1009012D01*
Y974090D01*
Y1000281D01*
X212262D01*
X360680Y1525270D02*
Y1577653D01*
X334489D01*
X325758Y1568922D01*
Y1551461D01*
X334489Y1542731D01*
X360680D01*
X343219D02*
X325758Y1525270D01*
X308297D02*
X290836D01*
X299567D01*
Y1577653D01*
X308297Y1568922D01*
X229723Y1577653D02*
X264645D01*
Y1551461D01*
X247184Y1560192D01*
X238453D01*
X229723Y1551461D01*
Y1534000D01*
X238453Y1525270D01*
X255914D01*
X264645Y1534000D01*
X212262Y1525270D02*
Y1560192D01*
X194801Y1577653D01*
X177340Y1560192D01*
Y1525270D01*
Y1551461D01*
X212262D01*
X360680Y2073910D02*
Y2126293D01*
X334489D01*
X325758Y2117562D01*
Y2100101D01*
X334489Y2091371D01*
X360680D01*
X343219D02*
X325758Y2073910D01*
X308297D02*
X290836D01*
X299567D01*
Y2126293D01*
X308297Y2117562D01*
X238453Y2073910D02*
Y2126293D01*
X264645Y2100101D01*
X229723D01*
X212262Y2073910D02*
Y2108832D01*
X194801Y2126293D01*
X177340Y2108832D01*
Y2073910D01*
Y2100101D01*
X212262D01*
X5960680Y422910D02*
Y475293D01*
X5934489D01*
X5925758Y466562D01*
Y449101D01*
X5934489Y440371D01*
X5960680D01*
X5943219D02*
X5925758Y422910D01*
X5908297D02*
X5890836D01*
X5899567D01*
Y475293D01*
X5908297Y466562D01*
X5864645Y475293D02*
X5829723D01*
Y466562D01*
X5864645Y431640D01*
Y422910D01*
X5812262Y475293D02*
Y422910D01*
Y449101D01*
X5777340D01*
Y475293D01*
Y422910D01*
X5160680D02*
Y475293D01*
X5134489D01*
X5125758Y466562D01*
Y449101D01*
X5134489Y440371D01*
X5160680D01*
X5143219D02*
X5125758Y422910D01*
X5108297D02*
X5090836D01*
X5099567D01*
Y475293D01*
X5108297Y466562D01*
X5064645Y475293D02*
X5029723D01*
Y466562D01*
X5064645Y431640D01*
Y422910D01*
X4977340Y466562D02*
X4986070Y475293D01*
X5003531D01*
X5012262Y466562D01*
Y431640D01*
X5003531Y422910D01*
X4986070D01*
X4977340Y431640D01*
Y449101D01*
X4994801D01*
X4360680Y422910D02*
Y475293D01*
X4334489D01*
X4325758Y466562D01*
Y449101D01*
X4334489Y440371D01*
X4360680D01*
X4343219D02*
X4325758Y422910D01*
X4308297D02*
X4290836D01*
X4299567D01*
Y475293D01*
X4308297Y466562D01*
X4264645Y475293D02*
X4229723D01*
Y466562D01*
X4264645Y431640D01*
Y422910D01*
X4177340Y475293D02*
X4212262D01*
Y449101D01*
X4194801D01*
X4212262D01*
Y422910D01*
X3560680D02*
Y475293D01*
X3534488D01*
X3525758Y466562D01*
Y449101D01*
X3534488Y440371D01*
X3560680D01*
X3543219D02*
X3525758Y422910D01*
X3508297D02*
X3490836D01*
X3499567D01*
Y475293D01*
X3508297Y466562D01*
X3464645Y475293D02*
X3429723D01*
Y466562D01*
X3464645Y431640D01*
Y422910D01*
X3377340Y475293D02*
X3412262D01*
Y422910D01*
X3377340D01*
X3412262Y449101D02*
X3394801D01*
X2760680Y422910D02*
Y475293D01*
X2734489D01*
X2725758Y466562D01*
Y449101D01*
X2734489Y440371D01*
X2760680D01*
X2743219D02*
X2725758Y422910D01*
X2708297D02*
X2690836D01*
X2699567D01*
Y475293D01*
X2708297Y466562D01*
X2664645Y475293D02*
X2629723D01*
Y466562D01*
X2664645Y431640D01*
Y422910D01*
X2612262Y475293D02*
Y422910D01*
X2586070D01*
X2577340Y431640D01*
Y466562D01*
X2586070Y475293D01*
X2612262D01*
X1960680Y422910D02*
Y475293D01*
X1934489D01*
X1925758Y466562D01*
Y449101D01*
X1934489Y440371D01*
X1960680D01*
X1943219D02*
X1925758Y422910D01*
X1908297D02*
X1890836D01*
X1899567D01*
Y475293D01*
X1908297Y466562D01*
X1864645Y475293D02*
X1829723D01*
Y466562D01*
X1864645Y431640D01*
Y422910D01*
X1777340Y466562D02*
X1786070Y475293D01*
X1803531D01*
X1812262Y466562D01*
Y431640D01*
X1803531Y422910D01*
X1786070D01*
X1777340Y431640D01*
X1160680Y422910D02*
Y475293D01*
X1134488D01*
X1125758Y466562D01*
Y449101D01*
X1134488Y440371D01*
X1160680D01*
X1143219D02*
X1125758Y422910D01*
X1108297D02*
X1090836D01*
X1099567D01*
Y475293D01*
X1108297Y466562D01*
X1064645Y475293D02*
X1029723D01*
Y466562D01*
X1064645Y431640D01*
Y422910D01*
X1012262Y475293D02*
Y422910D01*
X986070D01*
X977340Y431640D01*
Y440371D01*
X986070Y449101D01*
X1012262D01*
X986070D01*
X977340Y457832D01*
Y466562D01*
X986070Y475293D01*
X1012262D01*
X5960680Y974090D02*
Y1026473D01*
X5934489D01*
X5925758Y1017742D01*
Y1000281D01*
X5934489Y991551D01*
X5960680D01*
X5943219D02*
X5925758Y974090D01*
X5908297D02*
X5890836D01*
X5899567D01*
Y1026473D01*
X5908297Y1017742D01*
X5829723Y1026473D02*
X5847184Y1017742D01*
X5864645Y1000281D01*
Y982820D01*
X5855914Y974090D01*
X5838453D01*
X5829723Y982820D01*
Y991551D01*
X5838453Y1000281D01*
X5864645D01*
X5812262Y1026473D02*
Y974090D01*
Y1000281D01*
X5777340D01*
Y1026473D01*
Y974090D01*
X5160680D02*
Y1026473D01*
X5134489D01*
X5125758Y1017742D01*
Y1000281D01*
X5134489Y991551D01*
X5160680D01*
X5143219D02*
X5125758Y974090D01*
X5108297D02*
X5090836D01*
X5099567D01*
Y1026473D01*
X5108297Y1017742D01*
X5029723Y1026473D02*
X5047184Y1017742D01*
X5064645Y1000281D01*
Y982820D01*
X5055914Y974090D01*
X5038453D01*
X5029723Y982820D01*
Y991551D01*
X5038453Y1000281D01*
X5064645D01*
X4977340Y1017742D02*
X4986070Y1026473D01*
X5003531D01*
X5012262Y1017742D01*
Y982820D01*
X5003531Y974090D01*
X4986070D01*
X4977340Y982820D01*
Y1000281D01*
X4994801D01*
X4360680Y974090D02*
Y1026473D01*
X4334489D01*
X4325758Y1017742D01*
Y1000281D01*
X4334489Y991551D01*
X4360680D01*
X4343219D02*
X4325758Y974090D01*
X4308297D02*
X4290836D01*
X4299567D01*
Y1026473D01*
X4308297Y1017742D01*
X4229723Y1026473D02*
X4247184Y1017742D01*
X4264645Y1000281D01*
Y982820D01*
X4255914Y974090D01*
X4238453D01*
X4229723Y982820D01*
Y991551D01*
X4238453Y1000281D01*
X4264645D01*
X4177340Y1026473D02*
X4212262D01*
Y1000281D01*
X4194801D01*
X4212262D01*
Y974090D01*
X3560680D02*
Y1026473D01*
X3534488D01*
X3525758Y1017742D01*
Y1000281D01*
X3534488Y991551D01*
X3560680D01*
X3543219D02*
X3525758Y974090D01*
X3508297D02*
X3490836D01*
X3499567D01*
Y1026473D01*
X3508297Y1017742D01*
X3429723Y1026473D02*
X3447184Y1017742D01*
X3464645Y1000281D01*
Y982820D01*
X3455914Y974090D01*
X3438453D01*
X3429723Y982820D01*
Y991551D01*
X3438453Y1000281D01*
X3464645D01*
X3377340Y1026473D02*
X3412262D01*
Y974090D01*
X3377340D01*
X3412262Y1000281D02*
X3394801D01*
X2760680Y974090D02*
Y1026473D01*
X2734489D01*
X2725758Y1017742D01*
Y1000281D01*
X2734489Y991551D01*
X2760680D01*
X2743219D02*
X2725758Y974090D01*
X2708297D02*
X2690836D01*
X2699567D01*
Y1026473D01*
X2708297Y1017742D01*
X2629723Y1026473D02*
X2647184Y1017742D01*
X2664645Y1000281D01*
Y982820D01*
X2655914Y974090D01*
X2638453D01*
X2629723Y982820D01*
Y991551D01*
X2638453Y1000281D01*
X2664645D01*
X2612262Y1026473D02*
Y974090D01*
X2586070D01*
X2577340Y982820D01*
Y1017742D01*
X2586070Y1026473D01*
X2612262D01*
X1960680Y974090D02*
Y1026473D01*
X1934489D01*
X1925758Y1017742D01*
Y1000281D01*
X1934489Y991551D01*
X1960680D01*
X1943219D02*
X1925758Y974090D01*
X1908297D02*
X1890836D01*
X1899567D01*
Y1026473D01*
X1908297Y1017742D01*
X1829723Y1026473D02*
X1847184Y1017742D01*
X1864645Y1000281D01*
Y982820D01*
X1855914Y974090D01*
X1838453D01*
X1829723Y982820D01*
Y991551D01*
X1838453Y1000281D01*
X1864645D01*
X1777340Y1017742D02*
X1786070Y1026473D01*
X1803531D01*
X1812262Y1017742D01*
Y982820D01*
X1803531Y974090D01*
X1786070D01*
X1777340Y982820D01*
X1160680Y974090D02*
Y1026473D01*
X1134488D01*
X1125758Y1017742D01*
Y1000281D01*
X1134488Y991551D01*
X1160680D01*
X1143219D02*
X1125758Y974090D01*
X1108297D02*
X1090836D01*
X1099567D01*
Y1026473D01*
X1108297Y1017742D01*
X1029723Y1026473D02*
X1047184Y1017742D01*
X1064645Y1000281D01*
Y982820D01*
X1055914Y974090D01*
X1038453D01*
X1029723Y982820D01*
Y991551D01*
X1038453Y1000281D01*
X1064645D01*
X1012262Y1026473D02*
Y974090D01*
X986070D01*
X977340Y982820D01*
Y991551D01*
X986070Y1000281D01*
X1012262D01*
X986070D01*
X977340Y1009012D01*
Y1017742D01*
X986070Y1026473D01*
X1012262D01*
X5960680Y1525270D02*
Y1577653D01*
X5934489D01*
X5925758Y1568922D01*
Y1551461D01*
X5934489Y1542731D01*
X5960680D01*
X5943219D02*
X5925758Y1525270D01*
X5908297D02*
X5890836D01*
X5899567D01*
Y1577653D01*
X5908297Y1568922D01*
X5829723Y1577653D02*
X5864645D01*
Y1551461D01*
X5847184Y1560192D01*
X5838453D01*
X5829723Y1551461D01*
Y1534000D01*
X5838453Y1525270D01*
X5855914D01*
X5864645Y1534000D01*
X5812262Y1577653D02*
Y1525270D01*
Y1551461D01*
X5777340D01*
Y1577653D01*
Y1525270D01*
X5160680D02*
Y1577653D01*
X5134489D01*
X5125758Y1568922D01*
Y1551461D01*
X5134489Y1542731D01*
X5160680D01*
X5143219D02*
X5125758Y1525270D01*
X5108297D02*
X5090836D01*
X5099567D01*
Y1577653D01*
X5108297Y1568922D01*
X5029723Y1577653D02*
X5064645D01*
Y1551461D01*
X5047184Y1560192D01*
X5038453D01*
X5029723Y1551461D01*
Y1534000D01*
X5038453Y1525270D01*
X5055914D01*
X5064645Y1534000D01*
X4977340Y1568922D02*
X4986070Y1577653D01*
X5003531D01*
X5012262Y1568922D01*
Y1534000D01*
X5003531Y1525270D01*
X4986070D01*
X4977340Y1534000D01*
Y1551461D01*
X4994801D01*
X4360680Y1525270D02*
Y1577653D01*
X4334489D01*
X4325758Y1568922D01*
Y1551461D01*
X4334489Y1542731D01*
X4360680D01*
X4343219D02*
X4325758Y1525270D01*
X4308297D02*
X4290836D01*
X4299567D01*
Y1577653D01*
X4308297Y1568922D01*
X4229723Y1577653D02*
X4264645D01*
Y1551461D01*
X4247184Y1560192D01*
X4238453D01*
X4229723Y1551461D01*
Y1534000D01*
X4238453Y1525270D01*
X4255914D01*
X4264645Y1534000D01*
X4177340Y1577653D02*
X4212262D01*
Y1551461D01*
X4194801D01*
X4212262D01*
Y1525270D01*
X3560680D02*
Y1577653D01*
X3534488D01*
X3525758Y1568922D01*
Y1551461D01*
X3534488Y1542731D01*
X3560680D01*
X3543219D02*
X3525758Y1525270D01*
X3508297D02*
X3490836D01*
X3499567D01*
Y1577653D01*
X3508297Y1568922D01*
X3429723Y1577653D02*
X3464645D01*
Y1551461D01*
X3447184Y1560192D01*
X3438453D01*
X3429723Y1551461D01*
Y1534000D01*
X3438453Y1525270D01*
X3455914D01*
X3464645Y1534000D01*
X3377340Y1577653D02*
X3412262D01*
Y1525270D01*
X3377340D01*
X3412262Y1551461D02*
X3394801D01*
X2760680Y1525270D02*
Y1577653D01*
X2734489D01*
X2725758Y1568922D01*
Y1551461D01*
X2734489Y1542731D01*
X2760680D01*
X2743219D02*
X2725758Y1525270D01*
X2708297D02*
X2690836D01*
X2699567D01*
Y1577653D01*
X2708297Y1568922D01*
X2629723Y1577653D02*
X2664645D01*
Y1551461D01*
X2647184Y1560192D01*
X2638453D01*
X2629723Y1551461D01*
Y1534000D01*
X2638453Y1525270D01*
X2655914D01*
X2664645Y1534000D01*
X2612262Y1577653D02*
Y1525270D01*
X2586070D01*
X2577340Y1534000D01*
Y1568922D01*
X2586070Y1577653D01*
X2612262D01*
X1960680Y1525270D02*
Y1577653D01*
X1934489D01*
X1925758Y1568922D01*
Y1551461D01*
X1934489Y1542731D01*
X1960680D01*
X1943219D02*
X1925758Y1525270D01*
X1908297D02*
X1890836D01*
X1899567D01*
Y1577653D01*
X1908297Y1568922D01*
X1829723Y1577653D02*
X1864645D01*
Y1551461D01*
X1847184Y1560192D01*
X1838453D01*
X1829723Y1551461D01*
Y1534000D01*
X1838453Y1525270D01*
X1855914D01*
X1864645Y1534000D01*
X1777340Y1568922D02*
X1786070Y1577653D01*
X1803531D01*
X1812262Y1568922D01*
Y1534000D01*
X1803531Y1525270D01*
X1786070D01*
X1777340Y1534000D01*
X1160680Y1525270D02*
Y1577653D01*
X1134488D01*
X1125758Y1568922D01*
Y1551461D01*
X1134488Y1542731D01*
X1160680D01*
X1143219D02*
X1125758Y1525270D01*
X1108297D02*
X1090836D01*
X1099567D01*
Y1577653D01*
X1108297Y1568922D01*
X1029723Y1577653D02*
X1064645D01*
Y1551461D01*
X1047184Y1560192D01*
X1038453D01*
X1029723Y1551461D01*
Y1534000D01*
X1038453Y1525270D01*
X1055914D01*
X1064645Y1534000D01*
X1012262Y1577653D02*
Y1525270D01*
X986070D01*
X977340Y1534000D01*
Y1542731D01*
X986070Y1551461D01*
X1012262D01*
X986070D01*
X977340Y1560192D01*
Y1568922D01*
X986070Y1577653D01*
X1012262D01*
X5960680Y2073910D02*
Y2126293D01*
X5934489D01*
X5925758Y2117562D01*
Y2100101D01*
X5934489Y2091371D01*
X5960680D01*
X5943219D02*
X5925758Y2073910D01*
X5908297D02*
X5890836D01*
X5899567D01*
Y2126293D01*
X5908297Y2117562D01*
X5838453Y2073910D02*
Y2126293D01*
X5864645Y2100101D01*
X5829723D01*
X5812262Y2126293D02*
Y2073910D01*
Y2100101D01*
X5777340D01*
Y2126293D01*
Y2073910D01*
X5160680D02*
Y2126293D01*
X5134489D01*
X5125758Y2117562D01*
Y2100101D01*
X5134489Y2091371D01*
X5160680D01*
X5143219D02*
X5125758Y2073910D01*
X5108297D02*
X5090836D01*
X5099567D01*
Y2126293D01*
X5108297Y2117562D01*
X5038453Y2073910D02*
Y2126293D01*
X5064645Y2100101D01*
X5029723D01*
X4977340Y2117562D02*
X4986070Y2126293D01*
X5003531D01*
X5012262Y2117562D01*
Y2082640D01*
X5003531Y2073910D01*
X4986070D01*
X4977340Y2082640D01*
Y2100101D01*
X4994801D01*
X4360680Y2073910D02*
Y2126293D01*
X4334489D01*
X4325758Y2117562D01*
Y2100101D01*
X4334489Y2091371D01*
X4360680D01*
X4343219D02*
X4325758Y2073910D01*
X4308297D02*
X4290836D01*
X4299567D01*
Y2126293D01*
X4308297Y2117562D01*
X4238453Y2073910D02*
Y2126293D01*
X4264645Y2100101D01*
X4229723D01*
X4177340Y2126293D02*
X4212262D01*
Y2100101D01*
X4194801D01*
X4212262D01*
Y2073910D01*
X3560680D02*
Y2126293D01*
X3534488D01*
X3525758Y2117562D01*
Y2100101D01*
X3534488Y2091371D01*
X3560680D01*
X3543219D02*
X3525758Y2073910D01*
X3508297D02*
X3490836D01*
X3499567D01*
Y2126293D01*
X3508297Y2117562D01*
X3438453Y2073910D02*
Y2126293D01*
X3464645Y2100101D01*
X3429723D01*
X3377340Y2126293D02*
X3412262D01*
Y2073910D01*
X3377340D01*
X3412262Y2100101D02*
X3394801D01*
X2760680Y2073910D02*
Y2126293D01*
X2734489D01*
X2725758Y2117562D01*
Y2100101D01*
X2734489Y2091371D01*
X2760680D01*
X2743219D02*
X2725758Y2073910D01*
X2708297D02*
X2690836D01*
X2699567D01*
Y2126293D01*
X2708297Y2117562D01*
X2638453Y2073910D02*
Y2126293D01*
X2664645Y2100101D01*
X2629723D01*
X2612262Y2126293D02*
Y2073910D01*
X2586070D01*
X2577340Y2082640D01*
Y2117562D01*
X2586070Y2126293D01*
X2612262D01*
X1960680Y2073910D02*
Y2126293D01*
X1934489D01*
X1925758Y2117562D01*
Y2100101D01*
X1934489Y2091371D01*
X1960680D01*
X1943219D02*
X1925758Y2073910D01*
X1908297D02*
X1890836D01*
X1899567D01*
Y2126293D01*
X1908297Y2117562D01*
X1838453Y2073910D02*
Y2126293D01*
X1864645Y2100101D01*
X1829723D01*
X1777340Y2117562D02*
X1786070Y2126293D01*
X1803531D01*
X1812262Y2117562D01*
Y2082640D01*
X1803531Y2073910D01*
X1786070D01*
X1777340Y2082640D01*
X1160680Y2073910D02*
Y2126293D01*
X1134488D01*
X1125758Y2117562D01*
Y2100101D01*
X1134488Y2091371D01*
X1160680D01*
X1143219D02*
X1125758Y2073910D01*
X1108297D02*
X1090836D01*
X1099567D01*
Y2126293D01*
X1108297Y2117562D01*
X1038453Y2073910D02*
Y2126293D01*
X1064645Y2100101D01*
X1029723D01*
X1012262Y2126293D02*
Y2073910D01*
X986070D01*
X977340Y2082640D01*
Y2091371D01*
X986070Y2100101D01*
X1012262D01*
X986070D01*
X977340Y2108832D01*
Y2117562D01*
X986070Y2126293D01*
X1012262D01*
X5960680Y2625090D02*
Y2677473D01*
X5934489D01*
X5925758Y2668742D01*
Y2651281D01*
X5934489Y2642551D01*
X5960680D01*
X5943219D02*
X5925758Y2625090D01*
X5908297D02*
X5890836D01*
X5899567D01*
Y2677473D01*
X5908297Y2668742D01*
X5864645D02*
X5855914Y2677473D01*
X5838453D01*
X5829723Y2668742D01*
Y2660012D01*
X5838453Y2651281D01*
X5847184D01*
X5838453D01*
X5829723Y2642551D01*
Y2633820D01*
X5838453Y2625090D01*
X5855914D01*
X5864645Y2633820D01*
X5812262Y2677473D02*
Y2625090D01*
Y2651281D01*
X5777340D01*
Y2677473D01*
Y2625090D01*
X5160680D02*
Y2677473D01*
X5134489D01*
X5125758Y2668742D01*
Y2651281D01*
X5134489Y2642551D01*
X5160680D01*
X5143219D02*
X5125758Y2625090D01*
X5108297D02*
X5090836D01*
X5099567D01*
Y2677473D01*
X5108297Y2668742D01*
X5064645D02*
X5055914Y2677473D01*
X5038453D01*
X5029723Y2668742D01*
Y2660012D01*
X5038453Y2651281D01*
X5047184D01*
X5038453D01*
X5029723Y2642551D01*
Y2633820D01*
X5038453Y2625090D01*
X5055914D01*
X5064645Y2633820D01*
X4977340Y2668742D02*
X4986070Y2677473D01*
X5003531D01*
X5012262Y2668742D01*
Y2633820D01*
X5003531Y2625090D01*
X4986070D01*
X4977340Y2633820D01*
Y2651281D01*
X4994801D01*
X4360680Y2625090D02*
Y2677473D01*
X4334489D01*
X4325758Y2668742D01*
Y2651281D01*
X4334489Y2642551D01*
X4360680D01*
X4343219D02*
X4325758Y2625090D01*
X4308297D02*
X4290836D01*
X4299567D01*
Y2677473D01*
X4308297Y2668742D01*
X4264645D02*
X4255914Y2677473D01*
X4238453D01*
X4229723Y2668742D01*
Y2660012D01*
X4238453Y2651281D01*
X4247184D01*
X4238453D01*
X4229723Y2642551D01*
Y2633820D01*
X4238453Y2625090D01*
X4255914D01*
X4264645Y2633820D01*
X4177340Y2677473D02*
X4212262D01*
Y2651281D01*
X4194801D01*
X4212262D01*
Y2625090D01*
X3560680D02*
Y2677473D01*
X3534488D01*
X3525758Y2668742D01*
Y2651281D01*
X3534488Y2642551D01*
X3560680D01*
X3543219D02*
X3525758Y2625090D01*
X3508297D02*
X3490836D01*
X3499567D01*
Y2677473D01*
X3508297Y2668742D01*
X3464645D02*
X3455914Y2677473D01*
X3438453D01*
X3429723Y2668742D01*
Y2660012D01*
X3438453Y2651281D01*
X3447184D01*
X3438453D01*
X3429723Y2642551D01*
Y2633820D01*
X3438453Y2625090D01*
X3455914D01*
X3464645Y2633820D01*
X3377340Y2677473D02*
X3412262D01*
Y2625090D01*
X3377340D01*
X3412262Y2651281D02*
X3394801D01*
X2760680Y2625090D02*
Y2677473D01*
X2734489D01*
X2725758Y2668742D01*
Y2651281D01*
X2734489Y2642551D01*
X2760680D01*
X2743219D02*
X2725758Y2625090D01*
X2708297D02*
X2690836D01*
X2699567D01*
Y2677473D01*
X2708297Y2668742D01*
X2664645D02*
X2655914Y2677473D01*
X2638453D01*
X2629723Y2668742D01*
Y2660012D01*
X2638453Y2651281D01*
X2647184D01*
X2638453D01*
X2629723Y2642551D01*
Y2633820D01*
X2638453Y2625090D01*
X2655914D01*
X2664645Y2633820D01*
X2612262Y2677473D02*
Y2625090D01*
X2586070D01*
X2577340Y2633820D01*
Y2668742D01*
X2586070Y2677473D01*
X2612262D01*
X1960680Y2625090D02*
Y2677473D01*
X1934489D01*
X1925758Y2668742D01*
Y2651281D01*
X1934489Y2642551D01*
X1960680D01*
X1943219D02*
X1925758Y2625090D01*
X1908297D02*
X1890836D01*
X1899567D01*
Y2677473D01*
X1908297Y2668742D01*
X1864645D02*
X1855914Y2677473D01*
X1838453D01*
X1829723Y2668742D01*
Y2660012D01*
X1838453Y2651281D01*
X1847184D01*
X1838453D01*
X1829723Y2642551D01*
Y2633820D01*
X1838453Y2625090D01*
X1855914D01*
X1864645Y2633820D01*
X1777340Y2668742D02*
X1786070Y2677473D01*
X1803531D01*
X1812262Y2668742D01*
Y2633820D01*
X1803531Y2625090D01*
X1786070D01*
X1777340Y2633820D01*
X1160680Y2625090D02*
Y2677473D01*
X1134488D01*
X1125758Y2668742D01*
Y2651281D01*
X1134488Y2642551D01*
X1160680D01*
X1143219D02*
X1125758Y2625090D01*
X1108297D02*
X1090836D01*
X1099567D01*
Y2677473D01*
X1108297Y2668742D01*
X1064645D02*
X1055914Y2677473D01*
X1038453D01*
X1029723Y2668742D01*
Y2660012D01*
X1038453Y2651281D01*
X1047184D01*
X1038453D01*
X1029723Y2642551D01*
Y2633820D01*
X1038453Y2625090D01*
X1055914D01*
X1064645Y2633820D01*
X1012262Y2677473D02*
Y2625090D01*
X986070D01*
X977340Y2633820D01*
Y2642551D01*
X986070Y2651281D01*
X1012262D01*
X986070D01*
X977340Y2660012D01*
Y2668742D01*
X986070Y2677473D01*
X1012262D01*
X5960680Y3173730D02*
Y3226113D01*
X5934489D01*
X5925758Y3217382D01*
Y3199921D01*
X5934489Y3191191D01*
X5960680D01*
X5943219D02*
X5925758Y3173730D01*
X5908297D02*
X5890836D01*
X5899567D01*
Y3226113D01*
X5908297Y3217382D01*
X5829723Y3173730D02*
X5864645D01*
X5829723Y3208652D01*
Y3217382D01*
X5838453Y3226113D01*
X5855914D01*
X5864645Y3217382D01*
X5812262Y3226113D02*
Y3173730D01*
Y3199921D01*
X5777340D01*
Y3226113D01*
Y3173730D01*
X5160680D02*
Y3226113D01*
X5134489D01*
X5125758Y3217382D01*
Y3199921D01*
X5134489Y3191191D01*
X5160680D01*
X5143219D02*
X5125758Y3173730D01*
X5108297D02*
X5090836D01*
X5099567D01*
Y3226113D01*
X5108297Y3217382D01*
X5029723Y3173730D02*
X5064645D01*
X5029723Y3208652D01*
Y3217382D01*
X5038453Y3226113D01*
X5055914D01*
X5064645Y3217382D01*
X4977340D02*
X4986070Y3226113D01*
X5003531D01*
X5012262Y3217382D01*
Y3182460D01*
X5003531Y3173730D01*
X4986070D01*
X4977340Y3182460D01*
Y3199921D01*
X4994801D01*
X4360680Y3173730D02*
Y3226113D01*
X4334489D01*
X4325758Y3217382D01*
Y3199921D01*
X4334489Y3191191D01*
X4360680D01*
X4343219D02*
X4325758Y3173730D01*
X4308297D02*
X4290836D01*
X4299567D01*
Y3226113D01*
X4308297Y3217382D01*
X4229723Y3173730D02*
X4264645D01*
X4229723Y3208652D01*
Y3217382D01*
X4238453Y3226113D01*
X4255914D01*
X4264645Y3217382D01*
X4177340Y3226113D02*
X4212262D01*
Y3199921D01*
X4194801D01*
X4212262D01*
Y3173730D01*
X3560680D02*
Y3226113D01*
X3534488D01*
X3525758Y3217382D01*
Y3199921D01*
X3534488Y3191191D01*
X3560680D01*
X3543219D02*
X3525758Y3173730D01*
X3508297D02*
X3490836D01*
X3499567D01*
Y3226113D01*
X3508297Y3217382D01*
X3429723Y3173730D02*
X3464645D01*
X3429723Y3208652D01*
Y3217382D01*
X3438453Y3226113D01*
X3455914D01*
X3464645Y3217382D01*
X3377340Y3226113D02*
X3412262D01*
Y3173730D01*
X3377340D01*
X3412262Y3199921D02*
X3394801D01*
X2760680Y3173730D02*
Y3226113D01*
X2734489D01*
X2725758Y3217382D01*
Y3199921D01*
X2734489Y3191191D01*
X2760680D01*
X2743219D02*
X2725758Y3173730D01*
X2708297D02*
X2690836D01*
X2699567D01*
Y3226113D01*
X2708297Y3217382D01*
X2629723Y3173730D02*
X2664645D01*
X2629723Y3208652D01*
Y3217382D01*
X2638453Y3226113D01*
X2655914D01*
X2664645Y3217382D01*
X2612262Y3226113D02*
Y3173730D01*
X2586070D01*
X2577340Y3182460D01*
Y3217382D01*
X2586070Y3226113D01*
X2612262D01*
X1960680Y3173730D02*
Y3226113D01*
X1934489D01*
X1925758Y3217382D01*
Y3199921D01*
X1934489Y3191191D01*
X1960680D01*
X1943219D02*
X1925758Y3173730D01*
X1908297D02*
X1890836D01*
X1899567D01*
Y3226113D01*
X1908297Y3217382D01*
X1829723Y3173730D02*
X1864645D01*
X1829723Y3208652D01*
Y3217382D01*
X1838453Y3226113D01*
X1855914D01*
X1864645Y3217382D01*
X1777340D02*
X1786070Y3226113D01*
X1803531D01*
X1812262Y3217382D01*
Y3182460D01*
X1803531Y3173730D01*
X1786070D01*
X1777340Y3182460D01*
X1160680Y3173730D02*
Y3226113D01*
X1134488D01*
X1125758Y3217382D01*
Y3199921D01*
X1134488Y3191191D01*
X1160680D01*
X1143219D02*
X1125758Y3173730D01*
X1108297D02*
X1090836D01*
X1099567D01*
Y3226113D01*
X1108297Y3217382D01*
X1029723Y3173730D02*
X1064645D01*
X1029723Y3208652D01*
Y3217382D01*
X1038453Y3226113D01*
X1055914D01*
X1064645Y3217382D01*
X1012262Y3226113D02*
Y3173730D01*
X986070D01*
X977340Y3182460D01*
Y3191191D01*
X986070Y3199921D01*
X1012262D01*
X986070D01*
X977340Y3208652D01*
Y3217382D01*
X986070Y3226113D01*
X1012262D01*
X5955600Y3724910D02*
Y3777293D01*
X5929409D01*
X5920678Y3768562D01*
Y3751101D01*
X5929409Y3742371D01*
X5955600D01*
X5938139D02*
X5920678Y3724910D01*
X5903217D02*
X5885756D01*
X5894487D01*
Y3777293D01*
X5903217Y3768562D01*
X5859565Y3724910D02*
X5842104D01*
X5850834D01*
Y3777293D01*
X5859565Y3768562D01*
X5815912Y3777293D02*
Y3724910D01*
Y3751101D01*
X5780990D01*
Y3777293D01*
Y3724910D01*
X5155600D02*
Y3777293D01*
X5129409D01*
X5120678Y3768562D01*
Y3751101D01*
X5129409Y3742371D01*
X5155600D01*
X5138139D02*
X5120678Y3724910D01*
X5103217D02*
X5085756D01*
X5094487D01*
Y3777293D01*
X5103217Y3768562D01*
X5059565Y3724910D02*
X5042104D01*
X5050834D01*
Y3777293D01*
X5059565Y3768562D01*
X4980990D02*
X4989721Y3777293D01*
X5007182D01*
X5015912Y3768562D01*
Y3733640D01*
X5007182Y3724910D01*
X4989721D01*
X4980990Y3733640D01*
Y3751101D01*
X4998451D01*
X4355600Y3724910D02*
Y3777293D01*
X4329409D01*
X4320678Y3768562D01*
Y3751101D01*
X4329409Y3742371D01*
X4355600D01*
X4338139D02*
X4320678Y3724910D01*
X4303217D02*
X4285756D01*
X4294487D01*
Y3777293D01*
X4303217Y3768562D01*
X4259565Y3724910D02*
X4242104D01*
X4250834D01*
Y3777293D01*
X4259565Y3768562D01*
X4180990Y3777293D02*
X4215912D01*
Y3751101D01*
X4198451D01*
X4215912D01*
Y3724910D01*
X3555600D02*
Y3777293D01*
X3529408D01*
X3520678Y3768562D01*
Y3751101D01*
X3529408Y3742371D01*
X3555600D01*
X3538139D02*
X3520678Y3724910D01*
X3503217D02*
X3485756D01*
X3494487D01*
Y3777293D01*
X3503217Y3768562D01*
X3459565Y3724910D02*
X3442104D01*
X3450834D01*
Y3777293D01*
X3459565Y3768562D01*
X3380990Y3777293D02*
X3415912D01*
Y3724910D01*
X3380990D01*
X3415912Y3751101D02*
X3398451D01*
X2755600Y3724910D02*
Y3777293D01*
X2729409D01*
X2720678Y3768562D01*
Y3751101D01*
X2729409Y3742371D01*
X2755600D01*
X2738139D02*
X2720678Y3724910D01*
X2703217D02*
X2685756D01*
X2694487D01*
Y3777293D01*
X2703217Y3768562D01*
X2659565Y3724910D02*
X2642104D01*
X2650834D01*
Y3777293D01*
X2659565Y3768562D01*
X2615912Y3777293D02*
Y3724910D01*
X2589721D01*
X2580990Y3733640D01*
Y3768562D01*
X2589721Y3777293D01*
X2615912D01*
X1955600Y3724910D02*
Y3777293D01*
X1929409D01*
X1920678Y3768562D01*
Y3751101D01*
X1929409Y3742371D01*
X1955600D01*
X1938139D02*
X1920678Y3724910D01*
X1903217D02*
X1885756D01*
X1894487D01*
Y3777293D01*
X1903217Y3768562D01*
X1859565Y3724910D02*
X1842104D01*
X1850834D01*
Y3777293D01*
X1859565Y3768562D01*
X1780990D02*
X1789721Y3777293D01*
X1807182D01*
X1815912Y3768562D01*
Y3733640D01*
X1807182Y3724910D01*
X1789721D01*
X1780990Y3733640D01*
X1155600Y3724910D02*
Y3777293D01*
X1129408D01*
X1120678Y3768562D01*
Y3751101D01*
X1129408Y3742371D01*
X1155600D01*
X1138139D02*
X1120678Y3724910D01*
X1103217D02*
X1085756D01*
X1094487D01*
Y3777293D01*
X1103217Y3768562D01*
X1059565Y3724910D02*
X1042104D01*
X1050834D01*
Y3777293D01*
X1059565Y3768562D01*
X1015912Y3777293D02*
Y3724910D01*
X989721D01*
X980990Y3733640D01*
Y3742371D01*
X989721Y3751101D01*
X1015912D01*
X989721D01*
X980990Y3759832D01*
Y3768562D01*
X989721Y3777293D01*
X1015912D01*
X5961380Y4274820D02*
Y4327203D01*
X5935189D01*
X5926458Y4318472D01*
Y4301011D01*
X5935189Y4292281D01*
X5961380D01*
X5943919D02*
X5926458Y4274820D01*
X5908997D02*
X5891536D01*
X5900267D01*
Y4327203D01*
X5908997Y4318472D01*
X5865345D02*
X5856614Y4327203D01*
X5839153D01*
X5830423Y4318472D01*
Y4283550D01*
X5839153Y4274820D01*
X5856614D01*
X5865345Y4283550D01*
Y4318472D01*
X5812962Y4327203D02*
Y4274820D01*
Y4301011D01*
X5778040D01*
Y4327203D01*
Y4274820D01*
X5161280D02*
Y4327203D01*
X5135089D01*
X5126358Y4318472D01*
Y4301011D01*
X5135089Y4292281D01*
X5161280D01*
X5143819D02*
X5126358Y4274820D01*
X5108897D02*
X5091436D01*
X5100167D01*
Y4327203D01*
X5108897Y4318472D01*
X5065245D02*
X5056514Y4327203D01*
X5039053D01*
X5030323Y4318472D01*
Y4283550D01*
X5039053Y4274820D01*
X5056514D01*
X5065245Y4283550D01*
Y4318472D01*
X4977940D02*
X4986670Y4327203D01*
X5004131D01*
X5012862Y4318472D01*
Y4283550D01*
X5004131Y4274820D01*
X4986670D01*
X4977940Y4283550D01*
Y4301011D01*
X4995401D01*
X4361180Y4274820D02*
Y4327203D01*
X4334989D01*
X4326258Y4318472D01*
Y4301011D01*
X4334989Y4292281D01*
X4361180D01*
X4343719D02*
X4326258Y4274820D01*
X4308797D02*
X4291336D01*
X4300067D01*
Y4327203D01*
X4308797Y4318472D01*
X4265145D02*
X4256414Y4327203D01*
X4238953D01*
X4230223Y4318472D01*
Y4283550D01*
X4238953Y4274820D01*
X4256414D01*
X4265145Y4283550D01*
Y4318472D01*
X4177840Y4327203D02*
X4212762D01*
Y4301011D01*
X4195301D01*
X4212762D01*
Y4274820D01*
X3561080D02*
Y4327203D01*
X3534889D01*
X3526158Y4318472D01*
Y4301011D01*
X3534889Y4292281D01*
X3561080D01*
X3543619D02*
X3526158Y4274820D01*
X3508697D02*
X3491236D01*
X3499967D01*
Y4327203D01*
X3508697Y4318472D01*
X3465045D02*
X3456314Y4327203D01*
X3438853D01*
X3430123Y4318472D01*
Y4283550D01*
X3438853Y4274820D01*
X3456314D01*
X3465045Y4283550D01*
Y4318472D01*
X3377740Y4327203D02*
X3412662D01*
Y4274820D01*
X3377740D01*
X3412662Y4301011D02*
X3395201D01*
X2760980Y4274820D02*
Y4327203D01*
X2734789D01*
X2726058Y4318472D01*
Y4301011D01*
X2734789Y4292281D01*
X2760980D01*
X2743519D02*
X2726058Y4274820D01*
X2708597D02*
X2691136D01*
X2699867D01*
Y4327203D01*
X2708597Y4318472D01*
X2664945D02*
X2656214Y4327203D01*
X2638753D01*
X2630023Y4318472D01*
Y4283550D01*
X2638753Y4274820D01*
X2656214D01*
X2664945Y4283550D01*
Y4318472D01*
X2612562Y4327203D02*
Y4274820D01*
X2586370D01*
X2577640Y4283550D01*
Y4318472D01*
X2586370Y4327203D01*
X2612562D01*
X1960880Y4274820D02*
Y4327203D01*
X1934689D01*
X1925958Y4318472D01*
Y4301011D01*
X1934689Y4292281D01*
X1960880D01*
X1943419D02*
X1925958Y4274820D01*
X1908497D02*
X1891036D01*
X1899767D01*
Y4327203D01*
X1908497Y4318472D01*
X1864845D02*
X1856114Y4327203D01*
X1838653D01*
X1829923Y4318472D01*
Y4283550D01*
X1838653Y4274820D01*
X1856114D01*
X1864845Y4283550D01*
Y4318472D01*
X1777540D02*
X1786270Y4327203D01*
X1803731D01*
X1812462Y4318472D01*
Y4283550D01*
X1803731Y4274820D01*
X1786270D01*
X1777540Y4283550D01*
X1160780Y4274820D02*
Y4327203D01*
X1134589D01*
X1125858Y4318472D01*
Y4301011D01*
X1134589Y4292281D01*
X1160780D01*
X1143319D02*
X1125858Y4274820D01*
X1108397D02*
X1090936D01*
X1099667D01*
Y4327203D01*
X1108397Y4318472D01*
X1064745D02*
X1056014Y4327203D01*
X1038553D01*
X1029823Y4318472D01*
Y4283550D01*
X1038553Y4274820D01*
X1056014D01*
X1064745Y4283550D01*
Y4318472D01*
X1012362Y4327203D02*
Y4274820D01*
X986170D01*
X977440Y4283550D01*
Y4292281D01*
X986170Y4301011D01*
X1012362D01*
X986170D01*
X977440Y4309742D01*
Y4318472D01*
X986170Y4327203D01*
X1012362D01*
X6423598Y469102D02*
X6432329Y477833D01*
X6449789D01*
X6458520Y469102D01*
Y434180D01*
X6449789Y425450D01*
X6432329D01*
X6423598Y434180D01*
X6371215Y425450D02*
X6406137D01*
X6371215Y460372D01*
Y469102D01*
X6379946Y477833D01*
X6397407D01*
X6406137Y469102D01*
X6318832Y477833D02*
X6336293Y469102D01*
X6353754Y451641D01*
Y434180D01*
X6345024Y425450D01*
X6327563D01*
X6318832Y434180D01*
Y442911D01*
X6327563Y451641D01*
X6353754D01*
X6301371Y477833D02*
Y425450D01*
Y451641D01*
X6266449D01*
Y477833D01*
Y425450D01*
X5623598Y469102D02*
X5632329Y477833D01*
X5649790D01*
X5658520Y469102D01*
Y434180D01*
X5649790Y425450D01*
X5632329D01*
X5623598Y434180D01*
X5571215Y425450D02*
X5606137D01*
X5571215Y460372D01*
Y469102D01*
X5579946Y477833D01*
X5597407D01*
X5606137Y469102D01*
X5518832Y477833D02*
X5536293Y469102D01*
X5553754Y451641D01*
Y434180D01*
X5545024Y425450D01*
X5527563D01*
X5518832Y434180D01*
Y442911D01*
X5527563Y451641D01*
X5553754D01*
X5466449Y469102D02*
X5475180Y477833D01*
X5492641D01*
X5501371Y469102D01*
Y434180D01*
X5492641Y425450D01*
X5475180D01*
X5466449Y434180D01*
Y451641D01*
X5483910D01*
X4823598Y469102D02*
X4832329Y477833D01*
X4849790D01*
X4858520Y469102D01*
Y434180D01*
X4849790Y425450D01*
X4832329D01*
X4823598Y434180D01*
X4771215Y425450D02*
X4806137D01*
X4771215Y460372D01*
Y469102D01*
X4779946Y477833D01*
X4797407D01*
X4806137Y469102D01*
X4718832Y477833D02*
X4736293Y469102D01*
X4753754Y451641D01*
Y434180D01*
X4745024Y425450D01*
X4727563D01*
X4718832Y434180D01*
Y442911D01*
X4727563Y451641D01*
X4753754D01*
X4666449Y477833D02*
X4701371D01*
Y451641D01*
X4683910D01*
X4701371D01*
Y425450D01*
X4023598Y469102D02*
X4032328Y477833D01*
X4049789D01*
X4058520Y469102D01*
Y434180D01*
X4049789Y425450D01*
X4032328D01*
X4023598Y434180D01*
X3971215Y425450D02*
X4006137D01*
X3971215Y460372D01*
Y469102D01*
X3979946Y477833D01*
X3997407D01*
X4006137Y469102D01*
X3918832Y477833D02*
X3936293Y469102D01*
X3953754Y451641D01*
Y434180D01*
X3945024Y425450D01*
X3927563D01*
X3918832Y434180D01*
Y442911D01*
X3927563Y451641D01*
X3953754D01*
X3866449Y477833D02*
X3901371D01*
Y425450D01*
X3866449D01*
X3901371Y451641D02*
X3883910D01*
X3223598Y469102D02*
X3232329Y477833D01*
X3249790D01*
X3258520Y469102D01*
Y434180D01*
X3249790Y425450D01*
X3232329D01*
X3223598Y434180D01*
X3171215Y425450D02*
X3206137D01*
X3171215Y460372D01*
Y469102D01*
X3179946Y477833D01*
X3197407D01*
X3206137Y469102D01*
X3118832Y477833D02*
X3136293Y469102D01*
X3153754Y451641D01*
Y434180D01*
X3145024Y425450D01*
X3127563D01*
X3118832Y434180D01*
Y442911D01*
X3127563Y451641D01*
X3153754D01*
X3101371Y477833D02*
Y425450D01*
X3075180D01*
X3066449Y434180D01*
Y469102D01*
X3075180Y477833D01*
X3101371D01*
X2423598Y469102D02*
X2432329Y477833D01*
X2449790D01*
X2458520Y469102D01*
Y434180D01*
X2449790Y425450D01*
X2432329D01*
X2423598Y434180D01*
X2371215Y425450D02*
X2406137D01*
X2371215Y460372D01*
Y469102D01*
X2379946Y477833D01*
X2397407D01*
X2406137Y469102D01*
X2318832Y477833D02*
X2336293Y469102D01*
X2353754Y451641D01*
Y434180D01*
X2345024Y425450D01*
X2327563D01*
X2318832Y434180D01*
Y442911D01*
X2327563Y451641D01*
X2353754D01*
X2266449Y469102D02*
X2275180Y477833D01*
X2292641D01*
X2301371Y469102D01*
Y434180D01*
X2292641Y425450D01*
X2275180D01*
X2266449Y434180D01*
X1623598Y469102D02*
X1632328Y477833D01*
X1649789D01*
X1658520Y469102D01*
Y434180D01*
X1649789Y425450D01*
X1632328D01*
X1623598Y434180D01*
X1571215Y425450D02*
X1606137D01*
X1571215Y460372D01*
Y469102D01*
X1579946Y477833D01*
X1597407D01*
X1606137Y469102D01*
X1518832Y477833D02*
X1536293Y469102D01*
X1553754Y451641D01*
Y434180D01*
X1545024Y425450D01*
X1527563D01*
X1518832Y434180D01*
Y442911D01*
X1527563Y451641D01*
X1553754D01*
X1501371Y477833D02*
Y425450D01*
X1475180D01*
X1466449Y434180D01*
Y442911D01*
X1475180Y451641D01*
X1501371D01*
X1475180D01*
X1466449Y460372D01*
Y469102D01*
X1475180Y477833D01*
X1501371D01*
X6423598Y1017742D02*
X6432329Y1026473D01*
X6449789D01*
X6458520Y1017742D01*
Y982820D01*
X6449789Y974090D01*
X6432329D01*
X6423598Y982820D01*
X6371215Y974090D02*
X6406137D01*
X6371215Y1009012D01*
Y1017742D01*
X6379946Y1026473D01*
X6397407D01*
X6406137Y1017742D01*
X6318832Y1026473D02*
X6353754D01*
Y1000281D01*
X6336293Y1009012D01*
X6327563D01*
X6318832Y1000281D01*
Y982820D01*
X6327563Y974090D01*
X6345024D01*
X6353754Y982820D01*
X6301371Y1026473D02*
Y974090D01*
Y1000281D01*
X6266449D01*
Y1026473D01*
Y974090D01*
X5623598Y1017742D02*
X5632329Y1026473D01*
X5649790D01*
X5658520Y1017742D01*
Y982820D01*
X5649790Y974090D01*
X5632329D01*
X5623598Y982820D01*
X5571215Y974090D02*
X5606137D01*
X5571215Y1009012D01*
Y1017742D01*
X5579946Y1026473D01*
X5597407D01*
X5606137Y1017742D01*
X5518832Y1026473D02*
X5553754D01*
Y1000281D01*
X5536293Y1009012D01*
X5527563D01*
X5518832Y1000281D01*
Y982820D01*
X5527563Y974090D01*
X5545024D01*
X5553754Y982820D01*
X5466449Y1017742D02*
X5475180Y1026473D01*
X5492641D01*
X5501371Y1017742D01*
Y982820D01*
X5492641Y974090D01*
X5475180D01*
X5466449Y982820D01*
Y1000281D01*
X5483910D01*
X4823598Y1017742D02*
X4832329Y1026473D01*
X4849790D01*
X4858520Y1017742D01*
Y982820D01*
X4849790Y974090D01*
X4832329D01*
X4823598Y982820D01*
X4771215Y974090D02*
X4806137D01*
X4771215Y1009012D01*
Y1017742D01*
X4779946Y1026473D01*
X4797407D01*
X4806137Y1017742D01*
X4718832Y1026473D02*
X4753754D01*
Y1000281D01*
X4736293Y1009012D01*
X4727563D01*
X4718832Y1000281D01*
Y982820D01*
X4727563Y974090D01*
X4745024D01*
X4753754Y982820D01*
X4666449Y1026473D02*
X4701371D01*
Y1000281D01*
X4683910D01*
X4701371D01*
Y974090D01*
X4023598Y1017742D02*
X4032328Y1026473D01*
X4049789D01*
X4058520Y1017742D01*
Y982820D01*
X4049789Y974090D01*
X4032328D01*
X4023598Y982820D01*
X3971215Y974090D02*
X4006137D01*
X3971215Y1009012D01*
Y1017742D01*
X3979946Y1026473D01*
X3997407D01*
X4006137Y1017742D01*
X3918832Y1026473D02*
X3953754D01*
Y1000281D01*
X3936293Y1009012D01*
X3927563D01*
X3918832Y1000281D01*
Y982820D01*
X3927563Y974090D01*
X3945024D01*
X3953754Y982820D01*
X3866449Y1026473D02*
X3901371D01*
Y974090D01*
X3866449D01*
X3901371Y1000281D02*
X3883910D01*
X3223598Y1017742D02*
X3232329Y1026473D01*
X3249790D01*
X3258520Y1017742D01*
Y982820D01*
X3249790Y974090D01*
X3232329D01*
X3223598Y982820D01*
X3171215Y974090D02*
X3206137D01*
X3171215Y1009012D01*
Y1017742D01*
X3179946Y1026473D01*
X3197407D01*
X3206137Y1017742D01*
X3118832Y1026473D02*
X3153754D01*
Y1000281D01*
X3136293Y1009012D01*
X3127563D01*
X3118832Y1000281D01*
Y982820D01*
X3127563Y974090D01*
X3145024D01*
X3153754Y982820D01*
X3101371Y1026473D02*
Y974090D01*
X3075180D01*
X3066449Y982820D01*
Y1017742D01*
X3075180Y1026473D01*
X3101371D01*
X2423598Y1017742D02*
X2432329Y1026473D01*
X2449790D01*
X2458520Y1017742D01*
Y982820D01*
X2449790Y974090D01*
X2432329D01*
X2423598Y982820D01*
X2371215Y974090D02*
X2406137D01*
X2371215Y1009012D01*
Y1017742D01*
X2379946Y1026473D01*
X2397407D01*
X2406137Y1017742D01*
X2318832Y1026473D02*
X2353754D01*
Y1000281D01*
X2336293Y1009012D01*
X2327563D01*
X2318832Y1000281D01*
Y982820D01*
X2327563Y974090D01*
X2345024D01*
X2353754Y982820D01*
X2266449Y1017742D02*
X2275180Y1026473D01*
X2292641D01*
X2301371Y1017742D01*
Y982820D01*
X2292641Y974090D01*
X2275180D01*
X2266449Y982820D01*
X1623598Y1017742D02*
X1632328Y1026473D01*
X1649789D01*
X1658520Y1017742D01*
Y982820D01*
X1649789Y974090D01*
X1632328D01*
X1623598Y982820D01*
X1571215Y974090D02*
X1606137D01*
X1571215Y1009012D01*
Y1017742D01*
X1579946Y1026473D01*
X1597407D01*
X1606137Y1017742D01*
X1518832Y1026473D02*
X1553754D01*
Y1000281D01*
X1536293Y1009012D01*
X1527563D01*
X1518832Y1000281D01*
Y982820D01*
X1527563Y974090D01*
X1545024D01*
X1553754Y982820D01*
X1501371Y1026473D02*
Y974090D01*
X1475180D01*
X1466449Y982820D01*
Y991551D01*
X1475180Y1000281D01*
X1501371D01*
X1475180D01*
X1466449Y1009012D01*
Y1017742D01*
X1475180Y1026473D01*
X1501371D01*
X6423598Y1568922D02*
X6432329Y1577653D01*
X6449789D01*
X6458520Y1568922D01*
Y1534000D01*
X6449789Y1525270D01*
X6432329D01*
X6423598Y1534000D01*
X6371215Y1525270D02*
X6406137D01*
X6371215Y1560192D01*
Y1568922D01*
X6379946Y1577653D01*
X6397407D01*
X6406137Y1568922D01*
X6327563Y1525270D02*
Y1577653D01*
X6353754Y1551461D01*
X6318832D01*
X6301371Y1577653D02*
Y1525270D01*
Y1551461D01*
X6266449D01*
Y1577653D01*
Y1525270D01*
X5623598Y1568922D02*
X5632329Y1577653D01*
X5649790D01*
X5658520Y1568922D01*
Y1534000D01*
X5649790Y1525270D01*
X5632329D01*
X5623598Y1534000D01*
X5571215Y1525270D02*
X5606137D01*
X5571215Y1560192D01*
Y1568922D01*
X5579946Y1577653D01*
X5597407D01*
X5606137Y1568922D01*
X5527563Y1525270D02*
Y1577653D01*
X5553754Y1551461D01*
X5518832D01*
X5466449Y1568922D02*
X5475180Y1577653D01*
X5492641D01*
X5501371Y1568922D01*
Y1534000D01*
X5492641Y1525270D01*
X5475180D01*
X5466449Y1534000D01*
Y1551461D01*
X5483910D01*
X4823598Y1568922D02*
X4832329Y1577653D01*
X4849790D01*
X4858520Y1568922D01*
Y1534000D01*
X4849790Y1525270D01*
X4832329D01*
X4823598Y1534000D01*
X4771215Y1525270D02*
X4806137D01*
X4771215Y1560192D01*
Y1568922D01*
X4779946Y1577653D01*
X4797407D01*
X4806137Y1568922D01*
X4727563Y1525270D02*
Y1577653D01*
X4753754Y1551461D01*
X4718832D01*
X4666449Y1577653D02*
X4701371D01*
Y1551461D01*
X4683910D01*
X4701371D01*
Y1525270D01*
X4023598Y1568922D02*
X4032328Y1577653D01*
X4049789D01*
X4058520Y1568922D01*
Y1534000D01*
X4049789Y1525270D01*
X4032328D01*
X4023598Y1534000D01*
X3971215Y1525270D02*
X4006137D01*
X3971215Y1560192D01*
Y1568922D01*
X3979946Y1577653D01*
X3997407D01*
X4006137Y1568922D01*
X3927563Y1525270D02*
Y1577653D01*
X3953754Y1551461D01*
X3918832D01*
X3866449Y1577653D02*
X3901371D01*
Y1525270D01*
X3866449D01*
X3901371Y1551461D02*
X3883910D01*
X3223598Y1568922D02*
X3232329Y1577653D01*
X3249790D01*
X3258520Y1568922D01*
Y1534000D01*
X3249790Y1525270D01*
X3232329D01*
X3223598Y1534000D01*
X3171215Y1525270D02*
X3206137D01*
X3171215Y1560192D01*
Y1568922D01*
X3179946Y1577653D01*
X3197407D01*
X3206137Y1568922D01*
X3127563Y1525270D02*
Y1577653D01*
X3153754Y1551461D01*
X3118832D01*
X3101371Y1577653D02*
Y1525270D01*
X3075180D01*
X3066449Y1534000D01*
Y1568922D01*
X3075180Y1577653D01*
X3101371D01*
X2423598Y1568922D02*
X2432329Y1577653D01*
X2449790D01*
X2458520Y1568922D01*
Y1534000D01*
X2449790Y1525270D01*
X2432329D01*
X2423598Y1534000D01*
X2371215Y1525270D02*
X2406137D01*
X2371215Y1560192D01*
Y1568922D01*
X2379946Y1577653D01*
X2397407D01*
X2406137Y1568922D01*
X2327563Y1525270D02*
Y1577653D01*
X2353754Y1551461D01*
X2318832D01*
X2266449Y1568922D02*
X2275180Y1577653D01*
X2292641D01*
X2301371Y1568922D01*
Y1534000D01*
X2292641Y1525270D01*
X2275180D01*
X2266449Y1534000D01*
X1623598Y1568922D02*
X1632328Y1577653D01*
X1649789D01*
X1658520Y1568922D01*
Y1534000D01*
X1649789Y1525270D01*
X1632328D01*
X1623598Y1534000D01*
X1571215Y1525270D02*
X1606137D01*
X1571215Y1560192D01*
Y1568922D01*
X1579946Y1577653D01*
X1597407D01*
X1606137Y1568922D01*
X1527563Y1525270D02*
Y1577653D01*
X1553754Y1551461D01*
X1518832D01*
X1501371Y1577653D02*
Y1525270D01*
X1475180D01*
X1466449Y1534000D01*
Y1542731D01*
X1475180Y1551461D01*
X1501371D01*
X1475180D01*
X1466449Y1560192D01*
Y1568922D01*
X1475180Y1577653D01*
X1501371D01*
X6423598Y2117562D02*
X6432329Y2126293D01*
X6449789D01*
X6458520Y2117562D01*
Y2082640D01*
X6449789Y2073910D01*
X6432329D01*
X6423598Y2082640D01*
X6371215Y2073910D02*
X6406137D01*
X6371215Y2108832D01*
Y2117562D01*
X6379946Y2126293D01*
X6397407D01*
X6406137Y2117562D01*
X6353754D02*
X6345024Y2126293D01*
X6327563D01*
X6318832Y2117562D01*
Y2108832D01*
X6327563Y2100101D01*
X6336293D01*
X6327563D01*
X6318832Y2091371D01*
Y2082640D01*
X6327563Y2073910D01*
X6345024D01*
X6353754Y2082640D01*
X6301371Y2126293D02*
Y2073910D01*
Y2100101D01*
X6266449D01*
Y2126293D01*
Y2073910D01*
X5623598Y2117562D02*
X5632329Y2126293D01*
X5649790D01*
X5658520Y2117562D01*
Y2082640D01*
X5649790Y2073910D01*
X5632329D01*
X5623598Y2082640D01*
X5571215Y2073910D02*
X5606137D01*
X5571215Y2108832D01*
Y2117562D01*
X5579946Y2126293D01*
X5597407D01*
X5606137Y2117562D01*
X5553754D02*
X5545024Y2126293D01*
X5527563D01*
X5518832Y2117562D01*
Y2108832D01*
X5527563Y2100101D01*
X5536293D01*
X5527563D01*
X5518832Y2091371D01*
Y2082640D01*
X5527563Y2073910D01*
X5545024D01*
X5553754Y2082640D01*
X5466449Y2117562D02*
X5475180Y2126293D01*
X5492641D01*
X5501371Y2117562D01*
Y2082640D01*
X5492641Y2073910D01*
X5475180D01*
X5466449Y2082640D01*
Y2100101D01*
X5483910D01*
X4823598Y2117562D02*
X4832329Y2126293D01*
X4849790D01*
X4858520Y2117562D01*
Y2082640D01*
X4849790Y2073910D01*
X4832329D01*
X4823598Y2082640D01*
X4771215Y2073910D02*
X4806137D01*
X4771215Y2108832D01*
Y2117562D01*
X4779946Y2126293D01*
X4797407D01*
X4806137Y2117562D01*
X4753754D02*
X4745024Y2126293D01*
X4727563D01*
X4718832Y2117562D01*
Y2108832D01*
X4727563Y2100101D01*
X4736293D01*
X4727563D01*
X4718832Y2091371D01*
Y2082640D01*
X4727563Y2073910D01*
X4745024D01*
X4753754Y2082640D01*
X4666449Y2126293D02*
X4701371D01*
Y2100101D01*
X4683910D01*
X4701371D01*
Y2073910D01*
X4023598Y2117562D02*
X4032328Y2126293D01*
X4049789D01*
X4058520Y2117562D01*
Y2082640D01*
X4049789Y2073910D01*
X4032328D01*
X4023598Y2082640D01*
X3971215Y2073910D02*
X4006137D01*
X3971215Y2108832D01*
Y2117562D01*
X3979946Y2126293D01*
X3997407D01*
X4006137Y2117562D01*
X3953754D02*
X3945024Y2126293D01*
X3927563D01*
X3918832Y2117562D01*
Y2108832D01*
X3927563Y2100101D01*
X3936293D01*
X3927563D01*
X3918832Y2091371D01*
Y2082640D01*
X3927563Y2073910D01*
X3945024D01*
X3953754Y2082640D01*
X3866449Y2126293D02*
X3901371D01*
Y2073910D01*
X3866449D01*
X3901371Y2100101D02*
X3883910D01*
X3223598Y2117562D02*
X3232329Y2126293D01*
X3249790D01*
X3258520Y2117562D01*
Y2082640D01*
X3249790Y2073910D01*
X3232329D01*
X3223598Y2082640D01*
X3171215Y2073910D02*
X3206137D01*
X3171215Y2108832D01*
Y2117562D01*
X3179946Y2126293D01*
X3197407D01*
X3206137Y2117562D01*
X3153754D02*
X3145024Y2126293D01*
X3127563D01*
X3118832Y2117562D01*
Y2108832D01*
X3127563Y2100101D01*
X3136293D01*
X3127563D01*
X3118832Y2091371D01*
Y2082640D01*
X3127563Y2073910D01*
X3145024D01*
X3153754Y2082640D01*
X3101371Y2126293D02*
Y2073910D01*
X3075180D01*
X3066449Y2082640D01*
Y2117562D01*
X3075180Y2126293D01*
X3101371D01*
X2423598Y2117562D02*
X2432329Y2126293D01*
X2449790D01*
X2458520Y2117562D01*
Y2082640D01*
X2449790Y2073910D01*
X2432329D01*
X2423598Y2082640D01*
X2371215Y2073910D02*
X2406137D01*
X2371215Y2108832D01*
Y2117562D01*
X2379946Y2126293D01*
X2397407D01*
X2406137Y2117562D01*
X2353754D02*
X2345024Y2126293D01*
X2327563D01*
X2318832Y2117562D01*
Y2108832D01*
X2327563Y2100101D01*
X2336293D01*
X2327563D01*
X2318832Y2091371D01*
Y2082640D01*
X2327563Y2073910D01*
X2345024D01*
X2353754Y2082640D01*
X2266449Y2117562D02*
X2275180Y2126293D01*
X2292641D01*
X2301371Y2117562D01*
Y2082640D01*
X2292641Y2073910D01*
X2275180D01*
X2266449Y2082640D01*
X1623598Y2117562D02*
X1632328Y2126293D01*
X1649789D01*
X1658520Y2117562D01*
Y2082640D01*
X1649789Y2073910D01*
X1632328D01*
X1623598Y2082640D01*
X1571215Y2073910D02*
X1606137D01*
X1571215Y2108832D01*
Y2117562D01*
X1579946Y2126293D01*
X1597407D01*
X1606137Y2117562D01*
X1553754D02*
X1545024Y2126293D01*
X1527563D01*
X1518832Y2117562D01*
Y2108832D01*
X1527563Y2100101D01*
X1536293D01*
X1527563D01*
X1518832Y2091371D01*
Y2082640D01*
X1527563Y2073910D01*
X1545024D01*
X1553754Y2082640D01*
X1501371Y2126293D02*
Y2073910D01*
X1475180D01*
X1466449Y2082640D01*
Y2091371D01*
X1475180Y2100101D01*
X1501371D01*
X1475180D01*
X1466449Y2108832D01*
Y2117562D01*
X1475180Y2126293D01*
X1501371D01*
X6423598Y2668742D02*
X6432329Y2677473D01*
X6449789D01*
X6458520Y2668742D01*
Y2633820D01*
X6449789Y2625090D01*
X6432329D01*
X6423598Y2633820D01*
X6371215Y2625090D02*
X6406137D01*
X6371215Y2660012D01*
Y2668742D01*
X6379946Y2677473D01*
X6397407D01*
X6406137Y2668742D01*
X6318832Y2625090D02*
X6353754D01*
X6318832Y2660012D01*
Y2668742D01*
X6327563Y2677473D01*
X6345024D01*
X6353754Y2668742D01*
X6301371Y2677473D02*
Y2625090D01*
Y2651281D01*
X6266449D01*
Y2677473D01*
Y2625090D01*
X5623598Y2668742D02*
X5632329Y2677473D01*
X5649790D01*
X5658520Y2668742D01*
Y2633820D01*
X5649790Y2625090D01*
X5632329D01*
X5623598Y2633820D01*
X5571215Y2625090D02*
X5606137D01*
X5571215Y2660012D01*
Y2668742D01*
X5579946Y2677473D01*
X5597407D01*
X5606137Y2668742D01*
X5518832Y2625090D02*
X5553754D01*
X5518832Y2660012D01*
Y2668742D01*
X5527563Y2677473D01*
X5545024D01*
X5553754Y2668742D01*
X5466449D02*
X5475180Y2677473D01*
X5492641D01*
X5501371Y2668742D01*
Y2633820D01*
X5492641Y2625090D01*
X5475180D01*
X5466449Y2633820D01*
Y2651281D01*
X5483910D01*
X4823598Y2668742D02*
X4832329Y2677473D01*
X4849790D01*
X4858520Y2668742D01*
Y2633820D01*
X4849790Y2625090D01*
X4832329D01*
X4823598Y2633820D01*
X4771215Y2625090D02*
X4806137D01*
X4771215Y2660012D01*
Y2668742D01*
X4779946Y2677473D01*
X4797407D01*
X4806137Y2668742D01*
X4718832Y2625090D02*
X4753754D01*
X4718832Y2660012D01*
Y2668742D01*
X4727563Y2677473D01*
X4745024D01*
X4753754Y2668742D01*
X4666449Y2677473D02*
X4701371D01*
Y2651281D01*
X4683910D01*
X4701371D01*
Y2625090D01*
X4023598Y2668742D02*
X4032328Y2677473D01*
X4049789D01*
X4058520Y2668742D01*
Y2633820D01*
X4049789Y2625090D01*
X4032328D01*
X4023598Y2633820D01*
X3971215Y2625090D02*
X4006137D01*
X3971215Y2660012D01*
Y2668742D01*
X3979946Y2677473D01*
X3997407D01*
X4006137Y2668742D01*
X3918832Y2625090D02*
X3953754D01*
X3918832Y2660012D01*
Y2668742D01*
X3927563Y2677473D01*
X3945024D01*
X3953754Y2668742D01*
X3866449Y2677473D02*
X3901371D01*
Y2625090D01*
X3866449D01*
X3901371Y2651281D02*
X3883910D01*
X3223598Y2668742D02*
X3232329Y2677473D01*
X3249790D01*
X3258520Y2668742D01*
Y2633820D01*
X3249790Y2625090D01*
X3232329D01*
X3223598Y2633820D01*
X3171215Y2625090D02*
X3206137D01*
X3171215Y2660012D01*
Y2668742D01*
X3179946Y2677473D01*
X3197407D01*
X3206137Y2668742D01*
X3118832Y2625090D02*
X3153754D01*
X3118832Y2660012D01*
Y2668742D01*
X3127563Y2677473D01*
X3145024D01*
X3153754Y2668742D01*
X3101371Y2677473D02*
Y2625090D01*
X3075180D01*
X3066449Y2633820D01*
Y2668742D01*
X3075180Y2677473D01*
X3101371D01*
X2423598Y2668742D02*
X2432329Y2677473D01*
X2449790D01*
X2458520Y2668742D01*
Y2633820D01*
X2449790Y2625090D01*
X2432329D01*
X2423598Y2633820D01*
X2371215Y2625090D02*
X2406137D01*
X2371215Y2660012D01*
Y2668742D01*
X2379946Y2677473D01*
X2397407D01*
X2406137Y2668742D01*
X2318832Y2625090D02*
X2353754D01*
X2318832Y2660012D01*
Y2668742D01*
X2327563Y2677473D01*
X2345024D01*
X2353754Y2668742D01*
X2266449D02*
X2275180Y2677473D01*
X2292641D01*
X2301371Y2668742D01*
Y2633820D01*
X2292641Y2625090D01*
X2275180D01*
X2266449Y2633820D01*
X1623598Y2668742D02*
X1632328Y2677473D01*
X1649789D01*
X1658520Y2668742D01*
Y2633820D01*
X1649789Y2625090D01*
X1632328D01*
X1623598Y2633820D01*
X1571215Y2625090D02*
X1606137D01*
X1571215Y2660012D01*
Y2668742D01*
X1579946Y2677473D01*
X1597407D01*
X1606137Y2668742D01*
X1518832Y2625090D02*
X1553754D01*
X1518832Y2660012D01*
Y2668742D01*
X1527563Y2677473D01*
X1545024D01*
X1553754Y2668742D01*
X1501371Y2677473D02*
Y2625090D01*
X1475180D01*
X1466449Y2633820D01*
Y2642551D01*
X1475180Y2651281D01*
X1501371D01*
X1475180D01*
X1466449Y2660012D01*
Y2668742D01*
X1475180Y2677473D01*
X1501371D01*
X6418518Y3219922D02*
X6427249Y3228653D01*
X6444709D01*
X6453440Y3219922D01*
Y3185000D01*
X6444709Y3176270D01*
X6427249D01*
X6418518Y3185000D01*
X6366135Y3176270D02*
X6401057D01*
X6366135Y3211192D01*
Y3219922D01*
X6374866Y3228653D01*
X6392327D01*
X6401057Y3219922D01*
X6348674Y3176270D02*
X6331213D01*
X6339944D01*
Y3228653D01*
X6348674Y3219922D01*
X6305022Y3228653D02*
Y3176270D01*
Y3202461D01*
X6270100D01*
Y3228653D01*
Y3176270D01*
X5618518Y3219922D02*
X5627249Y3228653D01*
X5644710D01*
X5653440Y3219922D01*
Y3185000D01*
X5644710Y3176270D01*
X5627249D01*
X5618518Y3185000D01*
X5566135Y3176270D02*
X5601057D01*
X5566135Y3211192D01*
Y3219922D01*
X5574866Y3228653D01*
X5592327D01*
X5601057Y3219922D01*
X5548674Y3176270D02*
X5531213D01*
X5539944D01*
Y3228653D01*
X5548674Y3219922D01*
X5470100D02*
X5478830Y3228653D01*
X5496291D01*
X5505022Y3219922D01*
Y3185000D01*
X5496291Y3176270D01*
X5478830D01*
X5470100Y3185000D01*
Y3202461D01*
X5487561D01*
X4818518Y3219922D02*
X4827249Y3228653D01*
X4844710D01*
X4853440Y3219922D01*
Y3185000D01*
X4844710Y3176270D01*
X4827249D01*
X4818518Y3185000D01*
X4766135Y3176270D02*
X4801057D01*
X4766135Y3211192D01*
Y3219922D01*
X4774866Y3228653D01*
X4792327D01*
X4801057Y3219922D01*
X4748674Y3176270D02*
X4731213D01*
X4739944D01*
Y3228653D01*
X4748674Y3219922D01*
X4670100Y3228653D02*
X4705022D01*
Y3202461D01*
X4687561D01*
X4705022D01*
Y3176270D01*
X4018518Y3219922D02*
X4027248Y3228653D01*
X4044709D01*
X4053440Y3219922D01*
Y3185000D01*
X4044709Y3176270D01*
X4027248D01*
X4018518Y3185000D01*
X3966135Y3176270D02*
X4001057D01*
X3966135Y3211192D01*
Y3219922D01*
X3974866Y3228653D01*
X3992327D01*
X4001057Y3219922D01*
X3948674Y3176270D02*
X3931213D01*
X3939944D01*
Y3228653D01*
X3948674Y3219922D01*
X3870100Y3228653D02*
X3905022D01*
Y3176270D01*
X3870100D01*
X3905022Y3202461D02*
X3887561D01*
X3218518Y3219922D02*
X3227249Y3228653D01*
X3244710D01*
X3253440Y3219922D01*
Y3185000D01*
X3244710Y3176270D01*
X3227249D01*
X3218518Y3185000D01*
X3166135Y3176270D02*
X3201057D01*
X3166135Y3211192D01*
Y3219922D01*
X3174866Y3228653D01*
X3192327D01*
X3201057Y3219922D01*
X3148674Y3176270D02*
X3131213D01*
X3139944D01*
Y3228653D01*
X3148674Y3219922D01*
X3105022Y3228653D02*
Y3176270D01*
X3078830D01*
X3070100Y3185000D01*
Y3219922D01*
X3078830Y3228653D01*
X3105022D01*
X2418518Y3219922D02*
X2427249Y3228653D01*
X2444710D01*
X2453440Y3219922D01*
Y3185000D01*
X2444710Y3176270D01*
X2427249D01*
X2418518Y3185000D01*
X2366135Y3176270D02*
X2401057D01*
X2366135Y3211192D01*
Y3219922D01*
X2374866Y3228653D01*
X2392327D01*
X2401057Y3219922D01*
X2348674Y3176270D02*
X2331213D01*
X2339944D01*
Y3228653D01*
X2348674Y3219922D01*
X2270100D02*
X2278830Y3228653D01*
X2296291D01*
X2305022Y3219922D01*
Y3185000D01*
X2296291Y3176270D01*
X2278830D01*
X2270100Y3185000D01*
X1618518Y3219922D02*
X1627248Y3228653D01*
X1644709D01*
X1653440Y3219922D01*
Y3185000D01*
X1644709Y3176270D01*
X1627248D01*
X1618518Y3185000D01*
X1566135Y3176270D02*
X1601057D01*
X1566135Y3211192D01*
Y3219922D01*
X1574866Y3228653D01*
X1592327D01*
X1601057Y3219922D01*
X1548674Y3176270D02*
X1531213D01*
X1539944D01*
Y3228653D01*
X1548674Y3219922D01*
X1505022Y3228653D02*
Y3176270D01*
X1478830D01*
X1470100Y3185000D01*
Y3193731D01*
X1478830Y3202461D01*
X1505022D01*
X1478830D01*
X1470100Y3211192D01*
Y3219922D01*
X1478830Y3228653D01*
X1505022D01*
X6423598Y3768562D02*
X6432329Y3777293D01*
X6449789D01*
X6458520Y3768562D01*
Y3733640D01*
X6449789Y3724910D01*
X6432329D01*
X6423598Y3733640D01*
X6371215Y3724910D02*
X6406137D01*
X6371215Y3759832D01*
Y3768562D01*
X6379946Y3777293D01*
X6397407D01*
X6406137Y3768562D01*
X6353754D02*
X6345024Y3777293D01*
X6327563D01*
X6318832Y3768562D01*
Y3733640D01*
X6327563Y3724910D01*
X6345024D01*
X6353754Y3733640D01*
Y3768562D01*
X6301371Y3777293D02*
Y3724910D01*
Y3751101D01*
X6266449D01*
Y3777293D01*
Y3724910D01*
X5623598Y3768562D02*
X5632329Y3777293D01*
X5649790D01*
X5658520Y3768562D01*
Y3733640D01*
X5649790Y3724910D01*
X5632329D01*
X5623598Y3733640D01*
X5571215Y3724910D02*
X5606137D01*
X5571215Y3759832D01*
Y3768562D01*
X5579946Y3777293D01*
X5597407D01*
X5606137Y3768562D01*
X5553754D02*
X5545024Y3777293D01*
X5527563D01*
X5518832Y3768562D01*
Y3733640D01*
X5527563Y3724910D01*
X5545024D01*
X5553754Y3733640D01*
Y3768562D01*
X5466449D02*
X5475180Y3777293D01*
X5492641D01*
X5501371Y3768562D01*
Y3733640D01*
X5492641Y3724910D01*
X5475180D01*
X5466449Y3733640D01*
Y3751101D01*
X5483910D01*
X4823598Y3768562D02*
X4832329Y3777293D01*
X4849790D01*
X4858520Y3768562D01*
Y3733640D01*
X4849790Y3724910D01*
X4832329D01*
X4823598Y3733640D01*
X4771215Y3724910D02*
X4806137D01*
X4771215Y3759832D01*
Y3768562D01*
X4779946Y3777293D01*
X4797407D01*
X4806137Y3768562D01*
X4753754D02*
X4745024Y3777293D01*
X4727563D01*
X4718832Y3768562D01*
Y3733640D01*
X4727563Y3724910D01*
X4745024D01*
X4753754Y3733640D01*
Y3768562D01*
X4666449Y3777293D02*
X4701371D01*
Y3751101D01*
X4683910D01*
X4701371D01*
Y3724910D01*
X4023598Y3768562D02*
X4032328Y3777293D01*
X4049789D01*
X4058520Y3768562D01*
Y3733640D01*
X4049789Y3724910D01*
X4032328D01*
X4023598Y3733640D01*
X3971215Y3724910D02*
X4006137D01*
X3971215Y3759832D01*
Y3768562D01*
X3979946Y3777293D01*
X3997407D01*
X4006137Y3768562D01*
X3953754D02*
X3945024Y3777293D01*
X3927563D01*
X3918832Y3768562D01*
Y3733640D01*
X3927563Y3724910D01*
X3945024D01*
X3953754Y3733640D01*
Y3768562D01*
X3866449Y3777293D02*
X3901371D01*
Y3724910D01*
X3866449D01*
X3901371Y3751101D02*
X3883910D01*
X3223598Y3768562D02*
X3232329Y3777293D01*
X3249790D01*
X3258520Y3768562D01*
Y3733640D01*
X3249790Y3724910D01*
X3232329D01*
X3223598Y3733640D01*
X3171215Y3724910D02*
X3206137D01*
X3171215Y3759832D01*
Y3768562D01*
X3179946Y3777293D01*
X3197407D01*
X3206137Y3768562D01*
X3153754D02*
X3145024Y3777293D01*
X3127563D01*
X3118832Y3768562D01*
Y3733640D01*
X3127563Y3724910D01*
X3145024D01*
X3153754Y3733640D01*
Y3768562D01*
X3101371Y3777293D02*
Y3724910D01*
X3075180D01*
X3066449Y3733640D01*
Y3768562D01*
X3075180Y3777293D01*
X3101371D01*
X2423598Y3768562D02*
X2432329Y3777293D01*
X2449790D01*
X2458520Y3768562D01*
Y3733640D01*
X2449790Y3724910D01*
X2432329D01*
X2423598Y3733640D01*
X2371215Y3724910D02*
X2406137D01*
X2371215Y3759832D01*
Y3768562D01*
X2379946Y3777293D01*
X2397407D01*
X2406137Y3768562D01*
X2353754D02*
X2345024Y3777293D01*
X2327563D01*
X2318832Y3768562D01*
Y3733640D01*
X2327563Y3724910D01*
X2345024D01*
X2353754Y3733640D01*
Y3768562D01*
X2266449D02*
X2275180Y3777293D01*
X2292641D01*
X2301371Y3768562D01*
Y3733640D01*
X2292641Y3724910D01*
X2275180D01*
X2266449Y3733640D01*
X1623598Y3768562D02*
X1632328Y3777293D01*
X1649789D01*
X1658520Y3768562D01*
Y3733640D01*
X1649789Y3724910D01*
X1632328D01*
X1623598Y3733640D01*
X1571215Y3724910D02*
X1606137D01*
X1571215Y3759832D01*
Y3768562D01*
X1579946Y3777293D01*
X1597407D01*
X1606137Y3768562D01*
X1553754D02*
X1545024Y3777293D01*
X1527563D01*
X1518832Y3768562D01*
Y3733640D01*
X1527563Y3724910D01*
X1545024D01*
X1553754Y3733640D01*
Y3768562D01*
X1501371Y3777293D02*
Y3724910D01*
X1475180D01*
X1466449Y3733640D01*
Y3742371D01*
X1475180Y3751101D01*
X1501371D01*
X1475180D01*
X1466449Y3759832D01*
Y3768562D01*
X1475180Y3777293D01*
X1501371D01*
X6418518Y4319742D02*
X6427249Y4328473D01*
X6444709D01*
X6453440Y4319742D01*
Y4284820D01*
X6444709Y4276090D01*
X6427249D01*
X6418518Y4284820D01*
X6401057Y4276090D02*
X6383596D01*
X6392327D01*
Y4328473D01*
X6401057Y4319742D01*
X6357405Y4284820D02*
X6348674Y4276090D01*
X6331213D01*
X6322483Y4284820D01*
Y4319742D01*
X6331213Y4328473D01*
X6348674D01*
X6357405Y4319742D01*
Y4311012D01*
X6348674Y4302281D01*
X6322483D01*
X6305022Y4328473D02*
Y4276090D01*
Y4302281D01*
X6270100D01*
Y4328473D01*
Y4276090D01*
X5618518Y4319742D02*
X5627249Y4328473D01*
X5644710D01*
X5653440Y4319742D01*
Y4284820D01*
X5644710Y4276090D01*
X5627249D01*
X5618518Y4284820D01*
X5601057Y4276090D02*
X5583596D01*
X5592327D01*
Y4328473D01*
X5601057Y4319742D01*
X5557405Y4284820D02*
X5548674Y4276090D01*
X5531213D01*
X5522483Y4284820D01*
Y4319742D01*
X5531213Y4328473D01*
X5548674D01*
X5557405Y4319742D01*
Y4311012D01*
X5548674Y4302281D01*
X5522483D01*
X5470100Y4319742D02*
X5478830Y4328473D01*
X5496291D01*
X5505022Y4319742D01*
Y4284820D01*
X5496291Y4276090D01*
X5478830D01*
X5470100Y4284820D01*
Y4302281D01*
X5487561D01*
X4818518Y4319742D02*
X4827249Y4328473D01*
X4844710D01*
X4853440Y4319742D01*
Y4284820D01*
X4844710Y4276090D01*
X4827249D01*
X4818518Y4284820D01*
X4801057Y4276090D02*
X4783596D01*
X4792327D01*
Y4328473D01*
X4801057Y4319742D01*
X4757405Y4284820D02*
X4748674Y4276090D01*
X4731213D01*
X4722483Y4284820D01*
Y4319742D01*
X4731213Y4328473D01*
X4748674D01*
X4757405Y4319742D01*
Y4311012D01*
X4748674Y4302281D01*
X4722483D01*
X4670100Y4328473D02*
X4705022D01*
Y4302281D01*
X4687561D01*
X4705022D01*
Y4276090D01*
X4018518Y4319742D02*
X4027248Y4328473D01*
X4044709D01*
X4053440Y4319742D01*
Y4284820D01*
X4044709Y4276090D01*
X4027248D01*
X4018518Y4284820D01*
X4001057Y4276090D02*
X3983596D01*
X3992327D01*
Y4328473D01*
X4001057Y4319742D01*
X3957405Y4284820D02*
X3948674Y4276090D01*
X3931213D01*
X3922483Y4284820D01*
Y4319742D01*
X3931213Y4328473D01*
X3948674D01*
X3957405Y4319742D01*
Y4311012D01*
X3948674Y4302281D01*
X3922483D01*
X3870100Y4328473D02*
X3905022D01*
Y4276090D01*
X3870100D01*
X3905022Y4302281D02*
X3887561D01*
X3218518Y4319742D02*
X3227249Y4328473D01*
X3244710D01*
X3253440Y4319742D01*
Y4284820D01*
X3244710Y4276090D01*
X3227249D01*
X3218518Y4284820D01*
X3201057Y4276090D02*
X3183596D01*
X3192327D01*
Y4328473D01*
X3201057Y4319742D01*
X3157405Y4284820D02*
X3148674Y4276090D01*
X3131213D01*
X3122483Y4284820D01*
Y4319742D01*
X3131213Y4328473D01*
X3148674D01*
X3157405Y4319742D01*
Y4311012D01*
X3148674Y4302281D01*
X3122483D01*
X3105022Y4328473D02*
Y4276090D01*
X3078830D01*
X3070100Y4284820D01*
Y4319742D01*
X3078830Y4328473D01*
X3105022D01*
X2418518Y4319742D02*
X2427249Y4328473D01*
X2444710D01*
X2453440Y4319742D01*
Y4284820D01*
X2444710Y4276090D01*
X2427249D01*
X2418518Y4284820D01*
X2401057Y4276090D02*
X2383596D01*
X2392327D01*
Y4328473D01*
X2401057Y4319742D01*
X2357405Y4284820D02*
X2348674Y4276090D01*
X2331213D01*
X2322483Y4284820D01*
Y4319742D01*
X2331213Y4328473D01*
X2348674D01*
X2357405Y4319742D01*
Y4311012D01*
X2348674Y4302281D01*
X2322483D01*
X2270100Y4319742D02*
X2278830Y4328473D01*
X2296291D01*
X2305022Y4319742D01*
Y4284820D01*
X2296291Y4276090D01*
X2278830D01*
X2270100Y4284820D01*
X1618518Y4319742D02*
X1627248Y4328473D01*
X1644709D01*
X1653440Y4319742D01*
Y4284820D01*
X1644709Y4276090D01*
X1627248D01*
X1618518Y4284820D01*
X1601057Y4276090D02*
X1583596D01*
X1592327D01*
Y4328473D01*
X1601057Y4319742D01*
X1557405Y4284820D02*
X1548674Y4276090D01*
X1531213D01*
X1522483Y4284820D01*
Y4319742D01*
X1531213Y4328473D01*
X1548674D01*
X1557405Y4319742D01*
Y4311012D01*
X1548674Y4302281D01*
X1522483D01*
X1505022Y4328473D02*
Y4276090D01*
X1478830D01*
X1470100Y4284820D01*
Y4293551D01*
X1478830Y4302281D01*
X1505022D01*
X1478830D01*
X1470100Y4311012D01*
Y4319742D01*
X1478830Y4328473D01*
X1505022D01*
X5006340Y5696263D02*
X4971418Y5643880D01*
Y5696263D02*
X5006340Y5643880D01*
X4953957Y5696263D02*
X4919035D01*
X4936496D01*
Y5643880D01*
X4866652D02*
X4901574D01*
X4866652Y5678802D01*
Y5687532D01*
X4875383Y5696263D01*
X4892844D01*
X4901574Y5687532D01*
X360680Y2625090D02*
Y2677473D01*
X334489D01*
X325758Y2668742D01*
Y2651281D01*
X334489Y2642551D01*
X360680D01*
X343219D02*
X325758Y2625090D01*
X308297D02*
X290836D01*
X299567D01*
Y2677473D01*
X308297Y2668742D01*
X264645D02*
X255914Y2677473D01*
X238453D01*
X229723Y2668742D01*
Y2660012D01*
X238453Y2651281D01*
X247184D01*
X238453D01*
X229723Y2642551D01*
Y2633820D01*
X238453Y2625090D01*
X255914D01*
X264645Y2633820D01*
X212262Y2625090D02*
Y2660012D01*
X194801Y2677473D01*
X177340Y2660012D01*
Y2625090D01*
Y2651281D01*
X212262D01*
X360680Y3173730D02*
Y3226113D01*
X334489D01*
X325758Y3217382D01*
Y3199921D01*
X334489Y3191191D01*
X360680D01*
X343219D02*
X325758Y3173730D01*
X308297D02*
X290836D01*
X299567D01*
Y3226113D01*
X308297Y3217382D01*
X229723Y3173730D02*
X264645D01*
X229723Y3208652D01*
Y3217382D01*
X238453Y3226113D01*
X255914D01*
X264645Y3217382D01*
X212262Y3173730D02*
Y3208652D01*
X194801Y3226113D01*
X177340Y3208652D01*
Y3173730D01*
Y3199921D01*
X212262D01*
X355600Y3724910D02*
Y3777293D01*
X329409D01*
X320678Y3768562D01*
Y3751101D01*
X329409Y3742371D01*
X355600D01*
X338139D02*
X320678Y3724910D01*
X303217D02*
X285756D01*
X294487D01*
Y3777293D01*
X303217Y3768562D01*
X259565Y3724910D02*
X242104D01*
X250834D01*
Y3777293D01*
X259565Y3768562D01*
X215912Y3724910D02*
Y3759832D01*
X198451Y3777293D01*
X180990Y3759832D01*
Y3724910D01*
Y3751101D01*
X215912D01*
X4582160Y6019800D02*
Y6072183D01*
X4555969D01*
X4547238Y6063452D01*
Y6045991D01*
X4555969Y6037261D01*
X4582160D01*
X4564699D02*
X4547238Y6019800D01*
X4529777D02*
X4512316D01*
X4521047D01*
Y6072183D01*
X4529777Y6063452D01*
X6136640Y6425243D02*
Y6372860D01*
X6101718D01*
X6049335D02*
X6084257D01*
X6049335Y6407782D01*
Y6416512D01*
X6058066Y6425243D01*
X6075527D01*
X6084257Y6416512D01*
X823598Y469102D02*
X832329Y477833D01*
X849790D01*
X858520Y469102D01*
Y434180D01*
X849790Y425450D01*
X832329D01*
X823598Y434180D01*
X771215Y425450D02*
X806137D01*
X771215Y460372D01*
Y469102D01*
X779946Y477833D01*
X797407D01*
X806137Y469102D01*
X718832Y477833D02*
X736293Y469102D01*
X753754Y451641D01*
Y434180D01*
X745024Y425450D01*
X727563D01*
X718832Y434180D01*
Y442911D01*
X727563Y451641D01*
X753754D01*
X701371Y425450D02*
Y460372D01*
X683910Y477833D01*
X666449Y460372D01*
Y425450D01*
Y451641D01*
X701371D01*
X823598Y1017742D02*
X832329Y1026473D01*
X849790D01*
X858520Y1017742D01*
Y982820D01*
X849790Y974090D01*
X832329D01*
X823598Y982820D01*
X771215Y974090D02*
X806137D01*
X771215Y1009012D01*
Y1017742D01*
X779946Y1026473D01*
X797407D01*
X806137Y1017742D01*
X718832Y1026473D02*
X753754D01*
Y1000281D01*
X736293Y1009012D01*
X727563D01*
X718832Y1000281D01*
Y982820D01*
X727563Y974090D01*
X745024D01*
X753754Y982820D01*
X701371Y974090D02*
Y1009012D01*
X683910Y1026473D01*
X666449Y1009012D01*
Y974090D01*
Y1000281D01*
X701371D01*
X823598Y1568922D02*
X832329Y1577653D01*
X849790D01*
X858520Y1568922D01*
Y1534000D01*
X849790Y1525270D01*
X832329D01*
X823598Y1534000D01*
X771215Y1525270D02*
X806137D01*
X771215Y1560192D01*
Y1568922D01*
X779946Y1577653D01*
X797407D01*
X806137Y1568922D01*
X727563Y1525270D02*
Y1577653D01*
X753754Y1551461D01*
X718832D01*
X701371Y1525270D02*
Y1560192D01*
X683910Y1577653D01*
X666449Y1560192D01*
Y1525270D01*
Y1551461D01*
X701371D01*
X823598Y2117562D02*
X832329Y2126293D01*
X849790D01*
X858520Y2117562D01*
Y2082640D01*
X849790Y2073910D01*
X832329D01*
X823598Y2082640D01*
X771215Y2073910D02*
X806137D01*
X771215Y2108832D01*
Y2117562D01*
X779946Y2126293D01*
X797407D01*
X806137Y2117562D01*
X753754D02*
X745024Y2126293D01*
X727563D01*
X718832Y2117562D01*
Y2108832D01*
X727563Y2100101D01*
X736293D01*
X727563D01*
X718832Y2091371D01*
Y2082640D01*
X727563Y2073910D01*
X745024D01*
X753754Y2082640D01*
X701371Y2073910D02*
Y2108832D01*
X683910Y2126293D01*
X666449Y2108832D01*
Y2073910D01*
Y2100101D01*
X701371D01*
X823598Y2668742D02*
X832329Y2677473D01*
X849790D01*
X858520Y2668742D01*
Y2633820D01*
X849790Y2625090D01*
X832329D01*
X823598Y2633820D01*
X771215Y2625090D02*
X806137D01*
X771215Y2660012D01*
Y2668742D01*
X779946Y2677473D01*
X797407D01*
X806137Y2668742D01*
X718832Y2625090D02*
X753754D01*
X718832Y2660012D01*
Y2668742D01*
X727563Y2677473D01*
X745024D01*
X753754Y2668742D01*
X701371Y2625090D02*
Y2660012D01*
X683910Y2677473D01*
X666449Y2660012D01*
Y2625090D01*
Y2651281D01*
X701371D01*
X818518Y3219922D02*
X827249Y3228653D01*
X844710D01*
X853440Y3219922D01*
Y3185000D01*
X844710Y3176270D01*
X827249D01*
X818518Y3185000D01*
X766135Y3176270D02*
X801057D01*
X766135Y3211192D01*
Y3219922D01*
X774866Y3228653D01*
X792327D01*
X801057Y3219922D01*
X748674Y3176270D02*
X731213D01*
X739944D01*
Y3228653D01*
X748674Y3219922D01*
X705022Y3176270D02*
Y3211192D01*
X687561Y3228653D01*
X670100Y3211192D01*
Y3176270D01*
Y3202461D01*
X705022D01*
X823598Y3768562D02*
X832329Y3777293D01*
X849790D01*
X858520Y3768562D01*
Y3733640D01*
X849790Y3724910D01*
X832329D01*
X823598Y3733640D01*
X771215Y3724910D02*
X806137D01*
X771215Y3759832D01*
Y3768562D01*
X779946Y3777293D01*
X797407D01*
X806137Y3768562D01*
X753754D02*
X745024Y3777293D01*
X727563D01*
X718832Y3768562D01*
Y3733640D01*
X727563Y3724910D01*
X745024D01*
X753754Y3733640D01*
Y3768562D01*
X701371Y3724910D02*
Y3759832D01*
X683910Y3777293D01*
X666449Y3759832D01*
Y3724910D01*
Y3751101D01*
X701371D01*
X818518Y4319742D02*
X827249Y4328473D01*
X844710D01*
X853440Y4319742D01*
Y4284820D01*
X844710Y4276090D01*
X827249D01*
X818518Y4284820D01*
X801057Y4276090D02*
X783596D01*
X792327D01*
Y4328473D01*
X801057Y4319742D01*
X757405Y4284820D02*
X748674Y4276090D01*
X731213D01*
X722483Y4284820D01*
Y4319742D01*
X731213Y4328473D01*
X748674D01*
X757405Y4319742D01*
Y4311012D01*
X748674Y4302281D01*
X722483D01*
X705022Y4276090D02*
Y4311012D01*
X687561Y4328473D01*
X670100Y4311012D01*
Y4276090D01*
Y4302281D01*
X705022D01*
X5626738Y6355552D02*
X5635469Y6364283D01*
X5652930D01*
X5661660Y6355552D01*
Y6320630D01*
X5652930Y6311900D01*
X5635469D01*
X5626738Y6320630D01*
X5609277Y6311900D02*
X5591816D01*
X5600547D01*
Y6364283D01*
X5609277Y6355552D01*
X5530703Y6364283D02*
X5548164Y6355552D01*
X5565625Y6338091D01*
Y6320630D01*
X5556894Y6311900D01*
X5539433D01*
X5530703Y6320630D01*
Y6329361D01*
X5539433Y6338091D01*
X5565625D01*
X5578478Y5507192D02*
X5587209Y5515923D01*
X5604670D01*
X5613400Y5507192D01*
Y5472270D01*
X5604670Y5463540D01*
X5587209D01*
X5578478Y5472270D01*
X5561017Y5463540D02*
X5543556D01*
X5552287D01*
Y5515923D01*
X5561017Y5507192D01*
X5482443Y5515923D02*
X5517365D01*
Y5489731D01*
X5499904Y5498462D01*
X5491173D01*
X5482443Y5489731D01*
Y5472270D01*
X5491173Y5463540D01*
X5508634D01*
X5517365Y5472270D01*
X5123818Y6015192D02*
X5132549Y6023923D01*
X5150010D01*
X5158740Y6015192D01*
Y5980270D01*
X5150010Y5971540D01*
X5132549D01*
X5123818Y5980270D01*
X5106357Y5971540D02*
X5088896D01*
X5097627D01*
Y6023923D01*
X5106357Y6015192D01*
X5036513Y5971540D02*
Y6023923D01*
X5062705Y5997731D01*
X5027783D01*
X5964558Y5852632D02*
X5973289Y5861363D01*
X5990750D01*
X5999480Y5852632D01*
Y5817710D01*
X5990750Y5808980D01*
X5973289D01*
X5964558Y5817710D01*
X5947097Y5808980D02*
X5929636D01*
X5938367D01*
Y5861363D01*
X5947097Y5852632D01*
X5903445D02*
X5894714Y5861363D01*
X5877253D01*
X5868523Y5852632D01*
Y5843902D01*
X5877253Y5835171D01*
X5885984D01*
X5877253D01*
X5868523Y5826441D01*
Y5817710D01*
X5877253Y5808980D01*
X5894714D01*
X5903445Y5817710D01*
X4539618Y6312372D02*
X4548349Y6321103D01*
X4565810D01*
X4574540Y6312372D01*
Y6277450D01*
X4565810Y6268720D01*
X4548349D01*
X4539618Y6277450D01*
X4522157Y6268720D02*
X4504696D01*
X4513427D01*
Y6321103D01*
X4522157Y6312372D01*
%TF.MD5,30de0dac5f6f078623946b7cb59859d0*%
M02*
